<svg xmlns="http://www.w3.org/2000/svg" xmlns:xlink="http://www.w3.org/1999/xlink" width="121" height="121" viewBox="0 0 121 121">
  <defs>
    <clipPath id="clip-path">
      <rect id="Rectangle_400938" data-name="Rectangle 400938" width="121" height="121" transform="translate(0 0)" fill="none"/>
    </clipPath>
    <clipPath id="clip-path-2">
      <rect id="Rectangle_401073" data-name="Rectangle 401073" width="92.219" height="41.532" fill="#efb499"/>
    </clipPath>
    <clipPath id="clip-path-3">
      <rect id="Rectangle_404736" data-name="Rectangle 404736" width="53.829" height="69" fill="none"/>
    </clipPath>
  </defs>
  <g id="Group_1102160" data-name="Group 1102160" transform="translate(-739.996 -5846)">
    <g id="Group_1100441" data-name="Group 1100441" transform="translate(352.328 -167)">
      <rect id="Rectangle_401103" data-name="Rectangle 401103" width="121" height="121" transform="translate(387.668 6013)" fill="none"/>
      <g id="Group_1099348" data-name="Group 1099348" transform="translate(387.668 6013)">
        <g id="Group_1099282" data-name="Group 1099282">
          <g id="Group_1099281" data-name="Group 1099281" clip-path="url(#clip-path-2)">
            <path id="Path_873375" data-name="Path 873375" d="M74.8,9.1c-4.139,0-6.28-2.03-8.17-3.821-1.855-1.756-3.452-3.274-6.792-3.274s-4.937,1.517-6.792,3.274C51.161,7.072,49.023,9.1,44.881,9.1s-6.28-2.03-8.169-3.821C34.857,3.525,33.26,2.007,29.92,2.007s-4.937,1.517-6.789,3.274C21.241,7.072,19.1,9.1,14.962,9.1S8.679,7.072,6.789,5.281C4.937,3.525,3.34,2.007,0,2.007V0C4.139,0,6.28,2.033,8.17,3.821c1.855,1.759,3.452,3.274,6.792,3.274S19.9,5.58,21.75,3.824C23.637,2.033,25.781,0,29.92,0s6.283,2.033,8.17,3.821c1.855,1.759,3.452,3.274,6.792,3.274s4.937-1.514,6.792-3.274C53.56,2.033,55.7,0,59.843,0s6.283,2.033,8.17,3.821C69.867,5.58,71.464,7.094,74.8,7.094S79.742,5.58,81.6,3.821C83.483,2.033,85.624,0,89.766,0V2.007c-3.34,0-4.937,1.517-6.792,3.274C81.084,7.072,78.943,9.1,74.8,9.1" transform="translate(2.453 32.43)" fill="#efb499"/>
            <path id="Path_873376" data-name="Path 873376" d="M74.8,9.1c-4.139,0-6.283-2.03-8.17-3.824-1.855-1.756-3.452-3.27-6.792-3.27s-4.937,1.514-6.792,3.27C51.164,7.072,49.023,9.1,44.881,9.1s-6.283-2.03-8.17-3.824c-1.855-1.756-3.452-3.27-6.792-3.27s-4.937,1.517-6.789,3.27C21.241,7.072,19.1,9.1,14.962,9.1S8.679,7.072,6.789,5.278C4.937,3.522,3.34,2.007,0,2.007V0C4.139,0,6.283,2.03,8.17,3.821c1.855,1.759,3.452,3.274,6.792,3.274S19.9,5.58,21.75,3.821C23.637,2.03,25.781,0,29.92,0S36.2,2.03,38.093,3.821c1.852,1.759,3.449,3.274,6.789,3.274s4.937-1.514,6.792-3.274C53.56,2.03,55.7,0,59.843,0s6.283,2.03,8.17,3.821C69.867,5.58,71.464,7.094,74.8,7.094S79.742,5.58,81.6,3.821C83.486,2.03,85.627,0,89.769,0V2.007c-3.34,0-4.94,1.517-6.8,3.27C81.084,7.072,78.943,9.1,74.8,9.1" transform="translate(1.635 21.62)" fill="#efb499"/>
            <path id="Path_873377" data-name="Path 873377" d="M74.8,9.1c-4.139,0-6.283-2.03-8.169-3.824-1.855-1.756-3.452-3.27-6.792-3.27s-4.937,1.514-6.792,3.27C51.164,7.072,49.02,9.1,44.881,9.1s-6.283-2.03-8.17-3.824c-1.855-1.756-3.452-3.27-6.792-3.27s-4.937,1.517-6.789,3.27C21.241,7.072,19.1,9.1,14.962,9.1S8.678,7.072,6.789,5.278C4.937,3.522,3.34,2.007,0,2.007V0C4.139,0,6.283,2.03,8.169,3.821c1.851,1.759,3.452,3.274,6.792,3.274S19.9,5.58,21.75,3.821C23.637,2.03,25.781,0,29.92,0S36.2,2.03,38.093,3.821c1.852,1.759,3.449,3.274,6.789,3.274s4.937-1.514,6.792-3.274C53.56,2.03,55.7,0,59.843,0s6.283,2.03,8.17,3.821C69.867,5.58,71.464,7.094,74.8,7.094S79.742,5.58,81.6,3.821C83.486,2.03,85.624,0,89.769,0V2.007c-3.34,0-4.941,1.517-6.8,3.27C81.084,7.072,78.943,9.1,74.8,9.1" transform="translate(0.818 10.81)" fill="#efb499"/>
            <path id="Path_873378" data-name="Path 873378" d="M74.8,9.1c-4.139,0-6.28-2.03-8.17-3.821-1.855-1.756-3.452-3.27-6.792-3.27s-4.937,1.514-6.789,3.27C51.164,7.069,49.023,9.1,44.881,9.1s-6.28-2.03-8.169-3.821c-1.855-1.756-3.452-3.27-6.792-3.27s-4.937,1.514-6.789,3.267C21.245,7.069,19.1,9.1,14.962,9.1S8.678,7.069,6.789,5.278C4.937,3.522,3.34,2.007,0,2.007V0C4.139,0,6.283,2.03,8.17,3.821c1.855,1.756,3.452,3.27,6.792,3.27S19.9,5.577,21.75,3.821C23.64,2.03,25.781,0,29.92,0s6.28,2.03,8.173,3.821c1.852,1.756,3.449,3.27,6.789,3.27s4.937-1.514,6.792-3.27C53.563,2.03,55.7,0,59.843,0s6.28,2.03,8.17,3.821c1.855,1.756,3.452,3.27,6.792,3.27s4.937-1.514,6.792-3.27C83.486,2.03,85.627,0,89.769,0V2.007c-3.344,0-4.941,1.514-6.8,3.27C81.084,7.069,78.943,9.1,74.8,9.1" transform="translate(0 0.003)" fill="#efb499"/>
          </g>
        </g>
      </g>
      <circle id="Ellipse_11504" data-name="Ellipse 11504" cx="50.5" cy="50.5" r="50.5" transform="translate(402.668 6031)" fill="#ffce73"/>
      <circle id="Ellipse_11503" data-name="Ellipse 11503" cx="52.5" cy="52.5" r="52.5" transform="translate(395.668 6021)" fill="#f3f9ff"/>
    </g>
    <g id="Group_1100444" data-name="Group 1100444" transform="translate(765.938 5871.804)">
      <rect id="Rectangle_401104" data-name="Rectangle 401104" width="68" height="69" transform="translate(0.061 -0.612)" fill="none"/>
      <g id="Group_1102174" data-name="Group 1102174" transform="translate(7.06 -0.612)">
        <g id="Group_1102173" data-name="Group 1102173" clip-path="url(#clip-path-3)">
          <path id="Path_890683" data-name="Path 890683" d="M47.861,151.95H61.32l1.4,7.309c-.316,8.726-11.332,7.29-15.674,6.421L49.783,158H48.031Z" transform="translate(-42.737 -138.026)" fill="#faad58"/>
          <path id="Path_890684" data-name="Path 890684" d="M87.783,330.773l0-2.183,9.17.024,0,2.182a.156.156,0,0,1-.158.157l-8.856-.021a.157.157,0,0,1-.157-.158" transform="translate(-79.739 -298.48)" fill="#e3e4e6"/>
          <path id="Path_890685" data-name="Path 890685" d="M87.838,318.962l9.169.022v.885l-9.17-.023Z" transform="translate(-79.787 -289.734)" fill="#a9a9aa"/>
          <path id="Path_890686" data-name="Path 890686" d="M87.9,296.837l9.17.022,0,.883-9.168-.022Z" transform="translate(-79.848 -269.637)" fill="#a9a9aa"/>
          <path id="Path_890687" data-name="Path 890687" d="M87.86,307.631l0-1.142,9.17.023,0,1.142Z" transform="translate(-79.809 -278.405)" fill="#e3e4e6"/>
          <path id="Path_890688" data-name="Path 890688" d="M87.913,285.511l0-.842a.317.317,0,0,1,.327-.3l8.518.022a.314.314,0,0,1,.326.3l0,.843Z" transform="translate(-79.857 -258.309)" fill="#e3e4e6"/>
          <path id="Path_890689" data-name="Path 890689" d="M95.232,250.648c.87-1.708,1.359-3.407,3.266-3.4l1.321,0c1.9.006,2.371,1.677,3.249,3.42Z" transform="translate(-86.506 -224.589)" fill="#5f5b5c"/>
          <path id="Path_890690" data-name="Path 890690" d="M95.232,277.973l.329-.646,7.179.019.327.647Z" transform="translate(-86.505 -251.915)" fill="#3d3b3c"/>
          <path id="Path_890691" data-name="Path 890691" d="M.013,371.385c.3,6.736,5.358,12.463,12.54,12.481s12.265-5.684,12.6-12.419c.4-7.958-6.443-10.194-8.287-17.295l-8.483-.021C6.527,361.149-.343,363.5.013,371.385" transform="translate(0 -321.681)" fill="#fadb00"/>
          <path id="Path_890692" data-name="Path 890692" d="M132.345,417.217l.935,0-.019,8.212-.937,0Z" transform="translate(-120.199 -378.986)" fill="#fdbb11"/>
          <path id="Path_890693" data-name="Path 890693" d="M129.635,499.759a.715.715,0,1,1,.713.716.714.714,0,0,1-.713-.716" transform="translate(-117.756 -453.317)" fill="#fdbb11"/>
          <path id="Path_890694" data-name="Path 890694" d="M44.608,449.018c1-.518,1.3-1.97,1.576-3.032,1.807-.042,6.267-.031,8.068.02.284,1.109.781,3.969,3.193,3.055a2.063,2.063,0,0,0,1.329-2.834c-.64-.973-2.4-1.013-3.854-1.074-1.056-3.573-1.628-5.517-2.771-9.37l-.838.248c.493,1.659,2.306,7.794,2.689,9.094-1.353-.033-6.231-.043-7.56-.019.457-1.527,1.96-6.52,2.734-9.081l-.836-.253c-.817,2.7-2.4,7.967-2.818,9.357-1.479.053-3.219.091-3.86,1.055-1.011,1.524,1.335,3.667,2.948,2.833m13.435-2.31c.5.763-1,2-1.826,1.565-.573-.3-.838-1.364-1.052-2.216-.043-.161,2.513.1,2.877.652m-15.655-.04c.389-.585,2.121-.616,2.884-.653a.115.115,0,0,1,0,.016c-.284,1.115-.6,2.3-1.433,2.295-1.081,0-1.773-1.163-1.447-1.658" transform="translate(-37.62 -395.841)" fill="#faef6b"/>
          <path id="Path_890695" data-name="Path 890695" d="M115.258,354.185l4.1.01-.018,7.187a.944.944,0,0,1-.945.941l-2.216-.006a.943.943,0,0,1-.941-.945Z" transform="translate(-104.681 -321.73)" fill="#fdbb11"/>
          <path id="Path_890696" data-name="Path 890696" d="M419.567,490.736H406.11l-1.4-7.309c.316-8.726,9.164-7.671,13.506-6.8l-.567,8.064H419.4Z" transform="translate(-367.622 -432.437)" fill="#faad58"/>
          <path id="Path_890697" data-name="Path 890697" d="M289.352,574.463l11.441-11.744-7.24-6.267L282.34,566.841Z" transform="translate(-256.468 -505.463)" fill="#faad58"/>
          <path id="Path_890698" data-name="Path 890698" d="M298.125,594.418l-7.726-6.085-8.059,7.467,7.012,7.622Z" transform="translate(-256.468 -534.423)" fill="#7d3a1b"/>
          <path id="Path_890699" data-name="Path 890699" d="M419.919,349.919l14.481-.028-.05-24.96-14.481.029Z" transform="translate(-381.395 -295.156)" fill="#94c43d"/>
          <path id="Path_890700" data-name="Path 890700" d="M457.014,426.168c2.316,0,4.253,1.408,4.256,3.209,0,1.839-1.976,3.222-4.243,3.226-2.347,0-4.254-1.432-4.257-3.209s1.9-3.221,4.244-3.226" transform="translate(-411.282 -387.117)" fill="#def0ed"/>
          <path id="Path_890701" data-name="Path 890701" d="M432.445,340.783l.035,17.31a2.624,2.624,0,0,1,2.625,2.616l6.952-.013a2.625,2.625,0,0,1,2.615-2.627l-.034-17.313a2.624,2.624,0,0,1-2.626-2.615l-6.952.014a2.624,2.624,0,0,1-2.614,2.627m8.96-1.963a3.31,3.31,0,0,0,2.556,2.545l.032,16.1a3.3,3.3,0,0,0-2.544,2.556l-5.739.012a3.309,3.309,0,0,0-2.554-2.546l-.033-16.1a3.309,3.309,0,0,0,2.545-2.555Z" transform="translate(-392.819 -307.157)" fill="#def0ed"/>
          <path id="Path_890702" data-name="Path 890702" d="M468.936,447.157a1.473,1.473,0,0,0,1.379,1.121,1.5,1.5,0,0,0,1.421-1.345c.005-.037.011-.076.014-.112a.853.853,0,0,1,.777-.8.874.874,0,0,1,.787.909c0,.014,0,.028,0,.041a.99.99,0,0,1-.4.83l.47.466a1.643,1.643,0,0,0,.581-1.118h.241v-.662h-.3a1.476,1.476,0,0,0-1.381-1.123,1.515,1.515,0,0,0-1.433,1.459c0,.039-.016.075-.024.115a.757.757,0,0,1-1.507,0,1.19,1.19,0,0,1-.035-.265,1,1,0,0,1,.4-.831l-.469-.467a1.65,1.65,0,0,0-.581,1.119h-.241l0,.444v.217Z" transform="translate(-425.693 -404.551)" fill="#5c9340"/>
          <path id="Path_890703" data-name="Path 890703" d="M507.245,490.148a1.735,1.735,0,0,1,0-3.47,1.735,1.735,0,0,0-1.735-1.735H500.89a3.88,3.88,0,0,1-1.735,5.206,1.735,1.735,0,1,1,0,3.469,1.735,1.735,0,0,1,0,3.469,1.734,1.734,0,0,0,1.735,1.736h4.621a3.881,3.881,0,0,1,1.735-5.206,1.735,1.735,0,0,1,0-3.469" transform="translate(-453.416 -440.505)" fill="#fcc179"/>
          <path id="Path_890704" data-name="Path 890704" d="M507.421,491.538c-.052-.008-.935-.015-.935-.015a1.133,1.133,0,1,0,0,2.266s.883-.008.935-.016Z" transform="translate(-459.046 -446.483)" fill="#f37b3e"/>
          <path id="Path_890705" data-name="Path 890705" d="M507.421,528.811c-.052-.008-.935-.016-.935-.016a1.134,1.134,0,0,0,0,2.267s.883-.008.935-.017Z" transform="translate(-459.046 -480.34)" fill="#f37b3e"/>
          <path id="Path_890706" data-name="Path 890706" d="M507.421,568.037c-.052-.008-.935-.016-.935-.016a1.133,1.133,0,0,0,0,2.267s.883-.01.935-.016Z" transform="translate(-459.046 -515.971)" fill="#f37b3e"/>
          <path id="Path_890707" data-name="Path 890707" d="M507.421,605.3c-.052-.007-.935-.017-.935-.017a1.133,1.133,0,0,0,0,2.267s.883-.008.935-.016Z" transform="translate(-459.046 -549.816)" fill="#f37b3e"/>
          <path id="Path_890708" data-name="Path 890708" d="M407,390.371a3.284,3.284,0,0,1,.209.52,3.02,3.02,0,0,1-1.224,3.676l-6.552,4.29-3.048,2,1.331-4.4Z" transform="translate(-360.064 -354.6)" fill="#faad58"/>
          <path id="Path_890709" data-name="Path 890709" d="M483.53,390.371a1.346,1.346,0,0,1,.209.52.731.731,0,0,1-.253.77l-1.654,1.082c-.342.225-.879.013-1.2-.475Z" transform="translate(-436.592 -354.6)" fill="#f37b3e"/>
          <path id="Path_890710" data-name="Path 890710" d="M376.836,456.735s-4.862,3.682-3.022,8.87.468,2.461.468,2.461l3.418-1.807s1.822-.478,1.813-4.111l-.007-3.632Z" transform="translate(-339.182 -414.883)" fill="#faad58"/>
          <path id="Path_890711" data-name="Path 890711" d="M144.057,109.945l-4.966,4.891,7.24,6.267,5.576-5.165Z" transform="translate(-126.346 -99.871)" fill="#faad58"/>
          <path id="Path_890712" data-name="Path 890712" d="M35.373,160.421a1.734,1.734,0,0,0,1.735,1.735,1.735,1.735,0,0,0,0,3.47h4.62a1.735,1.735,0,0,0,0-3.47,1.735,1.735,0,0,0,0-3.47,1.735,1.735,0,0,0,0-3.469,1.735,1.735,0,0,0,0-3.471h-4.62a1.735,1.735,0,0,0,0,3.471,1.735,1.735,0,1,0,0,3.469,1.735,1.735,0,0,0-1.735,1.735" transform="translate(-32.132 -137.841)" fill="#fcc179"/>
          <path id="Path_890713" data-name="Path 890713" d="M94.9,274.172c.051.008.934.015.934.015a1.133,1.133,0,1,0,0-2.266s-.882.009-.934.016Z" transform="translate(-86.204 -247.004)" fill="#f37b3e"/>
          <path id="Path_890714" data-name="Path 890714" d="M94.9,236.885c.051.007.934.016.934.016a1.133,1.133,0,1,0,0-2.267s-.882.008-.934.015Z" transform="translate(-86.204 -213.134)" fill="#f37b3e"/>
          <path id="Path_890715" data-name="Path 890715" d="M94.9,197.66c.051.008.934.016.934.016a1.133,1.133,0,1,0,0-2.267s-.882.008-.934.017Z" transform="translate(-86.204 -177.504)" fill="#f37b3e"/>
          <path id="Path_890716" data-name="Path 890716" d="M94.9,160.4c.051.007.934.016.934.016a1.133,1.133,0,1,0,0-2.267s-.882.008-.934.015Z" transform="translate(-86.204 -143.656)" fill="#f37b3e"/>
          <path id="Path_890717" data-name="Path 890717" d="M106.582,293.869a3.328,3.328,0,0,1-.21-.52,3.023,3.023,0,0,1,1.226-3.676l6.551-4.291,3.049-2-1.331,4.4Z" transform="translate(-96.45 -257.417)" fill="#faad58"/>
          <path id="Path_890718" data-name="Path 890718" d="M108.32,373.386a1.354,1.354,0,0,1-.21-.52.734.734,0,0,1,.254-.77l1.654-1.083c.342-.224.879-.011,1.2.477Z" transform="translate(-98.188 -336.935)" fill="#f37b3e"/>
          <path id="Path_890719" data-name="Path 890719" d="M185.348,212s4.862-3.682,3.022-8.87-.468-2.461-.468-2.461l-3.419,1.805s-1.82.479-1.814,4.112l.008,3.632Z" transform="translate(-165.931 -181.633)" fill="#faad58"/>
          <rect id="Rectangle_404735" data-name="Rectangle 404735" width="13.846" height="7.055" transform="translate(15.776 9.791) rotate(-45.001)" fill="#6a4d23"/>
          <path id="Path_890720" data-name="Path 890720" d="M241.381,59.426l-9.79,9.792L226.6,64.229l9.79-9.791Z" transform="translate(-205.838 -49.45)" fill="#7e5e31"/>
          <path id="Path_890721" data-name="Path 890721" d="M176.011,126.879l-8.026-8.024,1.358-1.359,8.026,8.025Z" transform="translate(-152.593 -106.729)" fill="#afdedd"/>
        </g>
      </g>
    </g>
  </g>
</svg>
