<svg xmlns="http://www.w3.org/2000/svg" xmlns:xlink="http://www.w3.org/1999/xlink" width="121" height="121" viewBox="0 0 121 121">
  <defs>
    <clipPath id="clip-path">
      <rect id="Rectangle_400938" data-name="Rectangle 400938" width="121" height="121" transform="translate(0 0)" fill="none"/>
    </clipPath>
    <clipPath id="clip-path-2">
      <rect id="Rectangle_401073" data-name="Rectangle 401073" width="92.219" height="41.532" fill="#efb499"/>
    </clipPath>
    <clipPath id="clip-path-3">
      <rect id="Rectangle_404754" data-name="Rectangle 404754" width="60.189" height="65.154" fill="none"/>
    </clipPath>
  </defs>
  <g id="Group_1102069" data-name="Group 1102069" transform="translate(-1090.996 -5846)">
    <g id="Group_1100440" data-name="Group 1100440" transform="translate(703.328 -167)">
      <rect id="Rectangle_401103" data-name="Rectangle 401103" width="121" height="121" transform="translate(387.668 6013)" fill="none"/>
      <g id="Group_1099348" data-name="Group 1099348" transform="translate(387.668 6013)">
        <g id="Group_1099282" data-name="Group 1099282">
          <g id="Group_1099281" data-name="Group 1099281" clip-path="url(#clip-path-2)">
            <path id="Path_873375" data-name="Path 873375" d="M74.8,9.1c-4.139,0-6.28-2.03-8.17-3.821-1.855-1.756-3.452-3.274-6.792-3.274s-4.937,1.517-6.792,3.274C51.161,7.072,49.023,9.1,44.881,9.1s-6.28-2.03-8.169-3.821C34.857,3.525,33.26,2.007,29.92,2.007s-4.937,1.517-6.789,3.274C21.241,7.072,19.1,9.1,14.962,9.1S8.679,7.072,6.789,5.281C4.937,3.525,3.34,2.007,0,2.007V0C4.139,0,6.28,2.033,8.17,3.821c1.855,1.759,3.452,3.274,6.792,3.274S19.9,5.58,21.75,3.824C23.637,2.033,25.781,0,29.92,0s6.283,2.033,8.17,3.821c1.855,1.759,3.452,3.274,6.792,3.274s4.937-1.514,6.792-3.274C53.56,2.033,55.7,0,59.843,0s6.283,2.033,8.17,3.821C69.867,5.58,71.464,7.094,74.8,7.094S79.742,5.58,81.6,3.821C83.483,2.033,85.624,0,89.766,0V2.007c-3.34,0-4.937,1.517-6.792,3.274C81.084,7.072,78.943,9.1,74.8,9.1" transform="translate(2.453 32.43)" fill="#efb499"/>
            <path id="Path_873376" data-name="Path 873376" d="M74.8,9.1c-4.139,0-6.283-2.03-8.17-3.824-1.855-1.756-3.452-3.27-6.792-3.27s-4.937,1.514-6.792,3.27C51.164,7.072,49.023,9.1,44.881,9.1s-6.283-2.03-8.17-3.824c-1.855-1.756-3.452-3.27-6.792-3.27s-4.937,1.517-6.789,3.27C21.241,7.072,19.1,9.1,14.962,9.1S8.679,7.072,6.789,5.278C4.937,3.522,3.34,2.007,0,2.007V0C4.139,0,6.283,2.03,8.17,3.821c1.855,1.759,3.452,3.274,6.792,3.274S19.9,5.58,21.75,3.821C23.637,2.03,25.781,0,29.92,0S36.2,2.03,38.093,3.821c1.852,1.759,3.449,3.274,6.789,3.274s4.937-1.514,6.792-3.274C53.56,2.03,55.7,0,59.843,0s6.283,2.03,8.17,3.821C69.867,5.58,71.464,7.094,74.8,7.094S79.742,5.58,81.6,3.821C83.486,2.03,85.627,0,89.769,0V2.007c-3.34,0-4.94,1.517-6.8,3.27C81.084,7.072,78.943,9.1,74.8,9.1" transform="translate(1.635 21.62)" fill="#efb499"/>
            <path id="Path_873377" data-name="Path 873377" d="M74.8,9.1c-4.139,0-6.283-2.03-8.169-3.824-1.855-1.756-3.452-3.27-6.792-3.27s-4.937,1.514-6.792,3.27C51.164,7.072,49.02,9.1,44.881,9.1s-6.283-2.03-8.17-3.824c-1.855-1.756-3.452-3.27-6.792-3.27s-4.937,1.517-6.789,3.27C21.241,7.072,19.1,9.1,14.962,9.1S8.678,7.072,6.789,5.278C4.937,3.522,3.34,2.007,0,2.007V0C4.139,0,6.283,2.03,8.169,3.821c1.851,1.759,3.452,3.274,6.792,3.274S19.9,5.58,21.75,3.821C23.637,2.03,25.781,0,29.92,0S36.2,2.03,38.093,3.821c1.852,1.759,3.449,3.274,6.789,3.274s4.937-1.514,6.792-3.274C53.56,2.03,55.7,0,59.843,0s6.283,2.03,8.17,3.821C69.867,5.58,71.464,7.094,74.8,7.094S79.742,5.58,81.6,3.821C83.486,2.03,85.624,0,89.769,0V2.007c-3.34,0-4.941,1.517-6.8,3.27C81.084,7.072,78.943,9.1,74.8,9.1" transform="translate(0.818 10.81)" fill="#efb499"/>
            <path id="Path_873378" data-name="Path 873378" d="M74.8,9.1c-4.139,0-6.28-2.03-8.17-3.821-1.855-1.756-3.452-3.27-6.792-3.27s-4.937,1.514-6.789,3.27C51.164,7.069,49.023,9.1,44.881,9.1s-6.28-2.03-8.169-3.821c-1.855-1.756-3.452-3.27-6.792-3.27s-4.937,1.514-6.789,3.267C21.245,7.069,19.1,9.1,14.962,9.1S8.678,7.069,6.789,5.278C4.937,3.522,3.34,2.007,0,2.007V0C4.139,0,6.283,2.03,8.17,3.821c1.855,1.756,3.452,3.27,6.792,3.27S19.9,5.577,21.75,3.821C23.64,2.03,25.781,0,29.92,0s6.28,2.03,8.173,3.821c1.852,1.756,3.449,3.27,6.789,3.27s4.937-1.514,6.792-3.27C53.563,2.03,55.7,0,59.843,0s6.28,2.03,8.17,3.821c1.855,1.756,3.452,3.27,6.792,3.27s4.937-1.514,6.792-3.27C83.486,2.03,85.627,0,89.769,0V2.007c-3.344,0-4.941,1.514-6.8,3.27C81.084,7.069,78.943,9.1,74.8,9.1" transform="translate(0 0.003)" fill="#efb499"/>
          </g>
        </g>
      </g>
      <circle id="Ellipse_11504" data-name="Ellipse 11504" cx="50.5" cy="50.5" r="50.5" transform="translate(402.668 6031)" fill="#ffce73"/>
      <circle id="Ellipse_11503" data-name="Ellipse 11503" cx="52.5" cy="52.5" r="52.5" transform="translate(395.668 6021)" fill="#f3f9ff"/>
    </g>
    <g id="Group_1100443" data-name="Group 1100443" transform="translate(1116.938 5871.804)">
      <rect id="Rectangle_401104" data-name="Rectangle 401104" width="68" height="69" transform="translate(0.061 -0.612)" fill="none"/>
      <g id="Group_1102179" data-name="Group 1102179" transform="translate(4.06 1.388)">
        <g id="Group_1102178" data-name="Group 1102178" clip-path="url(#clip-path-3)">
          <path id="Path_890828" data-name="Path 890828" d="M238.9,516.769a4.854,4.854,0,1,1-4.854-4.854,4.854,4.854,0,0,1,4.854,4.854" transform="translate(-207.972 -464.513)" fill="#fdcd08"/>
          <path id="Path_890829" data-name="Path 890829" d="M246.811,525.572a3.955,3.955,0,1,1-3.955-3.955,3.955,3.955,0,0,1,3.955,3.955" transform="translate(-216.778 -473.317)" fill="#f58a1f"/>
          <path id="Path_890830" data-name="Path 890830" d="M255.107,534.81a3.013,3.013,0,1,1-3.013-3.013,3.013,3.013,0,0,1,3.013,3.013" transform="translate(-226.018 -482.554)" fill="#fdcd08"/>
          <path id="Path_890831" data-name="Path 890831" d="M268.382,541.3a1.776,1.776,0,0,0-.886-.381l-.41-.082a1.081,1.081,0,0,1-.4-.144.277.277,0,0,1-.111-.234.317.317,0,0,1,.165-.3,1.055,1.055,0,0,1,.511-.1,2.367,2.367,0,0,1,.553.07,3.447,3.447,0,0,1,.6.207v-.79a5.846,5.846,0,0,0-.673-.139c-.066-.009-.13-.015-.194-.021v-.435h-.723v.426a1.388,1.388,0,0,0-.753.285,1.053,1.053,0,0,0-.36.858.963.963,0,0,0,.259.708,1.6,1.6,0,0,0,.819.384l.373.083a1.151,1.151,0,0,1,.454.17.364.364,0,0,1-.054.571.913.913,0,0,1-.483.105,2.316,2.316,0,0,1-.645-.1,3.637,3.637,0,0,1-.692-.287v.813a4.367,4.367,0,0,0,.716.2c.122.023.244.04.365.051v.427h.723v-.433a1.427,1.427,0,0,0,.746-.28,1.12,1.12,0,0,0,.366-.92.965.965,0,0,0-.263-.726" transform="translate(-241.094 -489.058)" fill="#fcee3b"/>
          <rect id="Rectangle_404747" data-name="Rectangle 404747" width="0.945" height="0.945" transform="matrix(0.707, -0.707, 0.707, 0.707, 22.396, 49.768)" fill="#fff"/>
          <path id="Path_890832" data-name="Path 890832" d="M324.913,194.036c-.2,6.861.227,8.752-2.39,8.752v-10.3l6.045-4.731Z" transform="translate(-292.658 -170.368)" fill="#f69d45"/>
          <path id="Path_890833" data-name="Path 890833" d="M325.337,582.731l10.949-4.768c4.108-1.95,4.682.871,1.631,2.5-3.373,1.805-9.994,4.635-9.994,4.635l-2.586-.7Z" transform="translate(-295.212 -523.844)" fill="#f39c56"/>
          <path id="Path_890834" data-name="Path 890834" d="M122.209,568.081c-3.784-.454-18.506-3.021-18.863-3.028l-1.866-.007v-8.714l2.261-.033c3.959-1.043,5.078-2.685,10.532-1.8,1.457.24,8.912.648,12.689,1.116,2.52.312,3.155,3.37-2.132,3.577-5.587.217-8.193.314-8.193.314s5.078,2.094,6.755,2.721l12.052-4.3c3.321-1.547,3.831,1.282,1.637,2.514a163.956,163.956,0,0,1-14.873,7.637" transform="translate(-92.083 -502.927)" fill="#fab67a"/>
          <rect id="Rectangle_404748" data-name="Rectangle 404748" width="6.324" height="10.805" transform="translate(4.844 52.241)" fill="#5ac8e7"/>
          <path id="Path_890849" data-name="Path 890849" d="M0,0H9.625V12.119H0Z" transform="translate(0 51.585)" fill="#12263f"/>
          <path id="Path_890835" data-name="Path 890835" d="M353.625,573.563v1.869c1.366.678,3.4.09,3.4-.935s-2.033-1.615-3.4-.934" transform="translate(-320.88 -520.188)" fill="#f37b3e"/>
          <path id="Path_890836" data-name="Path 890836" d="M60.048,578.341a1.039,1.039,0,1,1-1.039-1.039,1.039,1.039,0,0,1,1.039,1.039" transform="translate(-52.602 -523.845)" fill="#adcac6"/>
          <path id="Path_890837" data-name="Path 890837" d="M323.256,75.242l-4.6,4.338c-1.182,4.336-5.519,6.833-5.519,6.833-4.336.789-9.2,4.207-9.2,4.207-.238.468-.446.941-.645,1.377-.29.635-.974,2.229-1.8,1.986-1.1-.327-1.188-4.219.08-6.518l4.731-3.417c.246-3.24-.434-6.082-5.519,1.183l-.4,7.36c0,1.537-1.123,2.53-1.94,2.372-.412-.078-.745-.449-.82-1.19-.156-2.13-.021-.3-.657-8.936,4.531-10.338,4.417-9.162,13.142-11.9l7.491-4.4Z" transform="translate(-269.474 -62.194)" fill="#fab67a"/>
          <path id="Path_890838" data-name="Path 890838" d="M238.635,377.163a4.854,4.854,0,1,1-4.854-4.854,4.854,4.854,0,0,1,4.854,4.854" transform="translate(-207.729 -337.834)" fill="#fdcd08"/>
          <path id="Path_890839" data-name="Path 890839" d="M246.54,385.97a3.955,3.955,0,1,1-3.955-3.955,3.955,3.955,0,0,1,3.955,3.955" transform="translate(-216.533 -346.641)" fill="#f58a1f"/>
          <path id="Path_890840" data-name="Path 890840" d="M254.833,395.207a3.013,3.013,0,1,1-3.013-3.013,3.012,3.012,0,0,1,3.013,3.013" transform="translate(-225.769 -355.878)" fill="#fdcd08"/>
          <path id="Path_890841" data-name="Path 890841" d="M268.109,401.7a1.772,1.772,0,0,0-.886-.381l-.41-.082a1.067,1.067,0,0,1-.4-.144.276.276,0,0,1-.111-.234.318.318,0,0,1,.165-.3,1.061,1.061,0,0,1,.511-.1,2.373,2.373,0,0,1,.553.07,3.463,3.463,0,0,1,.6.207v-.79a5.9,5.9,0,0,0-.672-.14c-.066-.009-.13-.015-.194-.021v-.436h-.723v.426a1.384,1.384,0,0,0-.753.285,1.053,1.053,0,0,0-.361.858.963.963,0,0,0,.259.708,1.605,1.605,0,0,0,.819.383l.373.083a1.151,1.151,0,0,1,.454.17.363.363,0,0,1-.054.571.913.913,0,0,1-.482.105,2.316,2.316,0,0,1-.645-.1,3.63,3.63,0,0,1-.692-.287v.813a4.414,4.414,0,0,0,.716.2c.122.024.244.04.365.051v.427h.723v-.433a1.422,1.422,0,0,0,.746-.28,1.12,1.12,0,0,0,.366-.919.964.964,0,0,0-.263-.726" transform="translate(-240.846 -362.38)" fill="#fcee3b"/>
          <rect id="Rectangle_404750" data-name="Rectangle 404750" width="0.945" height="0.945" transform="translate(22.371 36.84) rotate(-45)" fill="#fff"/>
          <path id="Path_890842" data-name="Path 890842" d="M341.613,429.582a4.854,4.854,0,1,1-4.854-4.854,4.854,4.854,0,0,1,4.854,4.854" transform="translate(-301.172 -385.399)" fill="#fdcd08"/>
          <path id="Path_890843" data-name="Path 890843" d="M349.518,438.385a3.955,3.955,0,1,1-3.955-3.955,3.955,3.955,0,0,1,3.955,3.955" transform="translate(-309.975 -394.203)" fill="#f58a1f"/>
          <path id="Path_890844" data-name="Path 890844" d="M357.812,447.622a3.013,3.013,0,1,1-3.013-3.013,3.013,3.013,0,0,1,3.013,3.013" transform="translate(-319.212 -403.439)" fill="#fdcd08"/>
          <path id="Path_890845" data-name="Path 890845" d="M371.091,454.119a1.777,1.777,0,0,0-.886-.38l-.41-.082a1.073,1.073,0,0,1-.4-.144.277.277,0,0,1-.112-.234.319.319,0,0,1,.165-.3,1.063,1.063,0,0,1,.511-.095,2.367,2.367,0,0,1,.553.07,3.4,3.4,0,0,1,.6.207v-.79a5.736,5.736,0,0,0-.673-.14c-.066-.009-.13-.015-.194-.021v-.435h-.723v.426a1.381,1.381,0,0,0-.753.285,1.053,1.053,0,0,0-.36.858.962.962,0,0,0,.259.708,1.607,1.607,0,0,0,.819.383l.373.083a1.156,1.156,0,0,1,.454.17.362.362,0,0,1-.054.571.912.912,0,0,1-.483.105,2.306,2.306,0,0,1-.644-.1,3.572,3.572,0,0,1-.692-.286v.813a4.4,4.4,0,0,0,.716.2c.122.023.243.04.365.051v.427h.723v-.433a1.424,1.424,0,0,0,.745-.28,1.119,1.119,0,0,0,.367-.92.967.967,0,0,0-.263-.726" transform="translate(-334.292 -409.945)" fill="#fcee3b"/>
          <rect id="Rectangle_404751" data-name="Rectangle 404751" width="0.945" height="0.945" transform="matrix(0.707, -0.707, 0.707, 0.707, 31.906, 41.694)" fill="#fff"/>
          <path id="Path_890846" data-name="Path 890846" d="M347.585,320.056a5.129,5.129,0,0,1-1.071,1.756.8.8,0,0,1-.73.23,3.816,3.816,0,0,1,.1-.494,2.789,2.789,0,0,1,1.134-1.674c.167.051.36.112.57.182" transform="translate(-313.765 -290.254)" fill="#f37b3e"/>
          <path id="Path_890847" data-name="Path 890847" d="M303.9,325.7a2.924,2.924,0,0,1-.152.958c-.412-.078-.745-.449-.82-1.189l-.116-1.579a.372.372,0,0,1,.087-.008c.553,0,1,.815,1,1.819" transform="translate(-274.777 -293.891)" fill="#f37b3e"/>
          <rect id="Rectangle_404752" data-name="Rectangle 404752" width="6.324" height="10.805" transform="matrix(0.752, -0.659, 0.659, 0.752, 44.235, 7.854)" fill="#5ac8e7"/>
          <rect id="Rectangle_404753" data-name="Rectangle 404753" width="9.624" height="12.119" transform="matrix(0.752, -0.659, 0.659, 0.752, 44.963, 6.342)" fill="#7d3a1b"/>
          <path id="Path_890848" data-name="Path 890848" d="M599.7,84.185a1.039,1.039,0,1,1,1.466.1,1.039,1.039,0,0,1-1.466-.1" transform="translate(-543.937 -74.825)" fill="#adcac6"/>
        </g>
      </g>
    </g>
  </g>
</svg>
