<svg xmlns="http://www.w3.org/2000/svg" xmlns:xlink="http://www.w3.org/1999/xlink" width="121" height="121" viewBox="0 0 121 121">
  <defs>
    <clipPath id="clip-path">
      <rect id="Rectangle_400938" data-name="Rectangle 400938" width="121" height="121" transform="translate(0 0)" fill="none"/>
    </clipPath>
    <clipPath id="clip-path-2">
      <rect id="Rectangle_401073" data-name="Rectangle 401073" width="92.219" height="41.532" fill="#efb499"/>
    </clipPath>
    <clipPath id="clip-path-3">
      <rect id="Rectangle_404756" data-name="Rectangle 404756" width="55.496" height="65.764" fill="none"/>
    </clipPath>
  </defs>
  <g id="Group_1103518" data-name="Group 1103518" transform="translate(-387.998 -2590.809)">
    <g id="Group_1102068" data-name="Group 1102068" transform="translate(0.002 -3255.191)">
      <g id="Group_1100439" data-name="Group 1100439" transform="translate(0.328 -167)">
        <rect id="Rectangle_401103" data-name="Rectangle 401103" width="121" height="121" transform="translate(387.668 6013)" fill="none"/>
        <g id="Group_1099348" data-name="Group 1099348" transform="translate(387.668 6013)">
          <g id="Group_1099282" data-name="Group 1099282">
            <g id="Group_1099281" data-name="Group 1099281" clip-path="url(#clip-path-2)">
              <path id="Path_873375" data-name="Path 873375" d="M74.8,9.1c-4.139,0-6.28-2.03-8.17-3.821-1.855-1.756-3.452-3.274-6.792-3.274s-4.937,1.517-6.792,3.274C51.161,7.072,49.023,9.1,44.881,9.1s-6.28-2.03-8.169-3.821C34.857,3.525,33.26,2.007,29.92,2.007s-4.937,1.517-6.789,3.274C21.241,7.072,19.1,9.1,14.962,9.1S8.679,7.072,6.789,5.281C4.937,3.525,3.34,2.007,0,2.007V0C4.139,0,6.28,2.033,8.17,3.821c1.855,1.759,3.452,3.274,6.792,3.274S19.9,5.58,21.75,3.824C23.637,2.033,25.781,0,29.92,0s6.283,2.033,8.17,3.821c1.855,1.759,3.452,3.274,6.792,3.274s4.937-1.514,6.792-3.274C53.56,2.033,55.7,0,59.843,0s6.283,2.033,8.17,3.821C69.867,5.58,71.464,7.094,74.8,7.094S79.742,5.58,81.6,3.821C83.483,2.033,85.624,0,89.766,0V2.007c-3.34,0-4.937,1.517-6.792,3.274C81.084,7.072,78.943,9.1,74.8,9.1" transform="translate(2.453 32.43)" fill="#efb499"/>
              <path id="Path_873376" data-name="Path 873376" d="M74.8,9.1c-4.139,0-6.283-2.03-8.17-3.824-1.855-1.756-3.452-3.27-6.792-3.27s-4.937,1.514-6.792,3.27C51.164,7.072,49.023,9.1,44.881,9.1s-6.283-2.03-8.17-3.824c-1.855-1.756-3.452-3.27-6.792-3.27s-4.937,1.517-6.789,3.27C21.241,7.072,19.1,9.1,14.962,9.1S8.679,7.072,6.789,5.278C4.937,3.522,3.34,2.007,0,2.007V0C4.139,0,6.283,2.03,8.17,3.821c1.855,1.759,3.452,3.274,6.792,3.274S19.9,5.58,21.75,3.821C23.637,2.03,25.781,0,29.92,0S36.2,2.03,38.093,3.821c1.852,1.759,3.449,3.274,6.789,3.274s4.937-1.514,6.792-3.274C53.56,2.03,55.7,0,59.843,0s6.283,2.03,8.17,3.821C69.867,5.58,71.464,7.094,74.8,7.094S79.742,5.58,81.6,3.821C83.486,2.03,85.627,0,89.769,0V2.007c-3.34,0-4.94,1.517-6.8,3.27C81.084,7.072,78.943,9.1,74.8,9.1" transform="translate(1.635 21.62)" fill="#efb499"/>
              <path id="Path_873377" data-name="Path 873377" d="M74.8,9.1c-4.139,0-6.283-2.03-8.169-3.824-1.855-1.756-3.452-3.27-6.792-3.27s-4.937,1.514-6.792,3.27C51.164,7.072,49.02,9.1,44.881,9.1s-6.283-2.03-8.17-3.824c-1.855-1.756-3.452-3.27-6.792-3.27s-4.937,1.517-6.789,3.27C21.241,7.072,19.1,9.1,14.962,9.1S8.678,7.072,6.789,5.278C4.937,3.522,3.34,2.007,0,2.007V0C4.139,0,6.283,2.03,8.169,3.821c1.851,1.759,3.452,3.274,6.792,3.274S19.9,5.58,21.75,3.821C23.637,2.03,25.781,0,29.92,0S36.2,2.03,38.093,3.821c1.852,1.759,3.449,3.274,6.789,3.274s4.937-1.514,6.792-3.274C53.56,2.03,55.7,0,59.843,0s6.283,2.03,8.17,3.821C69.867,5.58,71.464,7.094,74.8,7.094S79.742,5.58,81.6,3.821C83.486,2.03,85.624,0,89.769,0V2.007c-3.34,0-4.941,1.517-6.8,3.27C81.084,7.072,78.943,9.1,74.8,9.1" transform="translate(0.818 10.81)" fill="#efb499"/>
              <path id="Path_873378" data-name="Path 873378" d="M74.8,9.1c-4.139,0-6.28-2.03-8.17-3.821-1.855-1.756-3.452-3.27-6.792-3.27s-4.937,1.514-6.789,3.27C51.164,7.069,49.023,9.1,44.881,9.1s-6.28-2.03-8.169-3.821c-1.855-1.756-3.452-3.27-6.792-3.27s-4.937,1.514-6.789,3.267C21.245,7.069,19.1,9.1,14.962,9.1S8.678,7.069,6.789,5.278C4.937,3.522,3.34,2.007,0,2.007V0C4.139,0,6.283,2.03,8.17,3.821c1.855,1.756,3.452,3.27,6.792,3.27S19.9,5.577,21.75,3.821C23.64,2.03,25.781,0,29.92,0s6.28,2.03,8.173,3.821c1.852,1.756,3.449,3.27,6.789,3.27s4.937-1.514,6.792-3.27C53.563,2.03,55.7,0,59.843,0s6.28,2.03,8.17,3.821c1.855,1.756,3.452,3.27,6.792,3.27s4.937-1.514,6.792-3.27C83.486,2.03,85.627,0,89.769,0V2.007c-3.344,0-4.941,1.514-6.8,3.27C81.084,7.069,78.943,9.1,74.8,9.1" transform="translate(0 0.003)" fill="#efb499"/>
            </g>
          </g>
        </g>
        <circle id="Ellipse_11504" data-name="Ellipse 11504" cx="50.5" cy="50.5" r="50.5" transform="translate(402.668 6031)" fill="#ffce73"/>
        <circle id="Ellipse_11503" data-name="Ellipse 11503" cx="52.5" cy="52.5" r="52.5" transform="translate(395.668 6021)" fill="#f3f9ff"/>
      </g>
      <g id="Group_1100442" data-name="Group 1100442" transform="translate(413.938 5871.804)">
        <rect id="Rectangle_401104" data-name="Rectangle 401104" width="68" height="69" transform="translate(0.061 -0.612)" fill="none"/>
        <g id="Group_1102183" data-name="Group 1102183" transform="translate(6.061 0.387)">
          <g id="Group_1102182" data-name="Group 1102182" clip-path="url(#clip-path-3)">
            <path id="Path_890876" data-name="Path 890876" d="M244.572,393.664v4.27h-6.234a.964.964,0,0,1-.967-.963v-3.247a.315.315,0,0,1,0-.06Z" transform="translate(-215.886 -358.032)" fill="#f9ef75"/>
            <path id="Path_890877" data-name="Path 890877" d="M251.812,384.592h-14.4a.961.961,0,0,1,.963-.9h12.473a.96.96,0,0,1,.963.9" transform="translate(-215.924 -348.96)" fill="#fbf4a4"/>
            <path id="Path_890878" data-name="Path 890878" d="M324.135,393.724v3.247a.964.964,0,0,1-.966.963H316.93v-4.27h7.2a.309.309,0,0,1,0,.06" transform="translate(-288.244 -358.032)" fill="#f8da47"/>
            <path id="Path_890879" data-name="Path 890879" d="M213.682,450.812v4.27h-6.234a.964.964,0,0,1-.967-.963v-3.247a.275.275,0,0,1,0-.06Z" transform="translate(-187.792 -410.008)" fill="#f9ef75"/>
            <path id="Path_890880" data-name="Path 890880" d="M220.927,441.74h-14.4a.96.96,0,0,1,.963-.9h12.473a.96.96,0,0,1,.962.9" transform="translate(-187.836 -400.936)" fill="#fbf4a4"/>
            <path id="Path_890881" data-name="Path 890881" d="M293.247,450.872v3.247a.964.964,0,0,1-.966.963h-6.239v-4.27h7.2a.307.307,0,0,1,0,.06" transform="translate(-260.151 -410.008)" fill="#f8da47"/>
            <path id="Path_890882" data-name="Path 890882" d="M231.335,507.961v4.27H225.1a.964.964,0,0,1-.966-.963v-3.247a.316.316,0,0,1,0-.06Z" transform="translate(-203.847 -461.984)" fill="#f9ef75"/>
            <path id="Path_890883" data-name="Path 890883" d="M238.574,498.889h-14.4a.96.96,0,0,1,.963-.9h12.473a.96.96,0,0,1,.963.9" transform="translate(-203.885 -452.912)" fill="#fbf4a4"/>
            <path id="Path_890884" data-name="Path 890884" d="M310.9,508.02v3.247a.965.965,0,0,1-.967.963h-6.239v-4.27h7.2a.274.274,0,0,1,0,.06" transform="translate(-276.205 -461.983)" fill="#f8da47"/>
            <path id="Path_890885" data-name="Path 890885" d="M231.335,565.109v4.27H225.1a.964.964,0,0,1-.966-.963v-3.247a.316.316,0,0,1,0-.06Z" transform="translate(-203.847 -513.96)" fill="#f9ef75"/>
            <path id="Path_890886" data-name="Path 890886" d="M238.574,556.038h-14.4a.96.96,0,0,1,.963-.9h12.473a.96.96,0,0,1,.963.9" transform="translate(-203.885 -504.888)" fill="#fbf4a4"/>
            <path id="Path_890887" data-name="Path 890887" d="M310.9,565.168v3.247a.965.965,0,0,1-.967.963h-6.239v-4.27h7.2a.274.274,0,0,1,0,.06" transform="translate(-276.205 -513.959)" fill="#f8da47"/>
            <path id="Path_890888" data-name="Path 890888" d="M231.335,622.251v4.27H225.1a.964.964,0,0,1-.966-.963v-3.247a.318.318,0,0,1,0-.06Z" transform="translate(-203.847 -565.929)" fill="#f9ef75"/>
            <path id="Path_890889" data-name="Path 890889" d="M238.574,613.184h-14.4a.96.96,0,0,1,.963-.9h12.473a.959.959,0,0,1,.963.9" transform="translate(-203.885 -556.863)" fill="#fbf4a4"/>
            <path id="Path_890890" data-name="Path 890890" d="M310.9,622.311v3.247a.964.964,0,0,1-.967.962h-6.239v-4.27h7.2a.276.276,0,0,1,0,.06" transform="translate(-276.205 -565.929)" fill="#f8da47"/>
            <path id="Path_890891" data-name="Path 890891" d="M231.335,679.4v4.27H225.1a.964.964,0,0,1-.966-.963v-3.247a.319.319,0,0,1,0-.06Z" transform="translate(-203.847 -617.905)" fill="#f9ef75"/>
            <path id="Path_890892" data-name="Path 890892" d="M238.574,670.327h-14.4a.96.96,0,0,1,.963-.9h12.473a.96.96,0,0,1,.963.9" transform="translate(-203.885 -608.833)" fill="#fbf4a4"/>
            <path id="Path_890893" data-name="Path 890893" d="M310.9,679.459v3.247a.964.964,0,0,1-.967.963h-6.239V679.4h7.2a.277.277,0,0,1,0,.06" transform="translate(-276.205 -617.905)" fill="#f8da47"/>
            <path id="Path_890894" data-name="Path 890894" d="M7.2,507.961v4.27H.966A.964.964,0,0,1,0,511.268v-3.247a.315.315,0,0,1,0-.06Z" transform="translate(0 -461.984)" fill="#f9ef75"/>
            <path id="Path_890895" data-name="Path 890895" d="M14.44,498.889H.042a.96.96,0,0,1,.963-.9H13.478a.96.96,0,0,1,.963.9" transform="translate(-0.038 -452.912)" fill="#fbf4a4"/>
            <path id="Path_890896" data-name="Path 890896" d="M86.765,508.02v3.247a.964.964,0,0,1-.967.963H79.559v-4.27h7.2a.271.271,0,0,1,0,.06" transform="translate(-72.358 -461.983)" fill="#f8da47"/>
            <path id="Path_890897" data-name="Path 890897" d="M7.2,565.109v4.27H.966A.964.964,0,0,1,0,568.416v-3.247a.316.316,0,0,1,0-.06Z" transform="translate(0 -513.96)" fill="#f9ef75"/>
            <path id="Path_890898" data-name="Path 890898" d="M14.44,556.038H.042a.96.96,0,0,1,.963-.9H13.478a.96.96,0,0,1,.963.9" transform="translate(-0.038 -504.888)" fill="#fbf4a4"/>
            <path id="Path_890899" data-name="Path 890899" d="M86.765,565.168v3.247a.964.964,0,0,1-.967.963H79.559v-4.27h7.2a.272.272,0,0,1,0,.06" transform="translate(-72.358 -513.959)" fill="#f8da47"/>
            <path id="Path_890900" data-name="Path 890900" d="M7.2,622.251v4.27H.966A.964.964,0,0,1,0,625.558v-3.247a.318.318,0,0,1,0-.06Z" transform="translate(0 -565.929)" fill="#f9ef75"/>
            <path id="Path_890901" data-name="Path 890901" d="M14.44,613.184H.042a.96.96,0,0,1,.963-.9H13.478a.959.959,0,0,1,.963.9" transform="translate(-0.038 -556.863)" fill="#fbf4a4"/>
            <path id="Path_890902" data-name="Path 890902" d="M86.765,622.311v3.247a.964.964,0,0,1-.967.962H79.559v-4.27h7.2a.274.274,0,0,1,0,.06" transform="translate(-72.358 -565.929)" fill="#f8da47"/>
            <path id="Path_890903" data-name="Path 890903" d="M7.2,679.4v4.27H.966A.964.964,0,0,1,0,682.706v-3.247a.319.319,0,0,1,0-.06Z" transform="translate(0 -617.905)" fill="#f9ef75"/>
            <path id="Path_890904" data-name="Path 890904" d="M14.44,670.327H.042a.96.96,0,0,1,.963-.9H13.478a.96.96,0,0,1,.963.9" transform="translate(-0.038 -608.833)" fill="#fbf4a4"/>
            <path id="Path_890905" data-name="Path 890905" d="M86.765,679.459v3.247a.964.964,0,0,1-.967.963H79.559V679.4h7.2a.274.274,0,0,1,0,.06" transform="translate(-72.358 -617.905)" fill="#f8da47"/>
            <path id="Path_890906" data-name="Path 890906" d="M434.627,393.664v4.27h-6.235a.964.964,0,0,1-.966-.963v-3.247a.309.309,0,0,1,0-.06Z" transform="translate(-388.739 -358.032)" fill="#f9ef75"/>
            <path id="Path_890907" data-name="Path 890907" d="M441.867,384.592h-14.4a.96.96,0,0,1,.963-.9H440.9a.96.96,0,0,1,.963.9" transform="translate(-388.778 -348.96)" fill="#fbf4a4"/>
            <path id="Path_890908" data-name="Path 890908" d="M514.191,393.724v3.247a.964.964,0,0,1-.966.963h-6.239v-4.27h7.2a.317.317,0,0,1,0,.06" transform="translate(-461.097 -358.032)" fill="#f8da47"/>
            <path id="Path_890909" data-name="Path 890909" d="M434.627,336.516v4.27h-6.235a.964.964,0,0,1-.966-.963v-3.247a.313.313,0,0,1,0-.06Z" transform="translate(-388.739 -306.057)" fill="#f9ef75"/>
            <path id="Path_890910" data-name="Path 890910" d="M441.867,327.447h-14.4a.96.96,0,0,1,.963-.9H440.9a.96.96,0,0,1,.963.9" transform="translate(-388.778 -296.988)" fill="#fbf4a4"/>
            <path id="Path_890911" data-name="Path 890911" d="M514.191,336.577v3.247a.964.964,0,0,1-.966.963h-6.239v-4.27h7.2a.319.319,0,0,1,0,.06" transform="translate(-461.097 -306.058)" fill="#f8da47"/>
            <path id="Path_890912" data-name="Path 890912" d="M412.565,279.37v4.27H406.33a.964.964,0,0,1-.966-.963V279.43a.307.307,0,0,1,0-.06Z" transform="translate(-368.673 -254.084)" fill="#f9ef75"/>
            <path id="Path_890913" data-name="Path 890913" d="M419.8,270.3h-14.4a.96.96,0,0,1,.963-.9h12.473a.96.96,0,0,1,.963.9" transform="translate(-368.712 -245.011)" fill="#fbf4a4"/>
            <path id="Path_890914" data-name="Path 890914" d="M492.128,279.43v3.247a.964.964,0,0,1-.966.963h-6.238v-4.27h7.2a.308.308,0,0,1,0,.06" transform="translate(-441.031 -254.084)" fill="#f8da47"/>
            <path id="Path_890915" data-name="Path 890915" d="M443.521,450.812v4.27h-6.235a.964.964,0,0,1-.966-.963v-3.247a.307.307,0,0,1,0-.06Z" transform="translate(-396.828 -410.008)" fill="#f9ef75"/>
            <path id="Path_890916" data-name="Path 890916" d="M450.761,441.74h-14.4a.96.96,0,0,1,.963-.9H449.8a.96.96,0,0,1,.963.9" transform="translate(-396.867 -400.936)" fill="#fbf4a4"/>
            <path id="Path_890917" data-name="Path 890917" d="M523.084,450.872v3.247a.964.964,0,0,1-.966.963h-6.239v-4.27h7.2a.307.307,0,0,1,0,.06" transform="translate(-469.186 -410.008)" fill="#f8da47"/>
            <path id="Path_890918" data-name="Path 890918" d="M461.168,507.961v4.27h-6.235a.964.964,0,0,1-.966-.963v-3.247a.317.317,0,0,1,0-.06Z" transform="translate(-412.877 -461.984)" fill="#f9ef75"/>
            <path id="Path_890919" data-name="Path 890919" d="M468.409,498.889h-14.4a.96.96,0,0,1,.963-.9h12.474a.961.961,0,0,1,.963.9" transform="translate(-412.916 -452.912)" fill="#fbf4a4"/>
            <path id="Path_890920" data-name="Path 890920" d="M540.732,508.02v3.247a.964.964,0,0,1-.966.963h-6.239v-4.27h7.2a.317.317,0,0,1,0,.06" transform="translate(-485.236 -461.983)" fill="#f8da47"/>
            <path id="Path_890921" data-name="Path 890921" d="M461.168,565.109v4.27h-6.235a.964.964,0,0,1-.966-.963v-3.247a.317.317,0,0,1,0-.06Z" transform="translate(-412.877 -513.96)" fill="#f9ef75"/>
            <path id="Path_890922" data-name="Path 890922" d="M468.409,556.038h-14.4a.96.96,0,0,1,.963-.9h12.474a.96.96,0,0,1,.963.9" transform="translate(-412.916 -504.888)" fill="#fbf4a4"/>
            <path id="Path_890923" data-name="Path 890923" d="M540.732,565.168v3.247a.964.964,0,0,1-.966.963h-6.239v-4.27h7.2a.317.317,0,0,1,0,.06" transform="translate(-485.236 -513.959)" fill="#f8da47"/>
            <path id="Path_890924" data-name="Path 890924" d="M461.168,622.251v4.27h-6.235a.964.964,0,0,1-.966-.963v-3.247a.32.32,0,0,1,0-.06Z" transform="translate(-412.877 -565.929)" fill="#f9ef75"/>
            <path id="Path_890925" data-name="Path 890925" d="M468.409,613.184h-14.4a.96.96,0,0,1,.963-.9h12.474a.96.96,0,0,1,.963.9" transform="translate(-412.916 -556.863)" fill="#fbf4a4"/>
            <path id="Path_890926" data-name="Path 890926" d="M540.732,622.311v3.247a.964.964,0,0,1-.966.962h-6.239v-4.27h7.2a.32.32,0,0,1,0,.06" transform="translate(-485.236 -565.929)" fill="#f8da47"/>
            <path id="Path_890927" data-name="Path 890927" d="M461.168,679.4v4.27h-6.235a.964.964,0,0,1-.966-.963v-3.247a.32.32,0,0,1,0-.06Z" transform="translate(-412.877 -617.905)" fill="#f9ef75"/>
            <path id="Path_890928" data-name="Path 890928" d="M468.409,670.327h-14.4a.961.961,0,0,1,.963-.9h12.474a.961.961,0,0,1,.963.9" transform="translate(-412.916 -608.833)" fill="#fbf4a4"/>
            <path id="Path_890929" data-name="Path 890929" d="M540.732,679.459v3.247a.964.964,0,0,1-.966.963h-6.239V679.4h7.2a.32.32,0,0,1,0,.06" transform="translate(-485.236 -617.905)" fill="#f8da47"/>
            <path id="Path_890930" data-name="Path 890930" d="M53.912.894l-3.045.894.89,1.112L31.124,19.308l-6.466-4.291L1.783,33.125l2.273,2.6,20.7-16.752,6.469,4.64L53,4.452l.875,1.094,1.541-2.773L56.956,0Z" transform="translate(-1.621 0)" fill="#60aa45"/>
          </g>
        </g>
      </g>
    </g>
  </g>
</svg>
