<svg xmlns="http://www.w3.org/2000/svg" xmlns:xlink="http://www.w3.org/1999/xlink" width="121" height="121" viewBox="0 0 121 121">
  <defs>
    <clipPath id="clip-path">
      <rect id="Rectangle_400938" data-name="Rectangle 400938" width="121" height="121" transform="translate(0 0)" fill="none"/>
    </clipPath>
    <clipPath id="clip-path-2">
      <rect id="Rectangle_401073" data-name="Rectangle 401073" width="92.219" height="41.532" fill="#efb499"/>
    </clipPath>
    <clipPath id="clip-path-3">
      <rect id="Rectangle_404755" data-name="Rectangle 404755" width="57.634" height="69" fill="none"/>
    </clipPath>
  </defs>
  <g id="Group_1103518" data-name="Group 1103518" transform="translate(-739.998 -2590.809)">
    <g id="Group_1102070" data-name="Group 1102070" transform="translate(0.002 -3255.191)">
      <g id="Group_1100441" data-name="Group 1100441" transform="translate(352.328 -167)">
        <rect id="Rectangle_401103" data-name="Rectangle 401103" width="121" height="121" transform="translate(387.668 6013)" fill="none"/>
        <g id="Group_1099348" data-name="Group 1099348" transform="translate(387.668 6013)">
          <g id="Group_1099282" data-name="Group 1099282">
            <g id="Group_1099281" data-name="Group 1099281" clip-path="url(#clip-path-2)">
              <path id="Path_873375" data-name="Path 873375" d="M74.8,9.1c-4.139,0-6.28-2.03-8.17-3.821-1.855-1.756-3.452-3.274-6.792-3.274s-4.937,1.517-6.792,3.274C51.161,7.072,49.023,9.1,44.881,9.1s-6.28-2.03-8.169-3.821C34.857,3.525,33.26,2.007,29.92,2.007s-4.937,1.517-6.789,3.274C21.241,7.072,19.1,9.1,14.962,9.1S8.679,7.072,6.789,5.281C4.937,3.525,3.34,2.007,0,2.007V0C4.139,0,6.28,2.033,8.17,3.821c1.855,1.759,3.452,3.274,6.792,3.274S19.9,5.58,21.75,3.824C23.637,2.033,25.781,0,29.92,0s6.283,2.033,8.17,3.821c1.855,1.759,3.452,3.274,6.792,3.274s4.937-1.514,6.792-3.274C53.56,2.033,55.7,0,59.843,0s6.283,2.033,8.17,3.821C69.867,5.58,71.464,7.094,74.8,7.094S79.742,5.58,81.6,3.821C83.483,2.033,85.624,0,89.766,0V2.007c-3.34,0-4.937,1.517-6.792,3.274C81.084,7.072,78.943,9.1,74.8,9.1" transform="translate(2.453 32.43)" fill="#efb499"/>
              <path id="Path_873376" data-name="Path 873376" d="M74.8,9.1c-4.139,0-6.283-2.03-8.17-3.824-1.855-1.756-3.452-3.27-6.792-3.27s-4.937,1.514-6.792,3.27C51.164,7.072,49.023,9.1,44.881,9.1s-6.283-2.03-8.17-3.824c-1.855-1.756-3.452-3.27-6.792-3.27s-4.937,1.517-6.789,3.27C21.241,7.072,19.1,9.1,14.962,9.1S8.679,7.072,6.789,5.278C4.937,3.522,3.34,2.007,0,2.007V0C4.139,0,6.283,2.03,8.17,3.821c1.855,1.759,3.452,3.274,6.792,3.274S19.9,5.58,21.75,3.821C23.637,2.03,25.781,0,29.92,0S36.2,2.03,38.093,3.821c1.852,1.759,3.449,3.274,6.789,3.274s4.937-1.514,6.792-3.274C53.56,2.03,55.7,0,59.843,0s6.283,2.03,8.17,3.821C69.867,5.58,71.464,7.094,74.8,7.094S79.742,5.58,81.6,3.821C83.486,2.03,85.627,0,89.769,0V2.007c-3.34,0-4.94,1.517-6.8,3.27C81.084,7.072,78.943,9.1,74.8,9.1" transform="translate(1.635 21.62)" fill="#efb499"/>
              <path id="Path_873377" data-name="Path 873377" d="M74.8,9.1c-4.139,0-6.283-2.03-8.169-3.824-1.855-1.756-3.452-3.27-6.792-3.27s-4.937,1.514-6.792,3.27C51.164,7.072,49.02,9.1,44.881,9.1s-6.283-2.03-8.17-3.824c-1.855-1.756-3.452-3.27-6.792-3.27s-4.937,1.517-6.789,3.27C21.241,7.072,19.1,9.1,14.962,9.1S8.678,7.072,6.789,5.278C4.937,3.522,3.34,2.007,0,2.007V0C4.139,0,6.283,2.03,8.169,3.821c1.851,1.759,3.452,3.274,6.792,3.274S19.9,5.58,21.75,3.821C23.637,2.03,25.781,0,29.92,0S36.2,2.03,38.093,3.821c1.852,1.759,3.449,3.274,6.789,3.274s4.937-1.514,6.792-3.274C53.56,2.03,55.7,0,59.843,0s6.283,2.03,8.17,3.821C69.867,5.58,71.464,7.094,74.8,7.094S79.742,5.58,81.6,3.821C83.486,2.03,85.624,0,89.769,0V2.007c-3.34,0-4.941,1.517-6.8,3.27C81.084,7.072,78.943,9.1,74.8,9.1" transform="translate(0.818 10.81)" fill="#efb499"/>
              <path id="Path_873378" data-name="Path 873378" d="M74.8,9.1c-4.139,0-6.28-2.03-8.17-3.821-1.855-1.756-3.452-3.27-6.792-3.27s-4.937,1.514-6.789,3.27C51.164,7.069,49.023,9.1,44.881,9.1s-6.28-2.03-8.169-3.821c-1.855-1.756-3.452-3.27-6.792-3.27s-4.937,1.514-6.789,3.267C21.245,7.069,19.1,9.1,14.962,9.1S8.678,7.069,6.789,5.278C4.937,3.522,3.34,2.007,0,2.007V0C4.139,0,6.283,2.03,8.17,3.821c1.855,1.756,3.452,3.27,6.792,3.27S19.9,5.577,21.75,3.821C23.64,2.03,25.781,0,29.92,0s6.28,2.03,8.173,3.821c1.852,1.756,3.449,3.27,6.789,3.27s4.937-1.514,6.792-3.27C53.563,2.03,55.7,0,59.843,0s6.28,2.03,8.17,3.821c1.855,1.756,3.452,3.27,6.792,3.27s4.937-1.514,6.792-3.27C83.486,2.03,85.627,0,89.769,0V2.007c-3.344,0-4.941,1.514-6.8,3.27C81.084,7.069,78.943,9.1,74.8,9.1" transform="translate(0 0.003)" fill="#efb499"/>
            </g>
          </g>
        </g>
        <circle id="Ellipse_11504" data-name="Ellipse 11504" cx="50.5" cy="50.5" r="50.5" transform="translate(402.668 6031)" fill="#ffce73"/>
        <circle id="Ellipse_11503" data-name="Ellipse 11503" cx="52.5" cy="52.5" r="52.5" transform="translate(395.668 6021)" fill="#f3f9ff"/>
      </g>
      <g id="Group_1100444" data-name="Group 1100444" transform="translate(765.938 5871.804)">
        <rect id="Rectangle_401104" data-name="Rectangle 401104" width="68" height="69" transform="translate(0.061 -0.612)" fill="none"/>
        <g id="Group_1102181" data-name="Group 1102181" transform="translate(5.062 -0.612)">
          <g id="Group_1102180" data-name="Group 1102180" clip-path="url(#clip-path-3)">
            <path id="Path_890850" data-name="Path 890850" d="M308.837,0a.375.375,0,0,1,.374.374V4.421a.374.374,0,1,1-.747,0V.375A.373.373,0,0,1,308.837,0" transform="translate(-281.112)" fill="#f37b20"/>
            <path id="Path_890851" data-name="Path 890851" d="M220.189,18.541a.373.373,0,0,1,.3.148l2.073,2.7a.374.374,0,1,1-.595.455l-2.073-2.7a.373.373,0,0,1,.3-.6" transform="translate(-200.324 -16.897)" fill="#f37b20"/>
            <path id="Path_890852" data-name="Path 890852" d="M374.223,18.534a.375.375,0,0,1,.3.6l-2.074,2.706a.374.374,0,1,1-.594-.455l2.073-2.7a.374.374,0,0,1,.3-.148" transform="translate(-338.81 -16.891)" fill="#f37b20"/>
            <path id="Path_890853" data-name="Path 890853" d="M600.71,300.227a.375.375,0,0,1-.374.374h-4.048a.374.374,0,1,1,0-.748h4.047a.374.374,0,0,1,.375.375" transform="translate(-543.076 -273.265)" fill="#f37b20"/>
            <path id="Path_890854" data-name="Path 890854" d="M595.957,211.58a.374.374,0,0,1-.147.3l-2.7,2.073a.374.374,0,1,1-.455-.595l2.7-2.073a.373.373,0,0,1,.6.3" transform="translate(-539.967 -192.478)" fill="#f37b20"/>
            <path id="Path_890855" data-name="Path 890855" d="M595.96,365.612a.374.374,0,0,1-.6.3l-2.706-2.075a.374.374,0,1,1,.456-.593l2.7,2.073a.376.376,0,0,1,.148.3" transform="translate(-539.969 -330.962)" fill="#f37b20"/>
            <path id="Path_890856" data-name="Path 890856" d="M0,298.283a.374.374,0,0,1,.374-.374H4.421a.374.374,0,1,1,0,.748H.375A.374.374,0,0,1,0,298.283" transform="translate(0 -271.494)" fill="#f37b20"/>
            <path id="Path_890857" data-name="Path 890857" d="M18.535,365.61a.376.376,0,0,1,.147-.3l2.7-2.073a.374.374,0,1,1,.455.594l-2.7,2.074a.374.374,0,0,1-.6-.3" transform="translate(-16.892 -330.96)" fill="#f37b20"/>
            <path id="Path_890858" data-name="Path 890858" d="M18.535,211.577a.374.374,0,0,1,.6-.3l2.706,2.075a.374.374,0,1,1-.456.593l-2.7-2.073a.376.376,0,0,1-.147-.3" transform="translate(-16.892 -192.476)" fill="#f37b20"/>
            <path id="Path_890859" data-name="Path 890859" d="M216.6,152.033l-.762-.437.023-.56v-7.495l1.019.008a10.131,10.131,0,0,1,4.674,1.229l1.646-3.455a14.321,14.321,0,0,0-6.343-1.529l-1-.018v-3.015a.578.578,0,1,0-1.155,0v3.131l-.8.166c-4.368.908-7.3,4-7.3,7.692,0,3.928,3.686,6.347,7.29,8.2l.737.4.082.638v8.534l-1.057.073c-.131.008-.26.017-.4.017a13.665,13.665,0,0,1-5.834-1.473l-1.494,3.456a14.348,14.348,0,0,0,7.251,1.726c.1,0,.2-.009.3-.009l1.232-.043v2.959a.578.578,0,0,0,1.155,0v-3.088l.8-.167c4.73-1,7.442-3.991,7.442-8.218,0-4.359-4.012-6.95-7.5-8.723m-3.669-2.543a3.356,3.356,0,0,1-.832-2.386,3.2,3.2,0,0,1,.851-2.141l.888-.711.877-.411-.009,7.176-.923-.6Zm4.7,14.522-.807.9-.963.63v-8.878l1.1,1.015.723,1.109a4.355,4.355,0,0,1,.842,2.741,3.705,3.705,0,0,1-.894,2.484" transform="translate(-187.668 -124.105)" fill="#f37b20"/>
            <path id="Path_890860" data-name="Path 890860" d="M211.711,147.289l-.762-.437.023-.561V138.8l1.019.008a10.126,10.126,0,0,1,4.674,1.229l1.646-3.455a14.319,14.319,0,0,0-6.343-1.528l-1-.018v-3.015a.578.578,0,1,0-1.155,0v3.13l-.8.167c-4.369.908-7.306,4-7.306,7.692,0,3.928,3.686,6.347,7.29,8.2l.738.4.082.638v8.535l-1.056.073c-.132.008-.261.017-.4.017a13.679,13.679,0,0,1-5.834-1.473l-1.494,3.456a14.346,14.346,0,0,0,7.25,1.725c.1,0,.2-.008.3-.008l1.232-.043v2.959a.578.578,0,0,0,1.155,0V164.4l.8-.167c4.731-1,7.442-3.991,7.442-8.217,0-4.359-4.012-6.951-7.5-8.723m-3.669-2.544a3.353,3.353,0,0,1-.833-2.386,3.194,3.194,0,0,1,.851-2.14l.888-.711.878-.411-.009,7.177-.922-.6Zm4.7,14.522-.808.9-.964.63v-8.878l1.1,1.014.723,1.109a4.352,4.352,0,0,1,.843,2.741,3.706,3.706,0,0,1-.893,2.485" transform="translate(-183.209 -119.782)" fill="#fadf3e"/>
            <path id="Path_890861" data-name="Path 890861" d="M133.373,568.506c.056,9.713,6.984,17.568,15.525,17.568s15.468-7.855,15.524-17.568Z" transform="translate(-121.547 -518.098)" fill="#9b7b40"/>
            <path id="Path_890862" data-name="Path 890862" d="M133.373,568.506c.051,9.085,6.4,16.432,14.219,16.432s14.167-7.347,14.218-16.432Z" transform="translate(-121.547 -518.098)" fill="#7a4f00"/>
            <path id="Path_890863" data-name="Path 890863" d="M144.15,531.317a2.516,2.516,0,0,1-2.516,2.515H111.245a2.516,2.516,0,0,1,0-5.031h30.388a2.516,2.516,0,0,1,2.516,2.516" transform="translate(-99.089 -481.913)" fill="#7a4f00"/>
            <path id="Path_890864" data-name="Path 890864" d="M248.622,762.42a.732.732,0,0,1-.732.731H236.453a.732.732,0,0,1,0-1.463H247.89a.732.732,0,0,1,.732.732" transform="translate(-214.821 -694.151)" fill="#7a4f00"/>
            <path id="Path_890865" data-name="Path 890865" d="M397.218,263.1s-8.677-1.95-9.23,6.316c2.224-2.392,6.726-4.271,6.726-4.271a34.308,34.308,0,0,0-6.692,5.155c2.293,2.744,9.744-.87,9.2-7.2" transform="translate(-353.586 -239.591)" fill="#95c83d"/>
            <path id="Path_890866" data-name="Path 890866" d="M394.439,288.228s-4.5,1.879-6.726,4.271c-.016.26-.026.53-.027.811l.061.073a34.306,34.306,0,0,1,6.692-5.155" transform="translate(-353.311 -262.671)" fill="#1a924b"/>
            <path id="Path_890867" data-name="Path 890867" d="M227.562,127.033s-.7,4.351,3.4,4.376a11.643,11.643,0,0,1-2.315-3.2,17.016,17.016,0,0,0,2.752,3.156c1.288-1.217-.724-4.8-3.839-4.333" transform="translate(-207.342 -115.732)" fill="#95c83d"/>
            <path id="Path_890868" data-name="Path 890868" d="M240.295,140.734a11.647,11.647,0,0,0,2.315,3.2c.129,0,.263,0,.4-.011l.034-.032a17.02,17.02,0,0,1-2.752-3.156" transform="translate(-218.989 -128.255)" fill="#1a924b"/>
            <path id="Path_890869" data-name="Path 890869" d="M94.23,191.97s8.6-2.277,9.462,5.963c-2.313-2.307-6.883-4.013-6.883-4.013a34.308,34.308,0,0,1,6.882,4.9c-2.187,2.829-9.771-.5-9.461-6.847" transform="translate(-85.867 -174.686)" fill="#95c83d"/>
            <path id="Path_890870" data-name="Path 890870" d="M123.408,216.919s4.57,1.706,6.883,4.013c.026.259.047.528.057.809-.019.026-.038.051-.058.075a34.315,34.315,0,0,0-6.882-4.9" transform="translate(-112.466 -197.685)" fill="#1a924b"/>
            <path id="Path_890871" data-name="Path 890871" d="M418.842,443.11s-3.306-4.453-7.456-1.336a18.335,18.335,0,0,1,5.278,1.109,26.949,26.949,0,0,0-5.677-.737c-.172,2.08,5.15,3.762,7.855.964" transform="translate(-374.542 -401.593)" fill="#95c83d"/>
            <path id="Path_890872" data-name="Path 890872" d="M416.706,454.254a18.338,18.338,0,0,0-5.278-1.109c-.13.1-.262.2-.394.317,0,.019,0,.037-.005.056a26.953,26.953,0,0,1,5.677.737" transform="translate(-374.584 -412.965)" fill="#1a924b"/>
            <path id="Path_890873" data-name="Path 890873" d="M140.34,290.935s4.11,1.361,5.806-2.335a16.985,16.985,0,0,1-4.175,1.551,24.971,24.971,0,0,0,4.309-1.952c-.706-1.365-5.14-.149-5.94,2.735" transform="translate(-127.896 -262.135)" fill="#95c83d"/>
            <path id="Path_890874" data-name="Path 890874" d="M158.734,295.9a16.986,16.986,0,0,0,4.175-1.551c.053-.116.1-.238.153-.364-.006-.013-.012-.025-.019-.037a24.975,24.975,0,0,1-4.309,1.952" transform="translate(-144.659 -267.884)" fill="#1a924b"/>
            <path id="Path_890875" data-name="Path 890875" d="M164.936,586.234H134.188l-.086-.842,30.921-.015Z" transform="translate(-122.211 -533.474)" fill="#4e380e"/>
          </g>
        </g>
      </g>
    </g>
  </g>
</svg>
