<svg xmlns="http://www.w3.org/2000/svg" width="400" height="1319.98" viewBox="0 0 400 1319.98">
  <g id="Group_1103519" data-name="Group 1103519" transform="translate(-712.25 7969.963)">
    <g id="Group_1102148" data-name="Group 1102148" transform="translate(712.25 -7969.963)">
      <g id="Group_1101577" data-name="Group 1101577">
        <path id="Path_608309" data-name="Path 608309" d="M0,0H400V1319.98H0Z" fill="#fef7eb"/>
      </g>
    </g>
    <path id="Path_894489" data-name="Path 894489" d="M105.725,5.523H102.24V15H99.9V5.523H96.459v-1.9h9.266ZM109.295,15h-2.266V6.547h2.266ZM106.9,4.359a1.112,1.112,0,0,1,.34-.836,1.465,1.465,0,0,1,1.848,0,1.105,1.105,0,0,1,.344.836,1.108,1.108,0,0,1-.348.844,1.448,1.448,0,0,1-1.836,0A1.108,1.108,0,0,1,106.9,4.359Zm11.867,6.492a5.07,5.07,0,0,1-.887,3.129,2.843,2.843,0,0,1-2.395,1.176,2.633,2.633,0,0,1-2.07-.891V18.25h-2.258V6.547h2.094l.078.828a2.654,2.654,0,0,1,2.141-.984,2.862,2.862,0,0,1,2.43,1.156,5.207,5.207,0,0,1,.867,3.188Zm-2.258-.164a3.327,3.327,0,0,0-.418-1.82,1.361,1.361,0,0,0-1.215-.641,1.478,1.478,0,0,0-1.461.813V12.5a1.5,1.5,0,0,0,1.477.836Q116.506,13.336,116.506,10.688Zm3.3.008a5.013,5.013,0,0,1,.484-2.242,3.546,3.546,0,0,1,1.395-1.523,4.069,4.069,0,0,1,2.113-.539A3.849,3.849,0,0,1,126.6,7.438a4.2,4.2,0,0,1,1.207,2.844l.016.578a4.418,4.418,0,0,1-1.086,3.121,4.209,4.209,0,0,1-5.832,0,4.5,4.5,0,0,1-1.09-3.187Zm2.258.16a3.16,3.16,0,0,0,.453,1.843,1.628,1.628,0,0,0,2.578.008,3.457,3.457,0,0,0,.461-2.015A3.128,3.128,0,0,0,125.1,8.86a1.5,1.5,0,0,0-1.3-.649,1.474,1.474,0,0,0-1.281.646A3.516,3.516,0,0,0,122.068,10.856Zm10.773-.145a5.094,5.094,0,0,1,.887-3.148,2.877,2.877,0,0,1,2.426-1.172,2.589,2.589,0,0,1,2.039.922V3h2.266V15H138.42l-.109-.9a2.657,2.657,0,0,1-2.172,1.055,2.869,2.869,0,0,1-2.395-1.176A5.258,5.258,0,0,1,132.842,10.711Zm2.258.168a3.337,3.337,0,0,0,.414,1.823,1.349,1.349,0,0,0,1.2.634,1.511,1.511,0,0,0,1.477-.884V9.111a1.489,1.489,0,0,0-1.461-.884Q135.1,8.227,135.1,10.879Zm11,4.277a4.15,4.15,0,0,1-3.027-1.141,4.054,4.054,0,0,1-1.168-3.039v-.219A5.106,5.106,0,0,1,142.4,8.48a3.612,3.612,0,0,1,1.395-1.547,3.914,3.914,0,0,1,2.059-.543,3.508,3.508,0,0,1,2.73,1.094,4.444,4.444,0,0,1,1,3.1v.922h-5.383a2.1,2.1,0,0,0,.66,1.328,2,2,0,0,0,1.395.5,2.437,2.437,0,0,0,2.039-.945l1.109,1.242a3.389,3.389,0,0,1-1.375,1.121A4.511,4.511,0,0,1,146.1,15.156Zm-.258-6.945a1.411,1.411,0,0,0-1.09.455,2.357,2.357,0,0,0-.535,1.3h3.141V9.788a1.681,1.681,0,0,0-.406-1.165A1.456,1.456,0,0,0,145.842,8.211Zm13.75.453a6.134,6.134,0,0,0-.812-.062,1.654,1.654,0,0,0-1.68.867V15h-2.258V6.547h2.133l.063,1.008a2.092,2.092,0,0,1,1.883-1.164,2.366,2.366,0,0,1,.7.1Zm4.828,6.492a4.15,4.15,0,0,1-3.027-1.141,4.054,4.054,0,0,1-1.168-3.039v-.219a5.106,5.106,0,0,1,.492-2.277,3.612,3.612,0,0,1,1.395-1.547,3.914,3.914,0,0,1,2.059-.543,3.508,3.508,0,0,1,2.73,1.094,4.444,4.444,0,0,1,1,3.1v.922h-5.383a2.1,2.1,0,0,0,.66,1.328,2,2,0,0,0,1.395.5,2.437,2.437,0,0,0,2.039-.945l1.109,1.242a3.389,3.389,0,0,1-1.375,1.121A4.511,4.511,0,0,1,164.42,15.156Zm-.258-6.945a1.411,1.411,0,0,0-1.09.455,2.357,2.357,0,0,0-.535,1.3h3.141V9.788a1.681,1.681,0,0,0-.406-1.165A1.456,1.456,0,0,0,164.162,8.211Zm7.4,6.789h-2.266V3h2.266Zm6.758,0a2.507,2.507,0,0,1-.227-.758,2.732,2.732,0,0,1-2.133.914,3,3,0,0,1-2.059-.719,2.312,2.312,0,0,1-.816-1.812,2.389,2.389,0,0,1,1-2.062,4.915,4.915,0,0,1,2.879-.727H178V9.352a1.393,1.393,0,0,0-.3-.937,1.183,1.183,0,0,0-.949-.352,1.345,1.345,0,0,0-.895.273.929.929,0,0,0-.324.75h-2.258a2.268,2.268,0,0,1,.453-1.359,3,3,0,0,1,1.281-.98,4.669,4.669,0,0,1,1.859-.355,3.689,3.689,0,0,1,2.48.785,2.747,2.747,0,0,1,.918,2.207v3.664a4.041,4.041,0,0,0,.336,1.82V15Zm-1.867-1.57a1.945,1.945,0,0,0,.922-.223,1.462,1.462,0,0,0,.625-.6V11.156h-.844q-1.7,0-1.8,1.172l-.008.133a.9.9,0,0,0,.3.7A1.153,1.153,0,0,0,176.451,13.43Zm9.063-.094a1.481,1.481,0,0,0,1.016-.344,1.2,1.2,0,0,0,.406-.914h2.117a2.9,2.9,0,0,1-.469,1.574,3.093,3.093,0,0,1-1.262,1.109,3.949,3.949,0,0,1-1.77.395A3.67,3.67,0,0,1,182.693,14a4.56,4.56,0,0,1-1.047-3.184v-.148a4.508,4.508,0,0,1,1.039-3.117,3.627,3.627,0,0,1,2.852-1.164,3.555,3.555,0,0,1,2.543.9,3.2,3.2,0,0,1,.973,2.4h-2.117a1.551,1.551,0,0,0-.406-1.072,1.51,1.51,0,0,0-2.223.163,3.333,3.333,0,0,0-.4,1.866v.235a3.375,3.375,0,0,0,.4,1.878A1.377,1.377,0,0,0,185.514,13.336ZM192.725,15h-2.266V6.547h2.266Zm-2.4-10.641a1.112,1.112,0,0,1,.34-.836,1.465,1.465,0,0,1,1.848,0,1.105,1.105,0,0,1,.344.836,1.109,1.109,0,0,1-.348.844,1.448,1.448,0,0,1-1.836,0A1.109,1.109,0,0,1,190.326,4.359Zm3.906,6.336a5.013,5.013,0,0,1,.484-2.242,3.546,3.546,0,0,1,1.395-1.523,4.069,4.069,0,0,1,2.113-.539,3.849,3.849,0,0,1,2.793,1.047,4.2,4.2,0,0,1,1.207,2.844l.016.578a4.418,4.418,0,0,1-1.086,3.121,4.209,4.209,0,0,1-5.832,0,4.5,4.5,0,0,1-1.09-3.187Zm2.258.16a3.16,3.16,0,0,0,.453,1.843,1.628,1.628,0,0,0,2.578.008,3.457,3.457,0,0,0,.461-2.015,3.128,3.128,0,0,0-.461-1.831,1.5,1.5,0,0,0-1.3-.649,1.474,1.474,0,0,0-1.281.646A3.516,3.516,0,0,0,196.49,10.856ZM198.67,3h2.461l-2.164,2.422h-1.836Zm7.039,3.547.07.977a2.951,2.951,0,0,1,2.43-1.133,2.453,2.453,0,0,1,2,.789,3.682,3.682,0,0,1,.672,2.359V15h-2.258V9.594a1.465,1.465,0,0,0-.312-1.043,1.4,1.4,0,0,0-1.039-.324,1.553,1.553,0,0,0-1.43.813V15h-2.258V6.547Zm11.578,9.43h-1.68l4.188-12.352h1.68ZM229.7,12.242l1.57-5.7h2.359L230.779,15h-2.156l-2.852-8.453h2.359ZM237.061,15H234.8V6.547h2.258ZM236.4,3.117h2.461l-2.164,2.422h-1.836Zm4.688,3.43.07.977a2.951,2.951,0,0,1,2.43-1.133,2.453,2.453,0,0,1,2,.789,3.682,3.682,0,0,1,.672,2.359V15H244V9.594a1.465,1.465,0,0,0-.312-1.043,1.4,1.4,0,0,0-1.039-.324,1.553,1.553,0,0,0-1.43.813V15h-2.258V6.547Zm10.4,6.789a1.481,1.481,0,0,0,1.016-.344,1.2,1.2,0,0,0,.406-.914h2.117a2.9,2.9,0,0,1-.469,1.574,3.093,3.093,0,0,1-1.262,1.109,3.949,3.949,0,0,1-1.77.395A3.67,3.67,0,0,1,248.662,14a4.56,4.56,0,0,1-1.047-3.184v-.148a4.508,4.508,0,0,1,1.039-3.117,3.627,3.627,0,0,1,2.852-1.164,3.555,3.555,0,0,1,2.543.9,3.2,3.2,0,0,1,.973,2.4H252.9a1.551,1.551,0,0,0-.406-1.072,1.51,1.51,0,0,0-2.223.163,3.333,3.333,0,0,0-.4,1.866v.235a3.375,3.375,0,0,0,.4,1.878A1.377,1.377,0,0,0,251.482,13.336Zm9.891.8a2.831,2.831,0,0,1-2.312,1.016,2.67,2.67,0,0,1-2.074-.781,3.335,3.335,0,0,1-.73-2.289V6.547h2.258v5.467q0,1.322,1.2,1.322a1.63,1.63,0,0,0,1.578-.8V6.547h2.266V15h-2.125Zm6.273.859h-2.266V3h2.266Zm1.508-4.3a5.013,5.013,0,0,1,.484-2.242,3.546,3.546,0,0,1,1.395-1.523,4.069,4.069,0,0,1,2.113-.539,3.849,3.849,0,0,1,2.793,1.047,4.2,4.2,0,0,1,1.207,2.844l.016.578a4.418,4.418,0,0,1-1.086,3.121,4.209,4.209,0,0,1-5.832,0,4.5,4.5,0,0,1-1.09-3.187Zm2.258.16a3.16,3.16,0,0,0,.453,1.843,1.628,1.628,0,0,0,2.578.008,3.458,3.458,0,0,0,.461-2.015,3.128,3.128,0,0,0-.461-1.831,1.5,1.5,0,0,0-1.3-.649,1.474,1.474,0,0,0-1.281.646A3.516,3.516,0,0,0,271.412,10.856Z" transform="translate(727.25 -7941.552)" fill="#12263f"/>
    <g id="Group_1101712" data-name="Group 1101712" transform="translate(755.25 -7831.712)">
      <g id="Rectangle_403128" data-name="Rectangle 403128" transform="translate(0)" fill="#7d3a1b" stroke="#fff" stroke-width="5">
        <rect width="317.832" height="61" rx="12" stroke="none"/>
        <rect x="2.5" y="2.5" width="312.832" height="56" rx="9.5" fill="none"/>
      </g>
    </g>
    <g id="Group_1101712-2" data-name="Group 1101712" transform="translate(755.25 -7681.712)">
      <g id="Rectangle_403128-2" data-name="Rectangle 403128" transform="translate(0)" fill="#7d3a1b" stroke="#fff" stroke-width="5">
        <rect width="317.832" height="61" rx="12" stroke="none"/>
        <rect x="2.5" y="2.5" width="312.832" height="56" rx="9.5" fill="none"/>
      </g>
    </g>
    <g id="Group_1101712-3" data-name="Group 1101712" transform="translate(755.25 -7531.712)">
      <g id="Rectangle_403128-3" data-name="Rectangle 403128" transform="translate(0)" fill="#7d3a1b" stroke="#fff" stroke-width="5">
        <rect width="317.832" height="61" rx="12" stroke="none"/>
        <rect x="2.5" y="2.5" width="312.832" height="56" rx="9.5" fill="none"/>
      </g>
    </g>
    <g id="Group_1101712-4" data-name="Group 1101712" transform="translate(755.25 -7381.711)">
      <g id="Rectangle_403128-4" data-name="Rectangle 403128" transform="translate(0)" fill="#7d3a1b" stroke="#fff" stroke-width="5">
        <rect width="317.832" height="61" rx="12" stroke="none"/>
        <rect x="2.5" y="2.5" width="312.832" height="56" rx="9.5" fill="none"/>
      </g>
    </g>
    <path id="Path_894490" data-name="Path 894490" d="M103.443,10.18H98.865V15H96.889V3.625h7.227V5.219h-5.25V8.6h4.578Zm4.07,4.82h-1.9V3h1.9Zm7.188-.828a2.944,2.944,0,0,1-2.375.984,2.624,2.624,0,0,1-2.082-.8,3.423,3.423,0,0,1-.707-2.328V6.547h1.9V12q0,1.609,1.336,1.609a1.876,1.876,0,0,0,1.867-.992V6.547h1.9V15h-1.789ZM120.49,15h-1.9V6.547h1.9ZM118.475,4.352a1.008,1.008,0,0,1,.277-.727,1.048,1.048,0,0,1,.793-.289,1.061,1.061,0,0,1,.8.289,1,1,0,0,1,.281.727.977.977,0,0,1-.281.715,1.069,1.069,0,0,1-.8.285,1.056,1.056,0,0,1-.793-.285A.984.984,0,0,1,118.475,4.352Zm3.727,6.359a5.026,5.026,0,0,1,.906-3.137,2.9,2.9,0,0,1,2.43-1.184,2.759,2.759,0,0,1,2.172.938V3h1.9V15h-1.719l-.094-.875a2.8,2.8,0,0,1-2.273,1.031,2.887,2.887,0,0,1-2.4-1.2A5.21,5.21,0,0,1,122.2,10.711Zm1.9.164a3.519,3.519,0,0,0,.5,2.012,1.61,1.61,0,0,0,1.41.723,1.793,1.793,0,0,0,1.7-1.039V8.961a1.766,1.766,0,0,0-1.687-1.016,1.622,1.622,0,0,0-1.422.73A3.918,3.918,0,0,0,124.1,10.875ZM136.639,15a2.93,2.93,0,0,1-.219-.789,3.193,3.193,0,0,1-4.3.219,2.325,2.325,0,0,1-.8-1.8,2.4,2.4,0,0,1,1-2.074,4.865,4.865,0,0,1,2.871-.723h1.164V9.281a1.481,1.481,0,0,0-.367-1.051,1.456,1.456,0,0,0-1.117-.395,1.672,1.672,0,0,0-1.062.324,1,1,0,0,0-.414.824h-1.9a2.107,2.107,0,0,1,.461-1.3,3.071,3.071,0,0,1,1.254-.949,4.4,4.4,0,0,1,1.77-.344,3.547,3.547,0,0,1,2.367.746,2.661,2.661,0,0,1,.906,2.1v3.813a4.321,4.321,0,0,0,.32,1.82V15Zm-2.086-1.367a2.16,2.16,0,0,0,1.059-.273,1.827,1.827,0,0,0,.746-.734V11.031h-1.023a2.8,2.8,0,0,0-1.586.367,1.189,1.189,0,0,0-.531,1.039,1.109,1.109,0,0,0,.363.871A1.407,1.407,0,0,0,134.553,13.633Zm12.633-1.352L148.9,6.547h2.023l-3.359,9.734a2.73,2.73,0,0,1-2.625,2.133,3.384,3.384,0,0,1-.914-.141V16.8l.359.023a1.848,1.848,0,0,0,1.082-.262,1.734,1.734,0,0,0,.574-.878l.273-.726L143.35,6.547H145.4ZM156.67,15V7.953h-1.289V6.547h1.289V5.773a2.9,2.9,0,0,1,.781-2.172,2.993,2.993,0,0,1,2.188-.766,4.388,4.388,0,0,1,1.063.141l-.047,1.484a3.739,3.739,0,0,0-.727-.062,1.219,1.219,0,0,0-1.359,1.4v.75h1.719V7.953h-1.719V15Zm10.125-.828a2.944,2.944,0,0,1-2.375.984,2.624,2.624,0,0,1-2.082-.8,3.423,3.423,0,0,1-.707-2.328V6.547h1.9V12q0,1.609,1.336,1.609a1.876,1.876,0,0,0,1.867-.992V6.547h1.9V15h-1.789Zm7.492.984a3.928,3.928,0,0,1-2.926-1.137,4.124,4.124,0,0,1-1.121-3.027v-.234a5.072,5.072,0,0,1,.488-2.262A3.716,3.716,0,0,1,172.1,6.945a3.625,3.625,0,0,1,1.969-.555,3.318,3.318,0,0,1,2.668,1.1,4.658,4.658,0,0,1,.941,3.117v.766h-5.523a2.539,2.539,0,0,0,.7,1.656,2.1,2.1,0,0,0,1.543.609,2.571,2.571,0,0,0,2.125-1.055l1.023.977a3.418,3.418,0,0,1-1.355,1.176A4.244,4.244,0,0,1,174.287,15.156Zm-.227-7.242a1.6,1.6,0,0,0-1.262.547,2.835,2.835,0,0,0-.613,1.523H175.8V9.844a2.308,2.308,0,0,0-.508-1.441A1.586,1.586,0,0,0,174.061,7.914Zm9.516.367a4.7,4.7,0,0,0-.773-.062,1.741,1.741,0,0,0-1.758,1V15h-1.9V6.547h1.813l.047.945a2.139,2.139,0,0,1,1.906-1.1,1.777,1.777,0,0,1,.672.109Zm3.969-3.789V6.547h1.492V7.953h-1.492v4.719a1.039,1.039,0,0,0,.191.7.888.888,0,0,0,.684.215,2.924,2.924,0,0,0,.664-.078v1.469a4.676,4.676,0,0,1-1.25.18q-2.187,0-2.187-2.414V7.953h-1.391V6.547h1.391V4.492Zm6.664,10.664a3.928,3.928,0,0,1-2.926-1.137,4.124,4.124,0,0,1-1.121-3.027v-.234A5.072,5.072,0,0,1,190.65,8.5a3.716,3.716,0,0,1,1.371-1.551,3.625,3.625,0,0,1,1.969-.555,3.318,3.318,0,0,1,2.668,1.1,4.658,4.658,0,0,1,.941,3.117v.766h-5.523a2.539,2.539,0,0,0,.7,1.656,2.1,2.1,0,0,0,1.543.609,2.571,2.571,0,0,0,2.125-1.055l1.023.977a3.418,3.418,0,0,1-1.355,1.176A4.244,4.244,0,0,1,194.209,15.156Zm-.227-7.242a1.6,1.6,0,0,0-1.262.547,2.835,2.835,0,0,0-.613,1.523h3.617V9.844a2.308,2.308,0,0,0-.508-1.441A1.586,1.586,0,0,0,193.982,7.914Z" transform="translate(767.25 -7808.68)" fill="#fff"/>
    <path id="Path_894491" data-name="Path 894491" d="M107.58,10.18H103V15h-1.977V3.625h7.227V5.219H103V8.6h4.578ZM111.65,15h-1.9V3h1.9Zm7.188-.828a2.944,2.944,0,0,1-2.375.984,2.624,2.624,0,0,1-2.082-.8,3.423,3.423,0,0,1-.707-2.328V6.547h1.9V12q0,1.609,1.336,1.609a1.876,1.876,0,0,0,1.867-.992V6.547h1.9V15h-1.789Zm5.789.828h-1.9V6.547h1.9ZM122.611,4.352a1.008,1.008,0,0,1,.277-.727,1.048,1.048,0,0,1,.793-.289,1.061,1.061,0,0,1,.8.289,1,1,0,0,1,.281.727.977.977,0,0,1-.281.715,1.069,1.069,0,0,1-.8.285,1.056,1.056,0,0,1-.793-.285A.984.984,0,0,1,122.611,4.352Zm3.727,6.359a5.026,5.026,0,0,1,.906-3.137,2.9,2.9,0,0,1,2.43-1.184,2.759,2.759,0,0,1,2.172.938V3h1.9V15h-1.719l-.094-.875a2.8,2.8,0,0,1-2.273,1.031,2.887,2.887,0,0,1-2.4-1.2A5.21,5.21,0,0,1,126.338,10.711Zm1.9.164a3.519,3.519,0,0,0,.5,2.012,1.61,1.61,0,0,0,1.41.723,1.793,1.793,0,0,0,1.7-1.039V8.961a1.766,1.766,0,0,0-1.687-1.016,1.622,1.622,0,0,0-1.422.73A3.919,3.919,0,0,0,128.236,10.875ZM140.775,15a2.93,2.93,0,0,1-.219-.789,3.193,3.193,0,0,1-4.3.219,2.325,2.325,0,0,1-.8-1.8,2.4,2.4,0,0,1,1-2.074,4.865,4.865,0,0,1,2.871-.723h1.164V9.281a1.481,1.481,0,0,0-.367-1.051,1.456,1.456,0,0,0-1.117-.395,1.672,1.672,0,0,0-1.062.324,1,1,0,0,0-.414.824h-1.9a2.107,2.107,0,0,1,.461-1.3,3.071,3.071,0,0,1,1.254-.949,4.4,4.4,0,0,1,1.77-.344,3.547,3.547,0,0,1,2.367.746,2.661,2.661,0,0,1,.906,2.1v3.813a4.321,4.321,0,0,0,.32,1.82V15Zm-2.086-1.367a2.16,2.16,0,0,0,1.059-.273,1.827,1.827,0,0,0,.746-.734V11.031h-1.023a2.8,2.8,0,0,0-1.586.367,1.189,1.189,0,0,0-.531,1.039,1.109,1.109,0,0,0,.363.871A1.407,1.407,0,0,0,138.689,13.633Zm12.633-1.352,1.719-5.734h2.023l-3.359,9.734a2.73,2.73,0,0,1-2.625,2.133,3.384,3.384,0,0,1-.914-.141V16.8l.359.023a1.848,1.848,0,0,0,1.082-.262,1.734,1.734,0,0,0,.574-.878l.273-.726-2.969-8.408h2.047Zm8.461-1.57a5.026,5.026,0,0,1,.906-3.137,2.9,2.9,0,0,1,2.43-1.184,2.759,2.759,0,0,1,2.172.938V3h1.9V15h-1.719l-.094-.875a2.8,2.8,0,0,1-2.273,1.031,2.887,2.887,0,0,1-2.4-1.2A5.21,5.21,0,0,1,159.783,10.711Zm1.9.164a3.519,3.519,0,0,0,.5,2.012,1.61,1.61,0,0,0,1.41.723,1.793,1.793,0,0,0,1.7-1.039V8.961A1.766,1.766,0,0,0,163.6,7.945a1.622,1.622,0,0,0-1.422.73A3.919,3.919,0,0,0,161.682,10.875Zm11.211,4.281a3.928,3.928,0,0,1-2.926-1.137,4.124,4.124,0,0,1-1.121-3.027v-.234a5.072,5.072,0,0,1,.488-2.262,3.716,3.716,0,0,1,1.371-1.551,3.625,3.625,0,0,1,1.969-.555,3.318,3.318,0,0,1,2.668,1.1,4.658,4.658,0,0,1,.941,3.117v.766H170.76a2.539,2.539,0,0,0,.7,1.656,2.1,2.1,0,0,0,1.543.609,2.571,2.571,0,0,0,2.125-1.055l1.023.977a3.418,3.418,0,0,1-1.355,1.176A4.244,4.244,0,0,1,172.893,15.156Zm-.227-7.242a1.6,1.6,0,0,0-1.262.547,2.835,2.835,0,0,0-.613,1.523h3.617V9.844A2.308,2.308,0,0,0,173.9,8.4,1.586,1.586,0,0,0,172.666,7.914ZM173.1,3h2.164L173.1,5.367l-1.523,0Zm12.078,7.859a5.078,5.078,0,0,1-.879,3.133,2.863,2.863,0,0,1-2.418,1.164,2.758,2.758,0,0,1-2.312-1.07l-.094.914h-1.719V3h1.9V7.359a2.748,2.748,0,0,1,2.211-.969,2.9,2.9,0,0,1,2.43,1.148,5.162,5.162,0,0,1,.883,3.211Zm-1.9-.164a3.589,3.589,0,0,0-.484-2.062,1.613,1.613,0,0,0-1.406-.687,1.763,1.763,0,0,0-1.734,1.078v3.484a1.781,1.781,0,0,0,1.75,1.1,1.6,1.6,0,0,0,1.375-.664,3.477,3.477,0,0,0,.5-2.008Zm5.508,4.3h-1.9V6.547h1.9ZM186.768,4.352a1.008,1.008,0,0,1,.277-.727,1.048,1.048,0,0,1,.793-.289,1.061,1.061,0,0,1,.8.289,1,1,0,0,1,.281.727.977.977,0,0,1-.281.715,1.069,1.069,0,0,1-.8.285,1.056,1.056,0,0,1-.793-.285A.984.984,0,0,1,186.768,4.352ZM192.869,15h-1.9V3h1.9Z" transform="translate(767.25 -7660.712)" fill="#fff"/>
    <path id="Path_894492" data-name="Path 894492" d="M27.568,15H25.6V3.625h1.969Zm4.008-8.453.055.977a3.039,3.039,0,0,1,2.461-1.133q2.641,0,2.688,3.023V15h-1.9V9.523a1.741,1.741,0,0,0-.348-1.191A1.462,1.462,0,0,0,33.4,7.945a1.829,1.829,0,0,0-1.711,1.039V15h-1.9V6.547Zm9.516-2.055V6.547h1.492V7.953H41.092v4.719a1.039,1.039,0,0,0,.191.7.888.888,0,0,0,.684.215,2.924,2.924,0,0,0,.664-.078v1.469a4.676,4.676,0,0,1-1.25.18q-2.187,0-2.187-2.414V7.953H37.8V6.547h1.391V4.492Zm6.664,10.664A3.928,3.928,0,0,1,44.83,14.02a4.124,4.124,0,0,1-1.121-3.027v-.234A5.072,5.072,0,0,1,44.2,8.5a3.716,3.716,0,0,1,1.371-1.551,3.625,3.625,0,0,1,1.969-.555,3.318,3.318,0,0,1,2.668,1.1,4.658,4.658,0,0,1,.941,3.117v.766H45.623a2.539,2.539,0,0,0,.7,1.656,2.1,2.1,0,0,0,1.543.609,2.571,2.571,0,0,0,2.125-1.055l1.023.977a3.418,3.418,0,0,1-1.355,1.176A4.244,4.244,0,0,1,47.756,15.156Zm-.227-7.242a1.6,1.6,0,0,0-1.262.547,2.835,2.835,0,0,0-.613,1.523h3.617V9.844A2.307,2.307,0,0,0,48.764,8.4,1.586,1.586,0,0,0,47.529,7.914Zm9.516.367a4.7,4.7,0,0,0-.773-.062,1.741,1.741,0,0,0-1.758,1V15h-1.9V6.547h1.813l.047.945a2.139,2.139,0,0,1,1.906-1.1,1.777,1.777,0,0,1,.672.109Zm2.984-1.734.055.883a3.042,3.042,0,0,1,2.438-1.039,2.337,2.337,0,0,1,2.32,1.3,3,3,0,0,1,2.594-1.3,2.636,2.636,0,0,1,2.082.773,3.405,3.405,0,0,1,.7,2.281V15h-1.9V9.5a1.681,1.681,0,0,0-.352-1.18A1.539,1.539,0,0,0,66.8,7.945a1.581,1.581,0,0,0-1.059.348,1.833,1.833,0,0,0-.574.91l.008,5.8h-1.9V9.438a1.354,1.354,0,0,0-1.523-1.492,1.671,1.671,0,0,0-1.617.93V15h-1.9V6.547ZM74.186,15h-1.9V6.547h1.9ZM72.17,4.352a1.008,1.008,0,0,1,.277-.727,1.048,1.048,0,0,1,.793-.289,1.061,1.061,0,0,1,.8.289,1,1,0,0,1,.281.727.977.977,0,0,1-.281.715,1.069,1.069,0,0,1-.8.285,1.056,1.056,0,0,1-.793-.285A.984.984,0,0,1,72.17,4.352Zm6.461.141V6.547h1.492V7.953H78.631v4.719a1.039,1.039,0,0,0,.191.7.888.888,0,0,0,.684.215,2.925,2.925,0,0,0,.664-.078v1.469a4.676,4.676,0,0,1-1.25.18q-2.188,0-2.187-2.414V7.953H75.342V6.547h1.391V4.492Zm6.664,10.664a3.928,3.928,0,0,1-2.926-1.137,4.124,4.124,0,0,1-1.121-3.027v-.234A5.072,5.072,0,0,1,81.736,8.5a3.716,3.716,0,0,1,1.371-1.551,3.625,3.625,0,0,1,1.969-.555,3.318,3.318,0,0,1,2.668,1.1,4.658,4.658,0,0,1,.941,3.117v.766H83.162a2.539,2.539,0,0,0,.7,1.656,2.1,2.1,0,0,0,1.543.609,2.571,2.571,0,0,0,2.125-1.055l1.023.977A3.418,3.418,0,0,1,87.2,14.738,4.244,4.244,0,0,1,85.295,15.156Zm-.227-7.242a1.6,1.6,0,0,0-1.262.547,2.835,2.835,0,0,0-.613,1.523h3.617V9.844A2.307,2.307,0,0,0,86.3,8.4,1.586,1.586,0,0,0,85.068,7.914ZM91.92,6.547l.055.977a3.039,3.039,0,0,1,2.461-1.133q2.641,0,2.688,3.023V15h-1.9V9.523a1.741,1.741,0,0,0-.348-1.191,1.462,1.462,0,0,0-1.137-.387,1.829,1.829,0,0,0-1.711,1.039V15h-1.9V6.547Zm9.516-2.055V6.547h1.492V7.953h-1.492v4.719a1.039,1.039,0,0,0,.191.7.888.888,0,0,0,.684.215,2.925,2.925,0,0,0,.664-.078v1.469a4.676,4.676,0,0,1-1.25.18q-2.188,0-2.187-2.414V7.953H98.146V6.547h1.391V4.492ZM108.1,15.156a3.928,3.928,0,0,1-2.926-1.137,4.124,4.124,0,0,1-1.121-3.027v-.234a5.072,5.072,0,0,1,.488-2.262,3.716,3.716,0,0,1,1.371-1.551,3.625,3.625,0,0,1,1.969-.555,3.318,3.318,0,0,1,2.668,1.1,4.658,4.658,0,0,1,.941,3.117v.766h-5.523a2.539,2.539,0,0,0,.7,1.656,2.1,2.1,0,0,0,1.543.609,2.571,2.571,0,0,0,2.125-1.055l1.023.977A3.418,3.418,0,0,1,110,14.738,4.244,4.244,0,0,1,108.1,15.156Zm-.227-7.242a1.6,1.6,0,0,0-1.262.547A2.835,2.835,0,0,0,106,9.984h3.617V9.844a2.307,2.307,0,0,0-.508-1.441A1.586,1.586,0,0,0,107.873,7.914Zm9.609,8.063H115.99l4.477-12.352h1.492Zm13.5-.82a3.928,3.928,0,0,1-2.926-1.137,4.124,4.124,0,0,1-1.121-3.027v-.234a5.072,5.072,0,0,1,.488-2.262,3.716,3.716,0,0,1,1.371-1.551,3.625,3.625,0,0,1,1.969-.555,3.318,3.318,0,0,1,2.668,1.1,4.658,4.658,0,0,1,.941,3.117v.766H128.85a2.539,2.539,0,0,0,.7,1.656,2.1,2.1,0,0,0,1.543.609,2.571,2.571,0,0,0,2.125-1.055l1.023.977a3.418,3.418,0,0,1-1.355,1.176A4.244,4.244,0,0,1,130.982,15.156Zm-.227-7.242a1.6,1.6,0,0,0-1.262.547,2.835,2.835,0,0,0-.613,1.523H132.5V9.844A2.308,2.308,0,0,0,131.99,8.4,1.586,1.586,0,0,0,130.756,7.914Zm9.828,4.789a.861.861,0,0,0-.418-.773,4.445,4.445,0,0,0-1.387-.469,7.129,7.129,0,0,1-1.617-.516,2.158,2.158,0,0,1-1.422-1.992,2.25,2.25,0,0,1,.922-1.828,3.644,3.644,0,0,1,2.344-.734,3.792,3.792,0,0,1,2.449.75,2.38,2.38,0,0,1,.934,1.945h-1.9a1.17,1.17,0,0,0-.406-.91,1.557,1.557,0,0,0-1.078-.363,1.682,1.682,0,0,0-1.02.289.911.911,0,0,0-.395.773.769.769,0,0,0,.367.68,5.049,5.049,0,0,0,1.484.488,7.027,7.027,0,0,1,1.754.586,2.484,2.484,0,0,1,.945.816,2.082,2.082,0,0,1,.309,1.156,2.2,2.2,0,0,1-.945,1.848,4.031,4.031,0,0,1-2.477.707,4.371,4.371,0,0,1-1.852-.375,3.047,3.047,0,0,1-1.266-1.031,2.441,2.441,0,0,1-.453-1.414H137.3a1.338,1.338,0,0,0,.508,1.035,1.973,1.973,0,0,0,1.242.363,1.92,1.92,0,0,0,1.141-.285A.883.883,0,0,0,140.584,12.7Zm10.922-1.844a5.033,5.033,0,0,1-.891,3.129,3.094,3.094,0,0,1-4.617.254V18.25h-1.9V6.547h1.75l.078.859A2.788,2.788,0,0,1,148.2,6.391a2.881,2.881,0,0,1,2.426,1.152,5.167,5.167,0,0,1,.879,3.2Zm-1.891-.164a3.526,3.526,0,0,0-.5-2.008,1.638,1.638,0,0,0-1.441-.742A1.747,1.747,0,0,0,146,8.906v3.75a1.763,1.763,0,0,0,1.688.984,1.636,1.636,0,0,0,1.418-.73A3.881,3.881,0,0,0,149.615,10.7Zm3.141,0a4.984,4.984,0,0,1,.492-2.238,3.6,3.6,0,0,1,1.383-1.531,3.9,3.9,0,0,1,2.047-.535,3.692,3.692,0,0,1,2.777,1.1,4.333,4.333,0,0,1,1.152,2.922l.008.445a5.029,5.029,0,0,1-.48,2.234,3.551,3.551,0,0,1-1.375,1.523,3.925,3.925,0,0,1-2.066.539,3.667,3.667,0,0,1-2.863-1.191,4.563,4.563,0,0,1-1.074-3.176Zm1.9.164a3.406,3.406,0,0,0,.539,2.043,1.752,1.752,0,0,0,1.5.738,1.733,1.733,0,0,0,1.5-.75,3.762,3.762,0,0,0,.535-2.2,3.362,3.362,0,0,0-.551-2.031,1.856,1.856,0,0,0-2.973-.012A3.691,3.691,0,0,0,154.654,10.859Zm11.992-2.578a4.7,4.7,0,0,0-.773-.062,1.741,1.741,0,0,0-1.758,1V15h-1.9V6.547h1.813l.047.945a2.139,2.139,0,0,1,1.906-1.1,1.777,1.777,0,0,1,.672.109ZM172.662,15a2.93,2.93,0,0,1-.219-.789,3.193,3.193,0,0,1-4.3.219,2.325,2.325,0,0,1-.8-1.8,2.4,2.4,0,0,1,1-2.074,4.865,4.865,0,0,1,2.871-.723h1.164V9.281a1.481,1.481,0,0,0-.367-1.051,1.456,1.456,0,0,0-1.117-.395,1.672,1.672,0,0,0-1.062.324,1,1,0,0,0-.414.824h-1.9a2.107,2.107,0,0,1,.461-1.3,3.071,3.071,0,0,1,1.254-.949,4.4,4.4,0,0,1,1.77-.344,3.547,3.547,0,0,1,2.367.746,2.661,2.661,0,0,1,.906,2.1v3.813a4.321,4.321,0,0,0,.32,1.82V15Zm-2.086-1.367a2.16,2.16,0,0,0,1.059-.273,1.827,1.827,0,0,0,.746-.734V11.031h-1.023a2.8,2.8,0,0,0-1.586.367,1.189,1.189,0,0,0-.531,1.039,1.109,1.109,0,0,0,.363.871A1.407,1.407,0,0,0,170.576,13.633ZM171.631,3h2.164l-2.164,2.367-1.523,0Zm4.281,7.711a5.026,5.026,0,0,1,.906-3.137,2.9,2.9,0,0,1,2.43-1.184,2.759,2.759,0,0,1,2.172.938V3h1.9V15H181.6l-.094-.875a2.8,2.8,0,0,1-2.273,1.031,2.887,2.887,0,0,1-2.4-1.2A5.21,5.21,0,0,1,175.912,10.711Zm1.9.164a3.519,3.519,0,0,0,.5,2.012,1.61,1.61,0,0,0,1.41.723,1.793,1.793,0,0,0,1.7-1.039V8.961a1.766,1.766,0,0,0-1.687-1.016,1.622,1.622,0,0,0-1.422.73A3.919,3.919,0,0,0,177.811,10.875ZM187.318,15h-1.9V6.547h1.9ZM185.3,4.352a1.008,1.008,0,0,1,.277-.727,1.048,1.048,0,0,1,.793-.289,1.061,1.061,0,0,1,.8.289,1,1,0,0,1,.281.727.977.977,0,0,1-.281.715,1.069,1.069,0,0,1-.8.285,1.056,1.056,0,0,1-.793-.285A.984.984,0,0,1,185.3,4.352Zm7.555,9.289a1.716,1.716,0,0,0,1.18-.414,1.415,1.415,0,0,0,.5-1.023h1.789a2.788,2.788,0,0,1-.492,1.473,3.228,3.228,0,0,1-1.25,1.082,3.725,3.725,0,0,1-1.7.4,3.6,3.6,0,0,1-2.812-1.148,4.555,4.555,0,0,1-1.039-3.172v-.2a4.479,4.479,0,0,1,1.031-3.09,3.571,3.571,0,0,1,2.813-1.16,3.473,3.473,0,0,1,2.457.879,3.148,3.148,0,0,1,1,2.309h-1.789a1.738,1.738,0,0,0-.5-1.2,1.6,1.6,0,0,0-1.184-.469,1.671,1.671,0,0,0-1.422.668,3.408,3.408,0,0,0-.508,2.027v.3a3.465,3.465,0,0,0,.5,2.051A1.669,1.669,0,0,0,192.857,13.641ZM202.811,15a2.93,2.93,0,0,1-.219-.789,3.193,3.193,0,0,1-4.3.219,2.325,2.325,0,0,1-.8-1.8,2.4,2.4,0,0,1,1-2.074,4.865,4.865,0,0,1,2.871-.723h1.164V9.281a1.481,1.481,0,0,0-.367-1.051,1.456,1.456,0,0,0-1.117-.395,1.672,1.672,0,0,0-1.062.324,1,1,0,0,0-.414.824h-1.9a2.107,2.107,0,0,1,.461-1.3,3.071,3.071,0,0,1,1.254-.949,4.4,4.4,0,0,1,1.77-.344,3.547,3.547,0,0,1,2.367.746,2.661,2.661,0,0,1,.906,2.1v3.813a4.321,4.321,0,0,0,.32,1.82V15Zm-2.086-1.367a2.16,2.16,0,0,0,1.059-.273,1.827,1.827,0,0,0,.746-.734V11.031h-1.023a2.8,2.8,0,0,0-1.586.367,1.189,1.189,0,0,0-.531,1.039,1.109,1.109,0,0,0,.363.871A1.407,1.407,0,0,0,200.725,13.633Zm10.211,2.344h-1.492L213.92,3.625h1.492Zm13.2-5.117a5.033,5.033,0,0,1-.891,3.129,3.094,3.094,0,0,1-4.617.254V18.25h-1.9V6.547h1.75l.078.859a2.788,2.788,0,0,1,2.273-1.016,2.881,2.881,0,0,1,2.426,1.152,5.167,5.167,0,0,1,.879,3.2ZM222.24,10.7a3.526,3.526,0,0,0-.5-2.008,1.638,1.638,0,0,0-1.441-.742,1.747,1.747,0,0,0-1.672.961v3.75a1.763,1.763,0,0,0,1.688.984,1.636,1.636,0,0,0,1.418-.73A3.881,3.881,0,0,0,222.24,10.7Zm8.617,3.477a2.944,2.944,0,0,1-2.375.984,2.624,2.624,0,0,1-2.082-.8,3.423,3.423,0,0,1-.707-2.328V6.547h1.9V12q0,1.609,1.336,1.609a1.876,1.876,0,0,0,1.867-.992V6.547h1.9V15H230.9Zm5.531-7.625.055.977A3.039,3.039,0,0,1,238.9,6.391q2.641,0,2.688,3.023V15h-1.9V9.523a1.741,1.741,0,0,0-.348-1.191,1.462,1.462,0,0,0-1.137-.387A1.829,1.829,0,0,0,236.5,8.984V15h-1.9V6.547ZM245.9,4.492V6.547H247.4V7.953H245.9v4.719a1.039,1.039,0,0,0,.191.7.888.888,0,0,0,.684.215,2.924,2.924,0,0,0,.664-.078v1.469a4.676,4.676,0,0,1-1.25.18q-2.187,0-2.187-2.414V7.953h-1.391V6.547h1.391V4.492Zm8.063,9.68a2.944,2.944,0,0,1-2.375.984,2.624,2.624,0,0,1-2.082-.8,3.423,3.423,0,0,1-.707-2.328V6.547h1.9V12q0,1.609,1.336,1.609a1.876,1.876,0,0,0,1.867-.992V6.547h1.9V15h-1.789Zm8.82.828a2.929,2.929,0,0,1-.219-.789,3.193,3.193,0,0,1-4.3.219,2.325,2.325,0,0,1-.8-1.8,2.4,2.4,0,0,1,1-2.074,4.865,4.865,0,0,1,2.871-.723h1.164V9.281a1.481,1.481,0,0,0-.367-1.051,1.456,1.456,0,0,0-1.117-.395,1.672,1.672,0,0,0-1.062.324,1,1,0,0,0-.414.824h-1.9a2.107,2.107,0,0,1,.461-1.3,3.071,3.071,0,0,1,1.254-.949,4.4,4.4,0,0,1,1.77-.344,3.547,3.547,0,0,1,2.367.746,2.661,2.661,0,0,1,.906,2.1v3.813a4.321,4.321,0,0,0,.32,1.82V15ZM260.7,13.633a2.159,2.159,0,0,0,1.059-.273,1.827,1.827,0,0,0,.746-.734V11.031h-1.023a2.8,2.8,0,0,0-1.586.367,1.189,1.189,0,0,0-.531,1.039,1.109,1.109,0,0,0,.363.871A1.407,1.407,0,0,0,260.7,13.633ZM268.412,15h-1.9V3h1.9Z" transform="translate(767.25 -7521.649)" fill="#fff"/>
    <path id="Path_894493" data-name="Path 894493" d="M118.631,11.3a4.107,4.107,0,0,1-1.344,2.84,4.581,4.581,0,0,1-3.117,1.02,4.436,4.436,0,0,1-2.395-.645,4.231,4.231,0,0,1-1.6-1.832,6.611,6.611,0,0,1-.586-2.758V8.859a6.659,6.659,0,0,1,.57-2.836A4.3,4.3,0,0,1,111.8,4.133a4.566,4.566,0,0,1,2.465-.664,4.4,4.4,0,0,1,3.031,1.02,4.26,4.26,0,0,1,1.336,2.887h-1.969a2.81,2.81,0,0,0-.715-1.77,2.363,2.363,0,0,0-1.684-.543,2.308,2.308,0,0,0-1.98.942,4.709,4.709,0,0,0-.707,2.764V9.778a5,5,0,0,0,.66,2.815,2.191,2.191,0,0,0,1.934.97,2.555,2.555,0,0,0,1.75-.523,2.729,2.729,0,0,0,.742-1.742Zm1.227-.6a4.984,4.984,0,0,1,.492-2.238,3.6,3.6,0,0,1,1.383-1.531,3.9,3.9,0,0,1,2.047-.535,3.692,3.692,0,0,1,2.777,1.1,4.333,4.333,0,0,1,1.152,2.922l.008.445a5.029,5.029,0,0,1-.48,2.234,3.551,3.551,0,0,1-1.375,1.523,3.925,3.925,0,0,1-2.066.539,3.667,3.667,0,0,1-2.863-1.191,4.563,4.563,0,0,1-1.074-3.176Zm1.9.164a3.406,3.406,0,0,0,.539,2.043,1.752,1.752,0,0,0,1.5.738,1.733,1.733,0,0,0,1.5-.75,3.762,3.762,0,0,0,.535-2.2,3.362,3.362,0,0,0-.551-2.031,1.856,1.856,0,0,0-2.973-.012A3.691,3.691,0,0,0,121.756,10.859Zm9.328-4.312.055.977A3.039,3.039,0,0,1,133.6,6.391q2.641,0,2.688,3.023V15h-1.9V9.523a1.741,1.741,0,0,0-.348-1.191,1.462,1.462,0,0,0-1.137-.387,1.829,1.829,0,0,0-1.711,1.039V15h-1.9V6.547Zm12.609-2.039a10.317,10.317,0,0,0-1.375-.109q-1.531,0-1.531,1.438v.711h1.719V7.953h-1.719V15h-1.9V7.953H137.6V6.547h1.289V5.789a2.83,2.83,0,0,1,.848-2.191,3.405,3.405,0,0,1,2.371-.762,28.547,28.547,0,0,1,3.484.375V15h-1.9ZM149.709,15h-1.9V6.547h1.9ZM147.693,4.352a1.008,1.008,0,0,1,.277-.727,1.048,1.048,0,0,1,.793-.289,1.061,1.061,0,0,1,.8.289,1,1,0,0,1,.281.727.977.977,0,0,1-.281.715,1.069,1.069,0,0,1-.8.285,1.056,1.056,0,0,1-.793-.285A.984.984,0,0,1,147.693,4.352Zm7.555,9.289a1.716,1.716,0,0,0,1.18-.414,1.415,1.415,0,0,0,.5-1.023h1.789a2.788,2.788,0,0,1-.492,1.473,3.228,3.228,0,0,1-1.25,1.082,3.725,3.725,0,0,1-1.7.4,3.6,3.6,0,0,1-2.812-1.148,4.555,4.555,0,0,1-1.039-3.172v-.2a4.479,4.479,0,0,1,1.031-3.09,3.571,3.571,0,0,1,2.813-1.16,3.473,3.473,0,0,1,2.457.879,3.148,3.148,0,0,1,1,2.309h-1.789a1.738,1.738,0,0,0-.5-1.2,1.6,1.6,0,0,0-1.184-.469,1.671,1.671,0,0,0-1.422.668,3.408,3.408,0,0,0-.508,2.027v.3a3.465,3.465,0,0,0,.5,2.051A1.669,1.669,0,0,0,155.248,13.641Zm7.281-9.148V6.547h1.492V7.953h-1.492v4.719a1.039,1.039,0,0,0,.191.7.888.888,0,0,0,.684.215,2.924,2.924,0,0,0,.664-.078v1.469a4.676,4.676,0,0,1-1.25.18q-2.187,0-2.187-2.414V7.953H159.24V6.547h1.391V4.492ZM167.49,15h-1.9V6.547h1.9ZM165.475,4.352a1.008,1.008,0,0,1,.277-.727,1.048,1.048,0,0,1,.793-.289,1.061,1.061,0,0,1,.8.289,1,1,0,0,1,.281.727.977.977,0,0,1-.281.715,1.069,1.069,0,0,1-.8.285,1.056,1.056,0,0,1-.793-.285A.984.984,0,0,1,165.475,4.352Zm7.063,8.242,1.789-6.047h1.961L173.357,15h-1.648l-2.953-8.453h1.969ZM182.4,15a2.93,2.93,0,0,1-.219-.789,3.193,3.193,0,0,1-4.3.219,2.325,2.325,0,0,1-.8-1.8,2.4,2.4,0,0,1,1-2.074,4.865,4.865,0,0,1,2.871-.723h1.164V9.281a1.481,1.481,0,0,0-.367-1.051,1.456,1.456,0,0,0-1.117-.395,1.672,1.672,0,0,0-1.062.324,1,1,0,0,0-.414.824h-1.9a2.107,2.107,0,0,1,.461-1.3,3.071,3.071,0,0,1,1.254-.949,4.4,4.4,0,0,1,1.77-.344,3.547,3.547,0,0,1,2.367.746,2.661,2.661,0,0,1,.906,2.1v3.813a4.321,4.321,0,0,0,.32,1.82V15Zm-2.086-1.367a2.16,2.16,0,0,0,1.059-.273,1.827,1.827,0,0,0,.746-.734V11.031H181.1a2.8,2.8,0,0,0-1.586.367,1.189,1.189,0,0,0-.531,1.039,1.109,1.109,0,0,0,.363.871A1.407,1.407,0,0,0,180.318,13.633Z" transform="translate(767.25 -7361.648)" fill="#fff"/>
    <path id="Path_894494" data-name="Path 894494" d="M13,0H304.832a13,13,0,0,1,13,13V59a13,13,0,0,1-13,13H13A13,13,0,0,1,0,59V13A13,13,0,0,1,13,0Z" transform="translate(755.25 -7906.68)" fill="#ffe7ba"/>
    <path id="Path_894495" data-name="Path 894495" d="M0,0H293.832V15H0Z" transform="translate(767.25 -7877.68)" fill="#636363"/>
    <path id="Path_894496" data-name="Path 894496" d="M13,0H304.832a13,13,0,0,1,13,13V59a13,13,0,0,1-13,13H13A13,13,0,0,1,0,59V13A13,13,0,0,1,13,0Z" transform="translate(755.25 -7756.68)" fill="#ffe7ba"/>
    <path id="Path_894497" data-name="Path 894497" d="M0,0H293.832V4H0Z" transform="translate(767.25 -7722.68)" fill="#636363"/>
    <path id="Path_894498" data-name="Path 894498" d="M13,0H304.832a13,13,0,0,1,13,13V59a13,13,0,0,1-13,13H13A13,13,0,0,1,0,59V13A13,13,0,0,1,13,0Z" transform="translate(755.25 -7606.68)" fill="#ffe7ba"/>
    <g id="Group_1102607" data-name="Group 1102607" transform="translate(771.25 -7572.679)">
      <rect id="Rectangle_405016" data-name="Rectangle 405016" width="19" height="3" transform="translate(0)" fill="#636363"/>
      <rect id="Rectangle_405019" data-name="Rectangle 405019" width="19" height="3" transform="translate(110.481)" fill="#636363"/>
      <rect id="Rectangle_405021" data-name="Rectangle 405021" width="19" height="3" transform="translate(212.592)" fill="#636363"/>
      <rect id="Rectangle_405017" data-name="Rectangle 405017" width="19" height="3" transform="translate(55.24)" fill="#636363"/>
      <rect id="Rectangle_405018" data-name="Rectangle 405018" width="19" height="3" transform="translate(165.721)" fill="#636363"/>
      <rect id="Rectangle_405020" data-name="Rectangle 405020" width="19" height="3" transform="translate(267.832)" fill="#636363"/>
    </g>
    <path id="Path_894499" data-name="Path 894499" d="M13,0H304.832a13,13,0,0,1,13,13V64a13,13,0,0,1-13,13H13A13,13,0,0,1,0,64V13A13,13,0,0,1,13,0Z" transform="translate(755.25 -7461.679)" fill="#ffe7ba"/>
    <path id="Path_892590" data-name="Path 892590" d="M1071,2791.063l24.433,11,24.433-11,26.312,11,26.312-11,37.589,11,26.312-11,30.071,11,20.674-11,28.192,11,30.071-11,24.433,11" transform="translate(-306.25 -10220.242)" fill="none" stroke="#707070" stroke-width="3"/>
    <path id="Path_894500" data-name="Path 894500" d="M13,0H304.832a13,13,0,0,1,13,13V59a13,13,0,0,1-13,13H13A13,13,0,0,1,0,59V13A13,13,0,0,1,13,0Z" transform="translate(755.25 -7159.806)" fill="#ffe7ba"/>
    <g id="Group_1101712-5" data-name="Group 1101712" transform="translate(755.25 -7232.743)">
      <g id="Rectangle_403128-5" data-name="Rectangle 403128" transform="translate(0)" fill="#7d3a1b" stroke="#fff" stroke-width="5">
        <rect width="317.832" height="61" rx="12" stroke="none"/>
        <rect x="2.5" y="2.5" width="312.832" height="56" rx="9.5" fill="none"/>
      </g>
    </g>
    <g id="Group_1101712-6" data-name="Group 1101712" transform="translate(755.25 -7087.806)">
      <g id="Rectangle_403128-6" data-name="Rectangle 403128" transform="translate(0)" fill="#7d3a1b" stroke="#fff" stroke-width="5">
        <rect width="317.832" height="61" rx="12" stroke="none"/>
        <rect x="2.5" y="2.5" width="312.832" height="56" rx="9.5" fill="none"/>
      </g>
    </g>
    <g id="Group_1101712-7" data-name="Group 1101712" transform="translate(755.25 -6937.9)">
      <g id="Rectangle_403128-7" data-name="Rectangle 403128" transform="translate(0)" fill="#7d3a1b" stroke="#fff" stroke-width="5">
        <rect width="317.832" height="61" rx="12" stroke="none"/>
        <rect x="2.5" y="2.5" width="312.832" height="56" rx="9.5" fill="none"/>
      </g>
    </g>
    <path id="Path_894501" data-name="Path 894501" d="M105.33,15V3.625h3.359a5.269,5.269,0,0,1,2.676.672A4.581,4.581,0,0,1,113.174,6.2a6.051,6.051,0,0,1,.641,2.828V9.6a6.026,6.026,0,0,1-.645,2.844,4.526,4.526,0,0,1-1.836,1.891A5.513,5.513,0,0,1,108.6,15Zm1.977-9.781v8.2H108.6a2.968,2.968,0,0,0,2.387-.973,4.237,4.237,0,0,0,.848-2.793V9.023a4.347,4.347,0,0,0-.8-2.828,2.853,2.853,0,0,0-2.336-.977ZM117.619,15h-1.9V6.547h1.9ZM115.6,4.352a1.008,1.008,0,0,1,.277-.727,1.048,1.048,0,0,1,.793-.289,1.061,1.061,0,0,1,.8.289,1,1,0,0,1,.281.727.977.977,0,0,1-.281.715,1.069,1.069,0,0,1-.8.285,1.056,1.056,0,0,1-.793-.285A.984.984,0,0,1,115.6,4.352Zm8.82,8.352a.861.861,0,0,0-.418-.773,4.445,4.445,0,0,0-1.387-.469A7.129,7.129,0,0,1,121,10.945a2.158,2.158,0,0,1-1.422-1.992,2.25,2.25,0,0,1,.922-1.828,3.644,3.644,0,0,1,2.344-.734,3.792,3.792,0,0,1,2.449.75,2.38,2.38,0,0,1,.934,1.945h-1.9a1.17,1.17,0,0,0-.406-.91,1.557,1.557,0,0,0-1.078-.363,1.682,1.682,0,0,0-1.02.289.911.911,0,0,0-.395.773.769.769,0,0,0,.367.68,5.049,5.049,0,0,0,1.484.488,7.027,7.027,0,0,1,1.754.586,2.484,2.484,0,0,1,.945.816,2.082,2.082,0,0,1,.309,1.156,2.2,2.2,0,0,1-.945,1.848,4.031,4.031,0,0,1-2.477.707,4.371,4.371,0,0,1-1.852-.375,3.047,3.047,0,0,1-1.266-1.031,2.441,2.441,0,0,1-.453-1.414h1.844a1.338,1.338,0,0,0,.508,1.035,1.973,1.973,0,0,0,1.242.363,1.92,1.92,0,0,0,1.141-.285A.883.883,0,0,0,124.424,12.7Zm6.992.938a1.716,1.716,0,0,0,1.18-.414,1.415,1.415,0,0,0,.5-1.023h1.789a2.788,2.788,0,0,1-.492,1.473,3.228,3.228,0,0,1-1.25,1.082,3.725,3.725,0,0,1-1.7.4,3.6,3.6,0,0,1-2.812-1.148,4.555,4.555,0,0,1-1.039-3.172v-.2a4.479,4.479,0,0,1,1.031-3.09,3.571,3.571,0,0,1,2.813-1.16,3.473,3.473,0,0,1,2.457.879,3.148,3.148,0,0,1,1,2.309H133.1a1.738,1.738,0,0,0-.5-1.2,1.6,1.6,0,0,0-1.184-.469,1.671,1.671,0,0,0-1.422.668,3.408,3.408,0,0,0-.508,2.027v.3a3.465,3.465,0,0,0,.5,2.051A1.669,1.669,0,0,0,131.416,13.641Zm4.547-2.945a4.984,4.984,0,0,1,.492-2.238,3.6,3.6,0,0,1,1.383-1.531,3.9,3.9,0,0,1,2.047-.535,3.692,3.692,0,0,1,2.777,1.1,4.333,4.333,0,0,1,1.152,2.922l.008.445a5.029,5.029,0,0,1-.48,2.234,3.551,3.551,0,0,1-1.375,1.523,3.925,3.925,0,0,1-2.066.539,3.667,3.667,0,0,1-2.863-1.191,4.563,4.563,0,0,1-1.074-3.176Zm1.9.164A3.406,3.406,0,0,0,138.4,12.9a1.752,1.752,0,0,0,1.5.738,1.733,1.733,0,0,0,1.5-.75,3.762,3.762,0,0,0,.535-2.2,3.362,3.362,0,0,0-.551-2.031,1.856,1.856,0,0,0-2.973-.012A3.691,3.691,0,0,0,137.861,10.859Zm9.328-4.312.055.977a3.039,3.039,0,0,1,2.461-1.133q2.641,0,2.688,3.023V15h-1.9V9.523a1.741,1.741,0,0,0-.348-1.191,1.462,1.462,0,0,0-1.137-.387A1.829,1.829,0,0,0,147.3,8.984V15h-1.9V6.547Zm9.516-2.055V6.547H158.2V7.953h-1.492v4.719a1.039,1.039,0,0,0,.191.7.888.888,0,0,0,.684.215,2.924,2.924,0,0,0,.664-.078v1.469a4.676,4.676,0,0,1-1.25.18q-2.187,0-2.187-2.414V7.953h-1.391V6.547h1.391V4.492ZM161.666,15h-1.9V6.547h1.9ZM159.65,4.352a1.008,1.008,0,0,1,.277-.727,1.048,1.048,0,0,1,.793-.289,1.061,1.061,0,0,1,.8.289,1,1,0,0,1,.281.727.977.977,0,0,1-.281.715,1.069,1.069,0,0,1-.8.285,1.056,1.056,0,0,1-.793-.285A.984.984,0,0,1,159.65,4.352Zm5.844,2.2.055.977a3.039,3.039,0,0,1,2.461-1.133q2.641,0,2.688,3.023V15h-1.9V9.523a1.741,1.741,0,0,0-.348-1.191,1.462,1.462,0,0,0-1.137-.387A1.829,1.829,0,0,0,165.6,8.984V15h-1.9V6.547Zm12.258,7.625a2.944,2.944,0,0,1-2.375.984,2.624,2.624,0,0,1-2.082-.8,3.423,3.423,0,0,1-.707-2.328V6.547h1.9V12q0,1.609,1.336,1.609a1.876,1.876,0,0,0,1.867-.992V6.547h1.9V15H177.8Zm3.414-3.477a4.984,4.984,0,0,1,.492-2.238,3.6,3.6,0,0,1,1.383-1.531,3.9,3.9,0,0,1,2.047-.535,3.692,3.692,0,0,1,2.777,1.1,4.333,4.333,0,0,1,1.152,2.922l.008.445a5.029,5.029,0,0,1-.48,2.234,3.551,3.551,0,0,1-1.375,1.523,3.925,3.925,0,0,1-2.066.539,3.667,3.667,0,0,1-2.863-1.191,4.563,4.563,0,0,1-1.074-3.176Zm1.9.164A3.406,3.406,0,0,0,183.6,12.9a1.752,1.752,0,0,0,1.5.738,1.733,1.733,0,0,0,1.5-.75,3.762,3.762,0,0,0,.535-2.2,3.362,3.362,0,0,0-.551-2.031,1.856,1.856,0,0,0-2.973-.012A3.691,3.691,0,0,0,183.064,10.859Z" transform="translate(767.25 -7211.743)" fill="#fff"/>
    <path id="Path_894502" data-name="Path 894502" d="M123.428,15h-1.977l-5.07-8.07V15H114.4V3.625h1.977l5.086,8.1v-8.1h1.961Zm1.8-4.3a4.984,4.984,0,0,1,.492-2.238A3.6,3.6,0,0,1,127.1,6.926a3.9,3.9,0,0,1,2.047-.535,3.692,3.692,0,0,1,2.777,1.1,4.333,4.333,0,0,1,1.152,2.922l.008.445a5.029,5.029,0,0,1-.48,2.234,3.551,3.551,0,0,1-1.375,1.523,3.925,3.925,0,0,1-2.066.539,3.667,3.667,0,0,1-2.863-1.191,4.563,4.563,0,0,1-1.074-3.176Zm1.9.164a3.406,3.406,0,0,0,.539,2.043,1.752,1.752,0,0,0,1.5.738,1.733,1.733,0,0,0,1.5-.75,3.762,3.762,0,0,0,.535-2.2,3.362,3.362,0,0,0-.551-2.031,1.856,1.856,0,0,0-2.973-.012A3.691,3.691,0,0,0,127.123,10.859Zm15.273,4.3a3.928,3.928,0,0,1-2.926-1.137,4.124,4.124,0,0,1-1.121-3.027v-.234a5.072,5.072,0,0,1,.488-2.262,3.716,3.716,0,0,1,1.371-1.551,3.625,3.625,0,0,1,1.969-.555,3.318,3.318,0,0,1,2.668,1.1,4.658,4.658,0,0,1,.941,3.117v.766h-5.523a2.539,2.539,0,0,0,.7,1.656,2.1,2.1,0,0,0,1.543.609,2.571,2.571,0,0,0,2.125-1.055l1.023.977a3.418,3.418,0,0,1-1.355,1.176A4.244,4.244,0,0,1,142.4,15.156Zm-.227-7.242a1.6,1.6,0,0,0-1.262.547,2.835,2.835,0,0,0-.613,1.523h3.617V9.844A2.308,2.308,0,0,0,143.4,8.4,1.586,1.586,0,0,0,142.17,7.914Zm8.125,1.414L151.9,6.547h2.109l-2.586,4.164L154.1,15h-2.094l-1.687-2.891L148.639,15h-2.109l2.672-4.289-2.578-4.164h2.094ZM157.326,15h-1.9V6.547h1.9ZM155.311,4.352a1.008,1.008,0,0,1,.277-.727,1.048,1.048,0,0,1,.793-.289,1.061,1.061,0,0,1,.8.289,1,1,0,0,1,.281.727.977.977,0,0,1-.281.715,1.069,1.069,0,0,1-.8.285,1.056,1.056,0,0,1-.793-.285A.984.984,0,0,1,155.311,4.352Zm8.82,8.352a.861.861,0,0,0-.418-.773,4.445,4.445,0,0,0-1.387-.469,7.129,7.129,0,0,1-1.617-.516,2.158,2.158,0,0,1-1.422-1.992,2.25,2.25,0,0,1,.922-1.828,3.644,3.644,0,0,1,2.344-.734,3.792,3.792,0,0,1,2.449.75,2.38,2.38,0,0,1,.934,1.945h-1.9a1.17,1.17,0,0,0-.406-.91,1.557,1.557,0,0,0-1.078-.363,1.682,1.682,0,0,0-1.02.289.911.911,0,0,0-.395.773.769.769,0,0,0,.367.68,5.049,5.049,0,0,0,1.484.488,7.027,7.027,0,0,1,1.754.586,2.484,2.484,0,0,1,.945.816A2.082,2.082,0,0,1,166,12.6a2.2,2.2,0,0,1-.945,1.848,4.031,4.031,0,0,1-2.477.707,4.371,4.371,0,0,1-1.852-.375,3.047,3.047,0,0,1-1.266-1.031,2.441,2.441,0,0,1-.453-1.414h1.844a1.338,1.338,0,0,0,.508,1.035,1.973,1.973,0,0,0,1.242.363,1.92,1.92,0,0,0,1.141-.285A.883.883,0,0,0,164.131,12.7Zm5.9-8.211V6.547h1.492V7.953h-1.492v4.719a1.039,1.039,0,0,0,.191.7.888.888,0,0,0,.684.215,2.924,2.924,0,0,0,.664-.078v1.469a4.676,4.676,0,0,1-1.25.18q-2.187,0-2.187-2.414V7.953H166.74V6.547h1.391V4.492Zm6.664,10.664a3.928,3.928,0,0,1-2.926-1.137,4.124,4.124,0,0,1-1.121-3.027v-.234a5.072,5.072,0,0,1,.488-2.262,3.716,3.716,0,0,1,1.371-1.551,3.625,3.625,0,0,1,1.969-.555,3.318,3.318,0,0,1,2.668,1.1,4.658,4.658,0,0,1,.941,3.117v.766h-5.523a2.539,2.539,0,0,0,.7,1.656,2.1,2.1,0,0,0,1.543.609,2.571,2.571,0,0,0,2.125-1.055l1.023.977a3.418,3.418,0,0,1-1.355,1.176A4.244,4.244,0,0,1,176.693,15.156Zm-.227-7.242a1.6,1.6,0,0,0-1.262.547,2.835,2.835,0,0,0-.613,1.523h3.617V9.844A2.308,2.308,0,0,0,177.7,8.4,1.586,1.586,0,0,0,176.467,7.914Z" transform="translate(767.25 -7066.806)" fill="#fff"/>
    <path id="Path_894503" data-name="Path 894503" d="M135.717,10.625h-2.2V15h-1.977V3.625h4a4.653,4.653,0,0,1,3.039.884,3.126,3.126,0,0,1,1.07,2.557,3.2,3.2,0,0,1-.551,1.912,3.5,3.5,0,0,1-1.535,1.185l2.555,4.737V15H138Zm-2.2-1.594h2.031a2.259,2.259,0,0,0,1.563-.5,1.757,1.757,0,0,0,.563-1.379,1.871,1.871,0,0,0-.52-1.414,2.207,2.207,0,0,0-1.551-.516h-2.086Zm7.469,1.664a4.984,4.984,0,0,1,.492-2.238,3.6,3.6,0,0,1,1.383-1.531,3.9,3.9,0,0,1,2.047-.535,3.692,3.692,0,0,1,2.777,1.1,4.333,4.333,0,0,1,1.152,2.922l.008.445a5.029,5.029,0,0,1-.48,2.234,3.551,3.551,0,0,1-1.375,1.523,3.925,3.925,0,0,1-2.066.539,3.667,3.667,0,0,1-2.863-1.191,4.563,4.563,0,0,1-1.074-3.176Zm1.9.164a3.406,3.406,0,0,0,.539,2.043,1.752,1.752,0,0,0,1.5.738,1.733,1.733,0,0,0,1.5-.75,3.762,3.762,0,0,0,.535-2.2,3.362,3.362,0,0,0-.551-2.031,1.856,1.856,0,0,0-2.973-.012A3.691,3.691,0,0,0,142.881,10.859Zm9.945-6.367V6.547h1.492V7.953h-1.492v4.719a1.039,1.039,0,0,0,.191.7.888.888,0,0,0,.684.215,2.924,2.924,0,0,0,.664-.078v1.469a4.676,4.676,0,0,1-1.25.18q-2.187,0-2.187-2.414V7.953h-1.391V6.547h1.391V4.492ZM160.818,15a2.93,2.93,0,0,1-.219-.789,3.193,3.193,0,0,1-4.3.219,2.325,2.325,0,0,1-.8-1.8,2.4,2.4,0,0,1,1-2.074,4.865,4.865,0,0,1,2.871-.723h1.164V9.281a1.481,1.481,0,0,0-.367-1.051,1.456,1.456,0,0,0-1.117-.395,1.672,1.672,0,0,0-1.062.324,1,1,0,0,0-.414.824h-1.9a2.107,2.107,0,0,1,.461-1.3,3.071,3.071,0,0,1,1.254-.949,4.4,4.4,0,0,1,1.77-.344,3.547,3.547,0,0,1,2.367.746,2.661,2.661,0,0,1,.906,2.1v3.813a4.321,4.321,0,0,0,.32,1.82V15Zm-2.086-1.367a2.16,2.16,0,0,0,1.059-.273,1.827,1.827,0,0,0,.746-.734V11.031h-1.023a2.8,2.8,0,0,0-1.586.367,1.189,1.189,0,0,0-.531,1.039,1.109,1.109,0,0,0,.363.871A1.407,1.407,0,0,0,158.732,13.633Z" transform="translate(767.25 -6916.805)" fill="#fff"/>
    <path id="Path_894504" data-name="Path 894504" d="M13,0H304.832a13,13,0,0,1,13,13V59a13,13,0,0,1-13,13H13A13,13,0,0,1,0,59V13A13,13,0,0,1,13,0Z" transform="translate(755.25 -7009.9)" fill="#ffe7ba"/>
    <path id="Path_894505" data-name="Path 894505" d="M0,0H293.832V4H0Z" transform="translate(771.25 -6969.9)" fill="#636363"/>
    <path id="Path_894506" data-name="Path 894506" d="M0,0H39.023V4H0Z" transform="translate(931.389 -6952.224) rotate(-132)" fill="#636363"/>
    <path id="Path_894507" data-name="Path 894507" d="M0,0H39.023V4H0Z" transform="translate(905.277 -6954.9) rotate(-48)" fill="#636363"/>
    <path id="Path_894508" data-name="Path 894508" d="M13,0H304.832a13,13,0,0,1,13,13V59a13,13,0,0,1-13,13H13A13,13,0,0,1,0,59V13A13,13,0,0,1,13,0Z" transform="translate(755.25 -7307.711)" fill="#ffe7ba"/>
    <path id="Path_894509" data-name="Path 894509" d="M0,0H293.832V4H0Z" transform="translate(767.25 -7268.711)" fill="#636363"/>
    <path id="Path_894510" data-name="Path 894510" d="M0,0H26V4H0Z" transform="translate(895.408 -7257.711) rotate(-90)" fill="#636363"/>
    <path id="Path_894511" data-name="Path 894511" d="M0,0H26V4H0Z" transform="translate(906.072 -7252.711) rotate(-90)" fill="#636363"/>
    <g id="Group_1102615" data-name="Group 1102615" transform="translate(868.942 -6782.981)">
      <path id="Path_894514" data-name="Path 894514" d="M13.547,15V3.625h3.5A5.315,5.315,0,0,1,19.73,4.3a4.712,4.712,0,0,1,1.848,1.922,5.928,5.928,0,0,1,.664,2.832v.523a5.945,5.945,0,0,1-.652,2.82,4.672,4.672,0,0,1-1.84,1.914A5.355,5.355,0,0,1,17.07,15Zm2.344-9.477v7.594h1.133a2.545,2.545,0,0,0,2.1-.9,4.06,4.06,0,0,0,.742-2.57v-.6a4.124,4.124,0,0,0-.719-2.629,2.537,2.537,0,0,0-2.1-.895Zm11.8,9.633a4.15,4.15,0,0,1-3.027-1.141,4.054,4.054,0,0,1-1.168-3.039v-.219a5.106,5.106,0,0,1,.492-2.277,3.612,3.612,0,0,1,1.395-1.547,3.914,3.914,0,0,1,2.059-.543,3.508,3.508,0,0,1,2.73,1.094,4.444,4.444,0,0,1,1,3.1v.922H25.781a2.1,2.1,0,0,0,.66,1.328,2,2,0,0,0,1.395.5,2.437,2.437,0,0,0,2.039-.945l1.109,1.242a3.389,3.389,0,0,1-1.375,1.121A4.511,4.511,0,0,1,27.688,15.156ZM27.43,8.211a1.411,1.411,0,0,0-1.09.455,2.357,2.357,0,0,0-.535,1.3h3.141V9.788a1.681,1.681,0,0,0-.406-1.165A1.456,1.456,0,0,0,27.43,8.211Zm9.594,4.453a.727.727,0,0,0-.41-.652,4.659,4.659,0,0,0-1.316-.426q-3.016-.633-3.016-2.562a2.323,2.323,0,0,1,.934-1.879,3.766,3.766,0,0,1,2.441-.754,4.053,4.053,0,0,1,2.574.758A2.388,2.388,0,0,1,39.2,9.117H36.938a1.092,1.092,0,0,0-.312-.8A1.322,1.322,0,0,0,35.648,8a1.351,1.351,0,0,0-.883.258.814.814,0,0,0-.312.656.7.7,0,0,0,.355.605,3.657,3.657,0,0,0,1.2.4,9.8,9.8,0,0,1,1.422.379,2.336,2.336,0,0,1,1.789,2.273,2.2,2.2,0,0,1-.992,1.871,4.28,4.28,0,0,1-2.562.715,4.47,4.47,0,0,1-1.887-.379,3.166,3.166,0,0,1-1.293-1.039,2.414,2.414,0,0,1-.469-1.426h2.141a1.179,1.179,0,0,0,.445.922,1.766,1.766,0,0,0,1.109.32,1.635,1.635,0,0,0,.98-.246A.766.766,0,0,0,37.023,12.664Zm3.3-1.953a5.094,5.094,0,0,1,.887-3.148,2.877,2.877,0,0,1,2.426-1.172,2.589,2.589,0,0,1,2.039.922V3h2.266V15H45.9l-.109-.9a2.657,2.657,0,0,1-2.172,1.055,2.869,2.869,0,0,1-2.395-1.176A5.258,5.258,0,0,1,40.32,10.711Zm2.258.168a3.337,3.337,0,0,0,.414,1.823,1.349,1.349,0,0,0,1.2.634,1.511,1.511,0,0,0,1.477-.884V9.111a1.489,1.489,0,0,0-1.461-.884Q42.578,8.227,42.578,10.879Zm11,4.277a4.15,4.15,0,0,1-3.027-1.141,4.054,4.054,0,0,1-1.168-3.039v-.219a5.106,5.106,0,0,1,.492-2.277A3.612,3.612,0,0,1,51.27,6.934a3.914,3.914,0,0,1,2.059-.543,3.508,3.508,0,0,1,2.73,1.094,4.444,4.444,0,0,1,1,3.1v.922H51.672a2.1,2.1,0,0,0,.66,1.328,2,2,0,0,0,1.395.5,2.437,2.437,0,0,0,2.039-.945l1.109,1.242A3.389,3.389,0,0,1,55.5,14.754,4.511,4.511,0,0,1,53.578,15.156ZM53.32,8.211a1.411,1.411,0,0,0-1.09.455,2.357,2.357,0,0,0-.535,1.3h3.141V9.788a1.681,1.681,0,0,0-.406-1.165A1.456,1.456,0,0,0,53.32,8.211Z" transform="translate(19.499 2.999)" fill="#12263f"/>
      <g id="Union_8" data-name="Union 8" fill="#636363">
        <path d="M 6.355589866638184 22.55376243591309 L 6.355589866638184 17.80175590515137 L 6.355589866638184 17.30175590515137 L 5.855589866638184 17.30175590515137 L 0.4999996423721313 17.30175590515137 L 0.4999996423721313 6.122065544128418 L 5.855589866638184 6.122065544128418 L 6.355589866638184 6.122065544128418 L 6.355589866638184 5.622065544128418 L 6.355589866638184 0.8690558075904846 L 25.00400352478027 11.71095561981201 L 6.355589866638184 22.55376243591309 Z" stroke="none"/>
        <path d="M 6.855589866638184 21.6846809387207 L 24.00924873352051 11.71097278594971 L 6.855589866638184 1.738100051879883 L 6.855589866638184 6.622065544128418 L 0.9999996423721313 6.622065544128418 L 0.9999996423721313 16.80175590515137 L 6.855589866638184 16.80175590515137 L 6.855589866638184 21.6846809387207 M 5.855589866638184 23.42285537719727 L 5.855589866638184 17.80175590515137 L -3.51562505329639e-07 17.80175590515137 L -3.51562505329639e-07 5.622065544128418 L 5.855589866638184 5.622065544128418 L 5.855589866638184 -4.218749836581992e-06 L 25.998779296875 11.71093559265137 L 5.855589866638184 23.42285537719727 Z" stroke="none" fill="#707070"/>
      </g>
    </g>
    <g id="Group_1102616" data-name="Group 1102616" transform="translate(868.166 -6746.905)">
      <path id="Path_894515" data-name="Path 894515" d="M24.75,15H22.406V10.125h-4.57V15H15.492V3.625h2.344V8.234h4.57V3.625H24.75Zm6.8,0a2.507,2.507,0,0,1-.227-.758,2.732,2.732,0,0,1-2.133.914,3,3,0,0,1-2.059-.719,2.312,2.312,0,0,1-.816-1.812,2.389,2.389,0,0,1,1-2.062,4.915,4.915,0,0,1,2.879-.727h1.039V9.352a1.393,1.393,0,0,0-.3-.937,1.183,1.183,0,0,0-.949-.352,1.345,1.345,0,0,0-.895.273.929.929,0,0,0-.324.75H26.5a2.268,2.268,0,0,1,.453-1.359,3,3,0,0,1,1.281-.98,4.669,4.669,0,0,1,1.859-.355,3.689,3.689,0,0,1,2.48.785,2.747,2.747,0,0,1,.918,2.207v3.664a4.041,4.041,0,0,0,.336,1.82V15ZM29.68,13.43a1.945,1.945,0,0,0,.922-.223,1.462,1.462,0,0,0,.625-.6V11.156h-.844q-1.7,0-1.8,1.172l-.008.133a.9.9,0,0,0,.3.7A1.153,1.153,0,0,0,29.68,13.43Zm9.063-.094a1.481,1.481,0,0,0,1.016-.344,1.2,1.2,0,0,0,.406-.914h2.117a2.9,2.9,0,0,1-.469,1.574,3.093,3.093,0,0,1-1.262,1.109,3.949,3.949,0,0,1-1.77.395A3.67,3.67,0,0,1,35.922,14a4.56,4.56,0,0,1-1.047-3.184v-.148a4.508,4.508,0,0,1,1.039-3.117,3.627,3.627,0,0,1,2.852-1.164,3.555,3.555,0,0,1,2.543.9,3.2,3.2,0,0,1,.973,2.4H40.164a1.551,1.551,0,0,0-.406-1.072,1.51,1.51,0,0,0-2.223.163,3.333,3.333,0,0,0-.4,1.866v.235a3.375,3.375,0,0,0,.4,1.878A1.377,1.377,0,0,0,38.742,13.336ZM45.953,15H43.688V6.547h2.266Zm-2.4-10.641a1.112,1.112,0,0,1,.34-.836,1.465,1.465,0,0,1,1.848,0,1.105,1.105,0,0,1,.344.836,1.108,1.108,0,0,1-.348.844,1.448,1.448,0,0,1-1.836,0A1.108,1.108,0,0,1,43.555,4.359ZM52.711,15a2.507,2.507,0,0,1-.227-.758,2.732,2.732,0,0,1-2.133.914,3,3,0,0,1-2.059-.719,2.312,2.312,0,0,1-.816-1.812,2.389,2.389,0,0,1,1-2.062,4.915,4.915,0,0,1,2.879-.727h1.039V9.352a1.393,1.393,0,0,0-.3-.937,1.183,1.183,0,0,0-.949-.352,1.345,1.345,0,0,0-.895.273.929.929,0,0,0-.324.75H47.664a2.268,2.268,0,0,1,.453-1.359,3,3,0,0,1,1.281-.98,4.669,4.669,0,0,1,1.859-.355,3.689,3.689,0,0,1,2.48.785,2.747,2.747,0,0,1,.918,2.207v3.664a4.041,4.041,0,0,0,.336,1.82V15Zm-1.867-1.57a1.945,1.945,0,0,0,.922-.223,1.462,1.462,0,0,0,.625-.6V11.156h-.844q-1.7,0-1.8,1.172l-.008.133a.9.9,0,0,0,.3.7A1.153,1.153,0,0,0,50.844,13.43Z" transform="translate(22 3)" fill="#12263f"/>
      <g id="Union_10" data-name="Union 10" transform="translate(25.999 23.423) rotate(180)" fill="#636363">
        <path d="M 6.355589866638184 22.55376243591309 L 6.355589866638184 17.80175590515137 L 6.355589866638184 17.30175590515137 L 5.855589866638184 17.30175590515137 L 0.4999996423721313 17.30175590515137 L 0.4999996423721313 6.122065544128418 L 5.855589866638184 6.122065544128418 L 6.355589866638184 6.122065544128418 L 6.355589866638184 5.622065544128418 L 6.355589866638184 0.8690558075904846 L 25.00400352478027 11.71095561981201 L 6.355589866638184 22.55376243591309 Z" stroke="none"/>
        <path d="M 6.855589866638184 21.6846809387207 L 24.00924873352051 11.71097278594971 L 6.855589866638184 1.738100051879883 L 6.855589866638184 6.622065544128418 L 0.9999996423721313 6.622065544128418 L 0.9999996423721313 16.80175590515137 L 6.855589866638184 16.80175590515137 L 6.855589866638184 21.6846809387207 M 5.855589866638184 23.42285537719727 L 5.855589866638184 17.80175590515137 L -3.51562505329639e-07 17.80175590515137 L -3.51562505329639e-07 5.622065544128418 L 5.855589866638184 5.622065544128418 L 5.855589866638184 -4.218749836581992e-06 L 25.998779296875 11.71093559265137 L 5.855589866638184 23.42285537719727 Z" stroke="none" fill="#707070"/>
      </g>
    </g>
    <g id="Group_1102614" data-name="Group 1102614" transform="translate(776.25 -6710.982)">
      <path id="Path_894516" data-name="Path 894516" d="M25.031,10.07h-4.5v3.047h5.281V15H18.188V3.625H25.8v1.9H20.531V8.234h4.5Zm4.086-3.523.07.977a2.951,2.951,0,0,1,2.43-1.133,2.453,2.453,0,0,1,2,.789,3.682,3.682,0,0,1,.672,2.359V15H32.031V9.594a1.465,1.465,0,0,0-.312-1.043,1.4,1.4,0,0,0-1.039-.324,1.553,1.553,0,0,0-1.43.813V15H26.992V6.547ZM44.883,15a2.507,2.507,0,0,1-.227-.758,2.732,2.732,0,0,1-2.133.914,3,3,0,0,1-2.059-.719,2.312,2.312,0,0,1-.816-1.812,2.389,2.389,0,0,1,1-2.062,4.915,4.915,0,0,1,2.879-.727h1.039V9.352a1.393,1.393,0,0,0-.3-.937,1.183,1.183,0,0,0-.949-.352,1.345,1.345,0,0,0-.895.273.929.929,0,0,0-.324.75H39.836a2.268,2.268,0,0,1,.453-1.359,3,3,0,0,1,1.281-.98,4.669,4.669,0,0,1,1.859-.355,3.689,3.689,0,0,1,2.48.785,2.747,2.747,0,0,1,.918,2.207v3.664a4.041,4.041,0,0,0,.336,1.82V15Zm-1.867-1.57a1.945,1.945,0,0,0,.922-.223,1.462,1.462,0,0,0,.625-.6V11.156h-.844q-1.7,0-1.8,1.172l-.008.133a.9.9,0,0,0,.3.7A1.153,1.153,0,0,0,43.016,13.43ZM50.68,6.547l.07.945a2.971,2.971,0,0,1,2.43-1.1A2.255,2.255,0,0,1,55.422,7.68a2.9,2.9,0,0,1,2.539-1.289,2.521,2.521,0,0,1,2.047.8A3.681,3.681,0,0,1,60.68,9.6V15H58.414V9.609a1.61,1.61,0,0,0-.281-1.051,1.246,1.246,0,0,0-.992-.332,1.409,1.409,0,0,0-1.406.969l.008,5.8H53.484V9.617A1.59,1.59,0,0,0,53.2,8.555a1.259,1.259,0,0,0-.984-.328,1.463,1.463,0,0,0-1.391.8V15H48.563V6.547Zm19.352,4.3a5.119,5.119,0,0,1-.867,3.168,2.872,2.872,0,0,1-2.422,1.137,2.639,2.639,0,0,1-2.2-1.055l-.1.9H62.414V3h2.258V7.3a2.571,2.571,0,0,1,2.055-.914,2.9,2.9,0,0,1,2.426,1.137,5.126,5.126,0,0,1,.879,3.2Zm-2.258-.164a3.363,3.363,0,0,0-.406-1.871,1.374,1.374,0,0,0-1.211-.59,1.489,1.489,0,0,0-1.484.883v3.336a1.509,1.509,0,0,0,1.5.891,1.394,1.394,0,0,0,1.438-1.078A5.562,5.562,0,0,0,67.773,10.688Zm3.3.008a5.013,5.013,0,0,1,.484-2.242A3.546,3.546,0,0,1,72.949,6.93a4.069,4.069,0,0,1,2.113-.539,3.849,3.849,0,0,1,2.793,1.047,4.2,4.2,0,0,1,1.207,2.844l.016.578a4.418,4.418,0,0,1-1.086,3.121,4.209,4.209,0,0,1-5.832,0A4.5,4.5,0,0,1,71.07,10.8Zm2.258.16a3.16,3.16,0,0,0,.453,1.843,1.628,1.628,0,0,0,2.578.008,3.457,3.457,0,0,0,.461-2.015,3.128,3.128,0,0,0-.461-1.831,1.5,1.5,0,0,0-1.3-.649,1.474,1.474,0,0,0-1.281.646A3.516,3.516,0,0,0,73.328,10.856Zm11.719,1.808a.727.727,0,0,0-.41-.652,4.659,4.659,0,0,0-1.316-.426Q80.3,10.953,80.3,9.023a2.323,2.323,0,0,1,.934-1.879,3.766,3.766,0,0,1,2.441-.754,4.053,4.053,0,0,1,2.574.758,2.388,2.388,0,0,1,.965,1.969H84.961a1.092,1.092,0,0,0-.312-.8A1.322,1.322,0,0,0,83.672,8a1.351,1.351,0,0,0-.883.258.814.814,0,0,0-.312.656.7.7,0,0,0,.355.605,3.657,3.657,0,0,0,1.2.4,9.8,9.8,0,0,1,1.422.379,2.336,2.336,0,0,1,1.789,2.273,2.2,2.2,0,0,1-.992,1.871,4.28,4.28,0,0,1-2.562.715,4.47,4.47,0,0,1-1.887-.379,3.166,3.166,0,0,1-1.293-1.039,2.414,2.414,0,0,1-.469-1.426H82.18a1.179,1.179,0,0,0,.445.922,1.766,1.766,0,0,0,1.109.32,1.635,1.635,0,0,0,.98-.246A.766.766,0,0,0,85.047,12.664Z" transform="translate(111.297 2.001)" fill="#12263f"/>
      <g id="Union_9" data-name="Union 9" transform="translate(91.297 0.001)" fill="#636363">
        <path d="M 6.355589866638184 22.55376243591309 L 6.355589866638184 17.80175590515137 L 6.355589866638184 17.30175590515137 L 5.855589866638184 17.30175590515137 L 0.4999996423721313 17.30175590515137 L 0.4999996423721313 6.122065544128418 L 5.855589866638184 6.122065544128418 L 6.355589866638184 6.122065544128418 L 6.355589866638184 5.622065544128418 L 6.355589866638184 0.8690558075904846 L 25.00400352478027 11.71095561981201 L 6.355589866638184 22.55376243591309 Z" stroke="none"/>
        <path d="M 6.855589866638184 21.6846809387207 L 24.00924873352051 11.71097278594971 L 6.855589866638184 1.738100051879883 L 6.855589866638184 6.622065544128418 L 0.9999996423721313 6.622065544128418 L 0.9999996423721313 16.80175590515137 L 6.855589866638184 16.80175590515137 L 6.855589866638184 21.6846809387207 M 5.855589866638184 23.42285537719727 L 5.855589866638184 17.80175590515137 L -3.51562505329639e-07 17.80175590515137 L -3.51562505329639e-07 5.622065544128418 L 5.855589866638184 5.622065544128418 L 5.855589866638184 -4.218749836581992e-06 L 25.998779296875 11.71093559265137 L 5.855589866638184 23.42285537719727 Z" stroke="none" fill="#707070"/>
      </g>
      <g id="Union_11" data-name="Union 11" transform="translate(74.999 23.423) rotate(180)" fill="#636363">
        <path d="M 6.355589866638184 22.55376243591309 L 6.355589866638184 17.80175590515137 L 6.355589866638184 17.30175590515137 L 5.855589866638184 17.30175590515137 L 0.4999996423721313 17.30175590515137 L 0.4999996423721313 6.122065544128418 L 5.855589866638184 6.122065544128418 L 6.355589866638184 6.122065544128418 L 6.355589866638184 5.622065544128418 L 6.355589866638184 0.8690558075904846 L 25.00400352478027 11.71095561981201 L 6.355589866638184 22.55376243591309 Z" stroke="none"/>
        <path d="M 6.855589866638184 21.6846809387207 L 24.00924873352051 11.71097278594971 L 6.855589866638184 1.738100051879883 L 6.855589866638184 6.622065544128418 L 0.9999996423721313 6.622065544128418 L 0.9999996423721313 16.80175590515137 L 6.855589866638184 16.80175590515137 L 6.855589866638184 21.6846809387207 M 5.855589866638184 23.42285537719727 L 5.855589866638184 17.80175590515137 L -3.51562505329639e-07 17.80175590515137 L -3.51562505329639e-07 5.622065544128418 L 5.855589866638184 5.622065544128418 L 5.855589866638184 -4.218749836581992e-06 L 25.998779296875 11.71093559265137 L 5.855589866638184 23.42285537719727 Z" stroke="none" fill="#707070"/>
      </g>
    </g>
    <g id="Path_894512" data-name="Path 894512" transform="translate(758.25 -6830.103)" fill="none">
      <path d="M15,0H295.832a15,15,0,0,1,15,15V143.216a15,15,0,0,1-15,15H15a15,15,0,0,1-15-15V15A15,15,0,0,1,15,0Z" stroke="none"/>
      <path d="M 14.99996948242188 0.9999847412109375 C 11.26043701171875 0.9999847412109375 7.7447509765625 2.456253051757812 5.1004638671875 5.100494384765625 C 2.45623779296875 7.7447509765625 0.999969482421875 11.26045227050781 0.999969482421875 14.99998474121094 L 0.999969482421875 143.2158355712891 C 0.999969482421875 146.9553680419922 2.45623779296875 150.4710693359375 5.1004638671875 153.1153259277344 C 7.7447509765625 155.7595672607422 11.26043701171875 157.2158355712891 14.99996948242188 157.2158355712891 L 295.83203125 157.2158355712891 C 299.5715637207031 157.2158355712891 303.0872497558594 155.7595672607422 305.7315063476562 153.1153259277344 C 308.375732421875 150.4710693359375 309.8320007324219 146.9553680419922 309.8320007324219 143.2158355712891 L 309.8320007324219 14.99998474121094 C 309.8320007324219 11.26045227050781 308.375732421875 7.7447509765625 305.7315063476562 5.100494384765625 C 303.0872497558594 2.456253051757812 299.5715637207031 0.9999847412109375 295.83203125 0.9999847412109375 L 14.99996948242188 0.9999847412109375 M 14.99996948242188 -1.52587890625e-05 L 295.83203125 -1.52587890625e-05 C 304.1162719726562 -1.52587890625e-05 310.8320007324219 6.715713500976562 310.8320007324219 14.99998474121094 L 310.8320007324219 143.2158355712891 C 310.8320007324219 151.5001068115234 304.1162719726562 158.2158355712891 295.83203125 158.2158355712891 L 14.99996948242188 158.2158355712891 C 6.7156982421875 158.2158355712891 -3.0517578125e-05 151.5001068115234 -3.0517578125e-05 143.2158355712891 L -3.0517578125e-05 14.99998474121094 C -3.0517578125e-05 6.715713500976562 6.7156982421875 -1.52587890625e-05 14.99996948242188 -1.52587890625e-05 Z" stroke="none" fill="#707070"/>
    </g>
    <g id="Group_1102609" data-name="Group 1102609" transform="translate(755.25 -6859.666)">
      <g id="Group_1101712-8" data-name="Group 1101712">
        <rect id="Rectangle_403128-8" data-name="Rectangle 403128" width="317.832" height="61" rx="12" transform="translate(0)" fill="#efb499"/>
      </g>
    </g>
    <path id="Path_894513" data-name="Path 894513" d="M126.674,12.07a1.374,1.374,0,0,0-.527-1.156,6.345,6.345,0,0,0-1.9-.82,9.186,9.186,0,0,1-2.187-.922A2.919,2.919,0,0,1,120.5,6.625a2.772,2.772,0,0,1,1.121-2.266,4.538,4.538,0,0,1,2.91-.891,4.916,4.916,0,0,1,2.117.438,3.475,3.475,0,0,1,1.461,1.246,3.2,3.2,0,0,1,.531,1.793h-1.969a1.782,1.782,0,0,0-.559-1.395,2.305,2.305,0,0,0-1.6-.5,2.408,2.408,0,0,0-1.5.414,1.379,1.379,0,0,0-.535,1.156,1.247,1.247,0,0,0,.578,1.043,6.66,6.66,0,0,0,1.906.813,8.769,8.769,0,0,1,2.133.9,3.392,3.392,0,0,1,1.18,1.156,3.011,3.011,0,0,1,.375,1.527,2.707,2.707,0,0,1-1.09,2.262,4.727,4.727,0,0,1-2.957.84,5.557,5.557,0,0,1-2.27-.457,3.812,3.812,0,0,1-1.609-1.262,3.144,3.144,0,0,1-.574-1.875h1.977a1.84,1.84,0,0,0,.641,1.5,2.805,2.805,0,0,0,1.836.531,2.437,2.437,0,0,0,1.551-.418A1.349,1.349,0,0,0,126.674,12.07Zm7.25,3.086A3.928,3.928,0,0,1,131,14.02a4.124,4.124,0,0,1-1.121-3.027v-.234a5.072,5.072,0,0,1,.488-2.262,3.716,3.716,0,0,1,1.371-1.551,3.625,3.625,0,0,1,1.969-.555,3.318,3.318,0,0,1,2.668,1.1,4.658,4.658,0,0,1,.941,3.117v.766h-5.523a2.539,2.539,0,0,0,.7,1.656,2.1,2.1,0,0,0,1.543.609,2.571,2.571,0,0,0,2.125-1.055l1.023.977a3.418,3.418,0,0,1-1.355,1.176A4.244,4.244,0,0,1,133.924,15.156ZM133.7,7.914a1.6,1.6,0,0,0-1.262.547,2.835,2.835,0,0,0-.613,1.523h3.617V9.844a2.308,2.308,0,0,0-.508-1.441A1.586,1.586,0,0,0,133.7,7.914Zm6.852-1.367.055.977a3.039,3.039,0,0,1,2.461-1.133q2.641,0,2.688,3.023V15h-1.9V9.523a1.741,1.741,0,0,0-.348-1.191,1.462,1.462,0,0,0-1.137-.387,1.829,1.829,0,0,0-1.711,1.039V15h-1.9V6.547Zm9.516-2.055V6.547h1.492V7.953h-1.492v4.719a1.039,1.039,0,0,0,.191.7.888.888,0,0,0,.684.215,2.924,2.924,0,0,0,.664-.078v1.469a4.676,4.676,0,0,1-1.25.18q-2.187,0-2.187-2.414V7.953h-1.391V6.547h1.391V4.492ZM155.025,15h-1.9V6.547h1.9ZM153.01,4.352a1.008,1.008,0,0,1,.277-.727,1.048,1.048,0,0,1,.793-.289,1.061,1.061,0,0,1,.8.289,1,1,0,0,1,.281.727.977.977,0,0,1-.281.715,1.069,1.069,0,0,1-.8.285,1.056,1.056,0,0,1-.793-.285A.984.984,0,0,1,153.01,4.352Zm3.727,6.359a5.026,5.026,0,0,1,.906-3.137,2.9,2.9,0,0,1,2.43-1.184,2.759,2.759,0,0,1,2.172.938V3h1.9V15h-1.719l-.094-.875a2.8,2.8,0,0,1-2.273,1.031,2.887,2.887,0,0,1-2.4-1.2A5.21,5.21,0,0,1,156.736,10.711Zm1.9.164a3.519,3.519,0,0,0,.5,2.012,1.61,1.61,0,0,0,1.41.723,1.793,1.793,0,0,0,1.7-1.039V8.961a1.766,1.766,0,0,0-1.687-1.016,1.622,1.622,0,0,0-1.422.73A3.919,3.919,0,0,0,158.635,10.875Zm7.133-.18a4.984,4.984,0,0,1,.492-2.238,3.6,3.6,0,0,1,1.383-1.531,3.9,3.9,0,0,1,2.047-.535,3.692,3.692,0,0,1,2.777,1.1,4.333,4.333,0,0,1,1.152,2.922l.008.445a5.029,5.029,0,0,1-.48,2.234,3.551,3.551,0,0,1-1.375,1.523,3.925,3.925,0,0,1-2.066.539,3.667,3.667,0,0,1-2.863-1.191,4.563,4.563,0,0,1-1.074-3.176Zm1.9.164a3.406,3.406,0,0,0,.539,2.043,1.752,1.752,0,0,0,1.5.738,1.733,1.733,0,0,0,1.5-.75,3.762,3.762,0,0,0,.535-2.2,3.362,3.362,0,0,0-.551-2.031,1.856,1.856,0,0,0-2.973-.012A3.691,3.691,0,0,0,167.666,10.859Z" transform="translate(767.25 -6839.603)" fill="#12263f"/>
  </g>
</svg>
