<svg xmlns="http://www.w3.org/2000/svg" xmlns:xlink="http://www.w3.org/1999/xlink" width="70" height="70" viewBox="0 0 70 70">
  <defs>
    <clipPath id="clip-path">
      <rect id="Rectangle_401141" data-name="Rectangle 401141" width="46" height="48" transform="translate(275.75 971.833)" fill="#7a4f00" stroke="#707070" stroke-width="1"/>
    </clipPath>
    <clipPath id="clip-path-2">
      <rect id="Rectangle_404950" data-name="Rectangle 404950" width="41.408" height="23.981" fill="#6a4d23"/>
    </clipPath>
  </defs>
  <g id="Group_1102016" data-name="Group 1102016" transform="translate(-269 -958)">
    <circle id="Ellipse_5614" data-name="Ellipse 5614" cx="35" cy="35" r="35" transform="translate(269 958)" fill="#fff"/>
    <g id="Mask_Group_1098690" data-name="Mask Group 1098690" transform="translate(5.25 -2.833)" clip-path="url(#clip-path)">
      <g id="Group_1102554" data-name="Group 1102554" transform="translate(277.75 983.833)">
        <g id="Group_1102553" data-name="Group 1102553" clip-path="url(#clip-path-2)">
          <path id="Path_892268" data-name="Path 892268" d="M29.451,2.58h2.764a7.706,7.706,0,0,1,1.866.7A5.544,5.544,0,0,1,36.8,6.548c1.455.075,2.818-.287,3.907.915a4.25,4.25,0,0,1,.7,1.224v2.379H39.479V9.2c0-.688-1.556-.8-2.058-.707a2.2,2.2,0,0,0,.059.649c.313,1.805,1.267,3.971,1.474,5.725a31.745,31.745,0,0,1-.047,4.946c-.337,1.108-2.056.424-2.908.692a3.768,3.768,0,0,1-7.507.067l-.262-.123-16.849-.005-.388.127a3.767,3.767,0,0,1-7.5-.065L.614,20.424l-.55-.735L0,3.925C-.038,3.561.317,2.58.716,2.58H5.023C5.038,1.391,4.7.183,6.244.009L28.106,0c.364-.041,1.345.314,1.345.712Zm4.757,3.471c-.164-.721-2.014-1.543-2.636-1.543H2.066V6.051Zm2.7,9.514h-6.75c-1.175,0-3.48-2.078-4.628-2.571H2.066v5.528H3.93c.11,0,.988-1.242,1.538-1.547a3.771,3.771,0,0,1,5.11,1.519l18.167.03c.332-.064.576-.686.849-.951a3.836,3.836,0,0,1,5.986.929l1.329.021Z" transform="translate(0 0)" fill="#6a4d23"/>
        </g>
      </g>
    </g>
  </g>
</svg>
