<svg xmlns="http://www.w3.org/2000/svg" xmlns:xlink="http://www.w3.org/1999/xlink" width="190" height="134" viewBox="0 0 190 134">
  <defs>
    <clipPath id="clip-path">
      <rect id="Rectangle_402355" data-name="Rectangle 402355" width="87" height="87" transform="translate(342 951)" fill="#fff" stroke="#707070" stroke-width="1"/>
    </clipPath>
    <clipPath id="clip-path-2">
      <rect id="Rectangle_405094" data-name="Rectangle 405094" width="83.273" height="83.28" fill="#7d3a1b"/>
    </clipPath>
  </defs>
  <g id="Group_1103512" data-name="Group 1103512" transform="translate(-285 -6625.5)">
    <g id="Group_1102652" data-name="Group 1102652" transform="translate(-45 -393.5)">
      <rect id="Rectangle_402215" data-name="Rectangle 402215" width="190" height="134" transform="translate(330 7019)" fill="none"/>
      <g id="Group_1100287" data-name="Group 1100287" transform="translate(16 -507)">
        <g id="Grupo_156312" data-name="Grupo 156312" transform="translate(344 7528)">
          <path id="Elipse_5845" data-name="Elipse 5845" d="M65.5,0A65.5,65.5,0,1,1,0,65.5,65.5,65.5,0,0,1,65.5,0Z" transform="translate(0 0)" fill="#ffce73"/>
        </g>
        <g id="Mask_Group_1098715" data-name="Mask Group 1098715" transform="translate(24 6599)" clip-path="url(#clip-path)">
          <g id="Group_1102698" data-name="Group 1102698" transform="translate(343.864 952.86)">
            <g id="Group_1102697" data-name="Group 1102697" transform="translate(0 0)" clip-path="url(#clip-path-2)">
              <path id="Path_892636" data-name="Path 892636" d="M70.818,59.164c.069-.084.138-.166.2-.248a1.429,1.429,0,0,1,2.2-.1q2.532,2.528,5.061,5.066c1.152,1.157,2.37,2.262,3.422,3.506a6.231,6.231,0,0,1-1.379,9.433,6.046,6.046,0,0,1-4.091.825A6.636,6.636,0,0,1,72.276,75.6q-1.18-1.18-2.367-2.359c-.146-.146-.3-.278-.523-.483,0,.235,0,.368,0,.5-.015,1.295.064,2.6-.066,3.879a6.947,6.947,0,0,1-6.961,6.139q-27.6,0-55.212,0A6.932,6.932,0,0,1,.323,78.367a7.666,7.666,0,0,1-.3-2.13c-.033-2.663-.013-5.327-.013-7.99a1.385,1.385,0,0,1,1.553-1.583q1.846-.015,3.692,0c.253,0,.319-.069.319-.324q-.011-15.915-.005-31.83,0-16.424,0-32.848c0-.094,0-.189.008-.286A1.33,1.33,0,0,1,6.95.007C7.057,0,7.164,0,7.269,0h60.4A1.8,1.8,0,0,1,68.9.341a1.314,1.314,0,0,1,.49.993c0,.373.01.743.01,1.116q0,17.857.005,35.719c0,.695,0,.7.7.695a5.28,5.28,0,0,1,2.418.409,4.133,4.133,0,0,1-.452,7.686,6.943,6.943,0,0,1-1.41.192,9.058,9.058,0,0,1-.986.015c-.222-.008-.289.074-.283.3.008,1.984,0,3.968,0,5.952,0,1.358-.008,2.714-.005,4.073a.683.683,0,0,0,.156.421c.4.421.827.82,1.272,1.254M31.99,55.546c-.041.015-.079.031-.117.049v1.1a1.459,1.459,0,0,1-1.632,1.624q-6.634,0-13.268,0a1.492,1.492,0,0,1-1.69-1.68V51.8q0-2.9,0-5.794a1.4,1.4,0,0,1,.707-1.394,2.515,2.515,0,0,1,1.039-.212c1.675-.018,3.353,0,5.03,0h.4c-.046-.158-.079-.258-.107-.357a3.226,3.226,0,0,1-.135-1.44,4.271,4.271,0,0,1,4.4-3.738c.414.015.827-.005,1.241.023.248.018.352-.051.409-.3a20.107,20.107,0,0,1,1.4-4.178c.158-.34.329-.677.508-1.047H18.418a2.185,2.185,0,0,1-.317-.005,1.52,1.52,0,0,1-1.371-.978,1.3,1.3,0,0,1,.406-1.471,1.657,1.657,0,0,1,1.221-.347q6.6,0,13.207.005a.718.718,0,0,0,.618-.289c.587-.7,1.205-1.369,1.816-2.045.13-.146.283-.271.5-.472H34.03q-7.829,0-15.656-.008a2.383,2.383,0,0,1-.922-.192,1.278,1.278,0,0,1-.8-1.264,1.2,1.2,0,0,1,.792-1.131,2.834,2.834,0,0,1,1.016-.2q9.128-.019,18.265-.005c.391,0,.779.084,1.167.107a.807.807,0,0,0,.383-.092c.465-.232.917-.488,1.381-.72a23.971,23.971,0,0,1,4.481-1.586c.176-.049.273-.1.273-.312q-.019-5.8-.015-11.588a9.5,9.5,0,0,1,.046-1.144,1.69,1.69,0,0,1,.222-.649,1.489,1.489,0,0,1,1.453-.661c2.288.008,4.584.005,6.872.005,1.295,0,2.589-.008,3.884.013a1.341,1.341,0,0,1,1.374,1.131,2.611,2.611,0,0,1,.064.6c.005,4.627.01,9.254-.01,13.878a1.013,1.013,0,0,0,.585,1.049A20.718,20.718,0,0,1,66.426,32.4a1.47,1.47,0,0,0,.143.169l.071-.028V2.8H8.878c-.544,0-.544,0-.544.529V52.987q0,6.607,0,13.212c0,.455-.1.457.457.457l20.272.008H30.56v-.337c0-1.2,0-2.4,0-3.6,0-1.121.488-1.606,1.611-1.609h6.021l.018-.084a21.2,21.2,0,0,1-6.22-5.49M2.828,69.424a1.338,1.338,0,0,0-.018.158c0,2.421-.01,4.839,0,7.257a2.924,2.924,0,0,0,.4,1.458A4.016,4.016,0,0,0,6.95,80.484q24.8-.019,49.607-.008h.34c-.181-.294-.347-.539-.5-.794a7.288,7.288,0,0,1-.889-3.6c-.018-2.091,0-4.18,0-6.271v-.383ZM48.276,55.5a12.484,12.484,0,0,0,.695-24.958A12.484,12.484,0,1,0,48.276,55.5m16.406,9.742c-1.43-1.435-2.824-2.84-4.229-4.241-.554-.557-.536-.513-1.241-.138a34.568,34.568,0,0,1-3.243,1.583c-1.044.424-2.15.7-3.215,1.039q-.08,1.547-.169,3.177h.281c1.323,0,2.651,0,3.973.008a1.2,1.2,0,0,1,1.175.615,2.488,2.488,0,0,1,.281,1.055c.026,2.725-.01,5.452.02,8.176a4.092,4.092,0,0,0,5.8,3.677,3.858,3.858,0,0,0,2.525-3.6c.079-1.246.026-2.5.028-3.751,0-.858.018-1.719,0-2.576a.85.85,0,0,0-.222-.488c-.679-.7-1.366-1.4-2.071-2.071a1.463,1.463,0,0,1-.028-2.122,3.97,3.97,0,0,0,.337-.347M77,74.95a3.173,3.173,0,0,0,3.274-2.073,3.855,3.855,0,0,0-.843-4c-.958-.978-1.925-1.943-2.891-2.914q-2.038-2.038-4.07-4.075c-.161-.163-.294-.286-.516-.056q-2.3,2.313-4.614,4.612c-.143.143-.151.243,0,.393,2.331,2.321,4.645,4.658,6.984,6.969A3.472,3.472,0,0,0,77,74.95M18.1,47.137v8.358H29.13c.008-.1.018-.186.02-.268,0-1.453.005-2.906,0-4.359a2.249,2.249,0,0,0-.069-.628Q28.66,48.8,28.2,47.357a.337.337,0,0,0-.25-.192q-4.324-.027-8.651-.028c-.391,0-.781,0-1.2,0M55.495,11.084c-2.722,0-5.4,0-8.087-.005-.222,0-.263.094-.263.289q.008,2.336.005,4.675v.809c.171-.041.283-.064.4-.094a3.669,3.669,0,0,1,2.13.054,4.014,4.014,0,0,1,2.934,3.266,15.405,15.405,0,0,1,.092,2.255c.005.2.041.306.263.345.266.049.526.153.792.225.575.161,1.152.317,1.736.475ZM52.709,60.632A18.139,18.139,0,0,0,63.2,53.626a17.911,17.911,0,0,0,2.972-6.473,5.83,5.83,0,0,1-2.776-.4A15.533,15.533,0,0,1,52.313,57.841a6.6,6.6,0,0,1,.4,2.791M66.161,38.9A18.154,18.154,0,0,0,52.711,25.435a6.191,6.191,0,0,1-.4,2.783A15.481,15.481,0,0,1,63.38,39.247a11.96,11.96,0,0,1,1.379-.332,11.618,11.618,0,0,1,1.4-.013m-35.085,8.23a16.142,16.142,0,0,0,3.5,7.311,18.186,18.186,0,0,0,9.849,6.182,11.147,11.147,0,0,1,.015-1.4,11.4,11.4,0,0,1,.357-1.384A15.493,15.493,0,0,1,33.767,46.744a5.15,5.15,0,0,1-2.691.388m2.7-7.844A15.411,15.411,0,0,1,44.836,28.216a10.106,10.106,0,0,1-.391-1.333,10.922,10.922,0,0,1-.015-1.453c-.659.194-1.233.332-1.793.529a17.909,17.909,0,0,0-6.343,3.83,17.639,17.639,0,0,0-5.173,8.664c-.112.447-.112.455.355.429a4.271,4.271,0,0,1,2.165.38.34.34,0,0,0,.138.026m-.4,24.634v2.714H44.571c-.061-.465-.14-.9-.169-1.343s-.008-.9-.008-1.371ZM49.908,23.627c0-.965.018-1.93-.015-2.893a1.419,1.419,0,0,0-.276-.845,1.234,1.234,0,0,0-1.3-.478,1.463,1.463,0,0,0-1.141,1.154,3.87,3.87,0,0,0-.054.789q0,2.245,0,4.484a4.933,4.933,0,0,0,.054.728,1.408,1.408,0,0,0,1.524,1.19,1.248,1.248,0,0,0,1.213-1.394c-.031-.912-.008-1.823-.008-2.735m0,38.852V59.586a1.166,1.166,0,0,0-.534-1.052,1.437,1.437,0,0,0-2.214,1,3.854,3.854,0,0,0-.036.569q0,2.291.008,4.578a5.77,5.77,0,0,0,.038.7,1.5,1.5,0,0,0,1.568,1.279,1.313,1.313,0,0,0,1.17-1.443V62.479M68.017,44.4v.008c.891,0,1.785.01,2.674-.008a1.906,1.906,0,0,0,.8-.151,1.363,1.363,0,0,0,.649-1.637,1.34,1.34,0,0,0-1.295-.978q-2.861-.011-5.722.013a1.255,1.255,0,0,0-.626.189,1.425,1.425,0,0,0-.552,1.711,1.272,1.272,0,0,0,1.31.853c.922.005,1.841,0,2.763,0m-38.905-.005h0c.975,0,1.951.013,2.924,0a1.443,1.443,0,0,0,1.323-1.379,1.462,1.462,0,0,0-1.33-1.376q-2.861-.011-5.722.01a1.4,1.4,0,0,0-1.351,1.44,1.348,1.348,0,0,0,1.358,1.3c.935.008,1.867,0,2.8,0M62.2,58.891c-.033-.043-.018-.015,0,.005q1.969,1.973,3.935,3.938c.595.592.462.5.963.013.6-.582,1.175-1.185,1.683-1.7l-4.364-4.474L62.2,58.891m4.433-5.334c-.031-.015-.059-.031-.087-.043a2.518,2.518,0,0,0-.442.812c-.02.169.283.378.442.572l.087-.054Z" transform="translate(0.001 0.001)" fill="#7d3a1b"/>
              <path id="Path_892637" data-name="Path 892637" d="M17.6,8.174H8.084c-.9,0-1.45-.414-1.547-1.17A1.375,1.375,0,0,1,7.855,5.452c.975-.038,1.951-.023,2.926-.023q7.86,0,15.717,0c.286,0,.572,0,.858.018a1.446,1.446,0,0,1,1.287.975A1.258,1.258,0,0,1,28.124,7.9a1.7,1.7,0,0,1-.889.255c-3.212.018-6.427.013-9.64.013v0" transform="translate(10.137 8.429)" fill="#7d3a1b"/>
              <path id="Path_892638" data-name="Path 892638" d="M16.374,10.377c-1.335,0-2.671,0-4.006,0a1.308,1.308,0,0,1-1.4-.881,1.385,1.385,0,0,1,1.062-1.859,3.045,3.045,0,0,1,.569-.049q3.769-.008,7.535,0a2.753,2.753,0,0,1,.753.087,1.378,1.378,0,0,1,1.034,1.57,1.411,1.411,0,0,1-1.481,1.131c-1.167.01-2.331,0-3.5,0h-.572" transform="translate(16.906 11.78)" fill="#7d3a1b"/>
              <path id="Path_892639" data-name="Path 892639" d="M10.7,10.377c-.868,0-1.739.008-2.607,0a1.452,1.452,0,0,1-1.067-.329,1.315,1.315,0,0,1-.465-1.366A1.459,1.459,0,0,1,7.7,7.64a2.346,2.346,0,0,1,.536-.056q2.448,0,4.9.008a2.384,2.384,0,0,1,.687.092A1.389,1.389,0,0,1,14.8,9.177a1.3,1.3,0,0,1-1.43,1.2c-.889.013-1.78,0-2.671,0" transform="translate(10.118 11.78)" fill="#7d3a1b"/>
              <path id="Path_892640" data-name="Path 892640" d="M11.758,3.265c.942,0,1.887-.005,2.829,0A1.288,1.288,0,0,1,15.7,3.9,1.379,1.379,0,0,1,14.607,6c-.125,0-.253.015-.38.015-1.726,0-3.455-.01-5.181,0a1.367,1.367,0,0,1-1.318-.868,1.266,1.266,0,0,1,.255-1.44,1.194,1.194,0,0,1,.975-.447c.935-.005,1.867,0,2.8,0v0" transform="translate(11.806 5.067)" fill="#7d3a1b"/>
              <path id="Path_892641" data-name="Path 892641" d="M16.137,3.267c.912,0,1.823-.018,2.735.005A1.366,1.366,0,1,1,18.851,6c-1.2.026-2.4.015-3.593.018-.636,0-1.274.008-1.91-.013a1.38,1.38,0,0,1-1.381-1.371,1.316,1.316,0,0,1,1.338-1.364c.945-.028,1.887-.005,2.832-.005v0" transform="translate(18.591 5.065)" fill="#7d3a1b"/>
              <path id="Path_892642" data-name="Path 892642" d="M18.362,22.413c-.222,0-.447-.01-.669,0a1.371,1.371,0,1,1,.026-2.742c.465-.018.932,0,1.4-.026a.441.441,0,0,0,.319-.212,3.921,3.921,0,0,1,2.025-2.1c.286-.138.424-.276.388-.615a7.159,7.159,0,0,1-.005-1.147,1.381,1.381,0,0,1,1.652-1.4,1.248,1.248,0,0,1,1.07,1.238c.01.488-.01.975.013,1.463a.447.447,0,0,0,.207.335,4.487,4.487,0,0,1,2.313,2.3.391.391,0,0,0,.3.153c.455.013.912-.01,1.369,0a1.411,1.411,0,0,1,1.384,1.379,1.361,1.361,0,0,1-1.325,1.361c-.475.023-.952-.005-1.43.01a.374.374,0,0,0-.289.153,4.438,4.438,0,0,1-2.278,2.293.389.389,0,0,0-.266.434c.018.424.01.848.005,1.272a1.255,1.255,0,0,1-1.241,1.369,1.362,1.362,0,0,1-1.491-1.32c-.02-.455-.005-.912.01-1.366a.364.364,0,0,0-.23-.4,4.127,4.127,0,0,1-2.2-2.268.4.4,0,0,0-.291-.166c-.25-.023-.508-.008-.761-.008v0m6.213-1.364a1.254,1.254,0,0,0-1.3-1.4,1.394,1.394,0,1,0-.043,2.783,1.251,1.251,0,0,0,1.341-1.384" transform="translate(25.339 21.98)" fill="#7d3a1b"/>
            </g>
          </g>
        </g>
      </g>
    </g>
  </g>
</svg>
