<svg xmlns="http://www.w3.org/2000/svg" xmlns:xlink="http://www.w3.org/1999/xlink" width="190" height="134" viewBox="0 0 190 134">
  <defs>
    <clipPath id="clip-path">
      <rect id="Rectangle_402355" data-name="Rectangle 402355" width="87" height="87" transform="translate(341.947 951.5)" fill="#fff" stroke="#707070" stroke-width="1"/>
    </clipPath>
    <clipPath id="clip-path-2">
      <rect id="Rectangle_402354" data-name="Rectangle 402354" width="79.697" height="81.298" transform="translate(-1)" fill="#7d3a1b"/>
    </clipPath>
    <clipPath id="clip-path-3">
      <rect id="Rectangle_405095" data-name="Rectangle 405095" width="76" height="78" transform="translate(0.043 0)" fill="#7d3a1b"/>
    </clipPath>
  </defs>
  <g id="Group_1102526" data-name="Group 1102526" transform="translate(-330 -7019)">
    <rect id="Rectangle_402215" data-name="Rectangle 402215" width="190" height="134" transform="translate(330 7019)" fill="none"/>
    <g id="Group_1100287" data-name="Group 1100287" transform="translate(16 -507)">
      <g id="Grupo_156312" data-name="Grupo 156312" transform="translate(344 7528)">
        <path id="Elipse_5845" data-name="Elipse 5845" d="M65.5,0A65.5,65.5,0,1,1,0,65.5,65.5,65.5,0,0,1,65.5,0Z" transform="translate(0 0)" fill="#ffce73"/>
      </g>
      <g id="Mask_Group_1098715" data-name="Mask Group 1098715" transform="translate(24 6599)" clip-path="url(#clip-path)">
        <g id="Group_1100677" data-name="Group 1100677" transform="translate(346.947 953.5)">
          <g id="Group_1100676" data-name="Group 1100676" clip-path="url(#clip-path-2)">
            <g id="Group_1102700" data-name="Group 1102700" transform="translate(0.903 1.5)">
              <g id="Group_1102699" data-name="Group 1102699" transform="translate(0)" clip-path="url(#clip-path-3)">
                <path id="Path_892643" data-name="Path 892643" d="M3.2,42.95c1.816,0,3.575,0,5.331,0,.368,0,.842-.118,1.078.067.476.368,1.115.894,1.139,1.382s-.61,1.413-.985,1.428c-2.854.127-5.715.12-8.571.025a1.639,1.639,0,0,1-1.08-1.17c-.137-2.364-.317-4.762.674-7.021a9.622,9.622,0,0,1,5.865-5.5c.3-.1.6-.236.9-.357C5.935,27.526,6.469,24.119,9.03,22.08c2.433-1.936,5.221-1.836,8.329.312,3.91-9.508,10.832-15.115,21.116-15.124s17.237,5.56,21.191,15.157a5.866,5.866,0,0,1,5.148-1.64,9.207,9.207,0,0,1,3.52,1.642c2.171,1.665,2.845,5.865,1.109,9.343.727.312,1.477.575,2.171.94a9.583,9.583,0,0,1,5.364,8.682c.035.889.015,1.783,0,2.674-.02,1.359-.507,1.883-1.851,1.95-.807.04-1.618.011-2.427.011-3.967,0-7.936,0-11.906-.007-.436,0-.983.074-1.285-.152a2.732,2.732,0,0,1-1.1-1.428c-.137-.758.434-1.308,1.219-1.448a6.84,6.84,0,0,1,1.21-.04c4.3,0,8.593,0,12.867,0,1.128-3.581-1.827-7.951-5.569-8.167-2.418-.14-4.849-.025-7.273-.08-.838-.02-.826.6-.961,1.09a22.407,22.407,0,0,1-5.739,9.86,22.031,22.031,0,0,1-29.928,1.219c-.912-.8-1.772-1.653-2.786-2.6-.855.911-1.688,1.845-2.565,2.734-4.564,4.628-9.149,9.236-13.7,13.878a4.618,4.618,0,0,0-1.109,1.74A2.421,2.421,0,0,0,5.25,65.38a2.46,2.46,0,0,0,2.889-.129,8.044,8.044,0,0,0,.893-.827q4.291-4.329,8.584-8.659c.886-.889,1.737-.96,2.411-.276.7.713.639,1.5-.271,2.431-3,3.057-6.006,6.112-9.043,9.134A5.4,5.4,0,0,1,4.741,68.5a5.409,5.409,0,0,1-3.716-4.8,5.708,5.708,0,0,1,1.816-4.8q3.316-3.346,6.625-6.7c3.194-3.231,6.376-6.473,9.6-9.678a1.14,1.14,0,0,0,.227-1.6,53.3,53.3,0,0,1-2.2-5.308c-.247-.693-.525-.923-1.228-.907-1.909.042-3.826.1-5.73,0A6.812,6.812,0,0,0,3.2,42.95m35.345,6.141a19.417,19.417,0,1,0-19.267-19.34,19.412,19.412,0,0,0,19.267,19.34M9.684,27.666c0,1.994.63,3.146,2.03,3.7A3.241,3.241,0,0,0,15.9,29.738c.93-1.921.368-4.519-1.219-5.482a3.664,3.664,0,0,0-1.219-.452,3.3,3.3,0,0,0-3.778,3.862M67.32,27.61A3.289,3.289,0,0,0,65.9,24.319a3.1,3.1,0,0,0-3.526-.091c-1.556.929-1.759,2.458-1.633,4.08a3.391,3.391,0,0,0,2.153,3.086c1.792.769,4.727-.468,4.428-3.784" transform="translate(-0.502 9.133)" fill="#7d3a1b"/>
                <path id="Path_892644" data-name="Path 892644" d="M16.816,4.1c0-.851-.026-1.7.007-2.556A1.469,1.469,0,0,1,18.342,0a1.4,1.4,0,0,1,1.417,1.52c.015,1.7.033,3.409-.007,5.112a1.45,1.45,0,0,1-1.494,1.558,1.513,1.513,0,0,1-1.444-1.647c0-.816,0-1.629,0-2.444" transform="translate(19.732 0.205)" fill="#7d3a1b"/>
                <path id="Path_892645" data-name="Path 892645" d="M12.632,2.474c1.252.02,4.485,3.2,4.392,4.14a1.9,1.9,0,0,1-.752,1.328,1.632,1.632,0,0,1-1.5-.082,24.622,24.622,0,0,1-3.017-3.044,1.752,1.752,0,0,1-.106-1.52c.183-.419.769-.657.983-.822" transform="translate(13.376 3.244)" fill="#7d3a1b"/>
                <path id="Path_892646" data-name="Path 892646" d="M22.122,8.14c-.313-.247-.868-.475-1.029-.869a1.79,1.79,0,0,1,.064-1.517,20.677,20.677,0,0,1,3.03-3.039,1.767,1.767,0,0,1,1.728.129,1.821,1.821,0,0,1,.335,1.722,34.272,34.272,0,0,1-3.218,3.327c-.159.154-.478.138-.91.247" transform="translate(24.73 3.33)" fill="#7d3a1b"/>
                <path id="Path_892647" data-name="Path 892647" d="M12.74,28.366a1.493,1.493,0,0,1-2.982.076,1.492,1.492,0,1,1,2.982-.076" transform="translate(11.245 33.23)" fill="#7d3a1b"/>
                <path id="Path_892648" data-name="Path 892648" d="M19.738,6.1a1.373,1.373,0,0,1-1.463,1.433,1.426,1.426,0,0,1-1.459-1.46,1.433,1.433,0,0,1,1.541-1.489A1.386,1.386,0,0,1,19.738,6.1" transform="translate(19.743 5.833)" fill="#7d3a1b"/>
                <path id="Path_892649" data-name="Path 892649" d="M42.534,26.386A16.343,16.343,0,0,1,26.282,42.8,16.414,16.414,0,1,1,42.534,26.386M15.767,34.232,21.382,29.5c-2.286-3.314-1.223-7.9.721-9.593a6.2,6.2,0,0,1,7.718-.568,5.768,5.768,0,0,1,2.457,3.568c.489,2.413.377,4.775-1.04,6.556,1.955,1.658,3.8,3.227,5.653,4.8,3.731-4.41,3.8-12.55-1.488-17.559a13.107,13.107,0,0,0-18.61.437c-5.032,5.319-4.448,13.328-1.027,17.1m18.676,2.511a9.025,9.025,0,0,0-8.3-4.824,8.968,8.968,0,0,0-7.943,4.86c4.194,3.866,12.369,3.848,16.243-.036M29.515,25.067c0-2.095-1.034-3.507-2.711-3.706a3.148,3.148,0,0,0-3.614,2.627c-.467,2.2.509,4.22,2.279,4.708,2.215.611,4.044-1.029,4.046-3.63" transform="translate(11.68 12.452)" fill="#7d3a1b"/>
              </g>
            </g>
          </g>
        </g>
      </g>
    </g>
  </g>
</svg>
