<svg xmlns="http://www.w3.org/2000/svg" xmlns:xlink="http://www.w3.org/1999/xlink" width="68" height="69" viewBox="0 0 68 69">
  <defs>
    <clipPath id="clip-path">
      <rect id="Rectangle_405107" data-name="Rectangle 405107" width="67" height="55.474" fill="none"/>
    </clipPath>
  </defs>
  <g id="Group_1099380" data-name="Group 1099380" transform="translate(-0.059 0.804)">
    <rect id="Rectangle_401104" data-name="Rectangle 401104" width="68" height="69" transform="translate(0.059 -0.804)" fill="none"/>
    <g id="Group_1102728" data-name="Group 1102728" transform="translate(0.059 5.53)">
      <g id="Group_1102727" data-name="Group 1102727" transform="translate(0 0)" clip-path="url(#clip-path)">
        <path id="Path_892725" data-name="Path 892725" d="M67.418,54.526c0,3.045-14.46,5.513-32.3,5.513s-32.3-2.468-32.3-5.513,14.46-5.513,32.3-5.513,32.3,2.468,32.3,5.513" transform="translate(-0.418 -7.235)" fill="#ffce73"/>
        <path id="Path_892726" data-name="Path 892726" d="M36.253,61.37c0,1.522-5.872,2.757-13.117,2.757S10.019,62.892,10.019,61.37s5.873-2.757,13.117-2.757,13.117,1.234,13.117,2.757" transform="translate(-1.484 -8.652)" fill="#ffce73"/>
        <path id="Path_892727" data-name="Path 892727" d="M65.852,53.812c0,2.457-11.664,4.448-26.053,4.448s-26.053-1.991-26.053-4.448S25.41,49.364,39.8,49.364s26.053,1.991,26.053,4.448" transform="translate(-2.036 -7.287)" fill="#eeb854"/>
        <path id="Path_892728" data-name="Path 892728" d="M28.689,46.342,21.466,18.683l-.991-.173,7.454,28.032a.393.393,0,0,0,.76-.2" transform="translate(-3.032 -2.732)" fill="#383838"/>
        <path id="Path_892729" data-name="Path 892729" d="M0,25.393a30.185,30.185,0,0,0,8.275.383,50.792,50.792,0,0,0,6.7-.907c1.5-.3,3.1-.686,4.79-1.174q1.765-.51,3.655-1.174c2.013-.711,4.131-1.565,6.342-2.589,2.1-.971,4.277-2.093,6.532-3.389,0,0-10.95-9.7-21.4-7.347l-.006,0h0l-.124.028c-.251.058-.5.124-.754.2C3.3,12.57,0,25.393,0,25.393" transform="translate(0 -1.303)" fill="#ffac12"/>
        <path id="Path_892730" data-name="Path 892730" d="M17.479,9.262c4.261,6.132,6.9,10.417,8.53,13.323,2.013-.711,4.131-1.565,6.342-2.589,0,0-6.058-8.539-14.873-10.734" transform="translate(-2.589 -1.367)" fill="#7d3a1b"/>
        <path id="Path_892731" data-name="Path 892731" d="M0,25.458a30.185,30.185,0,0,0,8.275.383,50.791,50.791,0,0,0,6.7-.907c1.5-.3,3.1-.686,4.79-1.174l-4.879-14.5-.124.028c-.251.058-.5.124-.754.2C3.3,12.634,0,25.458,0,25.458" transform="translate(0 -1.367)" fill="#ffca00"/>
        <path id="Path_892732" data-name="Path 892732" d="M9.714,25.818a50.92,50.92,0,0,0,6.7-.906c-.208-3.306-.319-8.3-.078-15.673,0-.038,0-.078,0-.119-.047.049-.092.1-.138.15-5.364,5.865-6.334,14.588-6.487,16.548" transform="translate(-1.439 -1.346)" fill="#7d3a1b"/>
        <path id="Path_892733" data-name="Path 892733" d="M68.557,28.737S63.021,42.6,57.178,46.714a11.91,11.91,0,0,1-3.612,1.62c-6.564,1.86-15.3.367-15.3.367a19.159,19.159,0,0,0,6.56-2.467c4.537-2.536,9.839-7.476,11.565-16.989,11.022-.509,12.17-.509,12.17-.509" transform="translate(-5.666 -4.242)" fill="#efb499"/>
        <path id="Path_892734" data-name="Path 892734" d="M59.537,29l12.17-.509v-1.4l-12.17.956Z" transform="translate(-8.817 -3.999)" fill="#383838"/>
        <path id="Path_892735" data-name="Path 892735" d="M38.959,50.836a.345.345,0,0,1-.268-.562l18.864-23.28a.344.344,0,1,1,.534.434L39.227,50.708a.344.344,0,0,1-.267.128" transform="translate(-5.718 -3.966)" fill="#383838"/>
        <path id="Path_892736" data-name="Path 892736" d="M68.268,52.208l-.043,0L46.733,49.563a.344.344,0,1,1,.084-.684L68.31,51.521a.345.345,0,0,1-.042.687" transform="translate(-6.876 -7.215)" fill="#383838"/>
        <path id="Path_892737" data-name="Path 892737" d="M69.033,50.291a.344.344,0,0,1-.333-.257L65.577,38.045a.344.344,0,1,1,.666-.173L69.366,49.86a.344.344,0,0,1-.246.42.337.337,0,0,1-.087.011" transform="translate(-9.71 -5.552)" fill="#383838"/>
        <path id="Path_892738" data-name="Path 892738" d="M52.879,51.334c-4.416,1.251-10.133,1.039-13.4.766a7.9,7.9,0,0,1-4.444-1.837l-1.417-1.2,10.516.168.745.014s.5,1.312,7.5,2.024c.178.019.347.038.506.061" transform="translate(-4.978 -7.243)" fill="#7d3a1b"/>
        <path id="Path_892739" data-name="Path 892739" d="M33.617,48.966l11.261.182v-.6l-11.261-.164Z" transform="translate(-4.978 -7.142)" fill="#383838"/>
        <path id="Path_892740" data-name="Path 892740" d="M51.051,52.314a.341.341,0,0,1-.216-.077.345.345,0,0,1-.051-.485l20.2-24.937a.345.345,0,0,1,.536.434L51.319,52.186a.342.342,0,0,1-.267.128" transform="translate(-7.509 -3.939)" fill="#383838"/>
        <path id="Path_892741" data-name="Path 892741" d="M52.883,9.119a4.555,4.555,0,0,1-1.052.123,4.469,4.469,0,0,1-.822-.074A4.62,4.62,0,0,1,50.778.123,4.568,4.568,0,0,1,51.831,0a4.492,4.492,0,0,1,.878.084,4.621,4.621,0,0,1,.174,9.034" transform="translate(-6.992 0)" fill="#ffca00"/>
        <path id="Path_892742" data-name="Path 892742" d="M53.686,9.119a4.555,4.555,0,0,1-1.052.123V0a4.492,4.492,0,0,1,.878.084,4.621,4.621,0,0,1,.174,9.034" transform="translate(-7.795 0)" fill="#ffac12"/>
        <path id="Path_892743" data-name="Path 892743" d="M68.933,10.485A2.585,2.585,0,0,0,67.768,9.4c-.46-.222-1.255-.123-1.627-.4a1.091,1.091,0,0,1-.232-.288A2.04,2.04,0,0,0,64.4,7.819c-.309-.023-1.364.329-1.56.078a5.191,5.191,0,0,0-3.4-1.949,3.927,3.927,0,0,0-4.38,2.183,3.814,3.814,0,0,0-.512.024,3.162,3.162,0,0,0-1.527.557,3.23,3.23,0,0,0-1.351,2.711H69.04a1.225,1.225,0,0,0-.107-.937" transform="translate(-7.652 -0.871)" fill="#63c4ee"/>
        <path id="Path_892744" data-name="Path 892744" d="M66.229,13.56a1.8,1.8,0,0,0-.466-1.2,3.408,3.408,0,0,0-2.4-1.45,2.546,2.546,0,0,0-.969.112c-.049-.059-.1-.116-.158-.172a2.5,2.5,0,0,0-2.378-.638,2.342,2.342,0,0,0-1.368,1.058c-1.315-.205-2.2.812-2.626,1.958a1.153,1.153,0,0,0-.071.333Z" transform="translate(-8.262 -1.495)" fill="#2daad6"/>
        <path id="Path_892745" data-name="Path 892745" d="M25.444,53.491a7.432,7.432,0,0,1-7.429,7.434c-.076,0-.15,0-.225,0a7.385,7.385,0,0,1-2.859-.665,7.43,7.43,0,0,1-4.346-6.765c0-.182.007-.362.02-.54a7.43,7.43,0,0,1,7.411-6.894c.135,0,.268,0,.4.011a7.429,7.429,0,0,1,7.029,7.423" transform="translate(-1.567 -6.799)" fill="#f3f9ff"/>
        <path id="Path_892746" data-name="Path 892746" d="M25.8,50.107l-5.965,1.112-1.35-1.03,1.1-4.12A7.427,7.427,0,0,1,25.8,50.107" transform="translate(-2.737 -6.801)" fill="#ffb937"/>
        <path id="Path_892747" data-name="Path 892747" d="M24.428,59.425a7.409,7.409,0,0,1-5.659,2.618c-.075,0-.15,0-.225,0a7.384,7.384,0,0,1-2.858-.665l1.561-6.765,2.041-.975Z" transform="translate(-2.323 -7.917)" fill="#ffb937"/>
        <path id="Path_892748" data-name="Path 892748" d="M15.921,51.072l-.009,1.7-5.306.7a7.405,7.405,0,0,1,1.441-3.886Z" transform="translate(-1.571 -7.32)" fill="#ffb937"/>
        <path id="Path_892749" data-name="Path 892749" d="M19.713,52.238a1.993,1.993,0,1,1-1.993-1.995,1.994,1.994,0,0,1,1.993,1.995" transform="translate(-2.329 -7.417)" fill="#fff"/>
      </g>
    </g>
  </g>
</svg>
