<svg xmlns="http://www.w3.org/2000/svg" xmlns:xlink="http://www.w3.org/1999/xlink" width="70" height="70" viewBox="0 0 70 70">
  <defs>
    <clipPath id="clip-path">
      <rect id="Rectangle_404949" data-name="Rectangle 404949" width="34.621" height="36.235" fill="#6a4d23"/>
    </clipPath>
  </defs>
  <g id="Group_1102018" data-name="Group 1102018" transform="translate(-610 -6501)">
    <g id="Group_1099487" data-name="Group 1099487" transform="translate(341 5543)">
      <circle id="Ellipse_5614" data-name="Ellipse 5614" cx="35" cy="35" r="35" transform="translate(269 958)" fill="#fff"/>
    </g>
    <g id="Group_1102552" data-name="Group 1102552" transform="translate(628 6518)">
      <g id="Group_1102551" data-name="Group 1102551" clip-path="url(#clip-path)">
        <path id="Path_892259" data-name="Path 892259" d="M2.265,196.005l5.948.207c-.33,1.238.778,1.478,1.608,2.179,3.2,2.7,5.885,7.273,6.226,11.181.071.808-.027,1.787-1.142,1.988-3.087.556-2.758-2.636-3.3-4.338a14.654,14.654,0,0,0-2.853-4.987l-.775-.622c-.332,2.473-2.126,4.559-3.233,6.785a26.5,26.5,0,0,1-1.233,2.87c-.858,1.087-3.186.633-3.477-.591-.217-.915.692-2.66,1.106-3.556.687-1.485,2.548-4.432,2.646-5.9a7.57,7.57,0,0,0-.476-1.508c-.216-.47-1.044-1.486-1.044-1.893Z" transform="translate(0 -175.648)" fill="#6a4d23"/>
        <path id="Path_892260" data-name="Path 892260" d="M122.165,42.745c.789-.01,1.131-.3,1.964.207l.771.727a7.8,7.8,0,0,1,6.787-6.073l.085-.1a1.129,1.129,0,0,1,.578-1.394c.735-.344.841.022.776-1.088,1-.669.551.634.747.875,1.153.155,1.424.7,1.428,1.661a8.729,8.729,0,0,1,6.036,3.973,9.548,9.548,0,0,1,.811,2.2V61.96H124.782V45.446a4.37,4.37,0,0,1-2.736.623,26.557,26.557,0,0,0,.119-3.324m4.163,1.194v16.67H140.6V43.628a8,8,0,0,0-1.021-2.121c-3.352-4.559-12.534-3.16-13.253,2.432" transform="translate(-107.528 -31.216)" fill="#6a4d23"/>
        <path id="Path_892261" data-name="Path 892261" d="M28.029,73.285a21.089,21.089,0,0,1-5.115-1.039V78.27l-5.948-.207.005-5.977a40.09,40.09,0,0,1-.249-4.675,2.441,2.441,0,0,1,.932-1.494c2.486-1.769,5.275.006,5.041,2.574a21.611,21.611,0,0,0,2.744.979,16.783,16.783,0,0,0,2.708.492c-.074,1.069-.1,2.248-.119,3.324" transform="translate(-14.701 -58.432)" fill="#6a4d23"/>
        <path id="Path_892262" data-name="Path 892262" d="M20.958,20.738c.961,2.089-.813,4.216-3.433,3.777-1.955-.328-3.129-2.679-1.778-4.061Z" transform="translate(-13.362 -18.33)" fill="#6a4d23"/>
        <path id="Path_892263" data-name="Path 892263" d="M165.384,308.153a1.774,1.774,0,1,1,.2,3.514,1.774,1.774,0,1,1-.2-3.514" transform="translate(-144.111 -276.142)" fill="#6a4d23"/>
        <path id="Path_892264" data-name="Path 892264" d="M238.11,308.258a1.771,1.771,0,1,1,.088,3.512,1.771,1.771,0,1,1-.088-3.512" transform="translate(-208.157 -276.241)" fill="#6a4d23"/>
        <path id="Path_892265" data-name="Path 892265" d="M24.468,1.975l-5.242-.254c-.3-.182.16-1.361.007-1.721L24.39.225l.183.148Z" transform="translate(-16.849 -0.001)" fill="#6a4d23"/>
        <rect id="Rectangle_404948" data-name="Rectangle 404948" width="4.282" height="9.659" transform="translate(19.871 14.645)" fill="#6a4d23"/>
        <path id="Path_892266" data-name="Path 892266" d="M213.042,177.538h2.141v4.881h-7.137v-4.881h2.5l.111-1.1h2.275Zm-.475-.728h-1.548v.728h1.548Z" transform="translate(-183.298 -158.116)" fill="#6a4d23"/>
        <path id="Path_892267" data-name="Path 892267" d="M180.822,246v2.8h-11.6l-.178-.156V246Z" transform="translate(-148.937 -220.454)" fill="#6a4d23"/>
      </g>
    </g>
  </g>
</svg>
