<svg xmlns="http://www.w3.org/2000/svg" xmlns:xlink="http://www.w3.org/1999/xlink" width="121" height="121" viewBox="0 0 121 121">
  <defs>
    <clipPath id="clip-path">
      <rect id="Rectangle_400938" data-name="Rectangle 400938" width="121" height="121" transform="translate(0 0)" fill="none"/>
    </clipPath>
    <clipPath id="clip-path-2">
      <rect id="Rectangle_401073" data-name="Rectangle 401073" width="92.219" height="41.532" fill="#efb499"/>
    </clipPath>
    <clipPath id="clip-path-3">
      <rect id="Rectangle_404746" data-name="Rectangle 404746" width="44.736" height="76.075" fill="none"/>
    </clipPath>
  </defs>
  <g id="Group_1102162" data-name="Group 1102162" transform="translate(-387.996 -5846)">
    <g id="Group_1100439" data-name="Group 1100439" transform="translate(0.328 -167)">
      <rect id="Rectangle_401103" data-name="Rectangle 401103" width="121" height="121" transform="translate(387.668 6013)" fill="none"/>
      <g id="Group_1099348" data-name="Group 1099348" transform="translate(387.668 6013)">
        <g id="Group_1099282" data-name="Group 1099282">
          <g id="Group_1099281" data-name="Group 1099281" clip-path="url(#clip-path-2)">
            <path id="Path_873375" data-name="Path 873375" d="M74.8,9.1c-4.139,0-6.28-2.03-8.17-3.821-1.855-1.756-3.452-3.274-6.792-3.274s-4.937,1.517-6.792,3.274C51.161,7.072,49.023,9.1,44.881,9.1s-6.28-2.03-8.169-3.821C34.857,3.525,33.26,2.007,29.92,2.007s-4.937,1.517-6.789,3.274C21.241,7.072,19.1,9.1,14.962,9.1S8.679,7.072,6.789,5.281C4.937,3.525,3.34,2.007,0,2.007V0C4.139,0,6.28,2.033,8.17,3.821c1.855,1.759,3.452,3.274,6.792,3.274S19.9,5.58,21.75,3.824C23.637,2.033,25.781,0,29.92,0s6.283,2.033,8.17,3.821c1.855,1.759,3.452,3.274,6.792,3.274s4.937-1.514,6.792-3.274C53.56,2.033,55.7,0,59.843,0s6.283,2.033,8.17,3.821C69.867,5.58,71.464,7.094,74.8,7.094S79.742,5.58,81.6,3.821C83.483,2.033,85.624,0,89.766,0V2.007c-3.34,0-4.937,1.517-6.792,3.274C81.084,7.072,78.943,9.1,74.8,9.1" transform="translate(2.453 32.43)" fill="#efb499"/>
            <path id="Path_873376" data-name="Path 873376" d="M74.8,9.1c-4.139,0-6.283-2.03-8.17-3.824-1.855-1.756-3.452-3.27-6.792-3.27s-4.937,1.514-6.792,3.27C51.164,7.072,49.023,9.1,44.881,9.1s-6.283-2.03-8.17-3.824c-1.855-1.756-3.452-3.27-6.792-3.27s-4.937,1.517-6.789,3.27C21.241,7.072,19.1,9.1,14.962,9.1S8.679,7.072,6.789,5.278C4.937,3.522,3.34,2.007,0,2.007V0C4.139,0,6.283,2.03,8.17,3.821c1.855,1.759,3.452,3.274,6.792,3.274S19.9,5.58,21.75,3.821C23.637,2.03,25.781,0,29.92,0S36.2,2.03,38.093,3.821c1.852,1.759,3.449,3.274,6.789,3.274s4.937-1.514,6.792-3.274C53.56,2.03,55.7,0,59.843,0s6.283,2.03,8.17,3.821C69.867,5.58,71.464,7.094,74.8,7.094S79.742,5.58,81.6,3.821C83.486,2.03,85.627,0,89.769,0V2.007c-3.34,0-4.94,1.517-6.8,3.27C81.084,7.072,78.943,9.1,74.8,9.1" transform="translate(1.635 21.62)" fill="#efb499"/>
            <path id="Path_873377" data-name="Path 873377" d="M74.8,9.1c-4.139,0-6.283-2.03-8.169-3.824-1.855-1.756-3.452-3.27-6.792-3.27s-4.937,1.514-6.792,3.27C51.164,7.072,49.02,9.1,44.881,9.1s-6.283-2.03-8.17-3.824c-1.855-1.756-3.452-3.27-6.792-3.27s-4.937,1.517-6.789,3.27C21.241,7.072,19.1,9.1,14.962,9.1S8.678,7.072,6.789,5.278C4.937,3.522,3.34,2.007,0,2.007V0C4.139,0,6.283,2.03,8.169,3.821c1.851,1.759,3.452,3.274,6.792,3.274S19.9,5.58,21.75,3.821C23.637,2.03,25.781,0,29.92,0S36.2,2.03,38.093,3.821c1.852,1.759,3.449,3.274,6.789,3.274s4.937-1.514,6.792-3.274C53.56,2.03,55.7,0,59.843,0s6.283,2.03,8.17,3.821C69.867,5.58,71.464,7.094,74.8,7.094S79.742,5.58,81.6,3.821C83.486,2.03,85.624,0,89.769,0V2.007c-3.34,0-4.941,1.517-6.8,3.27C81.084,7.072,78.943,9.1,74.8,9.1" transform="translate(0.818 10.81)" fill="#efb499"/>
            <path id="Path_873378" data-name="Path 873378" d="M74.8,9.1c-4.139,0-6.28-2.03-8.17-3.821-1.855-1.756-3.452-3.27-6.792-3.27s-4.937,1.514-6.789,3.27C51.164,7.069,49.023,9.1,44.881,9.1s-6.28-2.03-8.169-3.821c-1.855-1.756-3.452-3.27-6.792-3.27s-4.937,1.514-6.789,3.267C21.245,7.069,19.1,9.1,14.962,9.1S8.678,7.069,6.789,5.278C4.937,3.522,3.34,2.007,0,2.007V0C4.139,0,6.283,2.03,8.17,3.821c1.855,1.756,3.452,3.27,6.792,3.27S19.9,5.577,21.75,3.821C23.64,2.03,25.781,0,29.92,0s6.28,2.03,8.173,3.821c1.852,1.756,3.449,3.27,6.789,3.27s4.937-1.514,6.792-3.27C53.563,2.03,55.7,0,59.843,0s6.28,2.03,8.17,3.821c1.855,1.756,3.452,3.27,6.792,3.27s4.937-1.514,6.792-3.27C83.486,2.03,85.627,0,89.769,0V2.007c-3.344,0-4.941,1.514-6.8,3.27C81.084,7.069,78.943,9.1,74.8,9.1" transform="translate(0 0.003)" fill="#efb499"/>
          </g>
        </g>
      </g>
      <circle id="Ellipse_11504" data-name="Ellipse 11504" cx="50.5" cy="50.5" r="50.5" transform="translate(402.668 6031)" fill="#ffce73"/>
      <circle id="Ellipse_11503" data-name="Ellipse 11503" cx="52.5" cy="52.5" r="52.5" transform="translate(395.668 6021)" fill="#f3f9ff"/>
    </g>
    <g id="Group_1100442" data-name="Group 1100442" transform="translate(413.938 5871.804)">
      <rect id="Rectangle_401104" data-name="Rectangle 401104" width="68" height="69" transform="translate(0.061 -0.804)" fill="none"/>
      <g id="Group_1102177" data-name="Group 1102177" transform="translate(12.061 -7.879)">
        <rect id="Rectangle_404737" data-name="Rectangle 404737" width="1.215" height="5.857" transform="translate(8.928 12.351)" fill="#fcee3b"/>
        <rect id="Rectangle_404738" data-name="Rectangle 404738" width="1.214" height="5.857" transform="translate(11.617 7.645)" fill="#fcee3b"/>
        <rect id="Rectangle_404742" data-name="Rectangle 404742" width="1.215" height="5.857" transform="translate(34.612 19.541)" fill="#fcee3b"/>
        <rect id="Rectangle_404743" data-name="Rectangle 404743" width="1.214" height="2.24" transform="translate(34.623 13.641)" fill="#fcee3b"/>
        <rect id="Rectangle_404744" data-name="Rectangle 404744" width="1.215" height="5.448" transform="translate(26.414 21.077)" fill="#fcee3b"/>
        <rect id="Rectangle_404745" data-name="Rectangle 404745" width="1.215" height="5.857" transform="translate(14.144 13.737)" fill="#fcee3b"/>
        <path id="Path_890722" data-name="Path 890722" d="M192.09,388.631l-4.345,4.422-1.395-1.418,4.346-4.422Z" transform="translate(-167.963 -349.006)" fill="#5e5e5e"/>
        <g id="Group_1102176" data-name="Group 1102176">
          <g id="Group_1102175" data-name="Group 1102175" clip-path="url(#clip-path-3)">
            <path id="Path_890723" data-name="Path 890723" d="M182.325,360.221a2.678,2.678,0,0,0,0,3.741,2.569,2.569,0,0,0,3.678,0,2.679,2.679,0,0,0,0-3.741,2.569,2.569,0,0,0-3.677,0" transform="translate(-163.648 -323.979)" fill="#3b3b40"/>
            <path id="Path_890724" data-name="Path 890724" d="M208.853,388.631l4.346,4.422,1.395-1.418-4.346-4.422Z" transform="translate(-188.246 -349.006)" fill="#3b3b40"/>
            <path id="Path_890725" data-name="Path 890725" d="M223.555,360.221a2.68,2.68,0,0,1,0,3.741,2.569,2.569,0,0,1-3.678,0,2.678,2.678,0,0,1,0-3.741,2.568,2.568,0,0,1,3.677,0" transform="translate(-197.495 -323.979)" fill="#5e5e5e"/>
            <path id="Path_890726" data-name="Path 890726" d="M57.5,447.611V432.22H74.192v12.506Z" transform="translate(-51.824 -389.573)" fill="#ffc708"/>
            <path id="Path_890727" data-name="Path 890727" d="M243.388,447.611V432.22H226.694v12.506Z" transform="translate(-204.326 -389.573)" fill="#f58a1f"/>
            <path id="Path_890728" data-name="Path 890728" d="M70.827,461.473l-1.655,9.619H84.715v-9.619Z" transform="translate(-62.347 -415.939)" fill="#e33326"/>
            <path id="Path_890729" data-name="Path 890729" d="M240.581,461.473l1.654,9.619H226.693v-9.619Z" transform="translate(-204.325 -415.939)" fill="#c42126"/>
            <path id="Path_890730" data-name="Path 890730" d="M6.825,558.963A11.954,11.954,0,0,0,0,569.785c0,7.936,7.919,10.1,14.6,10.1h7.772V558.963Z" transform="translate(0 -503.81)" fill="#f05822"/>
            <path id="Path_890731" data-name="Path 890731" d="M242.235,558.963a11.954,11.954,0,0,1,6.826,10.822c0,7.936-7.92,10.1-14.6,10.1h-7.771V558.963Z" transform="translate(-204.325 -503.81)" fill="#e33326"/>
            <path id="Path_890732" data-name="Path 890732" d="M81.066,156.58a5.748,5.748,0,1,1-5.747-5.847,5.8,5.8,0,0,1,5.747,5.847" transform="translate(-62.706 -135.86)" fill="#faa819"/>
            <path id="Path_890733" data-name="Path 890733" d="M124.671,150.748v1.018H123.9v-1.018a5.567,5.567,0,0,1,.774,0" transform="translate(-111.672 -135.861)" fill="#f58a1f"/>
            <path id="Path_890734" data-name="Path 890734" d="M106.866,152.53l.309.968-.736.243-.309-.968a5.587,5.587,0,0,1,.736-.243" transform="translate(-95.658 -137.48)" fill="#f58a1f"/>
            <path id="Path_890735" data-name="Path 890735" d="M91.112,159.815l.588.823-.627.463-.588-.824a5.641,5.641,0,0,1,.627-.463" transform="translate(-81.557 -144.046)" fill="#f58a1f"/>
            <path id="Path_890736" data-name="Path 890736" d="M78.952,172.012l.809.6-.455.637-.809-.6a5.662,5.662,0,0,1,.455-.637" transform="translate(-70.752 -155.039)" fill="#f58a1f"/>
            <path id="Path_890737" data-name="Path 890737" d="M71.572,187.927l.951.314-.239.749-.952-.315a5.839,5.839,0,0,1,.239-.749" transform="translate(-64.295 -169.384)" fill="#f58a1f"/>
            <path id="Path_890738" data-name="Path 890738" d="M69.579,206h1v.788h-1a5.7,5.7,0,0,1,0-.788" transform="translate(-62.701 -185.676)" fill="#f58a1f"/>
            <path id="Path_890739" data-name="Path 890739" d="M71.333,221.594l.951-.314.239.749-.951.315a5.8,5.8,0,0,1-.239-.749" transform="translate(-64.295 -199.446)" fill="#f58a1f"/>
            <path id="Path_890740" data-name="Path 890740" d="M78.5,236.052l.809-.6.455.637-.809.6a5.756,5.756,0,0,1-.455-.637" transform="translate(-70.75 -212.222)" fill="#f58a1f"/>
            <path id="Path_890741" data-name="Path 890741" d="M90.481,247.958l.588-.824.626.463-.588.823a5.655,5.655,0,0,1-.627-.463" transform="translate(-81.553 -222.749)" fill="#f58a1f"/>
            <path id="Path_890742" data-name="Path 890742" d="M106.125,256.15l.309-.968.737.243-.31.968a5.608,5.608,0,0,1-.736-.243" transform="translate(-95.654 -230.003)" fill="#f58a1f"/>
            <path id="Path_890743" data-name="Path 890743" d="M123.89,259.823V258.8h.774v1.018a5.521,5.521,0,0,1-.774,0" transform="translate(-111.666 -233.268)" fill="#f58a1f"/>
            <path id="Path_890744" data-name="Path 890744" d="M139.218,256.4l-.309-.968.737-.243.309.968a5.539,5.539,0,0,1-.736.244" transform="translate(-125.203 -230.005)" fill="#f58a1f"/>
            <path id="Path_890745" data-name="Path 890745" d="M153.429,248.426l-.588-.823.626-.463.588.823a5.581,5.581,0,0,1-.626.463" transform="translate(-137.76 -222.755)" fill="#f58a1f"/>
            <path id="Path_890746" data-name="Path 890746" d="M165.135,236.693l-.81-.6.455-.637.809.6a5.74,5.74,0,0,1-.455.637" transform="translate(-148.111 -212.225)" fill="#f58a1f"/>
            <path id="Path_890747" data-name="Path 890747" d="M173.183,222.348l-.952-.315.239-.749.951.315a5.75,5.75,0,0,1-.239.749" transform="translate(-155.237 -199.45)" fill="#f58a1f"/>
            <path id="Path_890748" data-name="Path 890748" d="M176.795,206.8h-1v-.788h1a5.888,5.888,0,0,1,0,.788" transform="translate(-158.448 -185.681)" fill="#f58a1f"/>
            <path id="Path_890749" data-name="Path 890749" d="M173.425,188.68l-.951.315-.239-.749.951-.315a5.749,5.749,0,0,1,.239.749" transform="translate(-155.24 -169.388)" fill="#f58a1f"/>
            <path id="Path_890750" data-name="Path 890750" d="M165.594,172.655l-.809.6-.455-.637.809-.6a5.724,5.724,0,0,1,.455.637" transform="translate(-148.115 -155.045)" fill="#f58a1f"/>
            <path id="Path_890751" data-name="Path 890751" d="M154.061,160.284l-.588.824-.626-.463.588-.823a5.638,5.638,0,0,1,.626.463" transform="translate(-137.765 -144.051)" fill="#f58a1f"/>
            <path id="Path_890752" data-name="Path 890752" d="M139.961,152.776l-.31.968-.736-.244.309-.968a5.577,5.577,0,0,1,.737.243" transform="translate(-125.208 -137.482)" fill="#f58a1f"/>
            <path id="Path_890753" data-name="Path 890753" d="M86.464,162.75a5.085,5.085,0,1,1-5.084-5.172,5.129,5.129,0,0,1,5.084,5.172" transform="translate(-68.768 -142.03)" fill="#ffc708"/>
            <path id="Path_890754" data-name="Path 890754" d="M112.477,182.658a2.194,2.194,0,0,0-1.109-.484l-.513-.105a1.331,1.331,0,0,1-.506-.183.354.354,0,0,1-.139-.3.406.406,0,0,1,.207-.376,1.3,1.3,0,0,1,.639-.121,2.94,2.94,0,0,1,.693.089,4.257,4.257,0,0,1,.751.264v-1.007a7.136,7.136,0,0,0-.843-.177c-.082-.012-.163-.018-.243-.027v-.555h-.9v.543a1.715,1.715,0,0,0-.942.363,1.353,1.353,0,0,0-.451,1.093,1.241,1.241,0,0,0,.324.9,2,2,0,0,0,1.026.488l.467.1a1.433,1.433,0,0,1,.568.217.467.467,0,0,1-.067.727,1.131,1.131,0,0,1-.6.134,2.867,2.867,0,0,1-.806-.122,4.466,4.466,0,0,1-.866-.365V184.8a5.435,5.435,0,0,0,.9.255q.229.044.456.065v.544h.9v-.551a1.771,1.771,0,0,0,.934-.356,1.441,1.441,0,0,0,.459-1.171,1.241,1.241,0,0,0-.329-.924" transform="translate(-98.349 -161.949)" fill="#fcee3b"/>
            <path id="Path_890755" data-name="Path 890755" d="M221.788,90.417a5.68,5.68,0,0,1-8.107.6,5.918,5.918,0,0,1-.59-8.247,5.68,5.68,0,0,1,8.107-.6,5.919,5.919,0,0,1,.59,8.248" transform="translate(-190.804 -72.779)" fill="#faa819"/>
            <path id="Path_890756" data-name="Path 890756" d="M299.585,93.181l-.654.77-.586-.515.654-.77a5.616,5.616,0,0,1,.586.515" transform="translate(-268.907 -83.523)" fill="#f58a1f"/>
            <path id="Path_890757" data-name="Path 890757" d="M286.047,84.273l-.388.938-.714-.306.389-.938a5.6,5.6,0,0,1,.713.306" transform="translate(-256.829 -75.682)" fill="#f58a1f"/>
            <path id="Path_890758" data-name="Path 890758" d="M270.933,80.822l-.084,1.014-.772-.066.084-1.014a5.541,5.541,0,0,1,.772.066" transform="translate(-243.428 -72.788)" fill="#f58a1f"/>
            <path id="Path_890759" data-name="Path 890759" d="M253.64,81.524l.228.991-.754.179-.228-.991a5.583,5.583,0,0,1,.754-.179" transform="translate(-227.934 -73.48)" fill="#f58a1f"/>
            <path id="Path_890760" data-name="Path 890760" d="M237.174,87.346l.518.871-.663.408-.518-.871a5.648,5.648,0,0,1,.663-.408" transform="translate(-213.174 -78.727)" fill="#f58a1f"/>
            <path id="Path_890761" data-name="Path 890761" d="M223.911,98.322l.757.665-.506.6-.757-.665a5.689,5.689,0,0,1,.506-.6" transform="translate(-201.361 -88.62)" fill="#f58a1f"/>
            <path id="Path_890762" data-name="Path 890762" d="M215.156,113.378l.922.395-.3.726-.922-.395a5.838,5.838,0,0,1,.3-.726" transform="translate(-193.656 -102.191)" fill="#f58a1f"/>
            <path id="Path_890763" data-name="Path 890763" d="M211.765,131.042l1,.086-.065.785-1-.086a5.822,5.822,0,0,1,.065-.785" transform="translate(-190.811 -118.112)" fill="#f58a1f"/>
            <path id="Path_890764" data-name="Path 890764" d="M212.456,147.463l.974-.232.176.767-.974.232a5.855,5.855,0,0,1-.176-.767" transform="translate(-191.493 -132.704)" fill="#f58a1f"/>
            <path id="Path_890765" data-name="Path 890765" d="M218.177,162.373l.856-.527.4.674-.856.527a5.74,5.74,0,0,1-.4-.674" transform="translate(-196.649 -145.877)" fill="#f58a1f"/>
            <path id="Path_890766" data-name="Path 890766" d="M228.965,175.091l.655-.77.586.515-.654.77a5.694,5.694,0,0,1-.586-.515" transform="translate(-206.373 -157.121)" fill="#f58a1f"/>
            <path id="Path_890767" data-name="Path 890767" d="M243.765,184.377l.388-.938.714.306-.388.938a5.621,5.621,0,0,1-.714-.305" transform="translate(-219.713 -165.339)" fill="#f58a1f"/>
            <path id="Path_890768" data-name="Path 890768" d="M261.126,189.319l.084-1.014.771.066-.084,1.014a5.561,5.561,0,0,1-.772-.066" transform="translate(-235.36 -169.725)" fill="#f58a1f"/>
            <path id="Path_890769" data-name="Path 890769" d="M277.268,187.8l-.228-.991.754-.179.228.991a5.609,5.609,0,0,1-.754.179" transform="translate(-249.704 -168.211)" fill="#f58a1f"/>
            <path id="Path_890770" data-name="Path 890770" d="M291.921,180.987l-.518-.871.663-.408.517.871a5.61,5.61,0,0,1-.662.408" transform="translate(-262.65 -161.976)" fill="#f58a1f"/>
            <path id="Path_890771" data-name="Path 890771" d="M304.426,170.166l-.757-.666.507-.6.756.666a5.633,5.633,0,0,1-.506.6" transform="translate(-273.706 -152.238)" fill="#f58a1f"/>
            <path id="Path_890772" data-name="Path 890772" d="M313.55,156.4l-.922-.395.3-.726.922.395a5.766,5.766,0,0,1-.3.726" transform="translate(-281.781 -139.954)" fill="#f58a1f"/>
            <path id="Path_890773" data-name="Path 890773" d="M318.409,141.02l-1-.086.065-.785,1,.086a5.821,5.821,0,0,1-.065.785" transform="translate(-286.093 -126.32)" fill="#f58a1f"/>
            <path id="Path_890774" data-name="Path 890774" d="M316.911,123.425l-.974.232-.176-.767.974-.232a5.836,5.836,0,0,1,.176.767" transform="translate(-284.605 -110.555)" fill="#f58a1f"/>
            <path id="Path_890775" data-name="Path 890775" d="M310.221,106.673l-.856.527-.4-.674.856-.527a5.7,5.7,0,0,1,.4.674" transform="translate(-278.478 -95.54)" fill="#f58a1f"/>
            <path id="Path_890776" data-name="Path 890776" d="M227.344,96.141a5.024,5.024,0,0,1-7.171.531,5.234,5.234,0,0,1-.522-7.3,5.024,5.024,0,0,1,7.17-.531,5.235,5.235,0,0,1,.522,7.3" transform="translate(-196.863 -78.944)" fill="#ffc708"/>
            <path id="Path_890777" data-name="Path 890777" d="M246.131,117.582a2.272,2.272,0,0,0-.528-1.1l-.321-.421a1.376,1.376,0,0,1-.265-.475.356.356,0,0,1,.086-.318.392.392,0,0,1,.4-.147,1.314,1.314,0,0,1,.561.333,3,3,0,0,1,.467.528,4.381,4.381,0,0,1,.4.7l.647-.762a7.407,7.407,0,0,0-.524-.694c-.054-.063-.111-.122-.167-.182l.357-.42-.685-.6-.349.411a1.715,1.715,0,0,0-.945-.352,1.312,1.312,0,0,0-1.044.527,1.243,1.243,0,0,0-.334.9,2.061,2.061,0,0,0,.463,1.052l.285.39a1.487,1.487,0,0,1,.291.542.429.429,0,0,1-.114.355.415.415,0,0,1-.4.15,1.139,1.139,0,0,1-.543-.3,2.96,2.96,0,0,1-.532-.629,4.683,4.683,0,0,1-.421-.853l-.666.784a5.66,5.66,0,0,0,.514.789q.145.185.3.353l-.35.412.684.6.355-.417a1.769,1.769,0,0,0,.935.352,1.4,1.4,0,0,0,1.1-.581,1.241,1.241,0,0,0,.345-.918" transform="translate(-218.342 -102.768)" fill="#fcee3b"/>
            <path id="Path_890778" data-name="Path 890778" d="M275.082,213.9a5.87,5.87,0,0,1,3.681,7.373,5.728,5.728,0,0,1-7.247,3.745,5.87,5.87,0,0,1-3.681-7.373,5.728,5.728,0,0,1,7.247-3.745" transform="translate(-241.151 -192.533)" fill="#faa819"/>
            <path id="Path_890779" data-name="Path 890779" d="M269.588,250.752l.951.316-.24.749-.951-.316a5.826,5.826,0,0,1,.24-.749" transform="translate(-242.771 -226.01)" fill="#f58a1f"/>
            <path id="Path_890780" data-name="Path 890780" d="M267.576,268.819h1v.788h-1a5.837,5.837,0,0,1,0-.788" transform="translate(-241.162 -242.294)" fill="#f58a1f"/>
            <path id="Path_890781" data-name="Path 890781" d="M269.312,284.426l.952-.313.238.75-.952.313a5.819,5.819,0,0,1-.238-.749" transform="translate(-242.739 -256.078)" fill="#f58a1f"/>
            <path id="Path_890782" data-name="Path 890782" d="M276.449,298.891l.81-.6.454.638-.81.6a5.759,5.759,0,0,1-.454-.638" transform="translate(-249.172 -268.861)" fill="#f58a1f"/>
            <path id="Path_890783" data-name="Path 890783" d="M288.42,310.81l.589-.823.626.464-.589.823a5.671,5.671,0,0,1-.626-.464" transform="translate(-259.961 -279.4)" fill="#f58a1f"/>
            <path id="Path_890784" data-name="Path 890784" d="M304.052,319.02l.31-.968.736.244-.31.968a5.586,5.586,0,0,1-.736-.244" transform="translate(-274.051 -286.67)" fill="#f58a1f"/>
            <path id="Path_890785" data-name="Path 890785" d="M321.815,322.714V321.7h.774v1.018a5.577,5.577,0,0,1-.774,0" transform="translate(-290.061 -289.954)" fill="#f58a1f"/>
            <path id="Path_890786" data-name="Path 890786" d="M337.155,319.313l-.308-.968.737-.242.308.968a5.556,5.556,0,0,1-.737.242" transform="translate(-303.61 -286.715)" fill="#f58a1f"/>
            <path id="Path_890787" data-name="Path 890787" d="M351.368,311.357l-.588-.824.628-.462.587.824a5.7,5.7,0,0,1-.627.462" transform="translate(-316.168 -279.475)" fill="#f58a1f"/>
            <path id="Path_890788" data-name="Path 890788" d="M363.089,299.641l-.809-.6.456-.637.808.6a5.736,5.736,0,0,1-.456.637" transform="translate(-326.534 -268.961)" fill="#f58a1f"/>
            <path id="Path_890789" data-name="Path 890789" d="M371.155,285.3l-.951-.316.24-.749.951.316a5.786,5.786,0,0,1-.24.749" transform="translate(-333.676 -256.193)" fill="#f58a1f"/>
            <path id="Path_890790" data-name="Path 890790" d="M374.786,269.751h-1v-.788h1a5.843,5.843,0,0,1,0,.788" transform="translate(-336.904 -242.423)" fill="#f58a1f"/>
            <path id="Path_890791" data-name="Path 890791" d="M371.443,251.644l-.952.313-.238-.75.952-.313a5.749,5.749,0,0,1,.238.749" transform="translate(-333.72 -226.139)" fill="#f58a1f"/>
            <path id="Path_890792" data-name="Path 890792" d="M363.628,235.607l-.81.6-.454-.638.81-.6a5.739,5.739,0,0,1,.455.638" transform="translate(-326.608 -211.784)" fill="#f58a1f"/>
            <path id="Path_890793" data-name="Path 890793" d="M352.11,223.218l-.589.823-.626-.464.589-.823a5.635,5.635,0,0,1,.626.464" transform="translate(-316.272 -200.775)" fill="#f58a1f"/>
            <path id="Path_890794" data-name="Path 890794" d="M338.016,215.691l-.31.968-.736-.244.31-.967a5.544,5.544,0,0,1,.736.244" transform="translate(-303.721 -194.189)" fill="#f58a1f"/>
            <path id="Path_890795" data-name="Path 890795" d="M322.731,213.644v1.018h-.774v-1.018a5.641,5.641,0,0,1,.775,0" transform="translate(-290.188 -192.551)" fill="#f58a1f"/>
            <path id="Path_890796" data-name="Path 890796" d="M304.934,215.406l.308.969-.737.242-.308-.968a5.57,5.57,0,0,1,.736-.243" transform="translate(-274.182 -194.152)" fill="#f58a1f"/>
            <path id="Path_890797" data-name="Path 890797" d="M289.167,222.669l.587.824-.627.462-.587-.824a5.618,5.618,0,0,1,.627-.462" transform="translate(-260.07 -200.698)" fill="#f58a1f"/>
            <path id="Path_890798" data-name="Path 890798" d="M276.988,234.848l.809.6-.456.637-.808-.6a5.809,5.809,0,0,1,.456-.637" transform="translate(-249.246 -211.675)" fill="#f58a1f"/>
            <path id="Path_890799" data-name="Path 890799" d="M280.938,220.716a5.192,5.192,0,0,1,3.256,6.521,5.066,5.066,0,0,1-6.41,3.312,5.191,5.191,0,0,1-3.256-6.521,5.066,5.066,0,0,1,6.41-3.312" transform="translate(-247.213 -198.706)" fill="#ffc708"/>
            <path id="Path_890800" data-name="Path 890800" d="M299.456,251.508a2.239,2.239,0,0,0-.8.922l-.258.464a1.359,1.359,0,0,1-.328.432.339.339,0,0,1-.322.043.4.4,0,0,1-.287-.317,1.367,1.367,0,0,1,.085-.656,3.066,3.066,0,0,1,.3-.642,4.347,4.347,0,0,1,.481-.645l-.941-.312a7.431,7.431,0,0,0-.427.76c-.037.075-.068.151-.1.227l-.519-.172-.28.875.507.168a1.789,1.789,0,0,0,.047,1.023,1.327,1.327,0,0,0,.881.776,1.19,1.19,0,0,0,.944-.034,2.031,2.031,0,0,0,.774-.841l.243-.419a1.481,1.481,0,0,1,.379-.483.411.411,0,0,1,.366-.031.424.424,0,0,1,.292.321,1.185,1.185,0,0,1-.063.626,2.975,2.975,0,0,1-.365.742,4.584,4.584,0,0,1-.61.725l.968.321a5.7,5.7,0,0,0,.516-.788q.112-.207.2-.421l.508.169.281-.875-.515-.171a1.859,1.859,0,0,0-.043-1.014,1.413,1.413,0,0,0-.952-.807,1.189,1.189,0,0,0-.966.032" transform="translate(-266.848 -226.051)" fill="#fcee3b"/>
            <path id="Path_890801" data-name="Path 890801" d="M338.214,574.237s2.6-.454,3.411,1.3c.591,1.277-.263,3.682-.263,3.682l-3.765.2Z" transform="translate(-304.286 -517.528)" fill="#dcdcdc"/>
            <path id="Path_890802" data-name="Path 890802" d="M338.025,577.6s1.81-.368,2.374,1.05a5.987,5.987,0,0,1-.183,2.985l-2.62.163Z" transform="translate(-304.285 -520.568)" fill="#edeff1"/>
            <path id="Path_890803" data-name="Path 890803" d="M338.214,574.237s2.6-.454,3.411,1.3c.591,1.277-.263,3.682-.263,3.682l-3.765.2Z" transform="translate(-304.286 -517.528)" fill="#dcdcdc"/>
            <path id="Path_890804" data-name="Path 890804" d="M338.025,577.6s1.81-.368,2.374,1.05a5.987,5.987,0,0,1-.183,2.985l-2.62.163Z" transform="translate(-304.285 -520.568)" fill="#edeff1"/>
            <path id="Path_890805" data-name="Path 890805" d="M225.651,574.237s-2.6-.454-3.411,1.3c-.591,1.277.263,3.682.263,3.682l3.765.2Z" transform="translate(-200.123 -517.528)" fill="#dcdcdc"/>
            <path id="Path_890806" data-name="Path 890806" d="M237.61,577.6s-1.81-.368-2.374,1.05a5.988,5.988,0,0,0,.183,2.985l2.62.163Z" transform="translate(-211.895 -520.568)" fill="#edeff1"/>
            <path id="Path_890807" data-name="Path 890807" d="M254.057,558.179c-6.621,0-5.19,5.711-4.619,9.8.151,1.255,2.682,2.265,2.682,2.265a1.1,1.1,0,0,0,.809.512h2.257a1.1,1.1,0,0,0,.809-.512s2.531-1.01,2.682-2.265c.509-3.651,2.209-9.8-4.619-9.8" transform="translate(-224.342 -503.103)" fill="#f9ac6f"/>
            <path id="Path_890808" data-name="Path 890808" d="M242.063,614.78c0,.712-.434,1.29-.968,1.29s-.969-.577-.969-1.29.434-1.289.969-1.289.968.578.968,1.289" transform="translate(-216.433 -552.957)" fill="#f9ac6f"/>
            <path id="Path_890809" data-name="Path 890809" d="M344.751,614.78c0,.712-.433,1.29-.968,1.29s-.968-.577-.968-1.29.434-1.289.968-1.289.968.578.968,1.289" transform="translate(-308.989 -552.957)" fill="#f9ac6f"/>
            <path id="Path_890810" data-name="Path 890810" d="M260.731,601.445a.433.433,0,0,1-.433.433h-1.954a.433.433,0,1,1,0-.866H260.3a.433.433,0,0,1,.433.433" transform="translate(-232.463 -541.71)" fill="#dedad8"/>
            <path id="Path_890811" data-name="Path 890811" d="M318.891,601.445a.433.433,0,0,1-.433.433H316.5a.433.433,0,1,1,0-.866h1.954a.433.433,0,0,1,.433.433" transform="translate(-284.884 -541.71)" fill="#dedad8"/>
            <path id="Path_890812" data-name="Path 890812" d="M286.76,663.437a2.154,2.154,0,0,1-3.571,0Z" transform="translate(-255.246 -597.975)" fill="#da1f26"/>
            <path id="Path_890813" data-name="Path 890813" d="M288.5,627.646a4.227,4.227,0,0,0,.635-2.209,1.546,1.546,0,0,1-.635,2.209" transform="translate(-260.033 -563.725)" fill="#fbc39c"/>
            <path id="Path_890814" data-name="Path 890814" d="M274.81,652.818h-.84c-.95,0-.877-.752-1.455-.752-.426,0-.7-.061-.923.189-.223-.25-.5-.189-.923-.189-.578,0-.505.752-1.455.752h-.84a.9.9,0,0,0,.965,1.146H270.7a1.027,1.027,0,0,1,1.776,0c1.174,0,2.633.222,2.33-1.146" transform="translate(-241.873 -587.721)" fill="#dcdcdc"/>
            <path id="Path_890815" data-name="Path 890815" d="M288.5,647.824a1.37,1.37,0,0,0,2.523,0Z" transform="translate(-260.033 -583.903)" fill="#ee8f50"/>
            <path id="Path_890816" data-name="Path 890816" d="M317.119,623.663c0-.009,0-.018,0-.026a.522.522,0,0,1,1.041,0c0,.009,0,.018,0,.026Z" transform="translate(-285.828 -561.665)" fill="#3c3c3b"/>
            <path id="Path_890817" data-name="Path 890817" d="M277.347,623.663c0-.009,0-.018,0-.026a.522.522,0,0,1,1.041,0c0,.009,0,.018,0,.026Z" transform="translate(-249.98 -561.665)" fill="#3c3c3b"/>
            <path id="Path_890818" data-name="Path 890818" d="M100.435,564.068c-6.447,0-5.053,5.561-4.5,9.546.147,1.222,3.361,2.715,3.361,2.715h2.217s3.271-1.493,3.417-2.715c.5-3.555,2.15-9.546-4.5-9.546" transform="translate(-86.001 -508.411)" fill="#f9ac6f"/>
            <path id="Path_890819" data-name="Path 890819" d="M88.758,619.172c0,.693-.422,1.256-.943,1.256s-.943-.562-.943-1.256.422-1.256.943-1.256.943.563.943,1.256" transform="translate(-78.3 -556.946)" fill="#f9ac6f"/>
            <path id="Path_890820" data-name="Path 890820" d="M188.736,619.172c0,.693-.422,1.256-.943,1.256s-.943-.562-.943-1.256.422-1.256.943-1.256.943.563.943,1.256" transform="translate(-168.414 -556.946)" fill="#f9ac6f"/>
            <path id="Path_890821" data-name="Path 890821" d="M138.671,650.592a.83.83,0,0,0,1.528,0Z" transform="translate(-124.988 -586.398)" fill="#ee8f50"/>
            <path id="Path_890822" data-name="Path 890822" d="M129.616,521.6a2.074,2.074,0,1,1-2.065-2.26,2.169,2.169,0,0,1,2.065,2.26" transform="translate(-113.104 -468.098)" fill="#dcdcdc"/>
            <path id="Path_890823" data-name="Path 890823" d="M138.567,666.64a1.052,1.052,0,0,0-.859-.114c.132.409.331.747.859.654.528.093.727-.245.859-.654a1.052,1.052,0,0,0-.859.114" transform="translate(-124.12 -600.719)" fill="#da1f26"/>
            <path id="Path_890824" data-name="Path 890824" d="M120.267,637.881a.465.465,0,1,1-.463-.432.448.448,0,0,1,.463.432" transform="translate(-107.565 -574.551)" fill="#3c3c3b"/>
            <path id="Path_890825" data-name="Path 890825" d="M164.489,637.881a.465.465,0,1,1-.463-.432.448.448,0,0,1,.463.432" transform="translate(-147.423 -574.551)" fill="#3c3c3b"/>
            <path id="Path_890826" data-name="Path 890826" d="M89.488,540a2.975,2.975,0,0,0-2.669.86,2.976,2.976,0,0,0-2.67-.86c-5.258.508-4.452,7.1-1.642,9.754l.3-2.921,2.191-.77a3.018,3.018,0,0,0,1.818-1.4,3.017,3.017,0,0,0,1.818,1.4l2.191.77.3,2.921c2.81-2.653,3.616-9.246-1.642-9.754" transform="translate(-72.372 -486.697)" fill="#dcdcdc"/>
            <path id="Path_890827" data-name="Path 890827" d="M135.867,680.645c0,.474-.581.859-1.3.859s-1.3-.384-1.3-.859.581-.859,1.3-.859,1.3.385,1.3.859" transform="translate(-120.124 -612.711)" fill="#f9ac6f"/>
          </g>
        </g>
      </g>
    </g>
  </g>
</svg>
