<svg xmlns="http://www.w3.org/2000/svg" xmlns:xlink="http://www.w3.org/1999/xlink" width="70" height="70" viewBox="0 0 70 70">
  <defs>
    <clipPath id="clip-path">
      <rect id="Rectangle_401144" data-name="Rectangle 401144" width="46" height="48" transform="translate(275.75 971.833)" fill="#fff" stroke="#707070" stroke-width="1"/>
    </clipPath>
    <clipPath id="clip-path-2">
      <rect id="Rectangle_404955" data-name="Rectangle 404955" width="37.799" height="41.998" fill="#6a4d23"/>
    </clipPath>
  </defs>
  <g id="Group_1102017" data-name="Group 1102017" transform="translate(-1230 -6501)">
    <g id="Group_1099489" data-name="Group 1099489" transform="translate(961 5543)">
      <circle id="Ellipse_5614" data-name="Ellipse 5614" cx="35" cy="35" r="35" transform="translate(269 958)" fill="#fff"/>
    </g>
    <g id="Group_1098691" data-name="Group 1098691" transform="translate(966.25 5540.167)" clip-path="url(#clip-path)">
      <g id="Group_1102556" data-name="Group 1102556" transform="translate(279.85 974.168)">
        <g id="Group_1102555" data-name="Group 1102555" clip-path="url(#clip-path-2)">
          <path id="Path_892269" data-name="Path 892269" d="M25.615,0V2.345l.208.18H37.8V33.793H33.161c-.431-.452-.116-1.234-.208-1.8h2.769V28.682c0-.29.984-1.679.98-2.526,0-.771-.98-1.932-.98-2.044V4.209H26.03V14.732c0,.077-.924.8-1.132,1.181a4.175,4.175,0,0,0-.392,1.284c-1.131-.7-1.612-.727-1.374-2.1.23-1.323.77-2.034.533-3.6-.653-4.327-9.068-4.533-9.547.467-.158,1.649.745,2.887.529,4.49l-1.354.746a3.416,3.416,0,0,0-.526-1.528c-.173-.254-1-.873-1-.937V4.209H2.077v19.9c0,.112-.977,1.273-.98,2.044,0,.847.98,2.237.98,2.526v3.307H4.846c-.092.57.223,1.352-.208,1.8H0V2.525H11.977l.208-.18V0ZM17.723,4.931H14.677V7.576h3.046Zm5.4,0H20.077V7.576h3.046Z" fill="#6a4d23"/>
          <path id="Path_892270" data-name="Path 892270" d="M87.231,161.607c-.276,1.106-2.844,1.439-3.051-.476-.42-3.883.351-8.3-.027-12.244-.291-1.137-1.019-.288-1.841-.807a14.263,14.263,0,0,1-2.029-3.048c-.772-1.662-.8-1.937.19-3.486a9.5,9.5,0,0,1,3.307-3.261c.847-.432,1.907-.575,2.55-1.271l1.036,1.024-.981,6.012a5.382,5.382,0,0,0,1,1.607c.368.185,1.3-1.063,1.361-1.375a2.6,2.6,0,0,0-.01-.7c-.143-1.738-.795-3.664-.964-5.429.029-.464.731-.789,1.051-1.136a9.268,9.268,0,0,0,2.55,1.268,9.5,9.5,0,0,1,3.307,3.261c.993,1.549.964,1.821.19,3.486a14.26,14.26,0,0,1-2.029,3.048c-.654.413-1.275.051-1.436.132-.038.019-.333.564-.408.672-.371,3.941.4,8.363-.023,12.246a1.544,1.544,0,0,1-2.429,1.139,2.481,2.481,0,0,1-.622-.662V150.363h-.692Zm-3.6-16.055v-3.969a5.065,5.065,0,0,0-1.328,1.743,4.62,4.62,0,0,0,1.328,2.226m8.031-.12a4.884,4.884,0,0,0,1.189-2.105,5.244,5.244,0,0,0-1.189-1.623Z" transform="translate(-68.678 -120.538)" fill="#6a4d23"/>
          <path id="Path_892271" data-name="Path 892271" d="M25.3,195.99a1.376,1.376,0,0,1-2.43.067l-.094-10.381-.267-.549c-.471-.071-.99.1-1.369-.228a12.453,12.453,0,0,1-2.06-3.833c-.028-.964,2.128-3.383,3.044-3.949.7-.434,1.72-.638,2.414-1.155l.9.793-.839,4.808c-.051.286.725,1.308,1.028,1.253l.894-1.045-.823-4.9c.036-.576,1.272-1.3,1.059-.536-.178.637-.461.766-.342,1.611.156,1.1,2.2,4.82,3.324,5.289.38.158.8.128,1.095.375-.3.426-.705,1.4-1.318,1.5-.728.115-.938-.264-1.166.671l-.07,10.281a1.32,1.32,0,0,1-1.871.53,2,2,0,0,1-.559-.6v-9.2H25.3Zm-3.046-13.169v-3.127c-1.274.982-1.095,2.093,0,3.127" transform="translate(-16.434 -154.801)" fill="#6a4d23"/>
          <path id="Path_892272" data-name="Path 892272" d="M173.981,195.99a1.376,1.376,0,0,1-2.43.067l-.07-10.4c-.191-.87-.834-.358-1.453-.662-.43-.211-.751-1.015-1.032-1.387.3-.247.715-.217,1.095-.375,1.127-.469,3.169-4.188,3.324-5.289.12-.845-.164-.974-.342-1.611-.211-.758,1-.057,1.059.537l-.816,4.9,1.077,1.17c.139-.532.9-.811.847-1.38l-.845-4.811.9-.788c.694.517,1.711.72,2.414,1.155.916.566,3.073,2.984,3.044,3.949a12.453,12.453,0,0,1-2.06,3.833c-.379.324-.9.157-1.369.228l-.267.549-.094,10.381a1.33,1.33,0,0,1-1.874.532,4.221,4.221,0,0,1-.556-.6v-9.2h-.554Zm3.6-13.169c1.063-1.029,1.281-2.155,0-3.127Z" transform="translate(-145.597 -154.801)" fill="#6a4d23"/>
          <path id="Path_892273" data-name="Path 892273" d="M115.295,79.787c3.035-.385,4.334.97,4.047,3.515-.477,4.238-5.843,4.387-6.471.09-.249-1.707.2-3.323,2.424-3.606" transform="translate(-97.19 -70.135)" fill="#6a4d23"/>
          <path id="Path_892274" data-name="Path 892274" d="M189.66,128.861c1.412-.182,2.906.043,3.318,1.384.548,1.783-.554,4.562-3.185,4.089-2.153-.387-3.272-5.068-.133-5.473" transform="translate(-161.724 -113.316)" fill="#6a4d23"/>
          <path id="Path_892275" data-name="Path 892275" d="M47.305,129.413a4.3,4.3,0,0,1,3.6-.265c2.181,1.049,1.038,5.976-2.27,5.219-1.9-.435-2.617-3.842-1.333-4.954" transform="translate(-40.197 -113.377)" fill="#6a4d23"/>
          <path id="Path_892276" data-name="Path 892276" d="M25.769,94v2.525H23.208L23,96.345V94Z" transform="translate(-19.815 -82.695)" fill="#6a4d23"/>
          <path id="Path_892277" data-name="Path 892277" d="M59.769,94v2.345l-.208.18H57V94Z" transform="translate(-49.108 -82.695)" fill="#6a4d23"/>
          <path id="Path_892278" data-name="Path 892278" d="M198.769,94v2.525h-2.561l-.208-.18V94Z" transform="translate(-168.862 -82.695)" fill="#6a4d23"/>
          <path id="Path_892279" data-name="Path 892279" d="M232.769,94v2.345l-.208.18H230V94Z" transform="translate(-198.154 -82.695)" fill="#6a4d23"/>
          <rect id="Rectangle_404951" data-name="Rectangle 404951" width="2.908" height="2.525" transform="translate(2.908 7.856)" fill="#6a4d23"/>
          <rect id="Rectangle_404952" data-name="Rectangle 404952" width="2.908" height="2.525" transform="translate(7.754 7.856)" fill="#6a4d23"/>
          <rect id="Rectangle_404953" data-name="Rectangle 404953" width="2.908" height="2.525" transform="translate(27.138 7.856)" fill="#6a4d23"/>
          <rect id="Rectangle_404954" data-name="Rectangle 404954" width="2.908" height="2.525" transform="translate(31.984 7.856)" fill="#6a4d23"/>
          <path id="Path_892280" data-name="Path 892280" d="M23,156l1.782.016.852,1.966A4.393,4.393,0,0,1,23,158.4Z" transform="translate(-19.815 -137.238)" fill="#6a4d23"/>
          <path id="Path_892281" data-name="Path 892281" d="M25.769,125c-.181.438-.575.737-.758,1.206a2.638,2.638,0,0,0-.211,1.2H23V125Z" transform="translate(-19.815 -109.966)" fill="#6a4d23"/>
          <path id="Path_892282" data-name="Path 892282" d="M233.63,156V158.4a5.25,5.25,0,0,1-2.631-.363l.845-2.03Z" transform="translate(-199.015 -137.238)" fill="#6a4d23"/>
          <path id="Path_892283" data-name="Path 892283" d="M232.769,125V127.4h-1.8a2.348,2.348,0,0,0-.237-1.3c-.2-.455-.575-.679-.731-1.109Z" transform="translate(-198.154 -109.966)" fill="#6a4d23"/>
        </g>
      </g>
    </g>
  </g>
</svg>
