<svg xmlns="http://www.w3.org/2000/svg" xmlns:xlink="http://www.w3.org/1999/xlink" width="68" height="69" viewBox="0 0 68 69">
  <defs>
    <clipPath id="clip-path">
      <rect id="Rectangle_405106" data-name="Rectangle 405106" width="68" height="55.589" fill="none"/>
    </clipPath>
  </defs>
  <g id="Group_1103516" data-name="Group 1103516" transform="translate(-258 -6320)">
    <g id="Group_1099380" data-name="Group 1099380" transform="translate(257.941 6320.804)">
      <rect id="Rectangle_401104" data-name="Rectangle 401104" width="68" height="69" transform="translate(0.059 -0.804)" fill="none"/>
      <g id="Group_1102726" data-name="Group 1102726" transform="translate(0.059 5.255)" clip-path="url(#clip-path)">
        <path id="Path_892687" data-name="Path 892687" d="M56.214,30c0,.264,0,.526-.016.787a19.9,19.9,0,0,1-4.885,12.325q-.539.619-1.126,1.192a19.985,19.985,0,0,1-7.781,4.71,19.9,19.9,0,0,1-5.393.959q-.392.016-.788.016t-.787-.016a19.875,19.875,0,0,1-2.594-.27h0a19.682,19.682,0,0,1-2.435-.574,19.976,19.976,0,0,1-8-4.681q-.589-.563-1.131-1.172a19.9,19.9,0,0,1-5.03-12.489c-.011-.261-.016-.523-.016-.787s0-.526.016-.787a19.894,19.894,0,0,1,4.9-12.338q.533-.613,1.115-1.179a19.9,19.9,0,0,1,13.173-5.669q.392-.016.787-.016t.788.016a20.046,20.046,0,0,1,3.244.392,19.661,19.661,0,0,1,2.539.7,19.964,19.964,0,0,1,7.54,4.726q.579.576,1.108,1.2A19.9,19.9,0,0,1,56.2,29.208c.011.261.016.523.016.787" transform="translate(-2.004 -1.236)" fill="#2daad6"/>
        <path id="Path_892688" data-name="Path 892688" d="M36.225,10.008V49.985a19.988,19.988,0,1,1,0-39.977" transform="translate(-2.004 -1.236)" fill="#63c4ee"/>
        <path id="Path_892689" data-name="Path 892689" d="M39.716,10.024V49.97q-.392.016-.787.016t-.788-.016V10.024c.261-.011.524-.016.788-.016s.526,0,.787.016" transform="translate(-4.708 -1.236)" fill="#fff"/>
        <path id="Path_892690" data-name="Path 892690" d="M56.214,32.7c0,.264,0,.526-.016.787H16.252c-.011-.261-.016-.523-.016-.787s0-.526.016-.787H56.2c.011.261.016.523.016.787" transform="translate(-2.004 -3.939)" fill="#fff"/>
        <path id="Path_892691" data-name="Path 892691" d="M33.869,49.748a19.844,19.844,0,0,1-2.435-.575,38.716,38.716,0,0,1-3.957-6.566q-.339-.719-.637-1.442A30.229,30.229,0,0,1,25,34.943a28.183,28.183,0,0,1-.433-4.111q-.025-.786-.006-1.575a29.555,29.555,0,0,1,1.367-8.13c.222-.709.464-1.395.719-2.054q.291-.749.6-1.455a35.673,35.673,0,0,1,3.8-6.58,19.835,19.835,0,0,1,2.506-.64,34.353,34.353,0,0,0-4.819,7.761q-.317.706-.611,1.457c-.256.656-.5,1.337-.714,2.042a27.969,27.969,0,0,0-1.275,7.6q-.02.788.006,1.575a26.738,26.738,0,0,0,.415,3.871,28.662,28.662,0,0,0,1.768,5.931q.3.726.644,1.446a38.751,38.751,0,0,0,4.9,7.668" transform="translate(-3.03 -1.284)" fill="#fff"/>
        <path id="Path_892692" data-name="Path 892692" d="M52.527,30.841a28.279,28.279,0,0,1-.432,4.11,30.2,30.2,0,0,1-1.831,6.2c-.2.484-.411.964-.636,1.445a38.669,38.669,0,0,1-3.885,6.475,19.822,19.822,0,0,1-2.472.631,38.591,38.591,0,0,0,4.859-7.624q.344-.722.645-1.448a28.657,28.657,0,0,0,1.77-5.955,26.779,26.779,0,0,0,.407-3.831q.026-.786.006-1.575a27.955,27.955,0,0,0-1.293-7.659q-.32-1.016-.69-1.966-.293-.752-.61-1.458a34.251,34.251,0,0,0-4.769-7.71,19.648,19.648,0,0,1,2.539.7,35.664,35.664,0,0,1,3.724,6.483q.31.7.6,1.457c.251.65.489,1.326.708,2.025a29.546,29.546,0,0,1,1.365,8.13q.02.788-.005,1.575" transform="translate(-5.341 -1.293)" fill="#fff"/>
        <path id="Path_892693" data-name="Path 892693" d="M52.136,17.838a34.576,34.576,0,0,1-4.322,2.016c-.482.185-.977.363-1.486.529-.158.053-.317.1-.478.155A29.554,29.554,0,0,1,37.7,21.9c-.222.006-.443.008-.665.008-.3,0-.607,0-.909-.015a28.188,28.188,0,0,1-4.094-.432,29.478,29.478,0,0,1-4.244-1.1q-.743-.25-1.481-.542a34.738,34.738,0,0,1-4.47-2.154q.533-.613,1.115-1.179a32.861,32.861,0,0,0,3.958,1.877q.742.293,1.488.542a28.029,28.029,0,0,0,3.913,1,26.56,26.56,0,0,0,3.816.406q.786.028,1.574.008a27.968,27.968,0,0,0,7.676-1.294l.338-.109q.767-.25,1.493-.529a32.794,32.794,0,0,0,3.817-1.757q.577.577,1.107,1.2" transform="translate(-2.696 -2.036)" fill="#fff"/>
        <path id="Path_892694" data-name="Path 892694" d="M52.023,47.205q-.539.619-1.126,1.192A32.539,32.539,0,0,0,47,46.632q-.728-.275-1.5-.517c-.053-.018-.109-.035-.163-.053a28.019,28.019,0,0,0-7.617-1.275q-.788-.02-1.575.007a26.731,26.731,0,0,0-3.853.414,27.657,27.657,0,0,0-3.641.92q-.748.241-1.492.529a32.621,32.621,0,0,0-4.038,1.885q-.589-.563-1.131-1.172a34.5,34.5,0,0,1,4.532-2.155q.74-.285,1.484-.531a29.489,29.489,0,0,1,4.046-1.032,28.176,28.176,0,0,1,4.094-.432q.788-.026,1.575-.008a29.523,29.523,0,0,1,8.146,1.367c.094.029.187.06.279.089.509.163,1.005.338,1.489.52a34.707,34.707,0,0,1,4.386,2.019" transform="translate(-2.714 -5.333)" fill="#fff"/>
        <path id="Path_892695" data-name="Path 892695" d="M7.392,39.143c-.305,0-.583-.009-.832-.029-.419-.032-1.532-.12-1.539-.846-.016-1.607,1.553-3.233,4.662-4.831a33.5,33.5,0,0,1,4.566-1.9l.189.6A32.813,32.813,0,0,0,9.964,34c-2.828,1.455-4.319,2.926-4.313,4.252.059.079.612.535,5.258.015,3.05-.341,7.316-1.043,12.338-2.03,9.355-1.838,20.548-4.509,29.21-6.971,14.5-4.12,15.467-5.743,15.515-6.026a.973.973,0,0,0-.284-.9c-.65-.664-2.632-1.405-8.387-1.154-3.5.153-6.744.614-6.777.619l-.089-.623c.032-.005,3.306-.471,6.835-.625,4.81-.209,7.794.242,8.869,1.343a1.593,1.593,0,0,1,.454,1.444c-.127.757-1.483,1.48-2.652,2.024a59.7,59.7,0,0,1-6.234,2.354c-4.868,1.6-11.666,3.491-19.141,5.321-7.24,1.772-14.579,3.36-20.664,4.472a88.18,88.18,0,0,1-12.51,1.628" transform="translate(-0.62 -2.532)" fill="#ffce73"/>
        <path id="Path_892696" data-name="Path 892696" d="M33.265,1.6H49L44.886,5.895H33.265Z" transform="translate(-4.106 -0.198)" fill="#ffca00"/>
        <path id="Path_892697" data-name="Path 892697" d="M33.265,10.789H49L44.886,6.5H33.265Z" transform="translate(-4.106 -0.803)" fill="#ffac12"/>
        <path id="Path_892698" data-name="Path 892698" d="M33.461,19.007a.513.513,0,0,1-.512-.5L32.681.52A.512.512,0,1,1,33.7.5l.268,17.983a.512.512,0,0,1-.5.52h-.008" transform="translate(-4.034 0)" fill="#231f20"/>
        <path id="Path_892699" data-name="Path 892699" d="M49.864,31.3l-.523-2.528a.807.807,0,0,1,1.5-.556l.586,1.241a.758.758,0,0,0,.97.379l13.8-5.614a5.339,5.339,0,0,1,4.377.415l.06.034a1.977,1.977,0,0,1,.592,2.915,5.859,5.859,0,0,1-4.156,2.284l-15,2.893A1.878,1.878,0,0,1,49.864,31.3" transform="translate(-6.088 -2.955)" fill="#efb499"/>
        <path id="Path_892700" data-name="Path 892700" d="M50.3,32.237a1.88,1.88,0,0,0,1.883.751l15-2.893a5.859,5.859,0,0,0,4.156-2.284,1.978,1.978,0,0,0,.2-2.069l-12.9,3.939Z" transform="translate(-6.208 -3.178)" fill="#7d3a1b"/>
        <path id="Path_892701" data-name="Path 892701" d="M65.034,27.64,52.81,23.758a1.319,1.319,0,0,0-1.691.987l7.626,4.684Z" transform="translate(-6.31 -2.925)" fill="#ffca00"/>
        <path id="Path_892702" data-name="Path 892702" d="M73.175,24.672l-.06-.034a5.333,5.333,0,0,0-3.131-.681l.006.016.972,2.342,3-.818a1.962,1.962,0,0,0-.784-.825" transform="translate(-8.638 -2.955)" fill="#ffca00"/>
        <path id="Path_892703" data-name="Path 892703" d="M53.667,53.472c-.573,0-1.676-.5-4.253-2.757-2.086-1.826-4.781-4.483-8.009-7.9C34.9,35.945,27.141,26.935,21.142,19.3c-3.128-3.981-5.652-7.432-7.3-9.985-1.331-2.063-2.8-4.553-2.318-5.51a1.593,1.593,0,0,1,1.218-.9c1.518-.257,4.2,1.136,7.959,4.137,2.761,2.2,5.131,4.506,5.155,4.53l-.439.451c-.024-.023-2.376-2.308-5.112-4.491-4.5-3.592-6.542-4.161-7.458-4.006a.965.965,0,0,0-.759.559c-.137.273-.318,2.272,9.548,14.823,5.988,7.618,13.738,16.612,20.225,23.472C52.025,53.133,53.593,52.893,53.738,52.83a1.071,1.071,0,0,0,.641-.752c.572-2.139-2.885-7.414-4.265-9.266l.5-.377A42.9,42.9,0,0,1,53.074,46.2c1.6,2.781,2.241,4.813,1.913,6.04a1.685,1.685,0,0,1-1,1.167.784.784,0,0,1-.321.064" transform="translate(-1.411 -0.356)" fill="#ffce73"/>
        <path id="Path_892704" data-name="Path 892704" d="M44.875,60.489a2.284,2.284,0,1,1-2.284-2.284,2.285,2.285,0,0,1,2.284,2.284" transform="translate(-4.975 -7.185)" fill="#231f20"/>
        <path id="Path_892705" data-name="Path 892705" d="M43.712,60.68a.931.931,0,1,1-.931-.931.93.93,0,0,1,.931.931" transform="translate(-5.165 -7.375)" fill="#6d6e71"/>
        <path id="Path_892706" data-name="Path 892706" d="M45.527,56.635V58.04a1.08,1.08,0,0,1-1.08,1.08H36.664V51.47H41.4l2.27,3.665.233.1.961.408a1.081,1.081,0,0,1,.658.994" transform="translate(-4.525 -6.353)" fill="#7d3a1b"/>
        <path id="Path_892707" data-name="Path 892707" d="M30.237,60.489a2.284,2.284,0,1,1-2.284-2.284,2.285,2.285,0,0,1,2.284,2.284" transform="translate(-3.168 -7.185)" fill="#231f20"/>
        <path id="Path_892708" data-name="Path 892708" d="M29.074,60.68a.931.931,0,1,1-.931-.931.93.93,0,0,1,.931.931" transform="translate(-3.359 -7.375)" fill="#6d6e71"/>
        <path id="Path_892709" data-name="Path 892709" d="M42.62,48.911v1.007a1.1,1.1,0,0,1-1.1,1.1H36.337a.6.6,0,0,0-.6.6v6.458a.6.6,0,0,1-.6.6H25.465a1.1,1.1,0,0,1-1.1-1.1V48.911c0-.013,0-.026,0-.039a1.1,1.1,0,0,1,1.1-1.06H41.521a1.1,1.1,0,0,1,1.1,1.06c0,.013,0,.026,0,.039" transform="translate(-3.007 -5.902)" fill="#ffca00"/>
        <path id="Path_892710" data-name="Path 892710" d="M44.268,55.233H40.4a.818.818,0,0,1-.818-.818V51.47h2.179l.037.059,1.14,1.84,1.095,1.766Z" transform="translate(-4.886 -6.353)" fill="#63c4ee"/>
        <path id="Path_892711" data-name="Path 892711" d="M43.5,59.62H24.872a.505.505,0,1,0,0,1.011H43.5a.505.505,0,0,0,0-1.011" transform="translate(-3.007 -7.359)" fill="#414042"/>
        <path id="Path_892712" data-name="Path 892712" d="M34.349,52.407v1.949a.938.938,0,0,1-.938.938h-6.8a.938.938,0,0,1-.937-.938V52.407a.938.938,0,0,1,.937-.938h6.8a.938.938,0,0,1,.938.938" transform="translate(-3.168 -6.353)" fill="#63c4ee"/>
        <path id="Path_892713" data-name="Path 892713" d="M46.648,57.281v.2h-.516a.387.387,0,0,1,0-.774h.348a1.076,1.076,0,0,1,.168.579" transform="translate(-5.646 -6.999)" fill="#fcc851"/>
        <path id="Path_892714" data-name="Path 892714" d="M42.619,48.872H24.367a1.1,1.1,0,0,1,1.1-1.06H41.521a1.1,1.1,0,0,1,1.1,1.06" transform="translate(-3.008 -5.902)" fill="#ffac12"/>
        <path id="Path_892715" data-name="Path 892715" d="M22.1,23.219h4.358V21.855a2.179,2.179,0,0,0-4.358,0Z" transform="translate(-2.728 -2.429)" fill="#4d4f4e"/>
        <path id="Path_892716" data-name="Path 892716" d="M26.462,22.037V23.4H22.1V22.037a2.169,2.169,0,0,1,.188-.887h3.981a2.169,2.169,0,0,1,.188.887" transform="translate(-2.728 -2.611)" fill="#383838"/>
        <path id="Path_892717" data-name="Path 892717" d="M7.089,26.823H25.9v-3.1H10.981Z" transform="translate(-0.875 -2.928)" fill="#efb499"/>
        <path id="Path_892718" data-name="Path 892718" d="M6.537,31.519,0,27.26H26.607l-2.179,4.259Z" transform="translate(0 -3.365)" fill="#ffca00"/>
        <path id="Path_892719" data-name="Path 892719" d="M26.082,29.285l-1.271,2.483H6.921L3.109,29.285Z" transform="translate(-0.384 -3.615)" fill="#7d3a1b"/>
        <path id="Path_892720" data-name="Path 892720" d="M13.773,25.416a.533.533,0,1,1-.533-.532.533.533,0,0,1,.533.532" transform="translate(-1.569 -3.072)" fill="#fff"/>
        <path id="Path_892721" data-name="Path 892721" d="M16.67,25.416a.533.533,0,1,1-.533-.532.533.533,0,0,1,.533.532" transform="translate(-1.926 -3.072)" fill="#fff"/>
        <path id="Path_892722" data-name="Path 892722" d="M19.568,25.416a.533.533,0,1,1-.532-.532.533.533,0,0,1,.532.532" transform="translate(-2.284 -3.072)" fill="#fff"/>
        <path id="Path_892723" data-name="Path 892723" d="M22.465,25.416a.533.533,0,1,1-.533-.532.533.533,0,0,1,.533.532" transform="translate(-2.641 -3.072)" fill="#fff"/>
        <path id="Path_892724" data-name="Path 892724" d="M25.362,25.416a.533.533,0,1,1-.532-.532.533.533,0,0,1,.532.532" transform="translate(-2.999 -3.072)" fill="#fff"/>
      </g>
    </g>
  </g>
</svg>
