<svg xmlns="http://www.w3.org/2000/svg" xmlns:xlink="http://www.w3.org/1999/xlink" width="70" height="70" viewBox="0 0 70 70">
  <defs>
    <clipPath id="clip-path">
      <rect id="Rectangle_404831" data-name="Rectangle 404831" width="39.371" height="39.316" fill="#6a4d23"/>
    </clipPath>
  </defs>
  <g id="Group_1103516" data-name="Group 1103516" transform="translate(-300 -1206)">
    <g id="Group_1071455" data-name="Group 1071455" transform="translate(31 248)">
      <circle id="Ellipse_5614" data-name="Ellipse 5614" cx="35" cy="35" r="35" transform="translate(269 958)" fill="#fff"/>
      <g id="Group_1102244" data-name="Group 1102244" transform="translate(284.314 973.342)">
        <path id="Path_891299" data-name="Path 891299" d="M87.571,149.254h19.682l-3.952-25.29-11.629-.023Z" transform="translate(-77.722 -110)" fill="#6a4d23"/>
        <g id="Group_1102243" data-name="Group 1102243">
          <g id="Group_1102242" data-name="Group 1102242" clip-path="url(#clip-path)">
            <path id="Path_891300" data-name="Path 891300" d="M254.312,68.478c-.03.185.151.1.278.111,1.514.078,2.557.211,3.455,1.608.695,1.081.668,3.891.545,5.2a1.271,1.271,0,0,1-.967,1.283l-6.805-.042-1.1-7.068c.752-.934,2.033-.991,3.134-1.038a3.462,3.462,0,1,1,1.747-6.7c3.351.861,3.158,6.079-.285,6.642" transform="translate(-221.63 -54.755)" fill="#6a4d23"/>
            <path id="Path_891301" data-name="Path 891301" d="M26.821,68.385c-.03.185.151.1.278.111,1.054.054,2.128.066,2.854.981l-1.045,7.011c-.078.114-.22.1-.34.11a44.355,44.355,0,0,1-6.309,0,1.2,1.2,0,0,1-1.176-1.186,17.715,17.715,0,0,1,.2-4.635,3.74,3.74,0,0,1,4.072-2.283l-.978-.426a3.454,3.454,0,1,1,2.442.316" transform="translate(-18.658 -54.661)" fill="#6a4d23"/>
            <path id="Path_891302" data-name="Path 891302" d="M5.8,222.566l1.889.3.9.561-.99,7.346c-2.047-.145-4.344.19-6.36,0a1.224,1.224,0,0,1-1.178-1.071,18.607,18.607,0,0,1,.2-4.75,3.722,3.722,0,0,1,3.96-2.283l-1.463-.841a3.457,3.457,0,0,1,3.631-5.768c3.043,1.2,2.682,5.932-.592,6.5" transform="translate(0 -191.522)" fill="#6a4d23"/>
            <path id="Path_891303" data-name="Path 891303" d="M278.131,222.644c-.03.185.151.1.278.112,2.03.108,3.679.979,3.881,3.207a25.975,25.975,0,0,1-.048,4.109,1.425,1.425,0,0,1-.912.775l-6.574.007-.99-7.346.9-.561,1.889-.3c-3.762-.688-3.443-6.322.294-6.737,4.32-.48,5.447,5.683,1.282,6.737" transform="translate(-242.975 -191.6)" fill="#6a4d23"/>
            <path id="Path_891304" data-name="Path 891304" d="M130.575,11.7c-.263-.081-.186-1.328-.155-1.617a3.629,3.629,0,0,1,4.147-3.22L133.1,6.019a3.459,3.459,0,1,1,3.814.55c-.22.116-.581.1-.663.291a3.629,3.629,0,0,1,4.147,3.22,2.733,2.733,0,0,1-.155,1.617Z" transform="translate(-115.721 0)" fill="#6a4d23"/>
          </g>
        </g>
      </g>
    </g>
  </g>
</svg>
