<svg xmlns="http://www.w3.org/2000/svg" xmlns:xlink="http://www.w3.org/1999/xlink" width="70" height="70" viewBox="0 0 70 70">
  <defs>
    <clipPath id="clip-path">
      <rect id="Rectangle_404828" data-name="Rectangle 404828" width="34.525" height="41.5" fill="#6a4d23"/>
    </clipPath>
  </defs>
  <g id="Group_1103519" data-name="Group 1103519" transform="translate(-1230 -1206)">
    <g id="Group_1072267" data-name="Group 1072267" transform="translate(961 248)">
      <circle id="Ellipse_5614" data-name="Ellipse 5614" cx="35" cy="35" r="35" transform="translate(269 958)" fill="#fff"/>
      <g id="Group_1102237" data-name="Group 1102237" transform="translate(286.737 972.25)">
        <g id="Group_1102236" data-name="Group 1102236" clip-path="url(#clip-path)">
          <path id="Path_891290" data-name="Path 891290" d="M2.292,44.663v2.185c0,1.814,2.979,4.515,4.94,4.75,6.091-.046,12.9.576,18.95.155a6.8,6.8,0,0,0,5.35-3.188,14.764,14.764,0,0,0,.7-1.717V44.663c.317.023.635.38.83.589a5.811,5.811,0,0,1,1.468,3.363V74.842a6.387,6.387,0,0,1-5.93,5.486c-7.339-.332-15.139.448-22.424.008A6.4,6.4,0,0,1,0,74.954V48.384a6.03,6.03,0,0,1,1.462-3.132c.194-.209.513-.566.83-.589M8.408,58.717c-.263-1.9-3.159-2.057-2.8.053a26.283,26.283,0,0,0,1.593,3.01,1.4,1.4,0,0,0,1.755.227l3.883-4.311c.6-1.056-.628-2.109-1.76-1.633-.6.252-1.789,2.048-2.355,2.54Zm10.743,1.259a1.186,1.186,0,0,0,.651.282c2.487.282,5.595-.215,8.15-.012a1.193,1.193,0,0,0,0-2.349c-2.487.233-5.744-.338-8.137,0a1.176,1.176,0,0,0-.665,2.077M6.459,65a1.2,1.2,0,0,0-.849,1.445c.108.625,1.312,1.556,1.271,2.006-.07.781-1.874,1.5-1.134,2.828.731,1.312,2.372.17,2.85-.75.6.779,1.187,1.747,2.4,1.164,1.59-.762-.338-2.493-.791-3.329.652-.7,2.389-2.825.624-3.334-1.247-.359-1.607.489-2.236,1.244-.242.008-.7-1.572-2.138-1.272m13.125,2.367a1.192,1.192,0,0,0,.23,2.326c2.485-.21,5.6.309,8.006,0a1.181,1.181,0,0,0,.132-2.345Z" transform="translate(0 -38.974)" fill="#6a4d23"/>
          <path id="Path_891291" data-name="Path 891291" d="M40.535.169C46.306.43,52.631-.283,58.34.134A3.836,3.836,0,0,1,62.1,3.618c.26,3.051.2,6.444-3.892,6.793-5.5-.3-11.5.406-16.945.006-4.211-.309-4.325-3.757-4.006-6.911A3.862,3.862,0,0,1,40.535.169" transform="translate(-32.414 0)" fill="#6a4d23"/>
        </g>
      </g>
    </g>
  </g>
</svg>
