<svg xmlns="http://www.w3.org/2000/svg" xmlns:xlink="http://www.w3.org/1999/xlink" width="70" height="70" viewBox="0 0 70 70">
  <defs>
    <clipPath id="clip-path">
      <rect id="Rectangle_404830" data-name="Rectangle 404830" width="40.501" height="33.497" fill="#6a4d23"/>
    </clipPath>
  </defs>
  <g id="Group_1103517" data-name="Group 1103517" transform="translate(-610 -1206)">
    <g id="Group_1072265" data-name="Group 1072265" transform="translate(341 248)">
      <circle id="Ellipse_5614" data-name="Ellipse 5614" cx="35" cy="35" r="35" transform="translate(269 958)" fill="#fff"/>
      <g id="Group_1102241" data-name="Group 1102241" transform="translate(283.749 976.251)">
        <g id="Group_1102240" data-name="Group 1102240" clip-path="url(#clip-path)">
          <path id="Path_891296" data-name="Path 891296" d="M63.979,27.593H30.553V.933c0-.274.633-.86.945-.905L62.946,0c.34.033,1.033.627,1.033.933ZM37.84,5.733c.478-.756,1.544-1.14,1.514-2.141a1.168,1.168,0,0,0-1.978-.811,34.239,34.239,0,0,0-3.3,3.3,1.207,1.207,0,0,0,0,1.741,36.5,36.5,0,0,0,3.356,3.352,1.186,1.186,0,0,0,1.731-1.615c-.305-.471-1.025-.879-1.325-1.393h5.725a3.484,3.484,0,0,1,2.119,1.582c1.117,2.056-.375,6.115,1,8.832.616,1.219,2.647,3,4.053,3h6.188c-.389.651-1.558,1.254-1.614,2.038a1.212,1.212,0,0,0,2.02.97,33.864,33.864,0,0,0,3.24-3.237,1.273,1.273,0,0,0,.118-1.742,38.064,38.064,0,0,0-3.414-3.41,1.2,1.2,0,0,0-1.838,1.491c.265.513,1.219.961,1.373,1.576H51.314a3.372,3.372,0,0,1-2.838-2.829c-.274-3.05.821-6.39-1.5-8.913a6.522,6.522,0,0,0-3.53-1.79ZM55.971,2.525c-5.124.744-4.335,9.065,1.345,8.4,5.375-.629,4.573-9.26-1.345-8.4m-21.4,15.724a1.287,1.287,0,0,0-.843,1.253c.094.727,1.243,1.45,1.684,2.019-.662.757-2.432,1.868-1.39,3.011,1.259,1.381,2.543-1.223,3.069-1.223.89.465,1.553,2.166,2.78,1.395,1.465-.922-.354-2.5-1.1-3.183.663-.779,2.3-1.712,1.388-2.893-1-1.291-2.361.525-3.067,1.214-.741-.622-1.394-1.847-2.52-1.593" transform="translate(-27.019)" fill="#6a4d23"/>
          <path id="Path_891297" data-name="Path 891297" d="M.609,258.568l39.07-.027c1.025-.061.834,2.129.752,2.838a.738.738,0,0,1-.864.755l-38.754,0c-.508-.059-.692-.24-.752-.752-.077-.666-.213-2.635.547-2.811" transform="translate(0 -228.637)" fill="#6a4d23"/>
          <path id="Path_891298" data-name="Path 891298" d="M242.4,41.607a1.9,1.9,0,0,1,1.133,3.564c-2.588,1.283-3.933-3.116-1.133-3.564" transform="translate(-212.983 -36.772)" fill="#6a4d23"/>
        </g>
      </g>
    </g>
  </g>
</svg>
