<svg xmlns="http://www.w3.org/2000/svg" width="68" height="69" viewBox="0 0 68 69">
  <g id="Group_1099380" data-name="Group 1099380" transform="translate(-0.059 0.804)">
    <rect id="Rectangle_401104" data-name="Rectangle 401104" width="68" height="69" transform="translate(0.059 -0.804)" fill="none"/>
    <g id="Group_1099356" data-name="Group 1099356" transform="translate(2.448 2.383)">
      <path id="Path_608993" data-name="Path 608993" d="M31.71,0,0,21.366v.021L31.628,42.755,63.316,21.179Z" transform="translate(0 0)" fill="#b47b61"/>
      <path id="Path_608994" data-name="Path 608994" d="M8.758,5.2V52.048l2.234,2.365,2.685-2.844,2.685,2.844,2.686-2.844,2.685,2.844,2.685-2.844L27.1,54.414l2.685-2.844,1.135,1.2V5.2Z" transform="translate(0.762 0.452)" fill="#f3ddb5"/>
      <path id="Path_608995" data-name="Path 608995" d="M29.149,5.2V52.772l1.55,1.641,2.685-2.844,2.686,2.844,2.685-2.844,2.685,2.844,2.686-2.844,2.686,2.844L49.5,51.57l1.972,2.089V5.2Z" transform="translate(2.536 0.452)" fill="#fef7eb"/>
      <path id="Path_608996" data-name="Path 608996" d="M36.586,13.175H39.03V8.9H29.1v4.27h7.488Z" transform="translate(2.531 0.774)" fill="#1e2d4f"/>
      <rect id="Rectangle_377588" data-name="Rectangle 377588" width="10.689" height="4.27" transform="translate(20.94 9.679)" fill="#2d4375"/>
      <rect id="Rectangle_377589" data-name="Rectangle 377589" width="19.991" height="4.27" transform="translate(11.639 16.897)" fill="#2d4375"/>
      <path id="Path_608997" data-name="Path 608997" d="M43.681,19.814h4.65v-4.27H29.1v4.27H43.681Z" transform="translate(2.531 1.352)" fill="#1e2d4f"/>
      <path id="Path_608998" data-name="Path 608998" d="M39.031,26.788h9.3v-4.27H29.1v4.27Z" transform="translate(2.531 1.958)" fill="#1e2d4f"/>
      <rect id="Rectangle_377590" data-name="Rectangle 377590" width="19.991" height="4.27" transform="translate(11.639 24.477)" fill="#2d4375"/>
      <rect id="Rectangle_377591" data-name="Rectangle 377591" width="19.991" height="4.27" transform="translate(11.639 31.986)" fill="#2d4375"/>
      <path id="Path_608999" data-name="Path 608999" d="M39.031,33.7h9.3v-4.27H29.1V33.7Z" transform="translate(2.531 2.559)" fill="#1e2d4f"/>
      <path id="Path_609000" data-name="Path 609000" d="M29.1,41.061l31.7,21.42V19.493l-.014-.009Z" transform="translate(2.531 1.695)" fill="#efb499"/>
      <path id="Path_609001" data-name="Path 609001" d="M0,19.767V62.582L31.629,41.045,0,19.675Z" transform="translate(0 1.711)" fill="#ffe9df"/>
      <path id="Path_609002" data-name="Path 609002" d="M0,60.782v.1H31.629V39.245Z" transform="translate(0 3.413)" fill="#efb499"/>
      <path id="Path_609003" data-name="Path 609003" d="M29.1,60.88H60.8v-.216L29.1,39.245Z" transform="translate(2.531 3.413)" fill="#ffe9df"/>
    </g>
  </g>
</svg>
