<svg xmlns="http://www.w3.org/2000/svg" xmlns:xlink="http://www.w3.org/1999/xlink" width="70" height="70" viewBox="0 0 70 70">
  <defs>
    <clipPath id="clip-path">
      <rect id="Rectangle_404947" data-name="Rectangle 404947" width="36.98" height="38.197" fill="#6a4d23"/>
    </clipPath>
  </defs>
  <g id="Group_1102019" data-name="Group 1102019" transform="translate(-300 -6501)">
    <g id="Group_1099486" data-name="Group 1099486" transform="translate(31 5543)">
      <circle id="Ellipse_5614" data-name="Ellipse 5614" cx="35" cy="35" r="35" transform="translate(269 958)" fill="#fff"/>
    </g>
    <g id="Group_1102550" data-name="Group 1102550" transform="translate(316.51 6516.901)">
      <g id="Group_1102549" data-name="Group 1102549" clip-path="url(#clip-path)">
        <path id="Path_892250" data-name="Path 892250" d="M179.716,77.57l-.223,1.3a126.193,126.193,0,0,0-.569,14.657c.015,1.327.241,2.713.122,4.058a1.74,1.74,0,0,1-3.449.284c-.346-1.683-.018-5.15-.045-7.056,0-.266-.118-.513-.122-.78-.026-1.576.069-3.166,0-4.74-.006-.137.085-.419-.111-.393L174.28,97.776a1.749,1.749,0,0,1-3.473-.308l1.08-12.745a2.337,2.337,0,0,1-.177-.556c-.1-1.75-.262-3.494-.335-5.245-.215.039-.187.235-.23.389-.291,1.043-.59,4.362-1.067,5.02a1.18,1.18,0,0,1-2.088-.735l2.477-12.515c2.157-2.356,5.332-2.6,8.166-1.276.494.231,1.8.942,1.983,1.4l2.474,10.472c-.369,1.4-1.811,1.546-2.3.065-.437-1.317-.58-2.849-1.072-4.17" transform="translate(-149.054 -61.225)" fill="#6a4d23"/>
        <path id="Path_892251" data-name="Path 892251" d="M29.694,74.287c1.145-1.146,2.959.213,1.967,1.461-.267.335-.861.438-.846.839a3.783,3.783,0,0,1,.117,1.082l.465.066c.054.666,1.085,2.64,1.007,3.143-.039.255-1.084.8-1.359.9-3.175,1.251-1.484-2.871-1.8-4.452-1.625.4-1.628-1.737-1.917-2.818l-.226.959,2.814,9.742c-4.087,1.582-8.488,1.19-12.619.006l2.789-9.441a14.162,14.162,0,0,0-.138-2.509c-.024-.049-.14-.141-.17-.111-.411,1.307-.869,2.608-1.352,3.891a21.964,21.964,0,0,1-1.3,3.318,1.222,1.222,0,0,1-2.077-.827c1.325-3.2,2.223-6.885,3.631-10.019.442-.983.876-.939,1.865-1.178A12.836,12.836,0,0,1,25.45,68.1c.6.081,2.554.43,2.875.845a2.516,2.516,0,0,1,.272.63c.218.648.906,4.561,1.1,4.709m0,3.833.845-.449a1.533,1.533,0,0,0-.059-1.016c-.7.447-1.121.52-.786,1.465" transform="translate(-13.344 -60.31)" fill="#6a4d23"/>
        <path id="Path_892252" data-name="Path 892252" d="M271.073,199.255l-.122-9.307c0-.205.216-.106.243-.323.074-.583-.277-2.531.036-2.78.443-.352.741.058.969.405l-.45.056v2.48H274.4l.169-.169V187.7c0-.035.154-.16.114-.281l-.339-.056c.173-.167.6-.764.848-.4l-.06,2.821c1.349-.2,2.1.268,2.259,1.64l-1.319,7.694c-.438.174-.357.387-.658.7-.268-.07-.249-.561-.282-.561Z" transform="translate(-240.409 -165.664)" fill="#6a4d23"/>
        <path id="Path_892253" data-name="Path 892253" d="M2.371,183.334l.118,2.474,1.347.12-.4,1.583,2.668.859a8.513,8.513,0,0,1,.668,4.49,19.847,19.847,0,0,1-.921,2.4l-3.857.012-.24.571c-.465-.118-.05-.591-.623-.637L0,187.668c.039-1.207.584-2.1,1.92-1.854l-.069-2.587.127-.232c1.016.654,1.738-.255,2.759-.111l-.113.45Z" transform="translate(0 -162.255)" fill="#6a4d23"/>
        <path id="Path_892254" data-name="Path 892254" d="M54.18,235,49.92,245.792a1.748,1.748,0,0,1-3.153-1.462l3.708-9.311Z" transform="translate(-41.439 -208.514)" fill="#6a4d23"/>
        <path id="Path_892255" data-name="Path 892255" d="M208.592.029c4.221-.509,5.252,5.826,1.182,6.7-4.731,1.022-5.756-6.153-1.182-6.7" transform="translate(-182.465 0)" fill="#6a4d23"/>
        <path id="Path_892256" data-name="Path 892256" d="M67.368,2.155c4.3-.282,4.908,6.173.744,6.728-4.721.629-5.262-6.431-.744-6.728" transform="translate(-57.016 -1.904)" fill="#6a4d23"/>
        <path id="Path_892257" data-name="Path 892257" d="M90.923,270c.243.129.324.515.421.761.666,1.7,1.251,3.44,1.825,5.172a1.737,1.737,0,0,1-3.086,1.162,10.664,10.664,0,0,1-.953-2.419Z" transform="translate(-79.083 -239.566)" fill="#6a4d23"/>
        <path id="Path_892258" data-name="Path 892258" d="M61.665,232.229l-.844,2.14A8.764,8.764,0,0,1,59.976,232Z" transform="translate(-53.208 -205.851)" fill="#6a4d23"/>
      </g>
    </g>
  </g>
</svg>
