<svg xmlns="http://www.w3.org/2000/svg" xmlns:xlink="http://www.w3.org/1999/xlink" width="70" height="70" viewBox="0 0 70 70">
  <defs>
    <clipPath id="clip-path">
      <rect id="Rectangle_404829" data-name="Rectangle 404829" width="42.501" height="42.487" transform="translate(0 0)" fill="#6a4d23"/>
    </clipPath>
  </defs>
  <g id="Group_1103518" data-name="Group 1103518" transform="translate(-920 -1206)">
    <g id="Group_1072266" data-name="Group 1072266" transform="translate(651 248)">
      <circle id="Ellipse_5614" data-name="Ellipse 5614" cx="35" cy="35" r="35" transform="translate(269 958)" fill="#fff"/>
      <g id="Group_1102239" data-name="Group 1102239" transform="translate(282.75 971.758)">
        <g id="Group_1102238" data-name="Group 1102238" transform="translate(0 -0.001)" clip-path="url(#clip-path)">
          <path id="Path_891292" data-name="Path 891292" d="M79.625,61.985V65.09a20.625,20.625,0,0,1,3.591,2c.5-.062,2.469-1.584,2.744-1.4l3.621,6.344-2.658,1.6a14.065,14.065,0,0,1,.026,4.165l2.632,1.537-3.7,6.388-2.669-1.448a20.608,20.608,0,0,1-3.591,2v3.105H72.2V86.28a20.608,20.608,0,0,1-3.591-2c-.5.062-2.469,1.584-2.744,1.4L62.24,79.337l2.658-1.6a13.093,13.093,0,0,1-.026-4.165L62.24,72.034l3.7-6.388,2.669,1.448a20.625,20.625,0,0,1,3.591-2V61.985Zm-4.042,7.464c-8.752.469-7.11,14.116,1.613,12.332,7.428-1.52,5.98-12.739-1.613-12.332" transform="translate(-54.66 -54.436)" fill="#6a4d23"/>
          <path id="Path_891293" data-name="Path 891293" d="M36.29,9.984a19.706,19.706,0,0,0-4.76-4.435A18.718,18.718,0,0,0,3.167,25.936l-2.435.611A21.2,21.2,0,0,1,14.185,1.214a21.528,21.528,0,0,1,22.474,5.3c.248.252,1.246,1.581,1.4,1.646.247.105.164-.17.2-.286a14.783,14.783,0,0,1,.465-1.73,7.024,7.024,0,0,1,2.25.421c.153.106.073.486.042.654C40.679,9,39.958,10.735,39.7,12.541H33.733V9.984Z" transform="translate(0 0)" fill="#6a4d23"/>
          <path id="Path_891294" data-name="Path 891294" d="M16.6,147.542a19.774,19.774,0,0,0,4.76,4.435A18.718,18.718,0,0,0,49.727,131.59l2.435-.611c2.935,10.572-3.235,21.731-13.453,25.333a21.551,21.551,0,0,1-22.474-5.3c-.248-.252-1.246-1.581-1.4-1.646-.247-.105-.164.17-.2.286a14.785,14.785,0,0,1-.465,1.73,7.024,7.024,0,0,1-2.25-.421c-.153-.106-.073-.486-.042-.654.331-1.783,1.052-3.521,1.31-5.327h5.967v2.557Z" transform="translate(-10.393 -115.028)" fill="#6a4d23"/>
          <path id="Path_891295" data-name="Path 891295" d="M147.132,143.777c5.18-.817,5.932,6.7,1.4,7.368-5.2.763-5.937-6.652-1.4-7.368" transform="translate(-126.584 -126.213)" fill="#6a4d23"/>
        </g>
      </g>
    </g>
  </g>
</svg>
