<svg xmlns="http://www.w3.org/2000/svg" xmlns:xlink="http://www.w3.org/1999/xlink" width="68" height="69" viewBox="0 0 68 69">
  <defs>
    <clipPath id="clip-path">
      <rect id="Rectangle_405108" data-name="Rectangle 405108" width="64.666" height="69" fill="none"/>
    </clipPath>
  </defs>
  <g id="Group_1099380" data-name="Group 1099380" transform="translate(-0.059 0.804)">
    <rect id="Rectangle_401104" data-name="Rectangle 401104" width="68" height="69" transform="translate(0.059 -0.804)" fill="none"/>
    <g id="Group_1102730" data-name="Group 1102730" transform="translate(2.059 -0.805)">
      <g id="Group_1102729" data-name="Group 1102729" transform="translate(0 0.001)" clip-path="url(#clip-path)">
        <path id="Path_892750" data-name="Path 892750" d="M51.273,5.988H.893A.893.893,0,0,0,0,6.881V65.805a.893.893,0,0,0,.893.893h50.38a.893.893,0,0,0,.893-.893V6.881a.893.893,0,0,0-.893-.893" transform="translate(0 2.302)" fill="#7d3a1b"/>
        <path id="Path_892751" data-name="Path 892751" d="M43.923,9.326H5.437a.893.893,0,0,0-.893.893V57.187a.893.893,0,0,0,.893.893H43.923a.9.9,0,0,0,.894-.893V10.219a.9.9,0,0,0-.894-.893" transform="translate(1.748 3.586)" fill="#fff"/>
        <path id="Path_892752" data-name="Path 892752" d="M38.268,5.549H29.639a6.445,6.445,0,0,0-12.765,0H8.243a.894.894,0,0,0-.893.894v9.532a.893.893,0,0,0,.893.893H38.268a.893.893,0,0,0,.893-.893V6.444a.894.894,0,0,0-.893-.894" transform="translate(2.827 -0.001)" fill="#636363"/>
        <path id="Path_892753" data-name="Path 892753" d="M13,16.994a2.4,2.4,0,1,1-2.4-2.405A2.4,2.4,0,0,1,13,16.994" transform="translate(3.149 5.61)" fill="#fbb040"/>
        <path id="Path_892754" data-name="Path 892754" d="M14.656,16.326h0Z" transform="translate(5.637 6.278)" fill="#013177"/>
        <path id="Path_892755" data-name="Path 892755" d="M34.347,17.468H14.9a.894.894,0,0,1,0-1.788H34.347a.894.894,0,0,1,0,1.788" transform="translate(5.389 6.03)" fill="#7d3a1b"/>
        <path id="Path_892756" data-name="Path 892756" d="M13,22.618a2.4,2.4,0,1,1-2.4-2.4,2.4,2.4,0,0,1,2.4,2.4" transform="translate(3.149 7.774)" fill="#fbb040"/>
        <path id="Path_892757" data-name="Path 892757" d="M14.656,21.95h0Z" transform="translate(5.637 8.441)" fill="#013177"/>
        <path id="Path_892758" data-name="Path 892758" d="M34.347,23.093H14.9a.894.894,0,0,1,0-1.788H34.347a.894.894,0,0,1,0,1.788" transform="translate(5.389 8.193)" fill="#7d3a1b"/>
        <path id="Path_892759" data-name="Path 892759" d="M13,28.243a2.4,2.4,0,1,1-2.4-2.405A2.4,2.4,0,0,1,13,28.243" transform="translate(3.149 9.937)" fill="#fbb040"/>
        <path id="Path_892760" data-name="Path 892760" d="M14.656,27.575h0Z" transform="translate(5.637 10.605)" fill="#013177"/>
        <path id="Path_892761" data-name="Path 892761" d="M34.347,28.716H14.9a.893.893,0,1,1,0-1.786H34.347a.893.893,0,1,1,0,1.786" transform="translate(5.389 10.356)" fill="#7d3a1b"/>
        <path id="Path_892762" data-name="Path 892762" d="M13,33.867a2.4,2.4,0,1,1-2.4-2.4,2.4,2.4,0,0,1,2.4,2.4" transform="translate(3.149 12.1)" fill="#fbb040"/>
        <path id="Path_892763" data-name="Path 892763" d="M14.656,33.2h0Z" transform="translate(5.637 12.768)" fill="#013177"/>
        <path id="Path_892764" data-name="Path 892764" d="M34.347,34.342H14.9a.894.894,0,0,1,0-1.788H34.347a.894.894,0,0,1,0,1.788" transform="translate(5.389 12.519)" fill="#7d3a1b"/>
        <path id="Path_892765" data-name="Path 892765" d="M40.784,27.515a.9.9,0,0,0-.372-.575l-3.529-2.434a.9.9,0,0,0-1.245.227L25.462,39.486a.892.892,0,0,0,.228,1.243l3.529,2.436a.894.894,0,0,0,1.243-.228L40.64,28.184a.9.9,0,0,0,.144-.669" transform="translate(9.732 9.363)" fill="#ffce73"/>
        <path id="Path_892766" data-name="Path 892766" d="M50,10.889a3.874,3.874,0,0,0-5.389.989L32.315,29.7a.894.894,0,0,0,.23,1.243l4.9,3.383a.894.894,0,0,0,1.243-.228l12.3-17.823A3.876,3.876,0,0,0,50,10.889" transform="translate(12.368 3.923)" fill="#ffb937"/>
        <path id="Path_892767" data-name="Path 892767" d="M42.144,27.664a.894.894,0,0,1-.735-1.4l5.482-7.946-1.34-3.092a.894.894,0,0,1,1.641-.712l1.537,3.549a.894.894,0,0,1-.086.863l-5.763,8.353a.889.889,0,0,1-.735.386" transform="translate(15.865 5.374)" fill="#ffb937"/>
        <path id="Path_892768" data-name="Path 892768" d="M26.192,35.3l-2.809,9.426L31.2,38.753Z" transform="translate(8.993 13.576)" fill="#ffb937"/>
      </g>
    </g>
  </g>
</svg>
