<svg xmlns="http://www.w3.org/2000/svg" xmlns:xlink="http://www.w3.org/1999/xlink" width="121" height="121" viewBox="0 0 121 121">
  <defs>
    <clipPath id="clip-path">
      <rect id="Rectangle_400938" data-name="Rectangle 400938" width="121" height="121" transform="translate(0 0)" fill="none"/>
    </clipPath>
    <clipPath id="clip-path-2">
      <rect id="Rectangle_401073" data-name="Rectangle 401073" width="92.219" height="41.532" fill="#efb499"/>
    </clipPath>
    <clipPath id="clip-path-3">
      <rect id="Rectangle_404733" data-name="Rectangle 404733" width="60.526" height="66.223" fill="none"/>
    </clipPath>
  </defs>
  <g id="Group_1102166" data-name="Group 1102166" transform="translate(-739.996 -5846)">
    <g id="Group_1100441" data-name="Group 1100441" transform="translate(352.328 -167)">
      <rect id="Rectangle_401103" data-name="Rectangle 401103" width="121" height="121" transform="translate(387.668 6013)" fill="none"/>
      <g id="Group_1099348" data-name="Group 1099348" transform="translate(387.668 6013)">
        <g id="Group_1099282" data-name="Group 1099282">
          <g id="Group_1099281" data-name="Group 1099281" clip-path="url(#clip-path-2)">
            <path id="Path_873375" data-name="Path 873375" d="M74.8,9.1c-4.139,0-6.28-2.03-8.17-3.821-1.855-1.756-3.452-3.274-6.792-3.274s-4.937,1.517-6.792,3.274C51.161,7.072,49.023,9.1,44.881,9.1s-6.28-2.03-8.169-3.821C34.857,3.525,33.26,2.007,29.92,2.007s-4.937,1.517-6.789,3.274C21.241,7.072,19.1,9.1,14.962,9.1S8.679,7.072,6.789,5.281C4.937,3.525,3.34,2.007,0,2.007V0C4.139,0,6.28,2.033,8.17,3.821c1.855,1.759,3.452,3.274,6.792,3.274S19.9,5.58,21.75,3.824C23.637,2.033,25.781,0,29.92,0s6.283,2.033,8.17,3.821c1.855,1.759,3.452,3.274,6.792,3.274s4.937-1.514,6.792-3.274C53.56,2.033,55.7,0,59.843,0s6.283,2.033,8.17,3.821C69.867,5.58,71.464,7.094,74.8,7.094S79.742,5.58,81.6,3.821C83.483,2.033,85.624,0,89.766,0V2.007c-3.34,0-4.937,1.517-6.792,3.274C81.084,7.072,78.943,9.1,74.8,9.1" transform="translate(2.453 32.43)" fill="#efb499"/>
            <path id="Path_873376" data-name="Path 873376" d="M74.8,9.1c-4.139,0-6.283-2.03-8.17-3.824-1.855-1.756-3.452-3.27-6.792-3.27s-4.937,1.514-6.792,3.27C51.164,7.072,49.023,9.1,44.881,9.1s-6.283-2.03-8.17-3.824c-1.855-1.756-3.452-3.27-6.792-3.27s-4.937,1.517-6.789,3.27C21.241,7.072,19.1,9.1,14.962,9.1S8.679,7.072,6.789,5.278C4.937,3.522,3.34,2.007,0,2.007V0C4.139,0,6.283,2.03,8.17,3.821c1.855,1.759,3.452,3.274,6.792,3.274S19.9,5.58,21.75,3.821C23.637,2.03,25.781,0,29.92,0S36.2,2.03,38.093,3.821c1.852,1.759,3.449,3.274,6.789,3.274s4.937-1.514,6.792-3.274C53.56,2.03,55.7,0,59.843,0s6.283,2.03,8.17,3.821C69.867,5.58,71.464,7.094,74.8,7.094S79.742,5.58,81.6,3.821C83.486,2.03,85.627,0,89.769,0V2.007c-3.34,0-4.94,1.517-6.8,3.27C81.084,7.072,78.943,9.1,74.8,9.1" transform="translate(1.635 21.62)" fill="#efb499"/>
            <path id="Path_873377" data-name="Path 873377" d="M74.8,9.1c-4.139,0-6.283-2.03-8.169-3.824-1.855-1.756-3.452-3.27-6.792-3.27s-4.937,1.514-6.792,3.27C51.164,7.072,49.02,9.1,44.881,9.1s-6.283-2.03-8.17-3.824c-1.855-1.756-3.452-3.27-6.792-3.27s-4.937,1.517-6.789,3.27C21.241,7.072,19.1,9.1,14.962,9.1S8.678,7.072,6.789,5.278C4.937,3.522,3.34,2.007,0,2.007V0C4.139,0,6.283,2.03,8.169,3.821c1.851,1.759,3.452,3.274,6.792,3.274S19.9,5.58,21.75,3.821C23.637,2.03,25.781,0,29.92,0S36.2,2.03,38.093,3.821c1.852,1.759,3.449,3.274,6.789,3.274s4.937-1.514,6.792-3.274C53.56,2.03,55.7,0,59.843,0s6.283,2.03,8.17,3.821C69.867,5.58,71.464,7.094,74.8,7.094S79.742,5.58,81.6,3.821C83.486,2.03,85.624,0,89.769,0V2.007c-3.34,0-4.941,1.517-6.8,3.27C81.084,7.072,78.943,9.1,74.8,9.1" transform="translate(0.818 10.81)" fill="#efb499"/>
            <path id="Path_873378" data-name="Path 873378" d="M74.8,9.1c-4.139,0-6.28-2.03-8.17-3.821-1.855-1.756-3.452-3.27-6.792-3.27s-4.937,1.514-6.789,3.27C51.164,7.069,49.023,9.1,44.881,9.1s-6.28-2.03-8.169-3.821c-1.855-1.756-3.452-3.27-6.792-3.27s-4.937,1.514-6.789,3.267C21.245,7.069,19.1,9.1,14.962,9.1S8.678,7.069,6.789,5.278C4.937,3.522,3.34,2.007,0,2.007V0C4.139,0,6.283,2.03,8.17,3.821c1.855,1.756,3.452,3.27,6.792,3.27S19.9,5.577,21.75,3.821C23.64,2.03,25.781,0,29.92,0s6.28,2.03,8.173,3.821c1.852,1.756,3.449,3.27,6.789,3.27s4.937-1.514,6.792-3.27C53.563,2.03,55.7,0,59.843,0s6.28,2.03,8.17,3.821c1.855,1.756,3.452,3.27,6.792,3.27s4.937-1.514,6.792-3.27C83.486,2.03,85.627,0,89.769,0V2.007c-3.344,0-4.941,1.514-6.8,3.27C81.084,7.069,78.943,9.1,74.8,9.1" transform="translate(0 0.003)" fill="#efb499"/>
          </g>
        </g>
      </g>
      <circle id="Ellipse_11504" data-name="Ellipse 11504" cx="50.5" cy="50.5" r="50.5" transform="translate(402.668 6031)" fill="#ffce73"/>
      <circle id="Ellipse_11503" data-name="Ellipse 11503" cx="52.5" cy="52.5" r="52.5" transform="translate(395.668 6021)" fill="#f3f9ff"/>
    </g>
    <g id="Group_1100444" data-name="Group 1100444" transform="translate(765.938 5871.804)">
      <rect id="Rectangle_401104" data-name="Rectangle 401104" width="68" height="69" transform="translate(0.062 -0.804)" fill="none"/>
      <g id="Group_1102170" data-name="Group 1102170" transform="translate(5.135 -0.804)">
        <g id="Group_1102169" data-name="Group 1102169" clip-path="url(#clip-path-3)">
          <path id="Path_890654" data-name="Path 890654" d="M371.748,516.137a1.331,1.331,0,0,0-1.331-1.332h-3.129c-.088,0-.285.01-.559.027a6.009,6.009,0,0,1,3.653,5.326c0,3.357-3.153,6.077-7.042,6.077a8.191,8.191,0,0,1-1.085-.079l.415,1.092a1.33,1.33,0,0,0,1.331,1.33h9.7a1.331,1.331,0,0,0,1.33-1.331Z" transform="translate(-325.349 -462.356)" fill="#f5956a"/>
          <path id="Path_890655" data-name="Path 890655" d="M133.793,517.832a9.516,9.516,0,0,1,.252,2.143,8.726,8.726,0,0,1-8.451,8.978,7.984,7.984,0,0,1-3.01-.6l-.476,1.61a1.331,1.331,0,0,0,1.331,1.331h9.7a1.331,1.331,0,0,0,1.331-1.331l4.225-11.111c0-.412-2.539-.78-4.9-1.024" transform="translate(-109.667 -465.074)" fill="#f5956a"/>
          <path id="Path_890656" data-name="Path 890656" d="M112.893,158.769c-.528.012-2.474.469-1.882,1.35s2.793,2.406,3.952,5.281a15.483,15.483,0,0,1,1.393,5.281c0,.763.47,1.878,2.817,1.467s6.807-2.7,6.748-5.516-4.812-8.04-13.028-7.864" transform="translate(-99.602 -142.589)" fill="#e6916a"/>
          <path id="Path_890657" data-name="Path 890657" d="M57.973,194.5a5.224,5.224,0,0,0,1.086-.5,3.575,3.575,0,0,0,1.467-3c0-2.2-1.41-2.812-1.916-2.906a2.99,2.99,0,0,0-3.1,1.821,4.269,4.269,0,0,0,.224,3.637,10.238,10.238,0,0,1-1.209-.033c-2.041-9.793-12.517-17.253-25.141-17.253a30.873,30.873,0,0,0-7.866,1.01,14.705,14.705,0,0,0-11.147-4.205c-.528.011-2.474.469-1.882,1.35s2.793,2.406,3.951,5.281c.21.521.38.988.534,1.43A20.818,20.818,0,0,0,4.75,191.63c-.7-.092-1.19-.145-1.336-.145l-1.845-.506A1.569,1.569,0,0,0,0,192.548v8.839a1.57,1.57,0,0,0,1.569,1.569h.666a8.634,8.634,0,0,0,2.6-.316c.046.131.089.263.138.394A3.646,3.646,0,0,1,3.388,204c-2.683.82.155,2.272.155,2.272a7.34,7.34,0,0,1,2.968-.082,22.607,22.607,0,0,0,7.867,7.588l-1.461,4.941a7.985,7.985,0,0,0,3.01.6,8.16,8.16,0,0,0,5.845-2.5,31.24,31.24,0,0,0,14.295.217l.84,2.209a8.2,8.2,0,0,0,1.085.079c3.83,0,6.94-2.64,7.033-5.926,6-3.8,9.868-9.718,9.868-16.378a17.118,17.118,0,0,0-.126-2.059,9.912,9.912,0,0,0,2.006-.079,6.194,6.194,0,0,0,2.93,1.348s-1.594-1.1-1.73-1.717m-1.081-1.4a4.147,4.147,0,0,1-.121-3.21,1.324,1.324,0,0,1,1.206-.692,1.3,1.3,0,0,1,.233.021c.8.147.934,1.025.908,1.734a2.327,2.327,0,0,1-.9,1.92,3.927,3.927,0,0,1-1.095.506,2.759,2.759,0,0,1-.235-.278" transform="translate(0 -155.438)" fill="#efb499"/>
          <path id="Path_890658" data-name="Path 890658" d="M96.172,189.134c-.374-.034-1.784.135-1.437.8s1.781,1.921,2.371,4.044a11,11,0,0,1,.564,3.841c-.061.539.182,1.363,1.873,1.26s5.022-1.365,5.2-3.359-2.759-6.06-8.575-6.589" transform="translate(-85.034 -169.861)" fill="#f5956a"/>
          <path id="Path_890659" data-name="Path 890659" d="M75.254,313.233c0,1.992-1.347,3.609-3.008,3.609s-3.008-1.616-3.008-3.609,1.347-3.609,3.008-3.609,3.008,1.616,3.008,3.609" transform="translate(-62.183 -278.079)" fill="#fff"/>
          <path id="Path_890660" data-name="Path 890660" d="M81.2,322.145a1.517,1.517,0,1,1-1.46-1.928,1.745,1.745,0,0,1,1.46,1.928" transform="translate(-70.3 -287.592)" fill="#51636d"/>
          <path id="Path_890661" data-name="Path 890661" d="M247.284,231.1a1.421,1.421,0,0,1-1.757.956l-22.794-5.024a1.421,1.421,0,0,1-1.192-1.605l.4-1.8a1.421,1.421,0,0,1,1.757-.955l22.794,5.024a1.421,1.421,0,0,1,1.192,1.6Z" transform="translate(-198.946 -199.946)" fill="#f5956a"/>
          <path id="Path_890662" data-name="Path 890662" d="M233.375,352.945c0,4.36-4.862,7.895-10.86,7.895s-10.86-3.534-10.86-7.895,4.862-7.895,10.86-7.895,10.86,3.534,10.86,7.895" transform="translate(-190.091 -309.896)" fill="#f9af89"/>
          <path id="Path_890663" data-name="Path 890663" d="M7.23,379.021c-.239,0-.433-1.105-.433-2.468s.194-2.469.433-2.469.434,1.105.434,2.469-.194,2.468-.434,2.468" transform="translate(-6.105 -335.972)" fill="#da5656"/>
          <path id="Path_890664" data-name="Path 890664" d="M165.71,583.916s4.877,1.934,6.112,2.167-.727.781-.727.781a23.677,23.677,0,0,1-5.385-2.948" transform="translate(-148.827 -524.426)" fill="#da5656"/>
          <path id="Path_890665" data-name="Path 890665" d="M390.422,568.556s4.593-2.536,5.557-3.342.142,1.058.142,1.058a23.681,23.681,0,0,1-5.7,2.284" transform="translate(-350.645 -507.448)" fill="#da5656"/>
          <path id="Path_890666" data-name="Path 890666" d="M20.568,365.238s.912,5.232-.214,6.934c.483-.311,2.443-3.352.214-6.934" transform="translate(-18.28 -328.027)" fill="#f9af89"/>
          <path id="Path_890667" data-name="Path 890667" d="M258.724,235.4c-.1.457-.79.694-1.541.528l-21-4.627c-.75-.165-1.276-.67-1.175-1.127l.256-1.164c.1-.457.791-.693,1.54-.528l21,4.627c.75.165,1.276.67,1.175,1.127Z" transform="translate(-211.058 -205.154)" fill="#a53333"/>
          <path id="Path_890668" data-name="Path 890668" d="M239.852,32.608l21.407,4.812a4.828,4.828,0,0,0,.858-.322l.831-27.245a1.1,1.1,0,0,0-1.064-1.13L241.5,8.1a1.1,1.1,0,0,0-1.13,1.062L239.7,31.294c-.043.532-.053.624-.053.624a.712.712,0,0,0,.206.69" transform="translate(-215.217 -7.274)" fill="#2a8341"/>
          <path id="Path_890669" data-name="Path 890669" d="M275.489,4.979,255.709.033a1.1,1.1,0,0,0-1.331.8l-6.163,24.65,20.855,4.688c.858-.286,1.4-.685,1.49-1.2,0-.013,0-.025,0-.039l.239-.846c.01.018.016.037.025.056l5.458-21.832a1.1,1.1,0,0,0-.8-1.331" transform="translate(-222.927 0)" fill="#2c9646"/>
          <path id="Path_890670" data-name="Path 890670" d="M268.318,18.8,247.723,15a1.128,1.128,0,0,0-1.313.9l-4.227,22.894,21.476,4.828c1.042.1,1.286-.345,1.4-.954l4.165-22.555a1.127,1.127,0,0,0-.9-1.312" transform="translate(-217.509 -13.451)" fill="#4eb64a"/>
          <path id="Path_890671" data-name="Path 890671" d="M282.843,69.722l3.6-19.5a2.265,2.265,0,0,1-2.451-3.727L272.25,44.322a2.266,2.266,0,0,1-3.92,2.25L264.8,65.667Z" transform="translate(-237.825 -39.806)" fill="#abd167"/>
          <path id="Path_890672" data-name="Path 890672" d="M298.6,132.277c4.4.813,7.439,4.33,6.787,7.858s-4.746,5.728-9.147,4.916-7.438-4.33-6.786-7.859,4.746-5.727,9.146-4.915" transform="translate(-259.888 -118.649)" fill="#4eb64a"/>
          <path id="Path_890673" data-name="Path 890673" d="M368.485,73.917a2.082,2.082,0,1,1-2.426,1.67,2.083,2.083,0,0,1,2.426-1.67" transform="translate(-328.733 -66.355)" fill="#4eb64a"/>
          <path id="Path_890674" data-name="Path 890674" d="M315.977,160.1a.932.932,0,0,1-1.084.746l-.238-.044a5.478,5.478,0,0,1-1.131,2.436.753.753,0,0,1-.963.117l-1.044-.679a.749.749,0,0,1-.332-.5.765.765,0,0,1,.144-.585,4.056,4.056,0,0,0,.646-1.28l-1.876-.346c-.949,1.213-2.142,2.373-3.78,2.071a3.437,3.437,0,0,1-2.677-3.263l-.457-.085a.931.931,0,1,1,.337-1.83l.294.055a5.761,5.761,0,0,1,.907-1.9.756.756,0,0,1,1.045-.175l1.036.729a.753.753,0,0,1,.158,1.082,2.847,2.847,0,0,0-.438.766l1.474.272c.927-1.184,2.191-2.41,3.949-2.086a3.44,3.44,0,0,1,2.844,3.34l.439.081a.931.931,0,0,1,.746,1.084M314,159.877l1.032.191a.136.136,0,1,0,.049-.267l-1.064-.2-.008-.323a2.722,2.722,0,0,0-2.212-2.9c-1.407-.26-2.493.894-3.279,1.926l-.18.218-.253-.013-2.534-.468.078-.395a3.406,3.406,0,0,1,.675-1.457l-.966-.681a4.982,4.982,0,0,0-.836,1.94l-.077.385-1.053-.195a.136.136,0,1,0-.049.267l1.083.2.006.322a2.7,2.7,0,0,0,2.046,2.825c1.265.234,2.274-.822,3.093-1.887l.194-.242.258.015,2.877.531-.055.418c0,.04-.009.082-.017.125a4.642,4.642,0,0,1-.826,1.823l.977.636a5.017,5.017,0,0,0,.952-2.231Zm-.8-.425-3.545-.655,1.092-.529a1.515,1.515,0,0,1,.991-.117,1.31,1.31,0,0,1,.8.469Zm-4.831-.616-.928.539a1.173,1.173,0,0,1-.879.137,1.135,1.135,0,0,1-.69-.432l-.626-.82Z" transform="translate(-271.61 -138.937)" fill="#abd167"/>
        </g>
      </g>
    </g>
  </g>
</svg>
