<svg xmlns="http://www.w3.org/2000/svg" xmlns:xlink="http://www.w3.org/1999/xlink" width="295" height="286.909" viewBox="0 0 295 286.909">
  <defs>
    <clipPath id="clip-path">
      <rect id="Rectangle_402975" data-name="Rectangle 402975" width="295" height="286.909" transform="translate(52)" fill="none"/>
    </clipPath>
    <clipPath id="clip-path-2">
      <rect id="Rectangle_402956" data-name="Rectangle 402956" width="385" height="286.909" fill="none"/>
    </clipPath>
    <clipPath id="clip-path-5">
      <rect id="Rectangle_402960" data-name="Rectangle 402960" width="13.603" height="19.891" fill="none"/>
    </clipPath>
    <clipPath id="clip-path-6">
      <rect id="Rectangle_402961" data-name="Rectangle 402961" width="185.724" height="127.649" fill="#c2b9a8"/>
    </clipPath>
    <clipPath id="clip-path-7">
      <rect id="Rectangle_402962" data-name="Rectangle 402962" width="153.248" height="96.094" fill="#7a4f00"/>
    </clipPath>
    <clipPath id="clip-path-8">
      <rect id="Rectangle_402963" data-name="Rectangle 402963" width="25.777" height="19.941" fill="#7a4f00"/>
    </clipPath>
    <clipPath id="clip-path-10">
      <rect id="Rectangle_402965" data-name="Rectangle 402965" width="6.783" height="8.714" fill="none"/>
    </clipPath>
    <clipPath id="clip-path-11">
      <rect id="Rectangle_402966" data-name="Rectangle 402966" width="6.825" height="7.677" fill="none"/>
    </clipPath>
    <clipPath id="clip-path-12">
      <rect id="Rectangle_402967" data-name="Rectangle 402967" width="16.541" height="9.886" fill="none"/>
    </clipPath>
    <clipPath id="clip-path-13">
      <rect id="Rectangle_402968" data-name="Rectangle 402968" width="5.223" height="41.855" fill="none"/>
    </clipPath>
    <clipPath id="clip-path-14">
      <rect id="Rectangle_402969" data-name="Rectangle 402969" width="5.484" height="16.402" fill="none"/>
    </clipPath>
    <clipPath id="clip-path-15">
      <rect id="Rectangle_402971" data-name="Rectangle 402971" width="10.142" height="64.365" fill="none"/>
    </clipPath>
    <clipPath id="clip-path-16">
      <rect id="Rectangle_402972" data-name="Rectangle 402972" width="30.792" height="21.229" fill="none"/>
    </clipPath>
    <clipPath id="clip-path-17">
      <rect id="Rectangle_402973" data-name="Rectangle 402973" width="29.264" height="23.199" fill="none"/>
    </clipPath>
  </defs>
  <g id="Group_1101538" data-name="Group 1101538" transform="translate(-52)">
    <g id="Group_1101537" data-name="Group 1101537" clip-path="url(#clip-path)">
      <rect id="Rectangle_402949" data-name="Rectangle 402949" width="385" height="0.192" transform="translate(0 252.133)" fill="#ebebeb"/>
      <rect id="Rectangle_402950" data-name="Rectangle 402950" width="46.115" height="0.192" transform="translate(295.68 263.234)" fill="#ebebeb"/>
      <rect id="Rectangle_402951" data-name="Rectangle 402951" width="40.479" height="0.192" transform="translate(220.476 259.067)" fill="#ebebeb"/>
      <rect id="Rectangle_402952" data-name="Rectangle 402952" width="12.589" height="0.192" transform="translate(278.922 263.138)" fill="#ebebeb"/>
      <rect id="Rectangle_402953" data-name="Rectangle 402953" width="37.474" height="0.192" transform="translate(43.205 258.971)" fill="#ebebeb"/>
      <rect id="Rectangle_402954" data-name="Rectangle 402954" width="8.03" height="0.192" transform="translate(84.102 258.971)" fill="#ebebeb"/>
      <rect id="Rectangle_402955" data-name="Rectangle 402955" width="25.912" height="0.192" transform="translate(129.885 260.628)" fill="#ebebeb"/>
      <g id="Group_1101491" data-name="Group 1101491">
        <g id="Group_1101490" data-name="Group 1101490" clip-path="url(#clip-path-2)">
          <path id="Path_883355" data-name="Path 883355" d="M191.288,217.792H42.6a4.4,4.4,0,0,1-4.4-4.4V4.4A4.4,4.4,0,0,1,42.6,0H191.288a4.4,4.4,0,0,1,4.394,4.4v209a4.4,4.4,0,0,1-4.394,4.4M42.6.193a4.207,4.207,0,0,0-4.2,4.2v209a4.207,4.207,0,0,0,4.2,4.2H191.288a4.207,4.207,0,0,0,4.2-4.2V4.4a4.207,4.207,0,0,0-4.2-4.2Z" transform="translate(-8.788)" fill="#ebebeb"/>
          <path id="Path_883356" data-name="Path 883356" d="M407.586,217.792H258.9a4.4,4.4,0,0,1-4.394-4.4V4.4A4.4,4.4,0,0,1,258.9,0H407.586a4.4,4.4,0,0,1,4.4,4.4v209a4.4,4.4,0,0,1-4.4,4.4M258.9.193a4.207,4.207,0,0,0-4.2,4.2v209a4.207,4.207,0,0,0,4.2,4.2H407.586a4.207,4.207,0,0,0,4.2-4.2V4.4a4.207,4.207,0,0,0-4.2-4.2Z" transform="translate(-58.536)" fill="#ebebeb"/>
          <path id="Path_883357" data-name="Path 883357" d="M105.683,20.139c-2.673-2.582-5.474.143-6.133-2.611S93.707,13.3,90.995,15.7s-3.968,4.069-7.754,2.645-5.571-.388-6.864,1.508-10.792.982-8.879,3.693h36.374s4.3-1,1.81-3.406" transform="translate(-15.466 -3.333)" fill="#ffe9df"/>
          <path id="Path_883358" data-name="Path 883358" d="M76.163,88.277c8.3-4.25,8.8.236,14.04-4.3s16.007-6.962,16.845-3.01.388,6.7,8.773,4.354,9.757-.638,9.023,2.483,16.285,1.616,9.042,6.079H74s-5.569-1.648,2.164-5.608" transform="translate(-16.574 -18.165)" fill="#ffe9df"/>
          <path id="Path_883359" data-name="Path 883359" d="M433.526,20.942c-.936-2.306-5.682-3.075-10.81-1.281s1.923-9.443-7.142-7.559c-12.948,2.69-12.465,10.731-17.2,9.993s-20.084,1.239-13.766,5.254h44.32s5.534-4.1,4.6-6.406" transform="translate(-88.114 -2.734)" fill="#ffe9df"/>
          <path id="Path_883360" data-name="Path 883360" d="M364.172,54.259a24.127,24.127,0,1,1-24.126-24.126,24.126,24.126,0,0,1,24.126,24.126" transform="translate(-72.661 -6.931)" fill="#ffe9df"/>
          <path id="Path_883361" data-name="Path 883361" d="M230.293,33.935c-1.4-3.455-8.513-4.607-16.2-1.92s2.881-14.146-10.7-11.324c-19.4,4.03-18.676,16.076-25.769,14.971s-30.09,1.856-20.624,7.87h66.4s8.291-6.142,6.888-9.6" transform="translate(-35.593 -4.685)" fill="#ffe9df"/>
          <path id="Path_883362" data-name="Path 883362" d="M296.011,112.959c-27.772-43.449-37.055,129.275-77.174,81.764s-60.768-2.6-70.952,27.129a437.249,437.249,0,0,0-14.859,54.634H329.444s-14.394-133.741-33.433-163.527" transform="translate(-30.596 -24.353)" fill="#fafafa"/>
          <path id="Path_883363" data-name="Path 883363" d="M241.209,264.9c-9.3-17.61-28.156-44.209-64.792-16.068s-45.113-74.163-70.473-48.428c-17.385,17.641-30.53,96.856-30.53,96.856H254.778A191.007,191.007,0,0,0,241.209,264.9" transform="translate(-17.345 -45.129)" fill="#ffe9df"/>
          <path id="Path_883364" data-name="Path 883364" d="M265.931,272.85c7.831-11.031,23.708-27.691,54.557-10.065s37.987-46.454,59.341-30.335c14.639,11.05,25.707,60.669,25.707,60.669H254.505a104.631,104.631,0,0,1,11.426-20.269" transform="translate(-58.536 -40.986)" fill="#fecab2"/>
          <path id="Path_883365" data-name="Path 883365" d="M37.512,286.743c18.7-8.245,24.95,24.533,51.963,15.516s40.917-.494,47.775,5.148a54.028,54.028,0,0,1,10,10.368H15s9.693-25.38,22.512-31.033" transform="translate(37 -65.642)" fill="#fecab2"/>
        </g>
      </g>
      <g id="Group_1101493" data-name="Group 1101493">
        <g id="Group_1101492" data-name="Group 1101492" clip-path="url(#clip-path-2)">
          <path id="Path_883366" data-name="Path 883366" d="M354.7,358.682c0,4.816-66.841,8.719-149.295,8.719s-149.295-3.9-149.295-8.719,66.841-8.719,149.295-8.719,149.295,3.9,149.295,8.719" transform="translate(-12.906 -80.492)" fill="#f5f5f5"/>
        </g>
      </g>
      <rect id="Rectangle_402958" data-name="Rectangle 402958" width="0.77" height="5.305" transform="translate(237.16 211.188)" fill="#407bff"/>
      <rect id="Rectangle_402959" data-name="Rectangle 402959" width="0.77" height="17.966" transform="translate(237.16 187.746)" fill="#407bff"/>
      <g id="Group_1101507" data-name="Group 1101507">
        <g id="Group_1101506" data-name="Group 1101506" clip-path="url(#clip-path-2)">
          <path id="Path_883367" data-name="Path 883367" d="M299.512,282.525h-9.754a1.925,1.925,0,0,1-1.925-1.925V38.306a1.926,1.926,0,0,1,1.925-1.925h9.754a1.925,1.925,0,0,1,1.925,1.925V280.6a1.925,1.925,0,0,1-1.925,1.925" transform="translate(-66.202 -8.368)" fill="#7a4f00"/>
          <g id="Group_1101496" data-name="Group 1101496" transform="translate(221.632 160.068)" opacity="0.4">
            <g id="Group_1101495" data-name="Group 1101495">
              <g id="Group_1101494" data-name="Group 1101494" clip-path="url(#clip-path-5)">
                <path id="Path_883368" data-name="Path 883368" d="M301.437,227.773l-13.6-7.571v-12.32h13.6Z" transform="translate(-287.834 -207.881)" fill="#263238"/>
              </g>
            </g>
          </g>
          <path id="Path_883369" data-name="Path 883369" d="M353.937,172.363H176.067l7.853-127.649h177.87Z" transform="translate(-40.495 -10.284)" fill="#407bff"/>
          <g id="Group_1101499" data-name="Group 1101499" transform="translate(135.572 34.43)" opacity="0.8">
            <g id="Group_1101498" data-name="Group 1101498">
              <g id="Group_1101497" data-name="Group 1101497" clip-path="url(#clip-path-6)">
                <path id="Path_883370" data-name="Path 883370" d="M353.937,172.363H176.067l7.853-127.649h177.87Z" transform="translate(-176.067 -44.714)" fill="#c2b9a8"/>
              </g>
            </g>
          </g>
          <path id="Path_883371" data-name="Path 883371" d="M180.313,170.2l7.474-121.489H359.5L352.023,170.2Z" transform="translate(-41.472 -11.204)" fill="#fff"/>
          <path id="Path_883372" data-name="Path 883372" d="M408.436,172.363h-1.369L414.92,44.714h1.369Z" transform="translate(-93.625 -10.284)" fill="#7a4f00"/>
          <g id="Group_1101502" data-name="Group 1101502" transform="translate(156.095 49.929)" opacity="0.4">
            <g id="Group_1101501" data-name="Group 1101501">
              <g id="Group_1101500" data-name="Group 1101500" clip-path="url(#clip-path-7)">
                <path id="Path_883373" data-name="Path 883373" d="M234.484,70.245a6.236,6.236,0,0,0-3.294,2.02c-1.484,1.811-1.747,4.3-3.223,6.067-1.3,1.556-3.55,2.044-4.628,3.835-.775,1.291-.628,2.917-1.326,4.249-.872,1.664-2.677,2.381-4.074,3.5-1.8,1.438-2.426,3.457-3.728,5.3-2.215,3.136-5.854,4.975-8.43,7.832s-3.946,7.065-2.429,10.361c1.267,2.754,4.155,4.257,6.492,6.162,1.97,1.6,3.7,4.125,3.116,6.894-.567,2.7-3.39,4.507-4.916,6.75a20.96,20.96,0,0,0-2.611,6.862,24.409,24.409,0,0,0-1.043,6.874c.3,7.136,7.049,12.381,13.636,13.68a12.76,12.76,0,0,0,7.856-.686,8.654,8.654,0,0,0,3.591-3.1c1.7-2.655-.017-5.352,4.026-6.071a9.648,9.648,0,0,1,3.728-.149,3.249,3.249,0,0,1,2.589,2.291c.142.654.022,1.362.194,2.007a2.732,2.732,0,0,0,1.625,1.732c1.9.805,3.639-.042,4.746-1.853.875-1.431,1.347-2.953,2.51-4.192a46.891,46.891,0,0,1,7.457-5.926,16.676,16.676,0,0,1,7.608-3.209,7.639,7.639,0,0,1,6.755,2.492c1.663,2.131.8,5.245,2.815,7.288a6.927,6.927,0,0,0,3.672,1.737,14.907,14.907,0,0,0,10.554-2.218,10.173,10.173,0,0,0,3.631-3.879c1.123-2.253.355-4.3.746-6.607.591-3.491,3.677-4.119,6.589-4.527a16.92,16.92,0,0,0,9.3-4.583c1.813-1.756,4.3-3.252,6.688-2.057a8.355,8.355,0,0,1,2.482,2.123c1.415,1.642,2.638,3.448,4.085,5.064,3.527,3.94,11.379,7.11,14.937.617a6.789,6.789,0,0,0,.03-6.519c-1.04-1.813-2.985-3.605-1.95-6.005,1.171-2.713,4.438-2.816,4.925-6.228.422-2.959-1.28-5.764.645-8.542,1.155-1.668,3.008-2.549,4.441-3.928,3.865-3.721,3.03-9.107,4.441-13.73,1.823-5.976,9.105-7.028,6.768-14.228a22.261,22.261,0,0,0-2.242-5.206,8.4,8.4,0,0,0-4.255-3.56c-3.795-1.281-5.053,1.262-7.777,3.17-2.652,1.857-5.69-.474-7.54-2.121-5.2-4.631-12.733-5.713-18.786-1.052a27,27,0,0,1-5.525,3.78c-5.038,2.164-14.459.35-17.917-3.647a34.87,34.87,0,0,0-2.253-2.839,6.031,6.031,0,0,0-7.477-.24c-1.309.969-2.248,2.435-3.684,3.192-2.432,1.283-5.332.909-7.685,2.349-2.552,1.562-4.767,3.755-7.935,2.708-1.856-.613-3.1-2.245-4.458-3.614s-3.221-2.6-5.18-2.107c-2.8.7-3.2,4.729-6.125,5.073a5.1,5.1,0,0,1-3.146-1.086,15.417,15.417,0,0,0-6.108-2.487,7.991,7.991,0,0,0-2.935.2" transform="translate(-202.721 -64.843)" fill="#7a4f00"/>
              </g>
            </g>
          </g>
          <g id="Group_1101505" data-name="Group 1101505" transform="translate(257.404 127.289)" opacity="0.4">
            <g id="Group_1101504" data-name="Group 1101504">
              <g id="Group_1101503" data-name="Group 1101503" clip-path="url(#clip-path-8)">
                <path id="Path_883374" data-name="Path 883374" d="M352.817,173.97c-1.633-1.98-1.207-6.979-4.488-6.523-1.993.276-1.819,1.157-3.6-.1-1.187-.842-1.741-2.017-3.9-2.033-8.3-.062-8.357,11.837-2.122,14.8,1.823.865,2.977-.857,4.59-.775,1.639.082,2.6,1.907,3.537,2.958a7.9,7.9,0,0,0,8.948,2.469c2.78-.908,5.227-4.408,3.922-7.243-1.154-2.5-5.088-1.363-6.89-3.549" transform="translate(-334.291 -165.311)" fill="#7a4f00"/>
              </g>
            </g>
          </g>
          <path id="Path_883375" data-name="Path 883375" d="M214.031,129.466l-.437-.377c1.337-1.552,1.253-3.245,1.162-5.037a11.807,11.807,0,0,1,.154-3.341c.474-2.02,1.842-2.837,3.165-3.627a6.274,6.274,0,0,0,2.552-2.241c.931-1.674.061-3.132-.86-4.675-.245-.41-.5-.834-.7-1.25a6.84,6.84,0,0,1,.588-6.82,7.278,7.278,0,0,1,5.894-3.339c4.026-.127,8.126,2.652,10.223,5.3.752.947,1.438,1.957,2.1,2.934.569.835,1.157,1.7,1.779,2.515A8.465,8.465,0,0,0,242,111.779c2.368,1.391,5.047-.012,6.876-1.434a18.351,18.351,0,0,1,10.319-3.81c3.229-.152,6.2-.55,7.034-3.724a12.375,12.375,0,0,0,.316-2.487,8.036,8.036,0,0,1,1.045-4.146,10.544,10.544,0,0,1,4.247-3.66,16.641,16.641,0,0,1,11.485-1.287,7.733,7.733,0,0,1,3.859,2.161,7,7,0,0,1,1.422,4.172,7.1,7.1,0,0,0,.959,3.412,8.029,8.029,0,0,0,6.567,2.985h.091a17.51,17.51,0,0,0,8.126-2.49l.293-.159a47.229,47.229,0,0,0,7.983-5.068,10.382,10.382,0,0,0,1.944-2.462c.309-.484.627-.983,1-1.466,1.486-1.94,3.541-2.506,5.5-1.509a3.076,3.076,0,0,1,1.719,2.085,4.569,4.569,0,0,1,.034,1.139,4.694,4.694,0,0,0,.008.9,3.1,3.1,0,0,0,2.332,2.294,10.354,10.354,0,0,0,3.825.178c2.559-.211,2.855-1.3,3.264-2.8a7.186,7.186,0,0,1,1.264-2.809,9.236,9.236,0,0,1,4.161-2.874,14.309,14.309,0,0,1,8.487.018c6.879,1.916,13.7,7.762,13.424,15.23l-.577-.021c.262-7.093-6.5-12.844-13-14.652a13.95,13.95,0,0,0-8.143-.029,8.642,8.642,0,0,0-3.9,2.69,6.6,6.6,0,0,0-1.157,2.6c-.417,1.534-.812,2.982-3.775,3.227a10.845,10.845,0,0,1-4.039-.2,3.666,3.666,0,0,1-2.737-2.766A5.167,5.167,0,0,1,322.245,94a4.106,4.106,0,0,0-.025-1,2.544,2.544,0,0,0-1.414-1.681,3.68,3.68,0,0,0-4.782,1.345c-.355.464-.666.953-.968,1.426A10.985,10.985,0,0,1,313,96.681a47.649,47.649,0,0,1-8.083,5.137l-.293.159a18.061,18.061,0,0,1-8.4,2.561,8.571,8.571,0,0,1-7.139-3.234,7.65,7.65,0,0,1-1.058-3.677,6.463,6.463,0,0,0-1.284-3.855,7.19,7.19,0,0,0-3.577-1.986,16.045,16.045,0,0,0-11.07,1.245,10.006,10.006,0,0,0-4.022,3.455,7.487,7.487,0,0,0-.955,3.871,12.887,12.887,0,0,1-.335,2.6c-1.016,3.846-4.957,4.032-7.565,4.154a17.766,17.766,0,0,0-9.991,3.688c-1.97,1.532-4.876,3.029-7.524,1.476a9.115,9.115,0,0,1-2.519-2.425c-.632-.828-1.224-1.7-1.8-2.54-.659-.968-1.34-1.968-2.078-2.9-2.074-2.616-6.1-5.225-9.751-5.077a6.636,6.636,0,0,0-5.439,3.09,6.255,6.255,0,0,0-.545,6.236c.2.4.433.792.682,1.21.919,1.541,1.961,3.286.869,5.251a6.8,6.8,0,0,1-2.76,2.456c-1.275.762-2.48,1.481-2.9,3.264a11.365,11.365,0,0,0-.139,3.179c.092,1.827.188,3.717-1.3,5.443" transform="translate(-49.127 -20.306)" fill="#fff"/>
          <path id="Path_883376" data-name="Path 883376" d="M285.015,156.356l-.57-.1a4.771,4.771,0,0,1,1.073-2.045,5.306,5.306,0,0,0,.879-1.447,6.63,6.63,0,0,0,.236-2.118,7.364,7.364,0,0,1,.261-2.305,4.4,4.4,0,0,1,1.664-2.173,5.922,5.922,0,0,1,1.886-.9,11.141,11.141,0,0,1,4.575-.052,3.35,3.35,0,0,0,2.069-.108,2.931,2.931,0,0,0,1.23-2.13,3.8,3.8,0,0,1,1.308-2.411c1-.707,2.4-.732,4.053-.073.227.091.454.187.68.285a6.361,6.361,0,0,0,2.9.737c1.707-.129,2.555-1.334,3.452-2.61.209-.3.417-.593.639-.881a8.084,8.084,0,0,1,2.268-1.828,8.413,8.413,0,0,0,1.976-1.512,5.694,5.694,0,0,0,.861-1.543,8.8,8.8,0,0,1,.622-1.248,4.5,4.5,0,0,1,5.093-1.845,7.466,7.466,0,0,1,1.317.674c.274.165.548.33.837.467,3.044,1.456,9.237.277,11.833-2.255a13.359,13.359,0,0,0,2.027-2.837c.147-.249.295-.5.445-.745a10.368,10.368,0,0,1,12.389-4.2c1.612.532,3.875,1.059,4.934-.509a13.593,13.593,0,0,0,.735-1.267c.7-1.309,1.354-2.546,3.568-2.7A6.053,6.053,0,0,1,364,117.792l-.32.48a5.569,5.569,0,0,0-3.384-1.01c-1.893.129-2.4,1.079-3.1,2.393a14.021,14.021,0,0,1-.766,1.318c-1.277,1.891-3.8,1.325-5.593.735a9.8,9.8,0,0,0-11.716,3.952c-.15.243-.3.491-.442.738a13.783,13.783,0,0,1-2.121,2.958c-2.734,2.666-9.269,3.9-12.486,2.362-.3-.146-.6-.319-.885-.493a6.878,6.878,0,0,0-1.214-.624,3.952,3.952,0,0,0-4.411,1.611,8.075,8.075,0,0,0-.579,1.167,6.2,6.2,0,0,1-.956,1.694,9.009,9.009,0,0,1-2.107,1.623,7.556,7.556,0,0,0-2.115,1.689c-.216.281-.42.572-.623.861-.936,1.33-1.9,2.705-3.882,2.854a6.667,6.667,0,0,1-3.168-.782c-.223-.1-.444-.191-.666-.279a3.785,3.785,0,0,0-3.507.006,3.32,3.32,0,0,0-1.082,2.083,3.406,3.406,0,0,1-1.518,2.5,3.826,3.826,0,0,1-2.425.17,10.661,10.661,0,0,0-4.34.038,5.331,5.331,0,0,0-1.7.808,3.844,3.844,0,0,0-1.453,1.885,6.855,6.855,0,0,0-.232,2.129,7.164,7.164,0,0,1-.266,2.3,5.884,5.884,0,0,1-.966,1.61,4.271,4.271,0,0,0-.964,1.793" transform="translate(-65.422 -26.835)" fill="#fff"/>
          <path id="Path_883377" data-name="Path 883377" d="M213.256,56.549H195.675l.1-1.669h17.581Z" transform="translate(-45.005 -12.623)" fill="#7a4f00"/>
          <path id="Path_883378" data-name="Path 883378" d="M212.82,63.636H195.239l.1-1.669h17.581Z" transform="translate(-44.905 -14.252)" fill="#7a4f00"/>
        </g>
      </g>
      <g id="Group_1101536" data-name="Group 1101536">
        <g id="Group_1101535" data-name="Group 1101535" clip-path="url(#clip-path-2)">
          <path id="Path_883379" data-name="Path 883379" d="M142.16,89.9c-1.974,3.26-4.038,6.667-5.906,10.01-.937,1.678-1.83,3.363-2.641,5.017-.4.829-.765,1.652-1.092,2.446a17.912,17.912,0,0,0-.776,2.194c-.028.135-.089.318-.1.414a3.108,3.108,0,0,0-.059.336,6.271,6.271,0,0,0-.028.859,10.492,10.492,0,0,0,.324,2.181,29.7,29.7,0,0,0,1.756,4.961,95.245,95.245,0,0,0,5.417,10.126l.055.092a2.5,2.5,0,0,1-3.82,3.135,50.147,50.147,0,0,1-4.419-4.569A51.675,51.675,0,0,1,127,121.982a32.2,32.2,0,0,1-3.147-6.044,19.312,19.312,0,0,1-1.027-3.69,14.657,14.657,0,0,1-.182-2.151c-.016-.367.025-.778.046-1.167.023-.407.084-.714.13-1.076a32.31,32.31,0,0,1,2.015-6.761c.8-2.028,1.7-3.948,2.647-5.825a103.494,103.494,0,0,1,6.282-10.812,5,5,0,0,1,8.45,5.361Z" transform="translate(-28.207 -18.913)" fill="#263238"/>
          <path id="Path_883380" data-name="Path 883380" d="M143.438,143.23l.975,3.052-7.16.644a7.344,7.344,0,0,1,.443-3.957,2.712,2.712,0,0,1,2.2-1.566l.636-.067a2.746,2.746,0,0,1,2.905,1.895" transform="translate(-31.546 -32.504)" fill="#7f3e3b"/>
          <path id="Path_883381" data-name="Path 883381" d="M145.036,151.951l-5.481,1.106-2.274-4.649,7.16-.644Z" transform="translate(-31.575 -33.986)" fill="#7f3e3b"/>
          <path id="Path_883382" data-name="Path 883382" d="M170.876,57.014c-.036.484.192.912.51.954s.6-.316.641-.8-.192-.912-.51-.953-.6.316-.641.8" transform="translate(-39.301 -12.928)" fill="#263238"/>
          <path id="Path_883383" data-name="Path 883383" d="M170.966,58.43a18.618,18.618,0,0,0,2.013,4.453,2.788,2.788,0,0,1-2.355.126Z" transform="translate(-39.244 -13.439)" fill="#630f0f"/>
          <path id="Path_883384" data-name="Path 883384" d="M168.765,53.185a.311.311,0,0,1-.166-.136.278.278,0,0,1,.095-.389,2.829,2.829,0,0,1,2.6-.1.3.3,0,0,1,.136.39.277.277,0,0,1-.38.115,2.258,2.258,0,0,0-2.057.1.28.28,0,0,1-.227.018" transform="translate(-38.768 -12.027)" fill="#263238"/>
          <path id="Path_883385" data-name="Path 883385" d="M150.636,61.466c1.023,4.453,2.176,12.595-.809,15.483,0,0,1.367,4.525,9.576,4.71,9.026.2,4.154-4.4,4.154-4.4-4.969-1.293-4.972-4.957-4.236-8.382Z" transform="translate(-34.46 -14.137)" fill="#7f3e3b"/>
          <path id="Path_883386" data-name="Path 883386" d="M146.033,81.3c-.94-.615.308-6.088,1.216-6.625,2.419-1.433,12.9-.869,17.5,1.992,1.462,1.645,1.228,5.113,1.228,5.113Z" transform="translate(-33.511 -17.002)" fill="#263238"/>
          <path id="Path_883387" data-name="Path 883387" d="M144.589,353.562c.621.019,1.22-.057,1.444-.354a.58.58,0,0,0-.023-.679.72.72,0,0,0-.46-.348c-.886-.235-2.529.857-2.6.9a.135.135,0,0,0-.055.142.152.152,0,0,0,.111.116,7.764,7.764,0,0,0,1.583.22m.727-1.129a.854.854,0,0,1,.177.024.414.414,0,0,1,.269.2c.136.24.063.337.039.369-.25.331-1.485.3-2.395.119a4.464,4.464,0,0,1,1.91-.712" transform="translate(-32.865 -80.994)" fill="#407bff"/>
          <path id="Path_883388" data-name="Path 883388" d="M143.039,352.9a.133.133,0,0,0,.069-.015c.617-.32,1.792-1.607,1.645-2.285a.5.5,0,0,0-.467-.39.752.752,0,0,0-.606.166c-.688.552-.785,2.292-.788,2.365a.154.154,0,0,0,.069.133.15.15,0,0,0,.079.025m1.155-2.412a.653.653,0,0,1,.065.006c.187.029.206.114.213.151.087.4-.658,1.378-1.267,1.83a3.25,3.25,0,0,1,.663-1.872.481.481,0,0,1,.326-.115" transform="translate(-32.865 -80.546)" fill="#407bff"/>
          <path id="Path_883389" data-name="Path 883389" d="M206.23,347.068c.745-.172,1.435-.443,1.579-.839a.565.565,0,0,0-.185-.609.756.756,0,0,0-.529-.227c-1.042-.044-2.737,1.6-2.808,1.672a.139.139,0,0,0-.026.159.153.153,0,0,0,.141.09,10.37,10.37,0,0,0,1.828-.246m.6-1.359a1.031,1.031,0,0,1,.275-.029.459.459,0,0,1,.325.133c.146.152.136.246.115.3-.162.444-1.627.792-2.75.885a5.981,5.981,0,0,1,2.035-1.294" transform="translate(-46.977 -79.44)" fill="#407bff"/>
          <path id="Path_883390" data-name="Path 883390" d="M204.4,346.977a.137.137,0,0,0,.052-.025c.61-.482,1.635-2.081,1.339-2.725a.533.533,0,0,0-.623-.273.966.966,0,0,0-.694.416,4.047,4.047,0,0,0-.256,2.486.154.154,0,0,0,.093.114.144.144,0,0,0,.088.008m.736-2.723a.733.733,0,0,1,.084-.015c.254-.032.3.064.313.1.177.387-.48,1.609-1.071,2.211a3.3,3.3,0,0,1,.249-2,.7.7,0,0,1,.426-.293" transform="translate(-46.951 -79.108)" fill="#407bff"/>
          <path id="Path_883391" data-name="Path 883391" d="M195.431,346.164l5.575-1.129-2.337-14.715-5.575,1.13Z" transform="translate(-44.412 -75.974)" fill="#7f3e3b"/>
          <path id="Path_883392" data-name="Path 883392" d="M134.064,349.29l6.132.63,1.332-13.673-6.132-.629Z" transform="translate(-30.835 -77.192)" fill="#7f3e3b"/>
          <path id="Path_883393" data-name="Path 883393" d="M139.966,352.53l-6.8-.21a.491.491,0,0,0-.5.4l-1.049,5.335a.949.949,0,0,0,.916,1.1c2.373.032,3.524-.071,6.514.022,1.841.057,7.65.51,10.172.337,2.467-.169,2.535-2.7,1.474-2.855-4.759-.7-8.2-2.339-9.727-3.725a1.554,1.554,0,0,0-.993-.4" transform="translate(-30.267 -81.034)" fill="#263238"/>
          <path id="Path_883394" data-name="Path 883394" d="M201.373,346.981l-6.339,1.465a.491.491,0,0,0-.38.517l.344,5.519a.936.936,0,0,0,1.133.859c2.275-.568,5.541-1.468,8.415-2.131,3.361-.776,4.831-.917,8.772-1.827,2.383-.551,2.348-3.157,1.288-3.149-4.828.037-7.082.442-11.7-1.115a2.823,2.823,0,0,0-1.529-.138" transform="translate(-44.77 -79.793)" fill="#263238"/>
          <g id="Group_1101510" data-name="Group 1101510" transform="translate(148.68 254.351)" opacity="0.2">
            <g id="Group_1101509" data-name="Group 1101509">
              <g id="Group_1101508" data-name="Group 1101508" clip-path="url(#clip-path-10)">
                <path id="Path_883395" data-name="Path 883395" d="M198.668,330.326l1.206,7.585-5.578,1.13-1.205-7.585Z" transform="translate(-193.091 -330.326)"/>
              </g>
            </g>
          </g>
          <g id="Group_1101513" data-name="Group 1101513" transform="translate(103.87 258.429)" opacity="0.2">
            <g id="Group_1101512" data-name="Group 1101512">
              <g id="Group_1101511" data-name="Group 1101511" clip-path="url(#clip-path-11)">
                <path id="Path_883396" data-name="Path 883396" d="M135.586,335.622l6.134.63-.689,7.047-6.135-.63Z" transform="translate(-134.896 -335.622)"/>
              </g>
            </g>
          </g>
          <path id="Path_883397" data-name="Path 883397" d="M149.906,50.812c-.078,6-.428,9.49,2.359,12.946a7.791,7.791,0,0,0,13.631-2.3c1.681-5.177,1.526-14.12-4.14-17.265a7.77,7.77,0,0,0-11.85,6.62" transform="translate(-34.466 -9.907)" fill="#7f3e3b"/>
          <path id="Path_883398" data-name="Path 883398" d="M160.863,55.353c-1.455,2.738-5.889,5.857-8.3,6.075a4.785,4.785,0,0,1-5.176-4.791c-.043-3.209-2.278-7.015-1.716-9.24s1.46-3.337,2.743-2.867a9.337,9.337,0,0,1,7.957-3.208,18.006,18.006,0,0,1,6.47,1.411c1.7.767,3.868,4.39,2.792,5.915-1.317,1.866-4.814.705-4.771,6.705" transform="translate(-33.484 -9.501)" fill="#263238"/>
          <path id="Path_883399" data-name="Path 883399" d="M143.8,51.69c-.257.674-.818,3.293,1.788,3.684s9.569-.347,12.489-2.047,4.845-6.031,5.519-7.989-.391-4.042-2.1-4.139c-1.3.16-5.564-1.6-7.3-2.855s-5.486,1.483-7.8.224c-6.416-3.5-11.2,4.171-6.962,4.845s4.459.738,4.139,1.861-1.828,5,.225,6.416" transform="translate(-31.701 -8.661)" fill="#ffb937"/>
          <g id="Group_1101516" data-name="Group 1101516" transform="translate(112.674 33.169)" opacity="0.2">
            <g id="Group_1101515" data-name="Group 1101515">
              <g id="Group_1101514" data-name="Group 1101514" clip-path="url(#clip-path-12)">
                <path id="Path_883400" data-name="Path 883400" d="M146.33,52.936c1.219.1,7.122.064,11.743-2.535a9.4,9.4,0,0,0,4.8-7.325s-.627,4.017-5.5,6.876a25.9,25.9,0,0,1-11.036,2.984" transform="translate(-146.33 -43.076)"/>
              </g>
            </g>
          </g>
          <path id="Path_883401" data-name="Path 883401" d="M161.938,55.93a7.079,7.079,0,0,0,1.1,4.281c1.093,1.692,2.584,1.083,3.071-.607.437-1.521.4-4.233-1.083-5.345-1.456-1.1-2.936-.112-3.089,1.671" transform="translate(-37.241 -12.374)" fill="#7f3e3b"/>
          <path id="Path_883402" data-name="Path 883402" d="M159.616,150.323s-1.067,46.253-2.208,63.879c-1.25,19.3-14.089,84.36-14.089,84.36l-11.091-.89s8.041-53.318,7.511-80.092c-.407-20.566-.964-67.729-.964-67.729Z" transform="translate(-30.412 -34.466)" fill="#7d3a1b"/>
          <path id="Path_883403" data-name="Path 883403" d="M144.952,337.7c.047,0-1.24,4.147-1.24,4.147l-12.479-1,.313-3.765Z" transform="translate(-30.184 -77.529)" fill="#263238"/>
          <g id="Group_1101519" data-name="Group 1101519" transform="translate(123.573 131.945)" opacity="0.3">
            <g id="Group_1101518" data-name="Group 1101518">
              <g id="Group_1101517" data-name="Group 1101517" clip-path="url(#clip-path-13)">
                <path id="Path_883404" data-name="Path 883404" d="M161.835,175.165c1.454-3.13,2.9-3.8,3.872-3.809-.353,12.693-.888,30.158-1.474,41.856-2.873-14.384-5.395-31.6-2.4-38.046" transform="translate(-160.484 -171.357)"/>
              </g>
            </g>
          </g>
          <path id="Path_883405" data-name="Path 883405" d="M175.74,150.644s7.926,43.084,10.025,61.551c2.183,19.208,6.324,81.635,6.324,81.635l-9.834,2.271S171,234.109,167.743,215.348c-3.552-20.453-15.229-65.23-15.229-65.23Z" transform="translate(-35.078 -34.527)" fill="#7d3a1b"/>
          <path id="Path_883406" data-name="Path 883406" d="M201.1,331.01c.045-.011.624,4.286.624,4.286l-11.962,2.763-1.377-3.636Z" transform="translate(-43.328 -76.132)" fill="#263238"/>
          <path id="Path_883407" data-name="Path 883407" d="M227.7,111.233,249.5,302.581l-1.153.137L224.621,111.6Z" transform="translate(-51.663 -25.584)" fill="#263238"/>
          <path id="Path_883408" data-name="Path 883408" d="M219.506,120.643l6.816-1.2.115,6.838s-5.163,1.729-7.573-2.106Z" transform="translate(-50.339 -27.471)" fill="#7f3e3b"/>
          <path id="Path_883409" data-name="Path 883409" d="M231.832,120.674l-.028,4.992-3.14.611-.114-6.838Z" transform="translate(-52.566 -27.471)" fill="#7f3e3b"/>
          <path id="Path_883410" data-name="Path 883410" d="M173.06,85.844c.507,5.062,2.518,18.271.628,46.885a2.494,2.494,0,0,1-2.54,2.331l-30.216-.668a2.345,2.345,0,0,1-2.3-2.342c.012-7.049.839-24.784-2.472-43.044a7.688,7.688,0,0,1,7.2-9.033c1.049-.05,2.154-.077,3.294-.067,4.121.036,10.061.055,13.7.45a59.541,59.541,0,0,1,9.475,1.753,4.287,4.287,0,0,1,3.228,3.735" transform="translate(-31.289 -18.378)" fill="#263238"/>
          <path id="Path_883411" data-name="Path 883411" d="M144.426,85.593c-1.9-1.6-1.492-4.192-.738-5.736.133-.273-.314-.523-.705-.392a22.32,22.32,0,0,0-3.709,1.545,1.505,1.505,0,0,0-.766.906c-.715,2.764-.159,5.012.624,5.542,2.174-.732,5.295-1.863,5.295-1.863" transform="translate(-31.781 -18.269)" fill="#ffb937"/>
          <path id="Path_883412" data-name="Path 883412" d="M169.607,87.988c.1-2.544,3.167-4.665,5.43-5.639.4-.172.286-.655-.179-.76a27.849,27.849,0,0,0-4.747-.719,2.885,2.885,0,0,0-1.6.385c-3.516,2.1-5.42,4.465-5.321,5.4,2.6.579,6.415,1.337,6.415,1.337" transform="translate(-37.533 -18.599)" fill="#ffb937"/>
          <path id="Path_883413" data-name="Path 883413" d="M183.893,132.312a26.072,26.072,0,0,1,.259,3.634c.006.484-.236.849-.547.806-1.41-.189-5.173-.9-7.037-3.283l-1.143-10.907c.959,1.923,3.771,6.705,8.066,9.08a.945.945,0,0,1,.4.671" transform="translate(-40.348 -28.189)" fill="#ffb937"/>
          <g id="Group_1101522" data-name="Group 1101522" transform="translate(137.707 79.477)" opacity="0.2">
            <g id="Group_1101521" data-name="Group 1101521">
              <g id="Group_1101520" data-name="Group 1101520" clip-path="url(#clip-path-14)">
                <path id="Path_883414" data-name="Path 883414" d="M184.057,104.635l-5.136-1.417c-.647,8.324,2.7,13.506,5.375,16.4.085-6.014-.031-10.957-.239-14.984" transform="translate(-178.84 -103.217)"/>
              </g>
            </g>
          </g>
          <path id="Path_883415" data-name="Path 883415" d="M181.483,86.451c.27.765.638,1.711.972,2.576l1.069,2.643c.741,1.751,1.5,3.493,2.334,5.181a53,53,0,0,0,5.614,9.378c.529.691,1.085,1.322,1.648,1.928a7.276,7.276,0,0,0,1.385,1.175,13.287,13.287,0,0,0,4.238,1.683,41.51,41.51,0,0,0,10.892.693l.2-.009a2.495,2.495,0,0,1,1.024,4.814,31.1,31.1,0,0,1-3.152,1.056c-1.049.285-2.111.537-3.2.723a29.332,29.332,0,0,1-6.764.452,19.549,19.549,0,0,1-7.289-1.723,14.781,14.781,0,0,1-3.541-2.29c-.885-.794-1.729-1.614-2.5-2.462a53.242,53.242,0,0,1-7.453-10.891c-.994-1.9-1.922-3.822-2.745-5.782-.418-.978-.816-1.963-1.188-2.962-.385-1.017-.711-1.964-1.073-3.11a5,5,0,0,1,9.487-3.185Z" transform="translate(-39.496 -19.093)" fill="#263238"/>
          <path id="Path_883416" data-name="Path 883416" d="M130.062,85.326c2.258-2.661,25.061-3.174,30.446-1.826s4.364,17.336,4.993,27.527,2.141,34.809-1.749,37.044-31.867,5.382-35.1-.619-2.285-26.433.7-29.982c-.506-6.891-3.449-27.251.7-32.144" transform="translate(-29.127 -19.04)" fill="#ffb937"/>
          <g id="Group_1101528" data-name="Group 1101528" transform="translate(127.051 64.923)" opacity="0.2">
            <g id="Group_1101527" data-name="Group 1101527">
              <g id="Group_1101526" data-name="Group 1101526" clip-path="url(#clip-path-15)">
                <path id="Path_883418" data-name="Path 883418" d="M174.321,111.383c-.562-9.209.208-23.138-3.6-26.742a1.527,1.527,0,0,1-.408-.077c-1.84-.685-3.28-.085-3.742,3.519s.47,8.878.508,10.457-.477,6.653-.323,8.193,1.971,20.151-.308,27.081-2.926,16.555,6.121,14.615c3.889-2.241,2.379-26.858,1.748-37.045" transform="translate(-165.001 -84.316)" fill="#407bff"/>
              </g>
            </g>
          </g>
          <g id="Group_1101531" data-name="Group 1101531" transform="translate(100.001 64.963)" opacity="0.8">
            <g id="Group_1101530" data-name="Group 1101530">
              <g id="Group_1101529" data-name="Group 1101529" clip-path="url(#clip-path-16)">
                <path id="Path_883419" data-name="Path 883419" d="M141.143,105.6c-5.477,0-10.332-.4-11.165-1.276a.385.385,0,0,1,.558-.531c1.437,1.509,23.929,1.552,27.223-.705,1.26-.864.914-4.4.58-7.812-.451-4.618-.919-9.392,1.755-10.857a.385.385,0,0,1,.37.675c-2.228,1.22-1.766,5.941-1.358,10.106.388,3.972.724,7.4-.912,8.522-1.749,1.2-9.928,1.878-17.052,1.878" transform="translate(-129.872 -84.368)" fill="#407bff"/>
              </g>
            </g>
          </g>
          <path id="Path_883420" data-name="Path 883420" d="M156.659,106.148c-.939,1.358-1.384,6.031-1.1,7.981a.517.517,0,0,0,.547.434c.72-.041,1.558-.123,2.068-.178a.515.515,0,0,0,.464-.524,47.505,47.505,0,0,1,.316-7.337.512.512,0,0,0-.445-.621,6.746,6.746,0,0,0-1.518.052.481.481,0,0,0-.331.192" transform="translate(-35.759 -24.353)" fill="#fff"/>
          <g id="Group_1101534" data-name="Group 1101534" transform="translate(98.853 100.22)" opacity="0.2">
            <g id="Group_1101533" data-name="Group 1101533">
              <g id="Group_1101532" data-name="Group 1101532" clip-path="url(#clip-path-17)">
                <path id="Path_883421" data-name="Path 883421" d="M136.523,130.329c-4.889.152-6.93,1.54-7.186,2.5s-1.54,12.513-.642,17.2,22.4,3.594,24.8,1.732.869-5.839,2.213-9.433,3.27-10.33.575-11.293-9.432-1.027-19.764-.706" transform="translate(-128.38 -130.156)" fill="#407bff"/>
              </g>
            </g>
          </g>
          <path id="Path_883422" data-name="Path 883422" d="M134.956,107.126c-.939,1.358-1.384,6.031-1.1,7.981a.517.517,0,0,0,.547.434c.72-.041,1.558-.123,2.068-.178a.515.515,0,0,0,.464-.524,47.505,47.505,0,0,1,.316-7.337.512.512,0,0,0-.445-.621,6.747,6.747,0,0,0-1.518.052.481.481,0,0,0-.331.192" transform="translate(-30.767 -24.577)" fill="#fff"/>
        </g>
      </g>
    </g>
  </g>
</svg>
