<svg xmlns="http://www.w3.org/2000/svg" width="1030" height="480.026" viewBox="0 0 1030 480.026">
  <g id="Group_1103522" data-name="Group 1103522" transform="translate(-285 -4521.974)">
    <path id="Path_608309" data-name="Path 608309" d="M0,0H1030V480.026H0Z" transform="translate(285 4521.974)" fill="#fef7eb"/>
    <g id="Path_892593" data-name="Path 892593" transform="translate(581.5 4540)" fill="#e2d0af">
      <path d="M 223.5 446.75 C 208.3526153564453 446.75 193.2148284912109 445.2239990234375 178.5070495605469 442.2143249511719 C 164.1732788085938 439.2812194824219 150.0740509033203 434.9046020507812 136.6011047363281 429.2059936523438 C 123.3726654052734 423.6109008789062 110.6138305664062 416.6856079101562 98.67900085449219 408.62255859375 C 86.85744476318359 400.6361083984375 75.74099731445312 391.4641723632812 65.63844299316406 381.3616027832031 C 55.53583145141602 371.2590026855469 46.36394500732422 360.1425476074219 38.37744522094727 348.321044921875 C 30.31444358825684 336.3861694335938 23.3891658782959 323.6273193359375 17.79400062561035 310.3988952636719 C 12.09538841247559 296.9259338378906 7.718777656555176 282.8267211914062 4.785666465759277 268.4929504394531 C 1.776000022888184 253.7852172851562 0.25 238.6473846435547 0.25 223.5 C 0.25 208.3526153564453 1.776000022888184 193.2148284912109 4.785666465759277 178.5070495605469 C 7.718777656555176 164.1732788085938 12.09538841247559 150.0740509033203 17.79400062561035 136.6011047363281 C 23.3891658782959 123.3726654052734 30.31444358825684 110.6138305664062 38.37744522094727 98.67900085449219 C 46.36394500732422 86.85744476318359 55.53583145141602 75.74099731445312 65.63844299316406 65.63844299316406 C 75.74099731445312 55.53583145141602 86.85744476318359 46.36394500732422 98.67900085449219 38.37744522094727 C 110.6138305664062 30.31444358825684 123.3726654052734 23.3891658782959 136.6011047363281 17.79400062561035 C 150.0740509033203 12.09538841247559 164.1732788085938 7.718777656555176 178.5070495605469 4.785666465759277 C 193.2148284912109 1.776000022888184 208.3526153564453 0.25 223.5 0.25 C 238.6473846435547 0.25 253.7852172851562 1.776000022888184 268.4929504394531 4.785666465759277 C 282.8267211914062 7.718777656555176 296.9259338378906 12.09538841247559 310.3988952636719 17.79400062561035 C 323.6273193359375 23.3891658782959 336.3861694335938 30.31444358825684 348.321044921875 38.37744522094727 C 360.1425476074219 46.36394500732422 371.2590026855469 55.53583145141602 381.3616027832031 65.63844299316406 C 391.4641723632812 75.74099731445312 400.6361083984375 86.85744476318359 408.62255859375 98.67900085449219 C 416.6856079101562 110.6138305664062 423.6109008789062 123.3726654052734 429.2059936523438 136.6011047363281 C 434.9046020507812 150.0740509033203 439.2812194824219 164.1732788085938 442.2143249511719 178.5070495605469 C 445.2239990234375 193.2148284912109 446.75 208.3526153564453 446.75 223.5 C 446.75 238.6473846435547 445.2239990234375 253.7852172851562 442.2143249511719 268.4929504394531 C 439.2812194824219 282.8267211914062 434.9046020507812 296.9259338378906 429.2059936523438 310.3988952636719 C 423.6109008789062 323.6273193359375 416.6856079101562 336.3861694335938 408.62255859375 348.321044921875 C 400.6361083984375 360.1425476074219 391.4641723632812 371.2590026855469 381.3616027832031 381.3616027832031 C 371.2590026855469 391.4641723632812 360.1425476074219 400.6361083984375 348.321044921875 408.62255859375 C 336.3861694335938 416.6856079101562 323.6273193359375 423.6109008789062 310.3988952636719 429.2059936523438 C 296.9259338378906 434.9046020507812 282.8267211914062 439.2812194824219 268.4929504394531 442.2143249511719 C 253.7852172851562 445.2239990234375 238.6473846435547 446.75 223.5 446.75 Z" stroke="none"/>
      <path d="M 223.5 0.5 C 208.369384765625 0.5 193.2484436035156 2.0242919921875 178.5571594238281 5.030548095703125 C 164.2395629882812 7.96038818359375 150.1562194824219 12.33212280273438 136.698486328125 18.02423095703125 C 123.4849548339844 23.61309814453125 110.7403869628906 30.53060913085938 98.81893920898438 38.58462524414062 C 87.01055908203125 46.56216430664062 75.906494140625 55.72384643554688 65.81515502929688 65.81515502929688 C 55.72384643554688 75.906494140625 46.56216430664062 87.01055908203125 38.58462524414062 98.81893920898438 C 30.53060913085938 110.7403869628906 23.61309814453125 123.4849548339844 18.02423095703125 136.698486328125 C 12.33212280273438 150.1562194824219 7.96038818359375 164.2395629882812 5.030548095703125 178.5571594238281 C 2.0242919921875 193.2484436035156 0.5 208.369384765625 0.5 223.5 C 0.5 238.630615234375 2.0242919921875 253.7515563964844 5.030548095703125 268.4427795410156 C 7.96038818359375 282.7604370117188 12.33212280273438 296.8437194824219 18.02423095703125 310.301513671875 C 23.61309814453125 323.5150451660156 30.53060913085938 336.2595520019531 38.58462524414062 348.1810607910156 C 46.56216430664062 359.9893798828125 55.72384643554688 371.0934448242188 65.81515502929688 381.1847839355469 C 75.906494140625 391.276123046875 87.01055908203125 400.4378356933594 98.81893920898438 408.4154052734375 C 110.7403869628906 416.4693908691406 123.4849548339844 423.3869018554688 136.698486328125 428.9757690429688 C 150.1562194824219 434.6678771972656 164.2395629882812 439.0396118164062 178.5571594238281 441.9694519042969 C 193.2484436035156 444.9756774902344 208.369384765625 446.5 223.5 446.5 C 238.630615234375 446.5 253.7515563964844 444.9756774902344 268.4427795410156 441.9694519042969 C 282.7604370117188 439.0396118164062 296.8437194824219 434.6678771972656 310.301513671875 428.9757690429688 C 323.5150451660156 423.3869018554688 336.2595520019531 416.4693908691406 348.1810607910156 408.4154052734375 C 359.9893798828125 400.4378356933594 371.0934448242188 391.276123046875 381.1847839355469 381.1847839355469 C 391.276123046875 371.0934448242188 400.4378356933594 359.9893798828125 408.4154052734375 348.1810607910156 C 416.4693908691406 336.2595520019531 423.3869018554688 323.5150451660156 428.9757690429688 310.301513671875 C 434.6678771972656 296.8437194824219 439.0396118164062 282.7604370117188 441.9694519042969 268.4427795410156 C 444.9756774902344 253.7515563964844 446.5 238.630615234375 446.5 223.5 C 446.5 208.369384765625 444.9756774902344 193.2484436035156 441.9694519042969 178.5571594238281 C 439.0396118164062 164.2395629882812 434.6678771972656 150.1562194824219 428.9757690429688 136.698486328125 C 423.3869018554688 123.4849548339844 416.4693908691406 110.7403869628906 408.4154052734375 98.81893920898438 C 400.4378356933594 87.01055908203125 391.276123046875 75.906494140625 381.1847839355469 65.81515502929688 C 371.0934448242188 55.72384643554688 359.9893798828125 46.56216430664062 348.1810607910156 38.58462524414062 C 336.2595520019531 30.53060913085938 323.5150451660156 23.61309814453125 310.301513671875 18.02423095703125 C 296.8437194824219 12.33212280273438 282.7604370117188 7.96038818359375 268.4427795410156 5.030548095703125 C 253.7515563964844 2.0242919921875 238.630615234375 0.5 223.5 0.5 M 223.5 0 C 346.9356079101562 0 447 100.0643310546875 447 223.5 C 447 346.9356079101562 346.9356079101562 447 223.5 447 C 100.0643310546875 447 0 346.9356079101562 0 223.5 C 0 100.0643310546875 100.0643310546875 0 223.5 0 Z" stroke="none" fill="#707070"/>
    </g>
    <g id="Path_894620" data-name="Path 894620" transform="translate(629.5 4588)" fill="#ffe7ba">
      <path d="M 175.5 350.75 C 163.6093597412109 350.75 151.7262268066406 349.5520935058594 140.1807708740234 347.1895446777344 C 128.9288177490234 344.8870544433594 117.8610458374023 341.451416015625 107.2848663330078 336.9780883789062 C 96.900634765625 332.5859069824219 86.88504791259766 327.1496276855469 77.51622772216797 320.8201904296875 C 68.23641204833984 314.5508728027344 59.51004409790039 307.3509521484375 51.57954406738281 299.4204406738281 C 43.64904403686523 291.4899597167969 36.44913482666016 282.7635803222656 30.17981910705566 273.4837646484375 C 23.85036277770996 264.1149597167969 18.41409111022949 254.099365234375 14.0219087600708 243.7151336669922 C 9.548590660095215 233.1389617919922 6.112954616546631 222.0711822509766 3.810454607009888 210.8192291259766 C 1.447909116744995 199.2737731933594 0.25 187.3906402587891 0.25 175.5 C 0.25 163.6093597412109 1.447909116744995 151.7262268066406 3.810454607009888 140.1807708740234 C 6.112954616546631 128.9288177490234 9.548590660095215 117.8610458374023 14.0219087600708 107.2848663330078 C 18.41409111022949 96.900634765625 23.85036277770996 86.88504791259766 30.17981910705566 77.51622772216797 C 36.44913482666016 68.23641204833984 43.64904403686523 59.51004409790039 51.57954406738281 51.57954406738281 C 59.51004409790039 43.64904403686523 68.23641204833984 36.44913482666016 77.51622772216797 30.17981910705566 C 86.88504791259766 23.85036277770996 96.900634765625 18.41409111022949 107.2848663330078 14.0219087600708 C 117.8610458374023 9.548590660095215 128.9288177490234 6.112954616546631 140.1807708740234 3.810454607009888 C 151.7262268066406 1.447909116744995 163.6093597412109 0.25 175.5 0.25 C 187.3906402587891 0.25 199.2737731933594 1.447909116744995 210.8192291259766 3.810454607009888 C 222.0711822509766 6.112954616546631 233.1389617919922 9.548590660095215 243.7151336669922 14.0219087600708 C 254.099365234375 18.41409111022949 264.1149597167969 23.85036277770996 273.4837646484375 30.17981910705566 C 282.7635803222656 36.44913482666016 291.4899597167969 43.64904403686523 299.4204406738281 51.57954406738281 C 307.3509521484375 59.51004409790039 314.5508728027344 68.23641204833984 320.8201904296875 77.51622772216797 C 327.1496276855469 86.88504791259766 332.5859069824219 96.900634765625 336.9780883789062 107.2848663330078 C 341.451416015625 117.8610458374023 344.8870544433594 128.9288177490234 347.1895446777344 140.1807708740234 C 349.5520935058594 151.7262268066406 350.75 163.6093597412109 350.75 175.5 C 350.75 187.3906402587891 349.5520935058594 199.2737731933594 347.1895446777344 210.8192291259766 C 344.8870544433594 222.0711822509766 341.451416015625 233.1389617919922 336.9780883789062 243.7151336669922 C 332.5859069824219 254.099365234375 327.1496276855469 264.1149597167969 320.8201904296875 273.4837646484375 C 314.5508728027344 282.7635803222656 307.3509521484375 291.4899597167969 299.4204406738281 299.4204406738281 C 291.4899597167969 307.3509521484375 282.7635803222656 314.5508728027344 273.4837646484375 320.8201904296875 C 264.1149597167969 327.1496276855469 254.099365234375 332.5859069824219 243.7151336669922 336.9780883789062 C 233.1389617919922 341.451416015625 222.0711822509766 344.8870544433594 210.8192291259766 347.1895446777344 C 199.2737731933594 349.5520935058594 187.3906402587891 350.75 175.5 350.75 Z" stroke="none"/>
      <path d="M 175.5 0.5 C 163.6261291503906 0.5 151.7599029541016 1.69622802734375 140.2308654785156 4.055419921875 C 128.9950866699219 6.35455322265625 117.9432220458984 9.7852783203125 107.3822784423828 14.25216674804688 C 97.01290893554688 18.63803100585938 87.0115966796875 24.06655883789062 77.65618896484375 30.386962890625 C 68.38955688476562 36.64739990234375 59.675537109375 43.83709716796875 51.75631713867188 51.75631713867188 C 43.83709716796875 59.675537109375 36.64739990234375 68.38955688476562 30.386962890625 77.65618896484375 C 24.06655883789062 87.0115966796875 18.63803100585938 97.01290893554688 14.25216674804688 107.3822784423828 C 9.7852783203125 117.9432220458984 6.35455322265625 128.9950866699219 4.055419921875 140.2308654785156 C 1.69622802734375 151.7599029541016 0.5 163.6261291503906 0.5 175.5 C 0.5 187.3738708496094 1.69622802734375 199.2400970458984 4.055419921875 210.7691345214844 C 6.35455322265625 222.0049133300781 9.7852783203125 233.0567626953125 14.25216674804688 243.6177368164062 C 18.63803100585938 253.9870910644531 24.06655883789062 263.9884033203125 30.386962890625 273.3438110351562 C 36.64739990234375 282.6104431152344 43.83709716796875 291.324462890625 51.75631713867188 299.2436828613281 C 59.675537109375 307.1629028320312 68.38955688476562 314.3526000976562 77.65618896484375 320.613037109375 C 87.0115966796875 326.9334411621094 97.01290893554688 332.3619384765625 107.3822784423828 336.747802734375 C 117.9432220458984 341.2147216796875 128.9950866699219 344.6454467773438 140.2308654785156 346.944580078125 C 151.7599029541016 349.3037719726562 163.6261291503906 350.5 175.5 350.5 C 187.3738708496094 350.5 199.2400970458984 349.3037719726562 210.7691345214844 346.944580078125 C 222.0049133300781 344.6454467773438 233.0567626953125 341.2147216796875 243.6177368164062 336.747802734375 C 253.9870910644531 332.3619384765625 263.9884033203125 326.9334411621094 273.3438110351562 320.613037109375 C 282.6104431152344 314.3526000976562 291.324462890625 307.1629028320312 299.2436828613281 299.2436828613281 C 307.1629028320312 291.324462890625 314.3526000976562 282.6104431152344 320.613037109375 273.3438110351562 C 326.9334411621094 263.9884033203125 332.3619384765625 253.9870910644531 336.747802734375 243.6177368164062 C 341.2147216796875 233.0567626953125 344.6454467773438 222.0049133300781 346.944580078125 210.7691345214844 C 349.3037719726562 199.2400970458984 350.5 187.3738708496094 350.5 175.5 C 350.5 163.6261291503906 349.3037719726562 151.7599029541016 346.944580078125 140.2308654785156 C 344.6454467773438 128.9950866699219 341.2147216796875 117.9432220458984 336.747802734375 107.3822784423828 C 332.3619384765625 97.01290893554688 326.9334411621094 87.0115966796875 320.613037109375 77.65618896484375 C 314.3526000976562 68.38955688476562 307.1629028320312 59.675537109375 299.2436828613281 51.75631713867188 C 291.324462890625 43.83709716796875 282.6104431152344 36.64739990234375 273.3438110351562 30.386962890625 C 263.9884033203125 24.06655883789062 253.9870910644531 18.63803100585938 243.6177368164062 14.25216674804688 C 233.0567626953125 9.7852783203125 222.0049133300781 6.35455322265625 210.7691345214844 4.055419921875 C 199.2400970458984 1.69622802734375 187.3738708496094 0.5 175.5 0.5 M 175.5 0 C 272.4259643554688 0 351 78.57403564453125 351 175.5 C 351 272.4259643554688 272.4259643554688 351 175.5 351 C 78.57403564453125 351 0 272.4259643554688 0 175.5 C 0 78.57403564453125 78.57403564453125 0 175.5 0 Z" stroke="none" fill="#707070"/>
    </g>
    <g id="Path_894621" data-name="Path 894621" transform="translate(683.5 4642)" fill="#ffce73">
      <path d="M 121.5 242.75 C 113.2731857299805 242.75 105.0515899658203 241.9211883544922 97.06362152099609 240.28662109375 C 89.27881622314453 238.6936187744141 81.62140655517578 236.3166198730469 74.30409240722656 233.2216949462891 C 67.11959075927734 230.1828765869141 60.19012451171875 226.4216918945312 53.70815658569336 222.0425567626953 C 47.28768920898438 217.7049713134766 41.25018692016602 212.7235565185547 35.76331329345703 207.2366943359375 C 30.27643775939941 201.7498168945312 25.29503059387207 195.7123107910156 20.95743751525879 189.2918395996094 C 16.57831192016602 182.8098754882812 12.81712532043457 175.8804016113281 9.778312683105469 168.6959075927734 C 6.683374881744385 161.3786010742188 4.306375026702881 153.72119140625 2.713375091552734 145.9363708496094 C 1.078812479972839 137.9484100341797 0.25 129.726806640625 0.25 121.5 C 0.25 113.2731857299805 1.078812479972839 105.0515899658203 2.713375091552734 97.06362152099609 C 4.306375026702881 89.27881622314453 6.683374881744385 81.62140655517578 9.778312683105469 74.30409240722656 C 12.81712532043457 67.11959075927734 16.57831192016602 60.19012451171875 20.95743751525879 53.70815658569336 C 25.29503059387207 47.28768920898438 30.27643775939941 41.25018692016602 35.76331329345703 35.76331329345703 C 41.25018692016602 30.27643775939941 47.28768920898438 25.29503059387207 53.70815658569336 20.95743751525879 C 60.19012451171875 16.57831192016602 67.11959075927734 12.81712532043457 74.30409240722656 9.778312683105469 C 81.62140655517578 6.683374881744385 89.27881622314453 4.306375026702881 97.06362152099609 2.713375091552734 C 105.0515899658203 1.078812479972839 113.2731857299805 0.25 121.5 0.25 C 129.726806640625 0.25 137.9484100341797 1.078812479972839 145.9363708496094 2.713375091552734 C 153.72119140625 4.306375026702881 161.3786010742188 6.683374881744385 168.6959075927734 9.778312683105469 C 175.8804016113281 12.81712532043457 182.8098754882812 16.57831192016602 189.2918395996094 20.95743751525879 C 195.7123107910156 25.29503059387207 201.7498168945312 30.27643775939941 207.2366943359375 35.76331329345703 C 212.7235565185547 41.25018692016602 217.7049713134766 47.28768920898438 222.0425567626953 53.70815658569336 C 226.4216918945312 60.19012451171875 230.1828765869141 67.11959075927734 233.2216949462891 74.30409240722656 C 236.3166198730469 81.62140655517578 238.6936187744141 89.27881622314453 240.28662109375 97.06362152099609 C 241.9211883544922 105.0515899658203 242.75 113.2731857299805 242.75 121.5 C 242.75 129.726806640625 241.9211883544922 137.9484100341797 240.28662109375 145.9363708496094 C 238.6936187744141 153.72119140625 236.3166198730469 161.3786010742188 233.2216949462891 168.6959075927734 C 230.1828765869141 175.8804016113281 226.4216918945312 182.8098754882812 222.0425567626953 189.2918395996094 C 217.7049713134766 195.7123107910156 212.7235565185547 201.7498168945312 207.2366943359375 207.2366943359375 C 201.7498168945312 212.7235565185547 195.7123107910156 217.7049713134766 189.2918395996094 222.0425567626953 C 182.8098754882812 226.4216918945312 175.8804016113281 230.1828765869141 168.6959075927734 233.2216949462891 C 161.3786010742188 236.3166198730469 153.72119140625 238.6936187744141 145.9363708496094 240.28662109375 C 137.9484100341797 241.9211883544922 129.726806640625 242.75 121.5 242.75 Z" stroke="none"/>
      <path d="M 121.5 0.5 C 113.2899627685547 0.5 105.0852508544922 1.32708740234375 97.11375427246094 2.95831298828125 C 89.3450927734375 4.548004150390625 81.70359802246094 6.920059204101562 74.40150451660156 10.00856018066406 C 67.23184204101562 13.04106140136719 60.31668090820312 16.79449462890625 53.84809875488281 21.16459655761719 C 47.44084167480469 25.4932861328125 41.41572570800781 30.46446228027344 35.94009399414062 35.94009399414062 C 30.46446228027344 41.41572570800781 25.4932861328125 47.44084167480469 21.16459655761719 53.84809875488281 C 16.79449462890625 60.31668090820312 13.04106140136719 67.23184204101562 10.00856018066406 74.40150451660156 C 6.920059204101562 81.70359802246094 4.548004150390625 89.3450927734375 2.95831298828125 97.11375427246094 C 1.32708740234375 105.0852508544922 0.5 113.2899627685547 0.5 121.5 C 0.5 129.7100219726562 1.32708740234375 137.9147491455078 2.95831298828125 145.8862609863281 C 4.548004150390625 153.6549072265625 6.920059204101562 161.2964172363281 10.00856018066406 168.5985107421875 C 13.04106140136719 175.7681579589844 16.79449462890625 182.6833190917969 21.16459655761719 189.1519012451172 C 25.4932861328125 195.5591583251953 30.46446228027344 201.5842895507812 35.94009399414062 207.0599060058594 C 41.41572570800781 212.5355377197266 47.44084167480469 217.5067138671875 53.84809875488281 221.8354034423828 C 60.31668090820312 226.2055053710938 67.23184204101562 229.9589385986328 74.40150451660156 232.9914398193359 C 81.70359802246094 236.0799407958984 89.3450927734375 238.4519958496094 97.11375427246094 240.0416870117188 C 105.0852508544922 241.6729125976562 113.2899627685547 242.5 121.5 242.5 C 129.7100219726562 242.5 137.9147491455078 241.6729125976562 145.8862609863281 240.0416870117188 C 153.6549072265625 238.4519958496094 161.2964172363281 236.0799407958984 168.5985107421875 232.9914398193359 C 175.7681579589844 229.9589385986328 182.6833190917969 226.2055053710938 189.1519012451172 221.8354034423828 C 195.5591583251953 217.5067138671875 201.5842895507812 212.5355377197266 207.0599060058594 207.0599060058594 C 212.5355377197266 201.5842895507812 217.5067138671875 195.5591583251953 221.8354034423828 189.1519012451172 C 226.2055053710938 182.6833190917969 229.9589385986328 175.7681579589844 232.9914398193359 168.5985107421875 C 236.0799407958984 161.2964172363281 238.4519958496094 153.6549072265625 240.0416870117188 145.8862609863281 C 241.6729125976562 137.9147491455078 242.5 129.7100219726562 242.5 121.5 C 242.5 113.2899627685547 241.6729125976562 105.0852508544922 240.0416870117188 97.11375427246094 C 238.4519958496094 89.3450927734375 236.0799407958984 81.70359802246094 232.9914398193359 74.40150451660156 C 229.9589385986328 67.23184204101562 226.2055053710938 60.31668090820312 221.8354034423828 53.84809875488281 C 217.5067138671875 47.44084167480469 212.5355377197266 41.41572570800781 207.0599060058594 35.94009399414062 C 201.5842895507812 30.46446228027344 195.5591583251953 25.4932861328125 189.1519012451172 21.16459655761719 C 182.6833190917969 16.79449462890625 175.7681579589844 13.04106140136719 168.5985107421875 10.00856018066406 C 161.2964172363281 6.920059204101562 153.6549072265625 4.548004150390625 145.8862609863281 2.95831298828125 C 137.9147491455078 1.32708740234375 129.7100219726562 0.5 121.5 0.5 M 121.5 0 C 188.6026000976562 0 243 54.39739990234375 243 121.5 C 243 188.6026000976562 188.6026000976562 243 121.5 243 C 54.39739990234375 243 0 188.6026000976562 0 121.5 C 0 54.39739990234375 54.39739990234375 0 121.5 0 Z" stroke="none" fill="#707070"/>
    </g>
    <g id="Group_1102559" data-name="Group 1102559" transform="translate(737.479 4695.979)">
      <circle id="Ellipse_11589" data-name="Ellipse 11589" cx="50" cy="50" r="50" transform="translate(18.021 18.021)" fill="#f8ab1c"/>
      <text id="Tema_y_objetivo" data-name="Tema y objetivo" transform="translate(35.521 46.522)" fill="#12263f" font-size="16" font-family="Roboto-Medium, Roboto" font-weight="500"><tspan x="-25.977" y="15">Tema y </tspan><tspan x="-28.512" y="39">objetivo</tspan></text>
    </g>
    <path id="Path_894622" data-name="Path 894622" d="M16.063,12.352H11.656L10.734,15H8.68l4.3-11.375H14.75L19.055,15H16.992Zm-3.852-1.594h3.3L13.859,6.039Zm11.422,2.883a1.716,1.716,0,0,0,1.18-.414,1.415,1.415,0,0,0,.5-1.023H27.1a2.789,2.789,0,0,1-.492,1.473,3.228,3.228,0,0,1-1.25,1.082,3.725,3.725,0,0,1-1.7.4,3.6,3.6,0,0,1-2.812-1.148A4.555,4.555,0,0,1,19.8,10.836v-.2a4.479,4.479,0,0,1,1.031-3.09,3.571,3.571,0,0,1,2.813-1.16,3.473,3.473,0,0,1,2.457.879,3.148,3.148,0,0,1,1,2.309H25.313a1.738,1.738,0,0,0-.5-1.2,1.6,1.6,0,0,0-1.184-.469,1.671,1.671,0,0,0-1.422.668,3.408,3.408,0,0,0-.508,2.027v.3a3.465,3.465,0,0,0,.5,2.051A1.669,1.669,0,0,0,23.633,13.641Zm7.281-9.148V6.547h1.492V7.953H30.914v4.719a1.039,1.039,0,0,0,.191.7.888.888,0,0,0,.684.215,2.924,2.924,0,0,0,.664-.078v1.469a4.676,4.676,0,0,1-1.25.18q-2.188,0-2.187-2.414V7.953H27.625V6.547h1.391V4.492Zm2.352,6.2a4.984,4.984,0,0,1,.492-2.238,3.6,3.6,0,0,1,1.383-1.531,3.9,3.9,0,0,1,2.047-.535,3.692,3.692,0,0,1,2.777,1.1,4.333,4.333,0,0,1,1.152,2.922l.008.445a5.029,5.029,0,0,1-.48,2.234,3.551,3.551,0,0,1-1.375,1.523,3.925,3.925,0,0,1-2.066.539,3.667,3.667,0,0,1-2.863-1.191,4.563,4.563,0,0,1-1.074-3.176Zm1.9.164A3.406,3.406,0,0,0,35.7,12.9a1.752,1.752,0,0,0,1.5.738,1.733,1.733,0,0,0,1.5-.75,3.762,3.762,0,0,0,.535-2.2,3.362,3.362,0,0,0-.551-2.031,1.856,1.856,0,0,0-2.973-.012A3.691,3.691,0,0,0,35.164,10.859ZM47.156,8.281a4.7,4.7,0,0,0-.773-.062,1.741,1.741,0,0,0-1.758,1V15h-1.9V6.547h1.813l.047.945a2.139,2.139,0,0,1,1.906-1.1,1.777,1.777,0,0,1,.672.109Zm4.773,6.875A3.928,3.928,0,0,1,49,14.02a4.124,4.124,0,0,1-1.121-3.027v-.234A5.072,5.072,0,0,1,48.371,8.5a3.716,3.716,0,0,1,1.371-1.551,3.625,3.625,0,0,1,1.969-.555,3.318,3.318,0,0,1,2.668,1.1,4.658,4.658,0,0,1,.941,3.117v.766H49.8a2.539,2.539,0,0,0,.7,1.656,2.1,2.1,0,0,0,1.543.609,2.571,2.571,0,0,0,2.125-1.055l1.023.977a3.418,3.418,0,0,1-1.355,1.176A4.244,4.244,0,0,1,51.93,15.156ZM51.7,7.914a1.6,1.6,0,0,0-1.262.547,2.835,2.835,0,0,0-.613,1.523h3.617V9.844A2.307,2.307,0,0,0,52.938,8.4,1.586,1.586,0,0,0,51.7,7.914ZM61.531,12.7a.861.861,0,0,0-.418-.773,4.445,4.445,0,0,0-1.387-.469,7.129,7.129,0,0,1-1.617-.516,2.158,2.158,0,0,1-1.422-1.992,2.25,2.25,0,0,1,.922-1.828,3.644,3.644,0,0,1,2.344-.734,3.792,3.792,0,0,1,2.449.75,2.38,2.38,0,0,1,.934,1.945h-1.9a1.17,1.17,0,0,0-.406-.91,1.557,1.557,0,0,0-1.078-.363,1.682,1.682,0,0,0-1.02.289.911.911,0,0,0-.395.773.769.769,0,0,0,.367.68,5.049,5.049,0,0,0,1.484.488,7.027,7.027,0,0,1,1.754.586,2.484,2.484,0,0,1,.945.816A2.082,2.082,0,0,1,63.4,12.6a2.2,2.2,0,0,1-.945,1.848,4.031,4.031,0,0,1-2.477.707,4.371,4.371,0,0,1-1.852-.375,3.047,3.047,0,0,1-1.266-1.031,2.441,2.441,0,0,1-.453-1.414H58.25a1.338,1.338,0,0,0,.508,1.035A1.973,1.973,0,0,0,60,13.734a1.92,1.92,0,0,0,1.141-.285A.883.883,0,0,0,61.531,12.7Zm10.977.938a1.716,1.716,0,0,0,1.18-.414,1.415,1.415,0,0,0,.5-1.023h1.789a2.789,2.789,0,0,1-.492,1.473,3.228,3.228,0,0,1-1.25,1.082,3.725,3.725,0,0,1-1.7.4,3.6,3.6,0,0,1-2.812-1.148,4.555,4.555,0,0,1-1.039-3.172v-.2a4.479,4.479,0,0,1,1.031-3.09,3.571,3.571,0,0,1,2.813-1.16,3.473,3.473,0,0,1,2.457.879,3.148,3.148,0,0,1,1,2.309H74.188a1.738,1.738,0,0,0-.5-1.2,1.6,1.6,0,0,0-1.184-.469,1.671,1.671,0,0,0-1.422.668,3.408,3.408,0,0,0-.508,2.027v.3a3.465,3.465,0,0,0,.5,2.051A1.669,1.669,0,0,0,72.508,13.641ZM79.43,15h-1.9V3h1.9Zm7.117,0a2.93,2.93,0,0,1-.219-.789,3.193,3.193,0,0,1-4.3.219,2.325,2.325,0,0,1-.8-1.8,2.4,2.4,0,0,1,1-2.074A4.865,4.865,0,0,1,85.1,9.836h1.164V9.281A1.481,1.481,0,0,0,85.9,8.23a1.456,1.456,0,0,0-1.117-.395,1.672,1.672,0,0,0-1.062.324,1,1,0,0,0-.414.824h-1.9a2.107,2.107,0,0,1,.461-1.3,3.071,3.071,0,0,1,1.254-.949,4.4,4.4,0,0,1,1.77-.344,3.547,3.547,0,0,1,2.367.746,2.661,2.661,0,0,1,.906,2.1v3.813a4.321,4.321,0,0,0,.32,1.82V15Zm-2.086-1.367a2.159,2.159,0,0,0,1.059-.273,1.827,1.827,0,0,0,.746-.734V11.031H85.242a2.8,2.8,0,0,0-1.586.367,1.189,1.189,0,0,0-.531,1.039,1.109,1.109,0,0,0,.363.871A1.407,1.407,0,0,0,84.461,13.633Zm8.555-1.039L94.8,6.547h1.961L93.836,15H92.188L89.234,6.547H91.2Zm8.555,2.563a3.928,3.928,0,0,1-2.926-1.137,4.124,4.124,0,0,1-1.121-3.027v-.234A5.072,5.072,0,0,1,98.012,8.5a3.716,3.716,0,0,1,1.371-1.551,3.625,3.625,0,0,1,1.969-.555,3.318,3.318,0,0,1,2.668,1.1,4.658,4.658,0,0,1,.941,3.117v.766H99.438a2.539,2.539,0,0,0,.7,1.656,2.1,2.1,0,0,0,1.543.609,2.571,2.571,0,0,0,2.125-1.055l1.023.977a3.418,3.418,0,0,1-1.355,1.176A4.244,4.244,0,0,1,101.57,15.156Zm-.227-7.242a1.6,1.6,0,0,0-1.262.547,2.835,2.835,0,0,0-.613,1.523h3.617V9.844a2.307,2.307,0,0,0-.508-1.441A1.586,1.586,0,0,0,101.344,7.914Z" transform="translate(753 4820.5)" fill="#12263f"/>
    <path id="Path_894623" data-name="Path 894623" d="M16.574,12.352H12.168L11.246,15H9.191l4.3-11.375h1.773L19.566,15H17.5Zm-3.852-1.594h3.3L14.371,6.039Zm11.422,2.883a1.716,1.716,0,0,0,1.18-.414,1.415,1.415,0,0,0,.5-1.023h1.789a2.789,2.789,0,0,1-.492,1.473,3.228,3.228,0,0,1-1.25,1.082,3.725,3.725,0,0,1-1.7.4,3.6,3.6,0,0,1-2.812-1.148,4.555,4.555,0,0,1-1.039-3.172v-.2a4.479,4.479,0,0,1,1.031-3.09,3.571,3.571,0,0,1,2.813-1.16,3.473,3.473,0,0,1,2.457.879,3.148,3.148,0,0,1,1,2.309H25.824a1.738,1.738,0,0,0-.5-1.2,1.6,1.6,0,0,0-1.184-.469,1.671,1.671,0,0,0-1.422.668,3.408,3.408,0,0,0-.508,2.027v.3a3.465,3.465,0,0,0,.5,2.051A1.669,1.669,0,0,0,24.145,13.641Zm7.281-9.148V6.547h1.492V7.953H31.426v4.719a1.039,1.039,0,0,0,.191.7.888.888,0,0,0,.684.215,2.924,2.924,0,0,0,.664-.078v1.469a4.676,4.676,0,0,1-1.25.18q-2.188,0-2.187-2.414V7.953H28.137V6.547h1.391V4.492Zm2.352,6.2a4.984,4.984,0,0,1,.492-2.238,3.6,3.6,0,0,1,1.383-1.531A3.9,3.9,0,0,1,37.7,6.391a3.692,3.692,0,0,1,2.777,1.1,4.333,4.333,0,0,1,1.152,2.922l.008.445a5.029,5.029,0,0,1-.48,2.234,3.551,3.551,0,0,1-1.375,1.523,3.925,3.925,0,0,1-2.066.539,3.667,3.667,0,0,1-2.863-1.191,4.563,4.563,0,0,1-1.074-3.176Zm1.9.164a3.406,3.406,0,0,0,.539,2.043,1.752,1.752,0,0,0,1.5.738,1.733,1.733,0,0,0,1.5-.75,3.762,3.762,0,0,0,.535-2.2A3.362,3.362,0,0,0,39.2,8.664a1.856,1.856,0,0,0-2.973-.012A3.691,3.691,0,0,0,35.676,10.859ZM47.668,8.281a4.7,4.7,0,0,0-.773-.062,1.741,1.741,0,0,0-1.758,1V15h-1.9V6.547h1.813l.047.945A2.139,2.139,0,0,1,47,6.391a1.777,1.777,0,0,1,.672.109Zm4.773,6.875a3.928,3.928,0,0,1-2.926-1.137,4.124,4.124,0,0,1-1.121-3.027v-.234A5.072,5.072,0,0,1,48.883,8.5a3.716,3.716,0,0,1,1.371-1.551,3.625,3.625,0,0,1,1.969-.555,3.318,3.318,0,0,1,2.668,1.1,4.658,4.658,0,0,1,.941,3.117v.766H50.309a2.539,2.539,0,0,0,.7,1.656,2.1,2.1,0,0,0,1.543.609,2.571,2.571,0,0,0,2.125-1.055l1.023.977a3.418,3.418,0,0,1-1.355,1.176A4.244,4.244,0,0,1,52.441,15.156Zm-.227-7.242a1.6,1.6,0,0,0-1.262.547,2.835,2.835,0,0,0-.613,1.523h3.617V9.844A2.307,2.307,0,0,0,53.449,8.4,1.586,1.586,0,0,0,52.215,7.914ZM62.043,12.7a.861.861,0,0,0-.418-.773,4.445,4.445,0,0,0-1.387-.469,7.129,7.129,0,0,1-1.617-.516A2.158,2.158,0,0,1,57.2,8.953a2.25,2.25,0,0,1,.922-1.828,3.644,3.644,0,0,1,2.344-.734,3.792,3.792,0,0,1,2.449.75,2.38,2.38,0,0,1,.934,1.945h-1.9a1.17,1.17,0,0,0-.406-.91,1.557,1.557,0,0,0-1.078-.363,1.682,1.682,0,0,0-1.02.289.911.911,0,0,0-.395.773.769.769,0,0,0,.367.68,5.049,5.049,0,0,0,1.484.488,7.027,7.027,0,0,1,1.754.586,2.484,2.484,0,0,1,.945.816A2.082,2.082,0,0,1,63.91,12.6a2.2,2.2,0,0,1-.945,1.848,4.031,4.031,0,0,1-2.477.707,4.371,4.371,0,0,1-1.852-.375,3.047,3.047,0,0,1-1.266-1.031,2.441,2.441,0,0,1-.453-1.414h1.844a1.338,1.338,0,0,0,.508,1.035,1.973,1.973,0,0,0,1.242.363,1.92,1.92,0,0,0,1.141-.285A.883.883,0,0,0,62.043,12.7Zm14.906-1.844a5.033,5.033,0,0,1-.891,3.129,3.094,3.094,0,0,1-4.617.254V18.25h-1.9V6.547h1.75l.078.859a2.788,2.788,0,0,1,2.273-1.016A2.881,2.881,0,0,1,76.07,7.543a5.167,5.167,0,0,1,.879,3.2ZM75.059,10.7a3.526,3.526,0,0,0-.5-2.008,1.638,1.638,0,0,0-1.441-.742,1.747,1.747,0,0,0-1.672.961v3.75a1.763,1.763,0,0,0,1.688.984,1.636,1.636,0,0,0,1.418-.73A3.881,3.881,0,0,0,75.059,10.7ZM82.98,8.281a4.7,4.7,0,0,0-.773-.062,1.741,1.741,0,0,0-1.758,1V15h-1.9V6.547h1.813l.047.945a2.139,2.139,0,0,1,1.906-1.1,1.777,1.777,0,0,1,.672.109ZM86.2,15H84.3V6.547h1.9ZM84.184,4.352a1.008,1.008,0,0,1,.277-.727,1.048,1.048,0,0,1,.793-.289,1.061,1.061,0,0,1,.8.289,1,1,0,0,1,.281.727.977.977,0,0,1-.281.715,1.069,1.069,0,0,1-.8.285,1.056,1.056,0,0,1-.793-.285A.984.984,0,0,1,84.184,4.352Zm5.867,2.2.055.883a3.042,3.042,0,0,1,2.438-1.039,2.337,2.337,0,0,1,2.32,1.3,3,3,0,0,1,2.594-1.3,2.636,2.636,0,0,1,2.082.773,3.405,3.405,0,0,1,.7,2.281V15h-1.9V9.5a1.681,1.681,0,0,0-.352-1.18,1.539,1.539,0,0,0-1.164-.375,1.581,1.581,0,0,0-1.059.348,1.833,1.833,0,0,0-.574.91L95.2,15H93.3V9.438a1.354,1.354,0,0,0-1.523-1.492,1.671,1.671,0,0,0-1.617.93V15h-1.9V6.547ZM107.238,15a2.93,2.93,0,0,1-.219-.789,3.193,3.193,0,0,1-4.3.219,2.325,2.325,0,0,1-.8-1.8,2.4,2.4,0,0,1,1-2.074,4.865,4.865,0,0,1,2.871-.723h1.164V9.281a1.481,1.481,0,0,0-.367-1.051,1.456,1.456,0,0,0-1.117-.395,1.672,1.672,0,0,0-1.062.324,1,1,0,0,0-.414.824h-1.9a2.107,2.107,0,0,1,.461-1.3,3.071,3.071,0,0,1,1.254-.949,4.4,4.4,0,0,1,1.77-.344,3.547,3.547,0,0,1,2.367.746,2.661,2.661,0,0,1,.906,2.1v3.813a4.321,4.321,0,0,0,.32,1.82V15Zm-2.086-1.367a2.159,2.159,0,0,0,1.059-.273,1.827,1.827,0,0,0,.746-.734V11.031h-1.023a2.8,2.8,0,0,0-1.586.367,1.189,1.189,0,0,0-.531,1.039,1.109,1.109,0,0,0,.363.871A1.407,1.407,0,0,0,105.152,13.633ZM115.27,8.281a4.7,4.7,0,0,0-.773-.062,1.741,1.741,0,0,0-1.758,1V15h-1.9V6.547h1.813l.047.945a2.139,2.139,0,0,1,1.906-1.1,1.777,1.777,0,0,1,.672.109ZM118.488,15h-1.9V6.547h1.9ZM116.473,4.352a1.008,1.008,0,0,1,.277-.727,1.048,1.048,0,0,1,.793-.289,1.061,1.061,0,0,1,.8.289,1,1,0,0,1,.281.727.977.977,0,0,1-.281.715,1.069,1.069,0,0,1-.8.285,1.056,1.056,0,0,1-.793-.285A.984.984,0,0,1,116.473,4.352ZM120.2,10.7a4.984,4.984,0,0,1,.492-2.238,3.6,3.6,0,0,1,1.383-1.531,3.9,3.9,0,0,1,2.047-.535,3.692,3.692,0,0,1,2.777,1.1,4.333,4.333,0,0,1,1.152,2.922l.008.445a5.029,5.029,0,0,1-.48,2.234,3.551,3.551,0,0,1-1.375,1.523,3.925,3.925,0,0,1-2.066.539,3.667,3.667,0,0,1-2.863-1.191,4.563,4.563,0,0,1-1.074-3.176Zm1.9.164a3.406,3.406,0,0,0,.539,2.043,1.752,1.752,0,0,0,1.5.738,1.733,1.733,0,0,0,1.5-.75,3.762,3.762,0,0,0,.535-2.2,3.362,3.362,0,0,0-.551-2.031,1.856,1.856,0,0,0-2.973-.012A3.691,3.691,0,0,0,122.1,10.859ZM134.4,12.7a.861.861,0,0,0-.418-.773,4.445,4.445,0,0,0-1.387-.469,7.129,7.129,0,0,1-1.617-.516,2.158,2.158,0,0,1-1.422-1.992,2.25,2.25,0,0,1,.922-1.828,3.644,3.644,0,0,1,2.344-.734,3.792,3.792,0,0,1,2.449.75,2.38,2.38,0,0,1,.934,1.945h-1.9a1.17,1.17,0,0,0-.406-.91,1.557,1.557,0,0,0-1.078-.363,1.682,1.682,0,0,0-1.02.289.911.911,0,0,0-.395.773.769.769,0,0,0,.367.68,5.049,5.049,0,0,0,1.484.488,7.027,7.027,0,0,1,1.754.586,2.484,2.484,0,0,1,.945.816,2.082,2.082,0,0,1,.309,1.156,2.2,2.2,0,0,1-.945,1.848,4.031,4.031,0,0,1-2.477.707A4.371,4.371,0,0,1,131,14.781a3.047,3.047,0,0,1-1.266-1.031,2.441,2.441,0,0,1-.453-1.414h1.844a1.338,1.338,0,0,0,.508,1.035,1.973,1.973,0,0,0,1.242.363,1.92,1.92,0,0,0,1.141-.285A.883.883,0,0,0,134.4,12.7Z" transform="translate(737 4903.265)" fill="#12263f"/>
    <path id="Path_894624" data-name="Path 894624" d="M35.125,12.352H30.719L29.8,15H27.742l4.3-11.375h1.773L38.117,15H36.055Zm-3.852-1.594h3.3L32.922,6.039ZM42.7,13.641a1.716,1.716,0,0,0,1.18-.414,1.415,1.415,0,0,0,.5-1.023h1.789a2.789,2.789,0,0,1-.492,1.473,3.228,3.228,0,0,1-1.25,1.082,3.725,3.725,0,0,1-1.7.4,3.6,3.6,0,0,1-2.812-1.148,4.555,4.555,0,0,1-1.039-3.172v-.2A4.479,4.479,0,0,1,39.9,7.551a3.571,3.571,0,0,1,2.813-1.16,3.473,3.473,0,0,1,2.457.879,3.148,3.148,0,0,1,1,2.309H44.375a1.738,1.738,0,0,0-.5-1.2A1.6,1.6,0,0,0,42.7,7.914a1.671,1.671,0,0,0-1.422.668,3.408,3.408,0,0,0-.508,2.027v.3a3.465,3.465,0,0,0,.5,2.051A1.669,1.669,0,0,0,42.7,13.641Zm7.281-9.148V6.547h1.492V7.953H49.977v4.719a1.039,1.039,0,0,0,.191.7.888.888,0,0,0,.684.215,2.924,2.924,0,0,0,.664-.078v1.469a4.676,4.676,0,0,1-1.25.18q-2.187,0-2.187-2.414V7.953H46.688V6.547h1.391V4.492Zm2.352,6.2a4.984,4.984,0,0,1,.492-2.238A3.6,3.6,0,0,1,54.2,6.926a3.9,3.9,0,0,1,2.047-.535,3.692,3.692,0,0,1,2.777,1.1,4.333,4.333,0,0,1,1.152,2.922l.008.445a5.029,5.029,0,0,1-.48,2.234,3.551,3.551,0,0,1-1.375,1.523,3.925,3.925,0,0,1-2.066.539A3.667,3.667,0,0,1,53.4,13.965a4.563,4.563,0,0,1-1.074-3.176Zm1.9.164a3.406,3.406,0,0,0,.539,2.043,1.752,1.752,0,0,0,1.5.738,1.733,1.733,0,0,0,1.5-.75,3.762,3.762,0,0,0,.535-2.2,3.362,3.362,0,0,0-.551-2.031,1.856,1.856,0,0,0-2.973-.012A3.691,3.691,0,0,0,54.227,10.859ZM66.219,8.281a4.7,4.7,0,0,0-.773-.062,1.741,1.741,0,0,0-1.758,1V15h-1.9V6.547H63.6l.047.945a2.139,2.139,0,0,1,1.906-1.1,1.777,1.777,0,0,1,.672.109Zm4.773,6.875a3.928,3.928,0,0,1-2.926-1.137,4.124,4.124,0,0,1-1.121-3.027v-.234A5.072,5.072,0,0,1,67.434,8.5,3.716,3.716,0,0,1,68.8,6.945a3.625,3.625,0,0,1,1.969-.555,3.318,3.318,0,0,1,2.668,1.1,4.658,4.658,0,0,1,.941,3.117v.766H68.859a2.539,2.539,0,0,0,.7,1.656,2.1,2.1,0,0,0,1.543.609,2.571,2.571,0,0,0,2.125-1.055l1.023.977a3.418,3.418,0,0,1-1.355,1.176A4.244,4.244,0,0,1,70.992,15.156Zm-.227-7.242a1.6,1.6,0,0,0-1.262.547,2.835,2.835,0,0,0-.613,1.523h3.617V9.844A2.307,2.307,0,0,0,72,8.4,1.586,1.586,0,0,0,70.766,7.914ZM80.594,12.7a.861.861,0,0,0-.418-.773,4.445,4.445,0,0,0-1.387-.469,7.129,7.129,0,0,1-1.617-.516A2.158,2.158,0,0,1,75.75,8.953a2.25,2.25,0,0,1,.922-1.828,3.644,3.644,0,0,1,2.344-.734,3.792,3.792,0,0,1,2.449.75A2.38,2.38,0,0,1,82.4,9.086H80.5a1.17,1.17,0,0,0-.406-.91,1.557,1.557,0,0,0-1.078-.363A1.682,1.682,0,0,0,78,8.1a.911.911,0,0,0-.395.773.769.769,0,0,0,.367.68,5.049,5.049,0,0,0,1.484.488,7.027,7.027,0,0,1,1.754.586,2.484,2.484,0,0,1,.945.816,2.082,2.082,0,0,1,.309,1.156,2.2,2.2,0,0,1-.945,1.848,4.031,4.031,0,0,1-2.477.707,4.371,4.371,0,0,1-1.852-.375,3.047,3.047,0,0,1-1.266-1.031,2.441,2.441,0,0,1-.453-1.414h1.844a1.338,1.338,0,0,0,.508,1.035,1.973,1.973,0,0,0,1.242.363,1.92,1.92,0,0,0,1.141-.285A.883.883,0,0,0,80.594,12.7Zm12.242,0a.861.861,0,0,0-.418-.773,4.445,4.445,0,0,0-1.387-.469,7.129,7.129,0,0,1-1.617-.516,2.158,2.158,0,0,1-1.422-1.992,2.25,2.25,0,0,1,.922-1.828,3.644,3.644,0,0,1,2.344-.734,3.792,3.792,0,0,1,2.449.75,2.38,2.38,0,0,1,.934,1.945h-1.9a1.17,1.17,0,0,0-.406-.91,1.557,1.557,0,0,0-1.078-.363,1.682,1.682,0,0,0-1.02.289.911.911,0,0,0-.395.773.769.769,0,0,0,.367.68,5.049,5.049,0,0,0,1.484.488,7.027,7.027,0,0,1,1.754.586,2.484,2.484,0,0,1,.945.816A2.082,2.082,0,0,1,94.7,12.6a2.2,2.2,0,0,1-.945,1.848,4.031,4.031,0,0,1-2.477.707,4.371,4.371,0,0,1-1.852-.375,3.047,3.047,0,0,1-1.266-1.031,2.441,2.441,0,0,1-.453-1.414h1.844a1.338,1.338,0,0,0,.508,1.035,1.973,1.973,0,0,0,1.242.363,1.92,1.92,0,0,0,1.141-.285A.883.883,0,0,0,92.836,12.7Zm7.242,2.453a3.928,3.928,0,0,1-2.926-1.137,4.124,4.124,0,0,1-1.121-3.027v-.234A5.072,5.072,0,0,1,96.52,8.5a3.716,3.716,0,0,1,1.371-1.551,3.625,3.625,0,0,1,1.969-.555,3.318,3.318,0,0,1,2.668,1.1,4.658,4.658,0,0,1,.941,3.117v.766H97.945a2.539,2.539,0,0,0,.7,1.656,2.1,2.1,0,0,0,1.543.609,2.571,2.571,0,0,0,2.125-1.055l1.023.977a3.418,3.418,0,0,1-1.355,1.176A4.244,4.244,0,0,1,100.078,15.156Zm-.227-7.242a1.6,1.6,0,0,0-1.262.547,2.835,2.835,0,0,0-.613,1.523h3.617V9.844a2.307,2.307,0,0,0-.508-1.441A1.586,1.586,0,0,0,99.852,7.914Zm8.563,5.727a1.716,1.716,0,0,0,1.18-.414,1.415,1.415,0,0,0,.5-1.023h1.789a2.789,2.789,0,0,1-.492,1.473,3.228,3.228,0,0,1-1.25,1.082,3.725,3.725,0,0,1-1.7.4,3.6,3.6,0,0,1-2.812-1.148,4.555,4.555,0,0,1-1.039-3.172v-.2a4.479,4.479,0,0,1,1.031-3.09,3.571,3.571,0,0,1,2.813-1.16,3.473,3.473,0,0,1,2.457.879,3.148,3.148,0,0,1,1,2.309h-1.789a1.738,1.738,0,0,0-.5-1.2,1.6,1.6,0,0,0-1.184-.469,1.671,1.671,0,0,0-1.422.668,3.408,3.408,0,0,0-.508,2.027v.3a3.465,3.465,0,0,0,.5,2.051A1.669,1.669,0,0,0,108.414,13.641Zm10.023.531a2.944,2.944,0,0,1-2.375.984,2.624,2.624,0,0,1-2.082-.8,3.423,3.423,0,0,1-.707-2.328V6.547h1.9V12q0,1.609,1.336,1.609a1.876,1.876,0,0,0,1.867-.992V6.547h1.9V15h-1.789Zm5.531-7.625.055.977a3.039,3.039,0,0,1,2.461-1.133q2.641,0,2.688,3.023V15h-1.9V9.523a1.741,1.741,0,0,0-.348-1.191,1.462,1.462,0,0,0-1.137-.387,1.829,1.829,0,0,0-1.711,1.039V15h-1.9V6.547Zm6.781,4.164a5.026,5.026,0,0,1,.906-3.137,2.9,2.9,0,0,1,2.43-1.184,2.759,2.759,0,0,1,2.172.938V3h1.9V15h-1.719l-.094-.875a2.8,2.8,0,0,1-2.273,1.031,2.887,2.887,0,0,1-2.4-1.2A5.21,5.21,0,0,1,130.75,10.711Zm1.9.164a3.519,3.519,0,0,0,.5,2.012,1.61,1.61,0,0,0,1.41.723,1.793,1.793,0,0,0,1.7-1.039V8.961a1.766,1.766,0,0,0-1.687-1.016,1.622,1.622,0,0,0-1.422.73A3.919,3.919,0,0,0,132.648,10.875ZM145.188,15a2.93,2.93,0,0,1-.219-.789,3.193,3.193,0,0,1-4.3.219,2.325,2.325,0,0,1-.8-1.8,2.4,2.4,0,0,1,1-2.074,4.865,4.865,0,0,1,2.871-.723h1.164V9.281a1.481,1.481,0,0,0-.367-1.051,1.456,1.456,0,0,0-1.117-.395,1.672,1.672,0,0,0-1.062.324,1,1,0,0,0-.414.824h-1.9a2.107,2.107,0,0,1,.461-1.3,3.071,3.071,0,0,1,1.254-.949,4.4,4.4,0,0,1,1.77-.344,3.547,3.547,0,0,1,2.367.746,2.661,2.661,0,0,1,.906,2.1v3.813a4.321,4.321,0,0,0,.32,1.82V15ZM143.1,13.633a2.16,2.16,0,0,0,1.059-.273,1.827,1.827,0,0,0,.746-.734V11.031h-1.023a2.8,2.8,0,0,0-1.586.367,1.189,1.189,0,0,0-.531,1.039,1.109,1.109,0,0,0,.363.871A1.407,1.407,0,0,0,143.1,13.633Zm10.117-5.352a4.7,4.7,0,0,0-.773-.062,1.741,1.741,0,0,0-1.758,1V15h-1.9V6.547H150.6l.047.945a2.139,2.139,0,0,1,1.906-1.1,1.777,1.777,0,0,1,.672.109ZM156.438,15h-1.9V6.547h1.9ZM154.422,4.352a1.008,1.008,0,0,1,.277-.727,1.048,1.048,0,0,1,.793-.289,1.061,1.061,0,0,1,.8.289,1,1,0,0,1,.281.727.977.977,0,0,1-.281.715,1.069,1.069,0,0,1-.8.285,1.056,1.056,0,0,1-.793-.285A.984.984,0,0,1,154.422,4.352Zm3.727,6.344a4.984,4.984,0,0,1,.492-2.238,3.6,3.6,0,0,1,1.383-1.531,3.9,3.9,0,0,1,2.047-.535,3.692,3.692,0,0,1,2.777,1.1A4.333,4.333,0,0,1,166,10.414l.008.445a5.029,5.029,0,0,1-.48,2.234,3.551,3.551,0,0,1-1.375,1.523,3.925,3.925,0,0,1-2.066.539,3.667,3.667,0,0,1-2.863-1.191,4.563,4.563,0,0,1-1.074-3.176Zm1.9.164a3.406,3.406,0,0,0,.539,2.043,1.752,1.752,0,0,0,1.5.738,1.733,1.733,0,0,0,1.5-.75,3.762,3.762,0,0,0,.535-2.2,3.362,3.362,0,0,0-.551-2.031,1.856,1.856,0,0,0-2.973-.012A3.691,3.691,0,0,0,160.047,10.859Zm12.3,1.844a.861.861,0,0,0-.418-.773,4.445,4.445,0,0,0-1.387-.469,7.129,7.129,0,0,1-1.617-.516,2.158,2.158,0,0,1-1.422-1.992,2.25,2.25,0,0,1,.922-1.828,3.644,3.644,0,0,1,2.344-.734,3.792,3.792,0,0,1,2.449.75,2.38,2.38,0,0,1,.934,1.945h-1.9a1.17,1.17,0,0,0-.406-.91,1.557,1.557,0,0,0-1.078-.363,1.682,1.682,0,0,0-1.02.289.911.911,0,0,0-.395.773.769.769,0,0,0,.367.68,5.049,5.049,0,0,0,1.484.488,7.027,7.027,0,0,1,1.754.586,2.484,2.484,0,0,1,.945.816,2.082,2.082,0,0,1,.309,1.156,2.2,2.2,0,0,1-.945,1.848,4.031,4.031,0,0,1-2.477.707,4.371,4.371,0,0,1-1.852-.375,3.047,3.047,0,0,1-1.266-1.031,2.441,2.441,0,0,1-.453-1.414h1.844a1.338,1.338,0,0,0,.508,1.035,1.973,1.973,0,0,0,1.242.363,1.92,1.92,0,0,0,1.141-.285A.883.883,0,0,0,172.352,12.7Z" transform="translate(708.5 4949.265)" fill="#12263f"/>
    <path id="Path_894625" data-name="Path 894625" d="M16.051,12.016A1.2,1.2,0,0,0,15.582,11a6.148,6.148,0,0,0-1.687-.75,11.963,11.963,0,0,1-1.93-.777,3.153,3.153,0,0,1-1.937-2.82A2.747,2.747,0,0,1,10.547,5a3.389,3.389,0,0,1,1.492-1.129,5.616,5.616,0,0,1,2.184-.406,5.112,5.112,0,0,1,2.172.441,3.458,3.458,0,0,1,1.48,1.246A3.261,3.261,0,0,1,18.4,6.984H16.059a1.534,1.534,0,0,0-.492-1.215,2.023,2.023,0,0,0-1.383-.434,2.162,2.162,0,0,0-1.336.363,1.146,1.146,0,0,0-.477.957,1.1,1.1,0,0,0,.559.93,6.311,6.311,0,0,0,1.645.7,7.106,7.106,0,0,1,2.914,1.492A2.972,2.972,0,0,1,18.4,12a2.737,2.737,0,0,1-1.117,2.316,4.891,4.891,0,0,1-3.008.84,5.808,5.808,0,0,1-2.391-.48,3.783,3.783,0,0,1-1.645-1.316,3.371,3.371,0,0,1-.566-1.937h2.352q0,1.883,2.25,1.883a2.189,2.189,0,0,0,1.3-.34A1.106,1.106,0,0,0,16.051,12.016Zm3.438-1.32a5.013,5.013,0,0,1,.484-2.242A3.546,3.546,0,0,1,21.367,6.93a4.069,4.069,0,0,1,2.113-.539,3.849,3.849,0,0,1,2.793,1.047,4.2,4.2,0,0,1,1.207,2.844l.016.578A4.418,4.418,0,0,1,26.41,13.98,3.775,3.775,0,0,1,23.5,15.156a3.793,3.793,0,0,1-2.918-1.172,4.5,4.5,0,0,1-1.09-3.187Zm2.258.16A3.16,3.16,0,0,0,22.2,12.7a1.628,1.628,0,0,0,2.578.008,3.457,3.457,0,0,0,.461-2.015,3.128,3.128,0,0,0-.461-1.831,1.5,1.5,0,0,0-1.3-.649,1.474,1.474,0,0,0-1.281.646A3.516,3.516,0,0,0,21.746,10.856ZM32.4,13.336a1.481,1.481,0,0,0,1.016-.344,1.2,1.2,0,0,0,.406-.914h2.117a2.9,2.9,0,0,1-.469,1.574,3.093,3.093,0,0,1-1.262,1.109,3.949,3.949,0,0,1-1.77.395A3.67,3.67,0,0,1,29.582,14a4.56,4.56,0,0,1-1.047-3.184v-.148a4.508,4.508,0,0,1,1.039-3.117,3.627,3.627,0,0,1,2.852-1.164,3.555,3.555,0,0,1,2.543.9,3.2,3.2,0,0,1,.973,2.4H33.824a1.551,1.551,0,0,0-.406-1.072,1.51,1.51,0,0,0-2.223.163,3.333,3.333,0,0,0-.4,1.866v.235a3.375,3.375,0,0,0,.4,1.878A1.377,1.377,0,0,0,32.4,13.336ZM39.613,15H37.348V6.547h2.266Zm-2.4-10.641a1.112,1.112,0,0,1,.34-.836,1.465,1.465,0,0,1,1.848,0,1.105,1.105,0,0,1,.344.836A1.108,1.108,0,0,1,39.4,5.2a1.448,1.448,0,0,1-1.836,0A1.108,1.108,0,0,1,37.215,4.359Zm8.148,10.8a4.15,4.15,0,0,1-3.027-1.141,4.054,4.054,0,0,1-1.168-3.039v-.219A5.106,5.106,0,0,1,41.66,8.48a3.612,3.612,0,0,1,1.395-1.547,3.914,3.914,0,0,1,2.059-.543,3.508,3.508,0,0,1,2.73,1.094,4.444,4.444,0,0,1,1,3.1v.922H43.457a2.1,2.1,0,0,0,.66,1.328,2,2,0,0,0,1.395.5,2.437,2.437,0,0,0,2.039-.945l1.109,1.242a3.389,3.389,0,0,1-1.375,1.121A4.511,4.511,0,0,1,45.363,15.156Zm-.258-6.945a1.411,1.411,0,0,0-1.09.455,2.357,2.357,0,0,0-.535,1.3h3.141V9.788a1.681,1.681,0,0,0-.406-1.165A1.456,1.456,0,0,0,45.105,8.211Zm4.664,2.5a5.094,5.094,0,0,1,.887-3.148,2.877,2.877,0,0,1,2.426-1.172,2.589,2.589,0,0,1,2.039.922V3h2.266V15H55.348l-.109-.9a2.657,2.657,0,0,1-2.172,1.055,2.869,2.869,0,0,1-2.395-1.176A5.258,5.258,0,0,1,49.77,10.711Zm2.258.168a3.337,3.337,0,0,0,.414,1.823,1.349,1.349,0,0,0,1.2.634,1.511,1.511,0,0,0,1.477-.884V9.111a1.489,1.489,0,0,0-1.461-.884Q52.027,8.227,52.027,10.879ZM64.035,15a2.507,2.507,0,0,1-.227-.758,2.732,2.732,0,0,1-2.133.914,3,3,0,0,1-2.059-.719,2.312,2.312,0,0,1-.816-1.812,2.389,2.389,0,0,1,1-2.062,4.915,4.915,0,0,1,2.879-.727h1.039V9.352a1.393,1.393,0,0,0-.3-.937,1.183,1.183,0,0,0-.949-.352,1.345,1.345,0,0,0-.895.273.929.929,0,0,0-.324.75H58.988a2.268,2.268,0,0,1,.453-1.359,3,3,0,0,1,1.281-.98,4.669,4.669,0,0,1,1.859-.355,3.689,3.689,0,0,1,2.48.785,2.747,2.747,0,0,1,.918,2.207v3.664a4.041,4.041,0,0,0,.336,1.82V15Zm-1.867-1.57a1.945,1.945,0,0,0,.922-.223,1.462,1.462,0,0,0,.625-.6V11.156h-.844q-1.7,0-1.8,1.172l-.008.133a.9.9,0,0,0,.3.7A1.153,1.153,0,0,0,62.168,13.43Zm5.2-2.719a5.094,5.094,0,0,1,.887-3.148,2.877,2.877,0,0,1,2.426-1.172,2.589,2.589,0,0,1,2.039.922V3H74.98V15H72.941l-.109-.9a2.657,2.657,0,0,1-2.172,1.055,2.869,2.869,0,0,1-2.395-1.176A5.258,5.258,0,0,1,67.363,10.711Zm2.258.168a3.337,3.337,0,0,0,.414,1.823,1.349,1.349,0,0,0,1.2.634,1.511,1.511,0,0,0,1.477-.884V9.111a1.489,1.489,0,0,0-1.461-.884Q69.621,8.227,69.621,10.879ZM34.3,33.336a1.481,1.481,0,0,0,1.016-.344,1.2,1.2,0,0,0,.406-.914h2.117a2.9,2.9,0,0,1-.469,1.574,3.093,3.093,0,0,1-1.262,1.109,3.949,3.949,0,0,1-1.77.395A3.67,3.67,0,0,1,31.477,34,4.56,4.56,0,0,1,30.43,30.82v-.148a4.508,4.508,0,0,1,1.039-3.117,3.627,3.627,0,0,1,2.852-1.164,3.555,3.555,0,0,1,2.543.9,3.2,3.2,0,0,1,.973,2.4H35.719a1.551,1.551,0,0,0-.406-1.072,1.51,1.51,0,0,0-2.223.163,3.333,3.333,0,0,0-.4,1.866v.235a3.375,3.375,0,0,0,.4,1.878A1.377,1.377,0,0,0,34.3,33.336ZM41.508,35H39.242V26.547h2.266Zm-2.4-10.641a1.112,1.112,0,0,1,.34-.836,1.465,1.465,0,0,1,1.848,0,1.193,1.193,0,0,1,0,1.68,1.448,1.448,0,0,1-1.836,0A1.108,1.108,0,0,1,39.109,24.359Zm7.422,7.883,1.57-5.7h2.359L47.609,35H45.453L42.6,26.547h2.359ZM53.836,35H51.57V26.547h2.266Zm-2.4-10.641a1.112,1.112,0,0,1,.34-.836,1.465,1.465,0,0,1,1.848,0,1.193,1.193,0,0,1,0,1.68,1.448,1.448,0,0,1-1.836,0A1.108,1.108,0,0,1,51.438,24.359ZM58.078,35H55.813V23h2.266Z" transform="translate(867 4590)" fill="#12263f"/>
    <path id="Path_894626" data-name="Path 894626" d="M25.973,12.016A1.2,1.2,0,0,0,25.5,11a6.148,6.148,0,0,0-1.687-.75,11.963,11.963,0,0,1-1.93-.777,3.153,3.153,0,0,1-1.937-2.82A2.747,2.747,0,0,1,20.469,5a3.389,3.389,0,0,1,1.492-1.129,5.616,5.616,0,0,1,2.184-.406,5.112,5.112,0,0,1,2.172.441A3.458,3.458,0,0,1,27.8,5.156a3.261,3.261,0,0,1,.527,1.828H25.98a1.534,1.534,0,0,0-.492-1.215,2.023,2.023,0,0,0-1.383-.434A2.162,2.162,0,0,0,22.77,5.7a1.146,1.146,0,0,0-.477.957,1.1,1.1,0,0,0,.559.93,6.311,6.311,0,0,0,1.645.7A7.106,7.106,0,0,1,27.41,9.781,2.972,2.972,0,0,1,28.324,12a2.737,2.737,0,0,1-1.117,2.316,4.891,4.891,0,0,1-3.008.84,5.808,5.808,0,0,1-2.391-.48,3.783,3.783,0,0,1-1.645-1.316,3.371,3.371,0,0,1-.566-1.937h2.352q0,1.883,2.25,1.883a2.189,2.189,0,0,0,1.3-.34A1.106,1.106,0,0,0,25.973,12.016Zm7.68,3.141a4.15,4.15,0,0,1-3.027-1.141,4.054,4.054,0,0,1-1.168-3.039v-.219a5.106,5.106,0,0,1,.492-2.277,3.612,3.612,0,0,1,1.395-1.547A3.914,3.914,0,0,1,33.4,6.391a3.508,3.508,0,0,1,2.73,1.094,4.444,4.444,0,0,1,1,3.1v.922H31.746a2.1,2.1,0,0,0,.66,1.328,2,2,0,0,0,1.395.5,2.437,2.437,0,0,0,2.039-.945l1.109,1.242a3.389,3.389,0,0,1-1.375,1.121A4.511,4.511,0,0,1,33.652,15.156Zm-.258-6.945a1.411,1.411,0,0,0-1.09.455,2.357,2.357,0,0,0-.535,1.3H34.91V9.788A1.681,1.681,0,0,0,34.5,8.623,1.456,1.456,0,0,0,33.395,8.211Zm8.531,5.125a1.481,1.481,0,0,0,1.016-.344,1.2,1.2,0,0,0,.406-.914h2.117A2.9,2.9,0,0,1,45,13.652a3.093,3.093,0,0,1-1.262,1.109,3.949,3.949,0,0,1-1.77.395A3.67,3.67,0,0,1,39.105,14a4.56,4.56,0,0,1-1.047-3.184v-.148A4.508,4.508,0,0,1,39.1,7.555a3.627,3.627,0,0,1,2.852-1.164,3.555,3.555,0,0,1,2.543.9,3.2,3.2,0,0,1,.973,2.4H43.348a1.551,1.551,0,0,0-.406-1.072,1.51,1.51,0,0,0-2.223.163,3.333,3.333,0,0,0-.4,1.866v.235a3.375,3.375,0,0,0,.4,1.878A1.377,1.377,0,0,0,41.926,13.336Zm7.531-8.867V6.547H50.9V8.2H49.457v4.219a1.007,1.007,0,0,0,.18.672.9.9,0,0,0,.688.2,3.6,3.6,0,0,0,.664-.055v1.711a4.648,4.648,0,0,1-1.367.2,2.156,2.156,0,0,1-2.422-2.4V8.2H45.965V6.547H47.2V4.469ZM51.574,10.7a5.013,5.013,0,0,1,.484-2.242A3.546,3.546,0,0,1,53.453,6.93a4.069,4.069,0,0,1,2.113-.539,3.849,3.849,0,0,1,2.793,1.047,4.2,4.2,0,0,1,1.207,2.844l.016.578A4.418,4.418,0,0,1,58.5,13.98a4.209,4.209,0,0,1-5.832,0,4.5,4.5,0,0,1-1.09-3.187Zm2.258.16a3.16,3.16,0,0,0,.453,1.843,1.628,1.628,0,0,0,2.578.008,3.457,3.457,0,0,0,.461-2.015,3.128,3.128,0,0,0-.461-1.831,1.5,1.5,0,0,0-1.3-.649,1.474,1.474,0,0,0-1.281.646A3.516,3.516,0,0,0,53.832,10.856ZM65.723,8.664A6.134,6.134,0,0,0,64.91,8.6a1.654,1.654,0,0,0-1.68.867V15H60.973V6.547h2.133l.063,1.008a2.092,2.092,0,0,1,1.883-1.164,2.366,2.366,0,0,1,.7.1ZM24.129,30.852a5.07,5.07,0,0,1-.887,3.129,2.843,2.843,0,0,1-2.395,1.176,2.633,2.633,0,0,1-2.07-.891V38.25H16.52v-11.7h2.094l.078.828a2.654,2.654,0,0,1,2.141-.984,2.862,2.862,0,0,1,2.43,1.156,5.207,5.207,0,0,1,.867,3.188Zm-2.258-.164a3.327,3.327,0,0,0-.418-1.82,1.361,1.361,0,0,0-1.215-.641,1.478,1.478,0,0,0-1.461.813V32.5a1.5,1.5,0,0,0,1.477.836Q21.871,33.336,21.871,30.688Zm8.406-2.023a6.134,6.134,0,0,0-.812-.062,1.654,1.654,0,0,0-1.68.867V35H25.527V26.547H27.66l.063,1.008a2.092,2.092,0,0,1,1.883-1.164,2.366,2.366,0,0,1,.7.1ZM33.746,35H31.48V26.547h2.266Zm-2.4-10.641a1.112,1.112,0,0,1,.34-.836,1.465,1.465,0,0,1,1.848,0,1.193,1.193,0,0,1,0,1.68,1.448,1.448,0,0,1-1.836,0A1.108,1.108,0,0,1,31.348,24.359Zm7.422,7.883,1.57-5.7H42.7L39.848,35H37.691L34.84,26.547H37.2ZM48.473,35a2.507,2.507,0,0,1-.227-.758,2.732,2.732,0,0,1-2.133.914,3,3,0,0,1-2.059-.719,2.312,2.312,0,0,1-.816-1.812,2.389,2.389,0,0,1,1-2.062,4.915,4.915,0,0,1,2.879-.727h1.039v-.484a1.393,1.393,0,0,0-.3-.937,1.183,1.183,0,0,0-.949-.352,1.345,1.345,0,0,0-.895.273.929.929,0,0,0-.324.75H43.426a2.268,2.268,0,0,1,.453-1.359,3,3,0,0,1,1.281-.98,4.669,4.669,0,0,1,1.859-.355,3.689,3.689,0,0,1,2.48.785,2.747,2.747,0,0,1,.918,2.207v3.664a4.041,4.041,0,0,0,.336,1.82V35Zm-1.867-1.57a1.945,1.945,0,0,0,.922-.223,1.462,1.462,0,0,0,.625-.6V31.156h-.844q-1.7,0-1.8,1.172l-.008.133a.9.9,0,0,0,.3.7A1.153,1.153,0,0,0,46.605,33.43Zm5.2-2.719a5.094,5.094,0,0,1,.887-3.148,2.877,2.877,0,0,1,2.426-1.172,2.589,2.589,0,0,1,2.039.922V23h2.266V35H57.379l-.109-.9A2.657,2.657,0,0,1,55.1,35.156,2.869,2.869,0,0,1,52.7,33.98,5.258,5.258,0,0,1,51.8,30.711Zm2.258.168a3.337,3.337,0,0,0,.414,1.823,1.349,1.349,0,0,0,1.2.634,1.511,1.511,0,0,0,1.477-.884V29.111a1.489,1.489,0,0,0-1.461-.884Q54.059,28.227,54.059,30.879Zm6.758-.184a5.013,5.013,0,0,1,.484-2.242A3.546,3.546,0,0,1,62.7,26.93a4.069,4.069,0,0,1,2.113-.539A3.849,3.849,0,0,1,67.6,27.438a4.2,4.2,0,0,1,1.207,2.844l.016.578a4.418,4.418,0,0,1-1.086,3.121,4.209,4.209,0,0,1-5.832,0,4.5,4.5,0,0,1-1.09-3.187Zm2.258.16a3.16,3.16,0,0,0,.453,1.843,1.628,1.628,0,0,0,2.578.008,3.457,3.457,0,0,0,.461-2.015,3.128,3.128,0,0,0-.461-1.831,1.5,1.5,0,0,0-1.3-.649,1.474,1.474,0,0,0-1.281.646A3.516,3.516,0,0,0,63.074,30.856Z" transform="translate(572 4744.5)" fill="#12263f"/>
    <path id="Path_894627" data-name="Path 894627" d="M25.723,10.07h-4.5v3.047H26.5V15H18.879V3.625h7.609v1.9H21.223V8.234h4.5Zm6.586,2.594a.727.727,0,0,0-.41-.652,4.659,4.659,0,0,0-1.316-.426q-3.016-.633-3.016-2.562A2.323,2.323,0,0,1,28.5,7.145a3.766,3.766,0,0,1,2.441-.754,4.053,4.053,0,0,1,2.574.758,2.388,2.388,0,0,1,.965,1.969H32.223a1.092,1.092,0,0,0-.312-.8A1.322,1.322,0,0,0,30.934,8a1.351,1.351,0,0,0-.883.258.814.814,0,0,0-.312.656.7.7,0,0,0,.355.605,3.657,3.657,0,0,0,1.2.4,9.8,9.8,0,0,1,1.422.379A2.336,2.336,0,0,1,34.5,12.57a2.2,2.2,0,0,1-.992,1.871,4.28,4.28,0,0,1-2.562.715,4.47,4.47,0,0,1-1.887-.379,3.166,3.166,0,0,1-1.293-1.039,2.414,2.414,0,0,1-.469-1.426h2.141a1.179,1.179,0,0,0,.445.922,1.766,1.766,0,0,0,1.109.32,1.635,1.635,0,0,0,.98-.246A.766.766,0,0,0,32.309,12.664Zm6.352-8.2V6.547h1.445V8.2H38.66v4.219a1.007,1.007,0,0,0,.18.672.9.9,0,0,0,.688.2,3.6,3.6,0,0,0,.664-.055v1.711a4.648,4.648,0,0,1-1.367.2,2.156,2.156,0,0,1-2.422-2.4V8.2H35.168V6.547H36.4V4.469ZM46.262,15a2.507,2.507,0,0,1-.227-.758,2.732,2.732,0,0,1-2.133.914,3,3,0,0,1-2.059-.719,2.312,2.312,0,0,1-.816-1.812,2.389,2.389,0,0,1,1-2.062A4.915,4.915,0,0,1,44.9,9.836h1.039V9.352a1.393,1.393,0,0,0-.3-.937,1.183,1.183,0,0,0-.949-.352,1.345,1.345,0,0,0-.895.273.929.929,0,0,0-.324.75H41.215a2.268,2.268,0,0,1,.453-1.359,3,3,0,0,1,1.281-.98,4.669,4.669,0,0,1,1.859-.355,3.689,3.689,0,0,1,2.48.785,2.747,2.747,0,0,1,.918,2.207v3.664a4.041,4.041,0,0,0,.336,1.82V15Zm-1.867-1.57a1.945,1.945,0,0,0,.922-.223,1.462,1.462,0,0,0,.625-.6V11.156H45.1q-1.7,0-1.8,1.172l-.008.133a.9.9,0,0,0,.3.7A1.153,1.153,0,0,0,44.395,13.43Zm5.2-2.719a5.094,5.094,0,0,1,.887-3.148A2.877,2.877,0,0,1,52.9,6.391a2.589,2.589,0,0,1,2.039.922V3h2.266V15H55.168l-.109-.9a2.657,2.657,0,0,1-2.172,1.055,2.869,2.869,0,0,1-2.395-1.176A5.258,5.258,0,0,1,49.59,10.711Zm2.258.168a3.337,3.337,0,0,0,.414,1.823,1.349,1.349,0,0,0,1.2.634,1.511,1.511,0,0,0,1.477-.884V9.111a1.489,1.489,0,0,0-1.461-.884Q51.848,8.227,51.848,10.879Zm6.758-.184a5.013,5.013,0,0,1,.484-2.242A3.546,3.546,0,0,1,60.484,6.93,4.069,4.069,0,0,1,62.6,6.391a3.849,3.849,0,0,1,2.793,1.047A4.2,4.2,0,0,1,66.6,10.281l.016.578a4.418,4.418,0,0,1-1.086,3.121,4.209,4.209,0,0,1-5.832,0,4.5,4.5,0,0,1-1.09-3.187Zm2.258.16a3.16,3.16,0,0,0,.453,1.843,1.628,1.628,0,0,0,2.578.008,3.457,3.457,0,0,0,.461-2.015,3.128,3.128,0,0,0-.461-1.831,1.5,1.5,0,0,0-1.3-.649,1.474,1.474,0,0,0-1.281.646A3.516,3.516,0,0,0,60.863,10.856Z" transform="translate(926.5 4839.5)" fill="#12263f"/>
    <g id="Path_894628" data-name="Path 894628" transform="translate(813 4845.064)" fill="#fecab2">
      <path d="M 9.535285949707031 18.07057571411133 C 4.828916072845459 18.07057571411133 0.9999959468841553 14.24165630340576 0.9999959468841553 9.535285949707031 C 0.9999959468841553 4.828916072845459 4.828916072845459 0.9999959468841553 9.535285949707031 0.9999959468841553 C 14.24165630340576 0.9999959468841553 18.07057571411133 4.828916072845459 18.07057571411133 9.535285949707031 C 18.07057571411133 14.24165630340576 14.24165630340576 18.07057571411133 9.535285949707031 18.07057571411133 Z" stroke="none"/>
      <path d="M 9.535285949707031 1.999996185302734 C 5.380315780639648 1.999996185302734 1.999996185302734 5.380315780639648 1.999996185302734 9.535285949707031 C 1.999996185302734 13.69025611877441 5.380315780639648 17.07057571411133 9.535285949707031 17.07057571411133 C 13.69025611877441 17.07057571411133 17.07057571411133 13.69025611877441 17.07057571411133 9.535285949707031 C 17.07057571411133 5.380315780639648 13.69025611877441 1.999996185302734 9.535285949707031 1.999996185302734 M 9.535285949707031 -3.814697265625e-06 C 14.80147552490234 -3.814697265625e-06 19.07057571411133 4.269096374511719 19.07057571411133 9.535285949707031 C 19.07057571411133 14.80147552490234 14.80147552490234 19.07057571411133 9.535285949707031 19.07057571411133 C 4.269096374511719 19.07057571411133 -3.814697265625e-06 14.80147552490234 -3.814697265625e-06 9.535285949707031 C -3.814697265625e-06 4.269096374511719 4.269096374511719 -3.814697265625e-06 9.535285949707031 -3.814697265625e-06 Z" stroke="none" fill="#707070"/>
    </g>
    <g id="Path_894629" data-name="Path 894629" transform="translate(762 4715.352)" fill="#fecab2">
      <path d="M 9.535285949707031 18.07057571411133 C 4.828916072845459 18.07057571411133 0.9999959468841553 14.24165630340576 0.9999959468841553 9.535285949707031 C 0.9999959468841553 4.828916072845459 4.828916072845459 0.9999959468841553 9.535285949707031 0.9999959468841553 C 14.24165630340576 0.9999959468841553 18.07057571411133 4.828916072845459 18.07057571411133 9.535285949707031 C 18.07057571411133 14.24165630340576 14.24165630340576 18.07057571411133 9.535285949707031 18.07057571411133 Z" stroke="none"/>
      <path d="M 9.535285949707031 1.999996185302734 C 5.380315780639648 1.999996185302734 1.999996185302734 5.380315780639648 1.999996185302734 9.535285949707031 C 1.999996185302734 13.69025611877441 5.380315780639648 17.07057571411133 9.535285949707031 17.07057571411133 C 13.69025611877441 17.07057571411133 17.07057571411133 13.69025611877441 17.07057571411133 9.535285949707031 C 17.07057571411133 5.380315780639648 13.69025611877441 1.999996185302734 9.535285949707031 1.999996185302734 M 9.535285949707031 -3.814697265625e-06 C 14.80147552490234 -3.814697265625e-06 19.07057571411133 4.269096374511719 19.07057571411133 9.535285949707031 C 19.07057571411133 14.80147552490234 14.80147552490234 19.07057571411133 9.535285949707031 19.07057571411133 C 4.269096374511719 19.07057571411133 -3.814697265625e-06 14.80147552490234 -3.814697265625e-06 9.535285949707031 C -3.814697265625e-06 4.269096374511719 4.269096374511719 -3.814697265625e-06 9.535285949707031 -3.814697265625e-06 Z" stroke="none" fill="#707070"/>
    </g>
    <path id="Path_892594" data-name="Path 892594" d="M268-6947.333l-28,50" transform="translate(724 11705.352)" fill="none" stroke="#707070" stroke-width="2" stroke-dasharray="3 3"/>
    <path id="Path_892595" data-name="Path 892595" d="M191.6-6941.852l70.4-11.482" transform="translate(724 11705.352)" fill="none" stroke="#707070" stroke-width="2" stroke-dasharray="3 3"/>
    <path id="Path_892596" data-name="Path 892596" d="M268-6969.535,155.333-7058l-84-69.333L38-7088.667l105,23.333" transform="translate(724 11705.352)" fill="none" stroke="#707070" stroke-width="2" stroke-dasharray="3 3"/>
    <g id="Path_894630" data-name="Path 894630" transform="translate(983.592 4735.817)" fill="#fecab2">
      <path d="M 37.90812301635742 26.68308448791504 L 7.000001430511475 26.68308448791504 C 3.691591501235962 26.68308448791504 1.000001549720764 23.99149322509766 1.000001549720764 20.68308448791504 L 1.000001549720764 7.000004291534424 C 1.000001549720764 3.691594123840332 3.691591501235962 1.000004172325134 7.000001430511475 1.000004172325134 L 37.90812301635742 1.000004172325134 C 41.21652984619141 1.000004172325134 43.90812301635742 3.691594123840332 43.90812301635742 7.000004291534424 L 43.90812301635742 20.68308448791504 C 43.90812301635742 23.99149322509766 41.21652984619141 26.68308448791504 37.90812301635742 26.68308448791504 Z" stroke="none"/>
      <path d="M 7 2.000003814697266 C 4.242992401123047 2.000003814697266 2 4.24299430847168 2 7.000003814697266 L 2 20.68308448791504 C 2 23.44009399414062 4.242992401123047 25.68308448791504 7 25.68308448791504 L 37.90812301635742 25.68308448791504 C 40.66513061523438 25.68308448791504 42.90812301635742 23.44009399414062 42.90812301635742 20.68308448791504 L 42.90812301635742 7.000003814697266 C 42.90812301635742 4.24299430847168 40.66513061523438 2.000003814697266 37.90812301635742 2.000003814697266 L 7 2.000003814697266 M 7 3.814697265625e-06 L 37.90812301635742 3.814697265625e-06 C 41.77411270141602 3.814697265625e-06 44.90812301635742 3.134004592895508 44.90812301635742 7.000003814697266 L 44.90812301635742 20.68308448791504 C 44.90812301635742 24.5490837097168 41.77411270141602 27.68308448791504 37.90812301635742 27.68308448791504 L 7 27.68308448791504 C 3.134002685546875 27.68308448791504 0 24.5490837097168 0 20.68308448791504 L 0 7.000003814697266 C 0 3.134004592895508 3.134002685546875 3.814697265625e-06 7 3.814697265625e-06 Z" stroke="none" fill="#707070"/>
    </g>
    <g id="Path_894631" data-name="Path 894631" transform="translate(774 4552.039)" fill="#fecab2">
      <path d="M 37.90812301635742 26.68308448791504 L 7.000001430511475 26.68308448791504 C 3.691591501235962 26.68308448791504 1.000001549720764 23.99149322509766 1.000001549720764 20.68308448791504 L 1.000001549720764 7.000004291534424 C 1.000001549720764 3.691594123840332 3.691591501235962 1.000004172325134 7.000001430511475 1.000004172325134 L 37.90812301635742 1.000004172325134 C 41.21652984619141 1.000004172325134 43.90812301635742 3.691594123840332 43.90812301635742 7.000004291534424 L 43.90812301635742 20.68308448791504 C 43.90812301635742 23.99149322509766 41.21652984619141 26.68308448791504 37.90812301635742 26.68308448791504 Z" stroke="none"/>
      <path d="M 7 2.000003814697266 C 4.242992401123047 2.000003814697266 2 4.24299430847168 2 7.000003814697266 L 2 20.68308448791504 C 2 23.44009399414062 4.242992401123047 25.68308448791504 7 25.68308448791504 L 37.90812301635742 25.68308448791504 C 40.66513061523438 25.68308448791504 42.90812301635742 23.44009399414062 42.90812301635742 20.68308448791504 L 42.90812301635742 7.000003814697266 C 42.90812301635742 4.24299430847168 40.66513061523438 2.000003814697266 37.90812301635742 2.000003814697266 L 7 2.000003814697266 M 7 3.814697265625e-06 L 37.90812301635742 3.814697265625e-06 C 41.77411270141602 3.814697265625e-06 44.90812301635742 3.134004592895508 44.90812301635742 7.000003814697266 L 44.90812301635742 20.68308448791504 C 44.90812301635742 24.5490837097168 41.77411270141602 27.68308448791504 37.90812301635742 27.68308448791504 L 7 27.68308448791504 C 3.134002685546875 27.68308448791504 0 24.5490837097168 0 20.68308448791504 L 0 7.000003814697266 C 0 3.134004592895508 3.134002685546875 3.814697265625e-06 7 3.814697265625e-06 Z" stroke="none" fill="#707070"/>
    </g>
    <path id="Path_892597" data-name="Path 892597" d="M-9.67-6810.693H-67v-137.973L-41.333-7092" transform="translate(724 11705.352)" fill="none" stroke="#707070" stroke-width="2" stroke-dasharray="2 3"/>
    <path id="Path_892598" data-name="Path 892598" d="M30.667-7067.333,45.333-6986" transform="translate(724 11705.352)" fill="none" stroke="#707070" stroke-width="2" stroke-dasharray="2 3"/>
    <path id="Path_892599" data-name="Path 892599" d="M-56.667-6947.333l54.667,78" transform="translate(724 11705.352)" fill="none" stroke="#707070" stroke-width="2" stroke-dasharray="2 3"/>
    <g id="Path_894632" data-name="Path 894632" transform="translate(714.33 4829.212)" fill="#fecab2">
      <path d="M 9.535285949707031 18.07057571411133 C 4.828916072845459 18.07057571411133 0.9999959468841553 14.24165630340576 0.9999959468841553 9.535285949707031 C 0.9999959468841553 4.828916072845459 4.828916072845459 0.9999959468841553 9.535285949707031 0.9999959468841553 C 14.24165630340576 0.9999959468841553 18.07057571411133 4.828916072845459 18.07057571411133 9.535285949707031 C 18.07057571411133 14.24165630340576 14.24165630340576 18.07057571411133 9.535285949707031 18.07057571411133 Z" stroke="none"/>
      <path d="M 9.535285949707031 1.999996185302734 C 5.380315780639648 1.999996185302734 1.999996185302734 5.380315780639648 1.999996185302734 9.535285949707031 C 1.999996185302734 13.69025611877441 5.380315780639648 17.07057571411133 9.535285949707031 17.07057571411133 C 13.69025611877441 17.07057571411133 17.07057571411133 13.69025611877441 17.07057571411133 9.535285949707031 C 17.07057571411133 5.380315780639648 13.69025611877441 1.999996185302734 9.535285949707031 1.999996185302734 M 9.535285949707031 -3.814697265625e-06 C 14.80147552490234 -3.814697265625e-06 19.07057571411133 4.269096374511719 19.07057571411133 9.535285949707031 C 19.07057571411133 14.80147552490234 14.80147552490234 19.07057571411133 9.535285949707031 19.07057571411133 C 4.269096374511719 19.07057571411133 -3.814697265625e-06 14.80147552490234 -3.814697265625e-06 9.535285949707031 C -3.814697265625e-06 4.269096374511719 4.269096374511719 -3.814697265625e-06 9.535285949707031 -3.814697265625e-06 Z" stroke="none" fill="#707070"/>
    </g>
    <g id="Path_894633" data-name="Path 894633" transform="translate(632.092 4880.817)" fill="#fecab2">
      <path d="M 37.90812301635742 26.68308448791504 L 7.000001430511475 26.68308448791504 C 3.691591501235962 26.68308448791504 1.000001549720764 23.99149322509766 1.000001549720764 20.68308448791504 L 1.000001549720764 7.000004291534424 C 1.000001549720764 3.691594123840332 3.691591501235962 1.000004172325134 7.000001430511475 1.000004172325134 L 37.90812301635742 1.000004172325134 C 41.21652984619141 1.000004172325134 43.90812301635742 3.691594123840332 43.90812301635742 7.000004291534424 L 43.90812301635742 20.68308448791504 C 43.90812301635742 23.99149322509766 41.21652984619141 26.68308448791504 37.90812301635742 26.68308448791504 Z" stroke="none"/>
      <path d="M 7 2.000003814697266 C 4.242992401123047 2.000003814697266 2 4.24299430847168 2 7.000003814697266 L 2 20.68308448791504 C 2 23.44009399414062 4.242992401123047 25.68308448791504 7 25.68308448791504 L 37.90812301635742 25.68308448791504 C 40.66513061523438 25.68308448791504 42.90812301635742 23.44009399414062 42.90812301635742 20.68308448791504 L 42.90812301635742 7.000003814697266 C 42.90812301635742 4.24299430847168 40.66513061523438 2.000003814697266 37.90812301635742 2.000003814697266 L 7 2.000003814697266 M 7 3.814697265625e-06 L 37.90812301635742 3.814697265625e-06 C 41.77411270141602 3.814697265625e-06 44.90812301635742 3.134004592895508 44.90812301635742 7.000003814697266 L 44.90812301635742 20.68308448791504 C 44.90812301635742 24.5490837097168 41.77411270141602 27.68308448791504 37.90812301635742 27.68308448791504 L 7 27.68308448791504 C 3.134002685546875 27.68308448791504 0 24.5490837097168 0 20.68308448791504 L 0 7.000003814697266 C 0 3.134004592895508 3.134002685546875 3.814697265625e-06 7 3.814697265625e-06 Z" stroke="none" fill="#707070"/>
    </g>
    <g id="Path_894634" data-name="Path 894634" transform="translate(657 4596.039)" fill="#fecab2">
      <path d="M 37.90812301635742 26.68308448791504 L 7.000001430511475 26.68308448791504 C 3.691591501235962 26.68308448791504 1.000001549720764 23.99149322509766 1.000001549720764 20.68308448791504 L 1.000001549720764 7.000004291534424 C 1.000001549720764 3.691594123840332 3.691591501235962 1.000004172325134 7.000001430511475 1.000004172325134 L 37.90812301635742 1.000004172325134 C 41.21652984619141 1.000004172325134 43.90812301635742 3.691594123840332 43.90812301635742 7.000004291534424 L 43.90812301635742 20.68308448791504 C 43.90812301635742 23.99149322509766 41.21652984619141 26.68308448791504 37.90812301635742 26.68308448791504 Z" stroke="none"/>
      <path d="M 7 2.000003814697266 C 4.242992401123047 2.000003814697266 2 4.24299430847168 2 7.000003814697266 L 2 20.68308448791504 C 2 23.44009399414062 4.242992401123047 25.68308448791504 7 25.68308448791504 L 37.90812301635742 25.68308448791504 C 40.66513061523438 25.68308448791504 42.90812301635742 23.44009399414062 42.90812301635742 20.68308448791504 L 42.90812301635742 7.000003814697266 C 42.90812301635742 4.24299430847168 40.66513061523438 2.000003814697266 37.90812301635742 2.000003814697266 L 7 2.000003814697266 M 7 3.814697265625e-06 L 37.90812301635742 3.814697265625e-06 C 41.77411270141602 3.814697265625e-06 44.90812301635742 3.134004592895508 44.90812301635742 7.000003814697266 L 44.90812301635742 20.68308448791504 C 44.90812301635742 24.5490837097168 41.77411270141602 27.68308448791504 37.90812301635742 27.68308448791504 L 7 27.68308448791504 C 3.134002685546875 27.68308448791504 0 24.5490837097168 0 20.68308448791504 L 0 7.000003814697266 C 0 3.134004592895508 3.134002685546875 3.814697265625e-06 7 3.814697265625e-06 Z" stroke="none" fill="#707070"/>
    </g>
    <path id="Path_892600" data-name="Path 892600" d="M-25.333-7092,20-7077.333l-67,122" transform="translate(724 11705.352)" fill="none" stroke="#707070" stroke-width="2"/>
    <path id="Path_892601" data-name="Path 892601" d="M16-6810.693l210.667-66.341v-16.747l-58-46.375L143-7058.667" transform="translate(724 11705.352)" fill="none" stroke="#707070" stroke-width="2"/>
    <g id="Path_894635" data-name="Path 894635" transform="translate(935.704 4802.452)" fill="#fecab2">
      <path d="M 18.14780235290527 35.29560089111328 C 13.56746196746826 35.29560089111328 9.261272430419922 33.51192092895508 6.022482395172119 30.27312278747559 C 2.783682346343994 27.03433227539062 1.000002384185791 22.72814178466797 1.000002384185791 18.14780235290527 C 1.000002384185791 13.56746196746826 2.783682346343994 9.261272430419922 6.022482395172119 6.022482395172119 C 9.261272430419922 2.783682346343994 13.56746196746826 1.000002384185791 18.14780235290527 1.000002384185791 C 22.72814178466797 1.000002384185791 27.03433227539062 2.783682346343994 30.27312278747559 6.022482395172119 C 33.51192092895508 9.261272430419922 35.29560089111328 13.56746196746826 35.29560089111328 18.14780235290527 C 35.29560089111328 22.72814178466797 33.51192092895508 27.03433227539062 30.27312278747559 30.27312278747559 C 27.03433227539062 33.51192092895508 22.72814178466797 35.29560089111328 18.14780235290527 35.29560089111328 Z" stroke="none"/>
      <path d="M 18.14780235290527 2.000003814697266 C 13.83457183837891 2.000003814697266 9.779502868652344 3.679660797119141 6.729581832885742 6.729581832885742 C 3.679660797119141 9.779502868652344 2.000003814697266 13.83457183837891 2.000003814697266 18.14780235290527 C 2.000003814697266 22.46103286743164 3.679660797119141 26.5161018371582 6.729581832885742 29.5660228729248 C 9.779502868652344 32.61594390869141 13.83457183837891 34.29560089111328 18.14780235290527 34.29560089111328 C 22.46103286743164 34.29560089111328 26.5161018371582 32.61594390869141 29.5660228729248 29.5660228729248 C 32.61594390869141 26.5161018371582 34.29560089111328 22.46103286743164 34.29560089111328 18.14780235290527 C 34.29560089111328 13.83457183837891 32.61594390869141 9.779502868652344 29.5660228729248 6.729581832885742 C 26.5161018371582 3.679660797119141 22.46103286743164 2.000003814697266 18.14780235290527 2.000003814697266 M 18.14780235290527 3.814697265625e-06 C 28.17055130004883 3.814697265625e-06 36.29560089111328 8.125051498413086 36.29560089111328 18.14780235290527 C 36.29560089111328 28.17055130004883 28.17055130004883 36.29560089111328 18.14780235290527 36.29560089111328 C 8.125051498413086 36.29560089111328 3.814697265625e-06 28.17055130004883 3.814697265625e-06 18.14780235290527 C 3.814697265625e-06 8.125051498413086 8.125051498413086 3.814697265625e-06 18.14780235290527 3.814697265625e-06 Z" stroke="none" fill="#707070"/>
    </g>
    <g id="Path_894636" data-name="Path 894636" transform="translate(850.704 4616.817)" fill="#fecab2">
      <path d="M 18.14780235290527 35.29560089111328 C 13.56746196746826 35.29560089111328 9.261272430419922 33.51192092895508 6.022482395172119 30.27312278747559 C 2.783682346343994 27.03433227539062 1.000002384185791 22.72814178466797 1.000002384185791 18.14780235290527 C 1.000002384185791 13.56746196746826 2.783682346343994 9.261272430419922 6.022482395172119 6.022482395172119 C 9.261272430419922 2.783682346343994 13.56746196746826 1.000002384185791 18.14780235290527 1.000002384185791 C 22.72814178466797 1.000002384185791 27.03433227539062 2.783682346343994 30.27312278747559 6.022482395172119 C 33.51192092895508 9.261272430419922 35.29560089111328 13.56746196746826 35.29560089111328 18.14780235290527 C 35.29560089111328 22.72814178466797 33.51192092895508 27.03433227539062 30.27312278747559 30.27312278747559 C 27.03433227539062 33.51192092895508 22.72814178466797 35.29560089111328 18.14780235290527 35.29560089111328 Z" stroke="none"/>
      <path d="M 18.14780235290527 2.000003814697266 C 13.83457183837891 2.000003814697266 9.779502868652344 3.679660797119141 6.729581832885742 6.729581832885742 C 3.679660797119141 9.779502868652344 2.000003814697266 13.83457183837891 2.000003814697266 18.14780235290527 C 2.000003814697266 22.46103286743164 3.679660797119141 26.5161018371582 6.729581832885742 29.5660228729248 C 9.779502868652344 32.61594390869141 13.83457183837891 34.29560089111328 18.14780235290527 34.29560089111328 C 22.46103286743164 34.29560089111328 26.5161018371582 32.61594390869141 29.5660228729248 29.5660228729248 C 32.61594390869141 26.5161018371582 34.29560089111328 22.46103286743164 34.29560089111328 18.14780235290527 C 34.29560089111328 13.83457183837891 32.61594390869141 9.779502868652344 29.5660228729248 6.729581832885742 C 26.5161018371582 3.679660797119141 22.46103286743164 2.000003814697266 18.14780235290527 2.000003814697266 M 18.14780235290527 3.814697265625e-06 C 28.17055130004883 3.814697265625e-06 36.29560089111328 8.125051498413086 36.29560089111328 18.14780235290527 C 36.29560089111328 28.17055130004883 28.17055130004883 36.29560089111328 18.14780235290527 36.29560089111328 C 8.125051498413086 36.29560089111328 3.814697265625e-06 28.17055130004883 3.814697265625e-06 18.14780235290527 C 3.814697265625e-06 8.125051498413086 8.125051498413086 3.814697265625e-06 18.14780235290527 3.814697265625e-06 Z" stroke="none" fill="#707070"/>
    </g>
    <g id="Path_894637" data-name="Path 894637" transform="translate(867 4743.039)" fill="#fecab2">
      <path d="M 24.29960060119629 47.59920120239258 C 21.15373039245605 47.59920120239258 18.10250091552734 46.98329925537109 15.23065090179443 45.76861190795898 C 12.45627021789551 44.59514999389648 9.964410781860352 42.91501998901367 7.824290752410889 40.77490997314453 C 5.684180736541748 38.63479232788086 4.004050731658936 36.14292907714844 2.830590486526489 33.36854934692383 C 1.615900635719299 30.49670028686523 1.000000596046448 27.44547080993652 1.000000596046448 24.29960060119629 C 1.000000596046448 21.15373039245605 1.615900635719299 18.10250091552734 2.830590486526489 15.23065090179443 C 4.004050731658936 12.45627021789551 5.684180736541748 9.964410781860352 7.824290752410889 7.824290752410889 C 9.964410781860352 5.684180736541748 12.45627021789551 4.004050731658936 15.23065090179443 2.830590486526489 C 18.10250091552734 1.615900635719299 21.15373039245605 1.000000596046448 24.29960060119629 1.000000596046448 C 27.44547080993652 1.000000596046448 30.49670028686523 1.615900635719299 33.36854934692383 2.830590486526489 C 36.14292907714844 4.004050731658936 38.63479232788086 5.684180736541748 40.77490997314453 7.824290752410889 C 42.91501998901367 9.964410781860352 44.59514999389648 12.45627021789551 45.76861190795898 15.23065090179443 C 46.98329925537109 18.10250091552734 47.59920120239258 21.15373039245605 47.59920120239258 24.29960060119629 C 47.59920120239258 27.44547080993652 46.98329925537109 30.49670028686523 45.76861190795898 33.36854934692383 C 44.59514999389648 36.14292907714844 42.91501998901367 38.63479232788086 40.77490997314453 40.77490997314453 C 38.63479232788086 42.91501998901367 36.14292907714844 44.59514999389648 33.36854934692383 45.76861190795898 C 30.49670028686523 46.98329925537109 27.44547080993652 47.59920120239258 24.29960060119629 47.59920120239258 Z" stroke="none"/>
      <path d="M 24.29960060119629 2 C 21.28829002380371 2 18.36812019348145 2.589321136474609 15.62020111083984 3.751590728759766 C 12.96501922607422 4.874641418457031 10.58000183105469 6.482799530029297 8.531398773193359 8.531398773193359 C 6.482799530029297 10.58000183105469 4.874641418457031 12.96501922607422 3.751590728759766 15.62020111083984 C 2.589321136474609 18.36812019348145 2 21.28829002380371 2 24.29960060119629 C 2 27.31091117858887 2.589321136474609 30.23108100891113 3.751590728759766 32.97900009155273 C 4.874641418457031 35.63418197631836 6.482799530029297 38.01919937133789 8.531398773193359 40.06780242919922 C 10.58000183105469 42.11640167236328 12.96501922607422 43.72455978393555 15.62020111083984 44.84761047363281 C 18.36812019348145 46.00988006591797 21.28829002380371 46.59920120239258 24.29960060119629 46.59920120239258 C 27.31091117858887 46.59920120239258 30.23108100891113 46.00988006591797 32.97900009155273 44.84761047363281 C 35.63418197631836 43.72455978393555 38.01919937133789 42.11640167236328 40.06780242919922 40.06780242919922 C 42.11640167236328 38.01919937133789 43.72455978393555 35.63418197631836 44.84761047363281 32.97900009155273 C 46.00988006591797 30.23108100891113 46.59920120239258 27.31091117858887 46.59920120239258 24.29960060119629 C 46.59920120239258 21.28829002380371 46.00988006591797 18.36812019348145 44.84761047363281 15.62020111083984 C 43.72455978393555 12.96501922607422 42.11640167236328 10.58000183105469 40.06780242919922 8.531398773193359 C 38.01919937133789 6.482799530029297 35.63418197631836 4.874641418457031 32.97900009155273 3.751590728759766 C 30.23108100891113 2.589321136474609 27.31091117858887 2 24.29960060119629 2 M 24.29960060119629 0 C 37.71990203857422 0 48.59920120239258 10.87929916381836 48.59920120239258 24.29960060119629 C 48.59920120239258 37.71990203857422 37.71990203857422 48.59920120239258 24.29960060119629 48.59920120239258 C 10.87929916381836 48.59920120239258 0 37.71990203857422 0 24.29960060119629 C 0 10.87929916381836 10.87929916381836 0 24.29960060119629 0 Z" stroke="none" fill="#707070"/>
    </g>
    <path id="Path_894638" data-name="Path 894638" d="M11.06,13.827,13.96,4.2H16.9L12.44,17H9.689L5.25,4.2H8.177Z" transform="translate(880.534 4757.879)" fill="#12263f"/>
    <g id="Path_894639" data-name="Path 894639" transform="translate(733.401 4596.039)" fill="#fecab2">
      <path d="M 24.29960060119629 47.59920120239258 C 21.15373039245605 47.59920120239258 18.10250091552734 46.98329925537109 15.23065090179443 45.76861190795898 C 12.45627021789551 44.59514999389648 9.964410781860352 42.91501998901367 7.824290752410889 40.77490997314453 C 5.684180736541748 38.63479232788086 4.004050731658936 36.14292907714844 2.830590486526489 33.36854934692383 C 1.615900635719299 30.49670028686523 1.000000596046448 27.44547080993652 1.000000596046448 24.29960060119629 C 1.000000596046448 21.15373039245605 1.615900635719299 18.10250091552734 2.830590486526489 15.23065090179443 C 4.004050731658936 12.45627021789551 5.684180736541748 9.964410781860352 7.824290752410889 7.824290752410889 C 9.964410781860352 5.684180736541748 12.45627021789551 4.004050731658936 15.23065090179443 2.830590486526489 C 18.10250091552734 1.615900635719299 21.15373039245605 1.000000596046448 24.29960060119629 1.000000596046448 C 27.44547080993652 1.000000596046448 30.49670028686523 1.615900635719299 33.36854934692383 2.830590486526489 C 36.14292907714844 4.004050731658936 38.63479232788086 5.684180736541748 40.77490997314453 7.824290752410889 C 42.91501998901367 9.964410781860352 44.59514999389648 12.45627021789551 45.76861190795898 15.23065090179443 C 46.98329925537109 18.10250091552734 47.59920120239258 21.15373039245605 47.59920120239258 24.29960060119629 C 47.59920120239258 27.44547080993652 46.98329925537109 30.49670028686523 45.76861190795898 33.36854934692383 C 44.59514999389648 36.14292907714844 42.91501998901367 38.63479232788086 40.77490997314453 40.77490997314453 C 38.63479232788086 42.91501998901367 36.14292907714844 44.59514999389648 33.36854934692383 45.76861190795898 C 30.49670028686523 46.98329925537109 27.44547080993652 47.59920120239258 24.29960060119629 47.59920120239258 Z" stroke="none"/>
      <path d="M 24.29960060119629 2 C 21.28829002380371 2 18.36812019348145 2.589321136474609 15.62020111083984 3.751590728759766 C 12.96501922607422 4.874641418457031 10.58000183105469 6.482799530029297 8.531398773193359 8.531398773193359 C 6.482799530029297 10.58000183105469 4.874641418457031 12.96501922607422 3.751590728759766 15.62020111083984 C 2.589321136474609 18.36812019348145 2 21.28829002380371 2 24.29960060119629 C 2 27.31091117858887 2.589321136474609 30.23108100891113 3.751590728759766 32.97900009155273 C 4.874641418457031 35.63418197631836 6.482799530029297 38.01919937133789 8.531398773193359 40.06780242919922 C 10.58000183105469 42.11640167236328 12.96501922607422 43.72455978393555 15.62020111083984 44.84761047363281 C 18.36812019348145 46.00988006591797 21.28829002380371 46.59920120239258 24.29960060119629 46.59920120239258 C 27.31091117858887 46.59920120239258 30.23108100891113 46.00988006591797 32.97900009155273 44.84761047363281 C 35.63418197631836 43.72455978393555 38.01919937133789 42.11640167236328 40.06780242919922 40.06780242919922 C 42.11640167236328 38.01919937133789 43.72455978393555 35.63418197631836 44.84761047363281 32.97900009155273 C 46.00988006591797 30.23108100891113 46.59920120239258 27.31091117858887 46.59920120239258 24.29960060119629 C 46.59920120239258 21.28829002380371 46.00988006591797 18.36812019348145 44.84761047363281 15.62020111083984 C 43.72455978393555 12.96501922607422 42.11640167236328 10.58000183105469 40.06780242919922 8.531398773193359 C 38.01919937133789 6.482799530029297 35.63418197631836 4.874641418457031 32.97900009155273 3.751590728759766 C 30.23108100891113 2.589321136474609 27.31091117858887 2 24.29960060119629 2 M 24.29960060119629 0 C 37.71990203857422 0 48.59920120239258 10.87929916381836 48.59920120239258 24.29960060119629 C 48.59920120239258 37.71990203857422 37.71990203857422 48.59920120239258 24.29960060119629 48.59920120239258 C 10.87929916381836 48.59920120239258 0 37.71990203857422 0 24.29960060119629 C 0 10.87929916381836 10.87929916381836 0 24.29960060119629 0 Z" stroke="none" fill="#707070"/>
    </g>
    <path id="Path_894640" data-name="Path 894640" d="M11.06,13.827,13.96,4.2H16.9L12.44,17H9.689L5.25,4.2H8.177Z" transform="translate(746.935 4610.879)" fill="#12263f"/>
    <g id="Path_894641" data-name="Path 894641" transform="translate(709.704 4876.511)" fill="#fecab2">
      <path d="M 18.14780235290527 35.29560089111328 C 13.56746196746826 35.29560089111328 9.261272430419922 33.51192092895508 6.022482395172119 30.27312278747559 C 2.783682346343994 27.03433227539062 1.000002384185791 22.72814178466797 1.000002384185791 18.14780235290527 C 1.000002384185791 13.56746196746826 2.783682346343994 9.261272430419922 6.022482395172119 6.022482395172119 C 9.261272430419922 2.783682346343994 13.56746196746826 1.000002384185791 18.14780235290527 1.000002384185791 C 22.72814178466797 1.000002384185791 27.03433227539062 2.783682346343994 30.27312278747559 6.022482395172119 C 33.51192092895508 9.261272430419922 35.29560089111328 13.56746196746826 35.29560089111328 18.14780235290527 C 35.29560089111328 22.72814178466797 33.51192092895508 27.03433227539062 30.27312278747559 30.27312278747559 C 27.03433227539062 33.51192092895508 22.72814178466797 35.29560089111328 18.14780235290527 35.29560089111328 Z" stroke="none"/>
      <path d="M 18.14780235290527 2.000003814697266 C 13.83457183837891 2.000003814697266 9.779502868652344 3.679660797119141 6.729581832885742 6.729581832885742 C 3.679660797119141 9.779502868652344 2.000003814697266 13.83457183837891 2.000003814697266 18.14780235290527 C 2.000003814697266 22.46103286743164 3.679660797119141 26.5161018371582 6.729581832885742 29.5660228729248 C 9.779502868652344 32.61594390869141 13.83457183837891 34.29560089111328 18.14780235290527 34.29560089111328 C 22.46103286743164 34.29560089111328 26.5161018371582 32.61594390869141 29.5660228729248 29.5660228729248 C 32.61594390869141 26.5161018371582 34.29560089111328 22.46103286743164 34.29560089111328 18.14780235290527 C 34.29560089111328 13.83457183837891 32.61594390869141 9.779502868652344 29.5660228729248 6.729581832885742 C 26.5161018371582 3.679660797119141 22.46103286743164 2.000003814697266 18.14780235290527 2.000003814697266 M 18.14780235290527 3.814697265625e-06 C 28.17055130004883 3.814697265625e-06 36.29560089111328 8.125051498413086 36.29560089111328 18.14780235290527 C 36.29560089111328 28.17055130004883 28.17055130004883 36.29560089111328 18.14780235290527 36.29560089111328 C 8.125051498413086 36.29560089111328 3.814697265625e-06 28.17055130004883 3.814697265625e-06 18.14780235290527 C 3.814697265625e-06 8.125051498413086 8.125051498413086 3.814697265625e-06 18.14780235290527 3.814697265625e-06 Z" stroke="none" fill="#707070"/>
    </g>
    <g id="Path_894642" data-name="Path 894642" transform="translate(646.092 4735.817)" fill="#fecab2">
      <path d="M 18.14780235290527 35.29560089111328 C 13.56746196746826 35.29560089111328 9.261272430419922 33.51192092895508 6.022482395172119 30.27312278747559 C 2.783682346343994 27.03433227539062 1.000002384185791 22.72814178466797 1.000002384185791 18.14780235290527 C 1.000002384185791 13.56746196746826 2.783682346343994 9.261272430419922 6.022482395172119 6.022482395172119 C 9.261272430419922 2.783682346343994 13.56746196746826 1.000002384185791 18.14780235290527 1.000002384185791 C 22.72814178466797 1.000002384185791 27.03433227539062 2.783682346343994 30.27312278747559 6.022482395172119 C 33.51192092895508 9.261272430419922 35.29560089111328 13.56746196746826 35.29560089111328 18.14780235290527 C 35.29560089111328 22.72814178466797 33.51192092895508 27.03433227539062 30.27312278747559 30.27312278747559 C 27.03433227539062 33.51192092895508 22.72814178466797 35.29560089111328 18.14780235290527 35.29560089111328 Z" stroke="none"/>
      <path d="M 18.14780235290527 2.000003814697266 C 13.83457183837891 2.000003814697266 9.779502868652344 3.679660797119141 6.729581832885742 6.729581832885742 C 3.679660797119141 9.779502868652344 2.000003814697266 13.83457183837891 2.000003814697266 18.14780235290527 C 2.000003814697266 22.46103286743164 3.679660797119141 26.5161018371582 6.729581832885742 29.5660228729248 C 9.779502868652344 32.61594390869141 13.83457183837891 34.29560089111328 18.14780235290527 34.29560089111328 C 22.46103286743164 34.29560089111328 26.5161018371582 32.61594390869141 29.5660228729248 29.5660228729248 C 32.61594390869141 26.5161018371582 34.29560089111328 22.46103286743164 34.29560089111328 18.14780235290527 C 34.29560089111328 13.83457183837891 32.61594390869141 9.779502868652344 29.5660228729248 6.729581832885742 C 26.5161018371582 3.679660797119141 22.46103286743164 2.000003814697266 18.14780235290527 2.000003814697266 M 18.14780235290527 3.814697265625e-06 C 28.17055130004883 3.814697265625e-06 36.29560089111328 8.125051498413086 36.29560089111328 18.14780235290527 C 36.29560089111328 28.17055130004883 28.17055130004883 36.29560089111328 18.14780235290527 36.29560089111328 C 8.125051498413086 36.29560089111328 3.814697265625e-06 28.17055130004883 3.814697265625e-06 18.14780235290527 C 3.814697265625e-06 8.125051498413086 8.125051498413086 3.814697265625e-06 18.14780235290527 3.814697265625e-06 Z" stroke="none" fill="#707070"/>
    </g>
    <path id="Path_892602" data-name="Path 892602" d="M-29.333-7005.333l14,7.333" transform="translate(724 11705.352)" fill="none" stroke="#707070" stroke-width="2"/>
    <path id="Path_892603" data-name="Path 892603" d="M-29.333-7005.333l14,7.333" transform="translate(731 11698.018)" fill="none" stroke="#707070" stroke-width="2"/>
    <path id="Path_894643" data-name="Path 894643" d="M-1.428-3.92a5.288,5.288,0,0,1,.3-1.962A4.025,4.025,0,0,1-.035-7.32,5.6,5.6,0,0,0,1.024-8.473a1.81,1.81,0,0,0,.264-.938q0-1.488-1.371-1.488a1.389,1.389,0,0,0-1.042.4,1.575,1.575,0,0,0-.409,1.106H-4.083A3.39,3.39,0,0,1-3-12.023a4.226,4.226,0,0,1,2.914-.95,4.244,4.244,0,0,1,2.892.9A3.208,3.208,0,0,1,3.836-9.524,3.1,3.1,0,0,1,3.5-8.112,5.817,5.817,0,0,1,2.333-6.638l-.712.677a2.413,2.413,0,0,0-.765,1.5L.822-3.92Zm-.255,2.694a1.279,1.279,0,0,1,.4-.968A1.424,1.424,0,0,1-.259-2.575a1.424,1.424,0,0,1,1.024.381,1.279,1.279,0,0,1,.4.968,1.269,1.269,0,0,1-.391.955A1.426,1.426,0,0,1-.259.105,1.426,1.426,0,0,1-1.292-.271,1.269,1.269,0,0,1-1.683-1.226Z" transform="translate(699 4684.352)" fill="#7d3a1b"/>
    <path id="Path_892605" data-name="Path 892605" d="M0,34.284H15.91l-4.08-8.431h4.08L9.976,14.613H15.91L3.3,0,5.526,14.613H0l5.526,11.24H0Z" transform="matrix(-0.94, 0.342, -0.342, -0.94, 893.676, 4709.738)" fill="#7d3a1b"/>
    <path id="Path_892606" data-name="Path 892606" d="M0,34.284H15.91l-4.08-8.431h4.08L9.976,14.613H15.91L3.3,0,5.526,14.613H0l5.526,11.24H0Z" transform="matrix(-0.94, 0.342, -0.342, -0.94, 818.908, 4888.204)" fill="#7d3a1b"/>
    <path id="Path_894644" data-name="Path 894644" d="M5.578,0l5.578,10.46H0Z" transform="translate(903.622 4785.976) rotate(-51)" fill="#636363"/>
    <path id="Path_894645" data-name="Path 894645" d="M0,0H4.622V5.8H0Z" transform="translate(915.799 4792.393) rotate(-141)" fill="#636363"/>
  </g>
</svg>
