<svg xmlns="http://www.w3.org/2000/svg" xmlns:xlink="http://www.w3.org/1999/xlink" width="121" height="121" viewBox="0 0 121 121">
  <defs>
    <clipPath id="clip-path">
      <rect id="Rectangle_400938" data-name="Rectangle 400938" width="121" height="121" transform="translate(0 0)" fill="none"/>
    </clipPath>
    <clipPath id="clip-path-2">
      <rect id="Rectangle_401073" data-name="Rectangle 401073" width="92.219" height="41.532" fill="#efb499"/>
    </clipPath>
    <clipPath id="clip-path-3">
      <rect id="Rectangle_404734" data-name="Rectangle 404734" width="64.498" height="63.644" fill="none"/>
    </clipPath>
  </defs>
  <g id="Group_1102159" data-name="Group 1102159" transform="translate(-1090.996 -5846)">
    <g id="Group_1100440" data-name="Group 1100440" transform="translate(703.328 -167)">
      <rect id="Rectangle_401103" data-name="Rectangle 401103" width="121" height="121" transform="translate(387.668 6013)" fill="none"/>
      <g id="Group_1099348" data-name="Group 1099348" transform="translate(387.668 6013)">
        <g id="Group_1099282" data-name="Group 1099282">
          <g id="Group_1099281" data-name="Group 1099281" clip-path="url(#clip-path-2)">
            <path id="Path_873375" data-name="Path 873375" d="M74.8,9.1c-4.139,0-6.28-2.03-8.17-3.821-1.855-1.756-3.452-3.274-6.792-3.274s-4.937,1.517-6.792,3.274C51.161,7.072,49.023,9.1,44.881,9.1s-6.28-2.03-8.169-3.821C34.857,3.525,33.26,2.007,29.92,2.007s-4.937,1.517-6.789,3.274C21.241,7.072,19.1,9.1,14.962,9.1S8.679,7.072,6.789,5.281C4.937,3.525,3.34,2.007,0,2.007V0C4.139,0,6.28,2.033,8.17,3.821c1.855,1.759,3.452,3.274,6.792,3.274S19.9,5.58,21.75,3.824C23.637,2.033,25.781,0,29.92,0s6.283,2.033,8.17,3.821c1.855,1.759,3.452,3.274,6.792,3.274s4.937-1.514,6.792-3.274C53.56,2.033,55.7,0,59.843,0s6.283,2.033,8.17,3.821C69.867,5.58,71.464,7.094,74.8,7.094S79.742,5.58,81.6,3.821C83.483,2.033,85.624,0,89.766,0V2.007c-3.34,0-4.937,1.517-6.792,3.274C81.084,7.072,78.943,9.1,74.8,9.1" transform="translate(2.453 32.43)" fill="#efb499"/>
            <path id="Path_873376" data-name="Path 873376" d="M74.8,9.1c-4.139,0-6.283-2.03-8.17-3.824-1.855-1.756-3.452-3.27-6.792-3.27s-4.937,1.514-6.792,3.27C51.164,7.072,49.023,9.1,44.881,9.1s-6.283-2.03-8.17-3.824c-1.855-1.756-3.452-3.27-6.792-3.27s-4.937,1.517-6.789,3.27C21.241,7.072,19.1,9.1,14.962,9.1S8.679,7.072,6.789,5.278C4.937,3.522,3.34,2.007,0,2.007V0C4.139,0,6.283,2.03,8.17,3.821c1.855,1.759,3.452,3.274,6.792,3.274S19.9,5.58,21.75,3.821C23.637,2.03,25.781,0,29.92,0S36.2,2.03,38.093,3.821c1.852,1.759,3.449,3.274,6.789,3.274s4.937-1.514,6.792-3.274C53.56,2.03,55.7,0,59.843,0s6.283,2.03,8.17,3.821C69.867,5.58,71.464,7.094,74.8,7.094S79.742,5.58,81.6,3.821C83.486,2.03,85.627,0,89.769,0V2.007c-3.34,0-4.94,1.517-6.8,3.27C81.084,7.072,78.943,9.1,74.8,9.1" transform="translate(1.635 21.62)" fill="#efb499"/>
            <path id="Path_873377" data-name="Path 873377" d="M74.8,9.1c-4.139,0-6.283-2.03-8.169-3.824-1.855-1.756-3.452-3.27-6.792-3.27s-4.937,1.514-6.792,3.27C51.164,7.072,49.02,9.1,44.881,9.1s-6.283-2.03-8.17-3.824c-1.855-1.756-3.452-3.27-6.792-3.27s-4.937,1.517-6.789,3.27C21.241,7.072,19.1,9.1,14.962,9.1S8.678,7.072,6.789,5.278C4.937,3.522,3.34,2.007,0,2.007V0C4.139,0,6.283,2.03,8.169,3.821c1.851,1.759,3.452,3.274,6.792,3.274S19.9,5.58,21.75,3.821C23.637,2.03,25.781,0,29.92,0S36.2,2.03,38.093,3.821c1.852,1.759,3.449,3.274,6.789,3.274s4.937-1.514,6.792-3.274C53.56,2.03,55.7,0,59.843,0s6.283,2.03,8.17,3.821C69.867,5.58,71.464,7.094,74.8,7.094S79.742,5.58,81.6,3.821C83.486,2.03,85.624,0,89.769,0V2.007c-3.34,0-4.941,1.517-6.8,3.27C81.084,7.072,78.943,9.1,74.8,9.1" transform="translate(0.818 10.81)" fill="#efb499"/>
            <path id="Path_873378" data-name="Path 873378" d="M74.8,9.1c-4.139,0-6.28-2.03-8.17-3.821-1.855-1.756-3.452-3.27-6.792-3.27s-4.937,1.514-6.789,3.27C51.164,7.069,49.023,9.1,44.881,9.1s-6.28-2.03-8.169-3.821c-1.855-1.756-3.452-3.27-6.792-3.27s-4.937,1.514-6.789,3.267C21.245,7.069,19.1,9.1,14.962,9.1S8.678,7.069,6.789,5.278C4.937,3.522,3.34,2.007,0,2.007V0C4.139,0,6.283,2.03,8.17,3.821c1.855,1.756,3.452,3.27,6.792,3.27S19.9,5.577,21.75,3.821C23.64,2.03,25.781,0,29.92,0s6.28,2.03,8.173,3.821c1.852,1.756,3.449,3.27,6.789,3.27s4.937-1.514,6.792-3.27C53.563,2.03,55.7,0,59.843,0s6.28,2.03,8.17,3.821c1.855,1.756,3.452,3.27,6.792,3.27s4.937-1.514,6.792-3.27C83.486,2.03,85.627,0,89.769,0V2.007c-3.344,0-4.941,1.514-6.8,3.27C81.084,7.069,78.943,9.1,74.8,9.1" transform="translate(0 0.003)" fill="#efb499"/>
          </g>
        </g>
      </g>
      <circle id="Ellipse_11504" data-name="Ellipse 11504" cx="50.5" cy="50.5" r="50.5" transform="translate(402.668 6031)" fill="#ffce73"/>
      <circle id="Ellipse_11503" data-name="Ellipse 11503" cx="52.5" cy="52.5" r="52.5" transform="translate(395.668 6021)" fill="#f3f9ff"/>
    </g>
    <g id="Group_1100443" data-name="Group 1100443" transform="translate(1116.938 5871.804)">
      <rect id="Rectangle_401104" data-name="Rectangle 401104" width="68" height="69" transform="translate(0.061 -0.612)" fill="none"/>
      <g id="Group_1102172" data-name="Group 1102172" transform="translate(2.06 1.388)">
        <g id="Group_1102171" data-name="Group 1102171" clip-path="url(#clip-path-3)">
          <path id="Path_890675" data-name="Path 890675" d="M8.46,35.8A27.532,27.532,0,0,0,35.992,63.328V8.265A27.532,27.532,0,0,0,8.46,35.8" transform="translate(-7.621 -7.445)" fill="#e2f5f1"/>
          <path id="Path_890676" data-name="Path 890676" d="M313.452,35.8A27.532,27.532,0,0,0,285.92,8.265V63.328A27.532,27.532,0,0,0,313.452,35.8" transform="translate(-257.549 -7.445)" fill="#b1efe2"/>
          <path id="Path_890677" data-name="Path 890677" d="M28.371,56.689V.018C15.581-.506,0,10.612,0,28.356c0,20.1,18.186,28.749,28.371,28.333m-1.5-4.341a27.9,27.9,0,0,1-8.528-12.268,77.222,77.222,0,0,0,8.528.855Zm0-14.411A70.755,70.755,0,0,1,17.4,36.883a35.814,35.814,0,0,1-.938-7.031H26.874Zm0-11.081H16.461a35.64,35.64,0,0,1,.938-7.029,70.333,70.333,0,0,1,9.474-1.054Zm0-22.5V15.772a77.172,77.172,0,0,0-8.528.856A27.912,27.912,0,0,1,26.874,4.359m-3.54-.875a31.4,31.4,0,0,0-8.328,13.779c-3.806.846-8.07,2.243-11.162,4.588A25.459,25.459,0,0,1,23.334,3.484M14.193,20.533a38.959,38.959,0,0,0-.727,6.322H3.353c1.568-3.363,7.222-5.389,10.841-6.322m-.727,9.318a38.982,38.982,0,0,0,.727,6.324c-3.584-.923-9.272-2.948-10.843-6.324Zm1.542,9.594a31.384,31.384,0,0,0,8.326,13.777A25.455,25.455,0,0,1,3.846,34.861c2.067,1.567,5.465,3.319,11.163,4.584" transform="translate(0 0)" fill="#7a4f00"/>
          <path id="Path_890678" data-name="Path 890678" d="M314.291,28.4c0-21-19.314-28.708-28.371-28.338V56.735c6.18.252,28.371-5.124,28.371-28.333M290.957,53.269a31.389,31.389,0,0,0,8.326-13.777c5.7-1.266,9.095-3.018,11.162-4.584a25.455,25.455,0,0,1-19.488,18.361M300.1,36.222a39.052,39.052,0,0,0,.726-6.324H310.94c-1.57,3.376-7.258,5.4-10.842,6.324m.726-9.32a39.026,39.026,0,0,0-.726-6.322c3.619.933,9.272,2.96,10.84,6.322Zm9.622-5c-3.092-2.345-7.357-3.742-11.162-4.588a31.4,31.4,0,0,0-8.328-13.779A25.459,25.459,0,0,1,310.447,21.9M287.417,4.406a27.908,27.908,0,0,1,8.529,12.268,77.176,77.176,0,0,0-8.529-.855Zm0,14.413a70.3,70.3,0,0,1,9.475,1.054,35.7,35.7,0,0,1,.938,7.029H287.417Zm0,11.079H297.83a35.725,35.725,0,0,1-.938,7.031,70.723,70.723,0,0,1-9.475,1.054Zm0,11.084a77.224,77.224,0,0,0,8.529-.856,27.9,27.9,0,0,1-8.529,12.268Z" transform="translate(-257.549 -0.046)" fill="#5d3d03"/>
          <path id="Path_890679" data-name="Path 890679" d="M313.82,285.9v35.275a1.637,1.637,0,0,1-1.639-1.639c0-.028,0-.056,0-.083-.026,0-.051-.007-.075-.009,0,.028-.007.054-.013.082a1.639,1.639,0,1,1-3.207-.682c.006-.028.015-.052.021-.081l-.069-.022c-.011.024-.019.052-.032.077a1.639,1.639,0,1,1-2.995-1.333c.013-.026.026-.051.039-.077-.02-.013-.043-.024-.064-.038-.017.024-.03.049-.047.073a1.64,1.64,0,1,1-2.653-1.928c.017-.023.036-.045.055-.067-.019-.015-.038-.032-.056-.049-.021.021-.04.041-.06.06a1.639,1.639,0,1,1-2.195-2.435.793.793,0,0,1,.067-.054c-.015-.021-.028-.041-.043-.062-.025.017-.049.034-.074.049a1.64,1.64,0,0,1-1.639-2.841.669.669,0,0,1,.075-.038c-.009-.025-.021-.047-.03-.069a.68.68,0,0,1-.079.03,1.639,1.639,0,1,1-1.013-3.117c.026-.01.054-.015.08-.023l-.017-.073-.081.013a1.64,1.64,0,1,1-.343-3.261l.085,0V303.5l-.085,0a1.64,1.64,0,1,1,.343-3.261.56.56,0,0,1,.081.013l.017-.073c-.026-.008-.054-.013-.08-.023a1.64,1.64,0,0,1,1.013-3.119c.027.009.053.021.079.03.009-.023.019-.045.03-.068l-.075-.038a1.64,1.64,0,0,1,1.639-2.841c.026.015.049.032.074.047.015-.019.028-.039.043-.06a.775.775,0,0,1-.067-.054,1.639,1.639,0,1,1,2.195-2.435c.021.019.039.039.06.058.019-.015.038-.032.056-.049-.019-.021-.038-.043-.055-.066a1.64,1.64,0,1,1,2.653-1.928c.017.024.032.049.047.073.021-.013.044-.025.064-.038-.013-.026-.026-.051-.037-.077a1.639,1.639,0,1,1,2.994-1.333c.011.026.021.052.03.079l.071-.024c-.007-.026-.017-.053-.023-.081a1.639,1.639,0,1,1,3.207-.681c.006.028.01.056.013.082.026,0,.051-.006.075-.009,0-.026,0-.054,0-.083a1.64,1.64,0,0,1,1.639-1.639" transform="translate(-266.871 -257.527)" fill="#faa819"/>
          <path id="Path_890680" data-name="Path 890680" d="M490.684,305.377a1.637,1.637,0,0,1-1.8,1.459.577.577,0,0,1-.083-.013c0,.024-.011.049-.015.073.026.007.053.013.079.023a1.639,1.639,0,1,1-1.012,3.118c-.028-.009-.052-.021-.078-.03-.011.023-.021.045-.032.068l.075.038a1.64,1.64,0,1,1-1.639,2.841c-.025-.015-.049-.032-.073-.049-.013.021-.029.041-.043.062a.606.606,0,0,1,.067.055,1.639,1.639,0,1,1-2.193,2.435c-.022-.019-.041-.039-.06-.058-.019.015-.04.032-.058.049.019.021.038.043.054.066a1.639,1.639,0,1,1-2.651,1.928c-.017-.024-.032-.049-.047-.073l-.066.038c.013.026.028.051.039.077a1.639,1.639,0,1,1-2.995,1.333c-.012-.026-.021-.052-.03-.077l-.071.022c.007.028.015.054.02.081a1.639,1.639,0,1,1-3.207.682c-.006-.028-.01-.056-.013-.082-.025,0-.049.006-.075.009,0,.026.005.055.005.083a1.639,1.639,0,0,1-1.639,1.639V285.9a1.639,1.639,0,0,1,1.639,1.639c0,.028,0,.056,0,.083.024,0,.049.007.073.009.006-.026.008-.054.013-.082a1.639,1.639,0,1,1,3.207.681c-.006.028-.013.055-.02.081.024.007.047.017.071.024.009-.026.018-.052.03-.079a1.639,1.639,0,1,1,2.995,1.333c-.011.026-.026.053-.039.077l.066.037c.015-.024.03-.049.047-.071a1.639,1.639,0,1,1,2.651,1.926c-.016.022-.036.045-.054.068.019.017.039.032.058.049a.566.566,0,0,1,.06-.06,1.638,1.638,0,1,1,2.193,2.435.74.74,0,0,1-.066.054c.013.021.028.041.044.062a.568.568,0,0,1,.071-.047,1.639,1.639,0,1,1,1.639,2.839l-.073.038c.01.023.021.045.031.069a.528.528,0,0,1,.078-.03,1.638,1.638,0,1,1,1.012,3.117c-.026.009-.053.015-.079.023,0,.024.011.049.017.073l.079-.013a1.64,1.64,0,0,1,.344,3.261l-.084,0c0,.013,0,.024,0,.038s0,.025,0,.038l.084,0a1.642,1.642,0,0,1,1.459,1.8" transform="translate(-426.195 -257.527)" fill="#f58a1f"/>
          <path id="Path_890681" data-name="Path 890681" d="M359.267,335.671a14.1,14.1,0,1,1-14.1-14.1,14.1,14.1,0,0,1,14.1,14.1" transform="translate(-298.221 -289.664)" fill="#ffc708"/>
          <path id="Path_890682" data-name="Path 890682" d="M424.09,377.652a7.088,7.088,0,0,0-3.568-1.532l-1.653-.335a4.319,4.319,0,0,1-1.631-.579,1.115,1.115,0,0,1-.449-.944,1.281,1.281,0,0,1,.667-1.191,4.275,4.275,0,0,1,2.057-.383,9.587,9.587,0,0,1,2.231.283,13.8,13.8,0,0,1,2.421.837v-3.186a23.2,23.2,0,0,0-2.715-.563c-.264-.036-.521-.057-.78-.083v-1.757h-2.913v1.719a5.571,5.571,0,0,0-3.034,1.147,4.246,4.246,0,0,0-1.451,3.459,3.889,3.889,0,0,0,1.044,2.856,6.47,6.47,0,0,0,3.3,1.543l1.5.333a4.7,4.7,0,0,1,1.833.685,1.464,1.464,0,0,1-.218,2.3,3.661,3.661,0,0,1-1.945.425,9.288,9.288,0,0,1-2.6-.389,14.5,14.5,0,0,1-2.79-1.154v3.278a17.862,17.862,0,0,0,2.887.806,14.59,14.59,0,0,0,1.469.205v1.725h2.913v-1.746a5.752,5.752,0,0,0,3.005-1.126,4.519,4.519,0,0,0,1.478-3.706,3.887,3.887,0,0,0-1.061-2.927" transform="translate(-372.261 -331.681)" fill="#fcee3b"/>
        </g>
      </g>
    </g>
  </g>
</svg>
