<svg xmlns="http://www.w3.org/2000/svg" xmlns:xlink="http://www.w3.org/1999/xlink" width="120" height="120" viewBox="0 0 120 120">
  <defs>
    <clipPath id="clip-path">
      <rect id="Rectangle_400938" data-name="Rectangle 400938" width="120" height="120" transform="translate(0 0)" fill="none"/>
    </clipPath>
    <clipPath id="clip-path-2">
      <rect id="Rectangle_401073" data-name="Rectangle 401073" width="92.219" height="41.532" fill="#7d3a1b"/>
    </clipPath>
    <clipPath id="clip-path-3">
      <rect id="Rectangle_404792" data-name="Rectangle 404792" width="64" height="63.242" fill="none"/>
    </clipPath>
  </defs>
  <g id="Group_1103513" data-name="Group 1103513" transform="translate(-180 -4969.437)">
    <g id="Group_1102220" data-name="Group 1102220" transform="translate(0 -167.984)">
      <g id="Group_1099349" data-name="Group 1099349" transform="translate(-207.668 -875.579)">
        <rect id="Rectangle_401103" data-name="Rectangle 401103" width="120" height="120" transform="translate(387.668 6013)" fill="none"/>
        <g id="Group_1099348" data-name="Group 1099348" transform="translate(387.668 6013)">
          <g id="Group_1099282" data-name="Group 1099282">
            <g id="Group_1099281" data-name="Group 1099281" clip-path="url(#clip-path-2)">
              <path id="Path_873375" data-name="Path 873375" d="M74.8,9.1c-4.139,0-6.28-2.03-8.17-3.821-1.855-1.756-3.452-3.274-6.792-3.274s-4.937,1.517-6.792,3.274C51.161,7.072,49.023,9.1,44.881,9.1s-6.28-2.03-8.169-3.821C34.857,3.525,33.26,2.007,29.92,2.007s-4.937,1.517-6.789,3.274C21.241,7.072,19.1,9.1,14.962,9.1S8.679,7.072,6.789,5.281C4.937,3.525,3.34,2.007,0,2.007V0C4.139,0,6.28,2.033,8.17,3.821c1.855,1.759,3.452,3.274,6.792,3.274S19.9,5.58,21.75,3.824C23.637,2.033,25.781,0,29.92,0s6.283,2.033,8.17,3.821c1.855,1.759,3.452,3.274,6.792,3.274s4.937-1.514,6.792-3.274C53.56,2.033,55.7,0,59.843,0s6.283,2.033,8.17,3.821C69.867,5.58,71.464,7.094,74.8,7.094S79.742,5.58,81.6,3.821C83.483,2.033,85.624,0,89.766,0V2.007c-3.34,0-4.937,1.517-6.792,3.274C81.084,7.072,78.943,9.1,74.8,9.1" transform="translate(2.453 32.43)" fill="#7d3a1b"/>
              <path id="Path_873376" data-name="Path 873376" d="M74.8,9.1c-4.139,0-6.283-2.03-8.17-3.824-1.855-1.756-3.452-3.27-6.792-3.27s-4.937,1.514-6.792,3.27C51.164,7.072,49.023,9.1,44.881,9.1s-6.283-2.03-8.17-3.824c-1.855-1.756-3.452-3.27-6.792-3.27s-4.937,1.517-6.789,3.27C21.241,7.072,19.1,9.1,14.962,9.1S8.679,7.072,6.789,5.278C4.937,3.522,3.34,2.007,0,2.007V0C4.139,0,6.283,2.03,8.17,3.821c1.855,1.759,3.452,3.274,6.792,3.274S19.9,5.58,21.75,3.821C23.637,2.03,25.781,0,29.92,0S36.2,2.03,38.093,3.821c1.852,1.759,3.449,3.274,6.789,3.274s4.937-1.514,6.792-3.274C53.56,2.03,55.7,0,59.843,0s6.283,2.03,8.17,3.821C69.867,5.58,71.464,7.094,74.8,7.094S79.742,5.58,81.6,3.821C83.486,2.03,85.627,0,89.769,0V2.007c-3.34,0-4.94,1.517-6.8,3.27C81.084,7.072,78.943,9.1,74.8,9.1" transform="translate(1.635 21.62)" fill="#7d3a1b"/>
              <path id="Path_873377" data-name="Path 873377" d="M74.8,9.1c-4.139,0-6.283-2.03-8.169-3.824-1.855-1.756-3.452-3.27-6.792-3.27s-4.937,1.514-6.792,3.27C51.164,7.072,49.02,9.1,44.881,9.1s-6.283-2.03-8.17-3.824c-1.855-1.756-3.452-3.27-6.792-3.27s-4.937,1.517-6.789,3.27C21.241,7.072,19.1,9.1,14.962,9.1S8.678,7.072,6.789,5.278C4.937,3.522,3.34,2.007,0,2.007V0C4.139,0,6.283,2.03,8.169,3.821c1.851,1.759,3.452,3.274,6.792,3.274S19.9,5.58,21.75,3.821C23.637,2.03,25.781,0,29.92,0S36.2,2.03,38.093,3.821c1.852,1.759,3.449,3.274,6.789,3.274s4.937-1.514,6.792-3.274C53.56,2.03,55.7,0,59.843,0s6.283,2.03,8.17,3.821C69.867,5.58,71.464,7.094,74.8,7.094S79.742,5.58,81.6,3.821C83.486,2.03,85.624,0,89.769,0V2.007c-3.34,0-4.941,1.517-6.8,3.27C81.084,7.072,78.943,9.1,74.8,9.1" transform="translate(0.818 10.81)" fill="#7d3a1b"/>
              <path id="Path_873378" data-name="Path 873378" d="M74.8,9.1c-4.139,0-6.28-2.03-8.17-3.821-1.855-1.756-3.452-3.27-6.792-3.27s-4.937,1.514-6.789,3.27C51.164,7.069,49.023,9.1,44.881,9.1s-6.28-2.03-8.169-3.821c-1.855-1.756-3.452-3.27-6.792-3.27s-4.937,1.514-6.789,3.267C21.245,7.069,19.1,9.1,14.962,9.1S8.678,7.069,6.789,5.278C4.937,3.522,3.34,2.007,0,2.007V0C4.139,0,6.283,2.03,8.17,3.821c1.855,1.756,3.452,3.27,6.792,3.27S19.9,5.577,21.75,3.821C23.64,2.03,25.781,0,29.92,0s6.28,2.03,8.173,3.821c1.852,1.756,3.449,3.27,6.789,3.27s4.937-1.514,6.792-3.27C53.563,2.03,55.7,0,59.843,0s6.28,2.03,8.17,3.821c1.855,1.756,3.452,3.27,6.792,3.27s4.937-1.514,6.792-3.27C83.486,2.03,85.627,0,89.769,0V2.007c-3.344,0-4.941,1.514-6.8,3.27C81.084,7.069,78.943,9.1,74.8,9.1" transform="translate(0 0.003)" fill="#7d3a1b"/>
            </g>
          </g>
        </g>
        <circle id="Ellipse_11504" data-name="Ellipse 11504" cx="50" cy="50" r="50" transform="translate(402.668 6031)" fill="#efb499"/>
        <circle id="Ellipse_11503" data-name="Ellipse 11503" cx="52" cy="52" r="52" transform="translate(395.668 6021)" fill="#f3f9ff"/>
      </g>
      <g id="Group_1099357" data-name="Group 1099357" transform="translate(205.941 5163.225)">
        <rect id="Rectangle_401104" data-name="Rectangle 401104" width="68" height="69" transform="translate(0.059 -0.804)" fill="none"/>
        <g id="Group_1102223" data-name="Group 1102223" transform="translate(2.059 5.015)">
          <g id="Group_1102222" data-name="Group 1102222" clip-path="url(#clip-path-3)">
            <path id="Path_891191" data-name="Path 891191" d="M28.824,61.922c.006,1.284,0,2.575,0,3.859h20.03c-.006-1.284.009-2.575,0-3.859h6.064c.036,2.444,1.06,3.511,3.124,4.41.174.076.422.475.919.551.143,1.04-.564,3.049,1.01,2.958,1.354-.078.676-2.035.828-2.958.595-.092,1.654-.946,2.205-.735l6.8,9.739c-1.04.141-2.079.124-3.124.184l-33.812-.184c.019-1.344-.014-2.7,0-4.043H22.76V67.8H13.571c1.4-1.949,2.732-3.964,4.173-5.883Zm11.027,9.556c.766.7,2.215.34,1.993-.783a9.821,9.821,0,0,0-2.863-2.863c-.676-.106-3.144,2.369-3.178,3.02-.054,1.031,1.326,1.268,2.023.627-.08,1.72,2.092,1.748,2.025,0m8.086,0C49.2,72.458,50.519,71.4,49.5,70c-.516-.715-2.248-2.552-3.14-2.024-.14.083-2.215,2.156-2.3,2.3-.467.809-.132,1.6.842,1.588.483-.007.579-.395,1-.382-.169,1.958,2.024,1.83,2.024,0m9.693.139a1.314,1.314,0,0,0,.135-1.238A19.067,19.067,0,0,0,55,67.8c-.668-.07-3.093,2.333-3.18,2.894a1.127,1.127,0,0,0,1.991.786c.083,1.779,2.334,1.74,2.025-.184.411.455,1.262.853,1.792.323" transform="translate(-6.96 -31.757)" fill="#acdc13"/>
            <path id="Path_891192" data-name="Path 891192" d="M58.845,31.746c.185,3.8-.138,7.756,0,11.577h6.064c0,1.039-.007,2.085,0,3.124.009,1.284-.007,2.575,0,3.859H44.878c0-1.284.006-2.575,0-3.859-.011-2.386.009-4.782,0-7.167h6.065c-.01,3.549.006,7.108,0,10.657l3.306-7.717c1.64,1.189,2.2-2.142,1.286-2.757ZM55.677,47.137c.65-.649.31-3.643-1.429-2.622-.494.291-.477,2.1-.2,2.543.251.4,1.316.387,1.625.078" transform="translate(-23.016 -16.282)" fill="#c3d3dd"/>
            <path id="Path_891193" data-name="Path 891193" d="M65.159,90.6c.424,1.2.069,2.745.185,4.044q-16.167-.007-32.343,0h-1.47c-8.987,0-18.032.208-27.013,0A14.583,14.583,0,0,1,7,94.273c18.362-1.1,36.672-2.434,55.035-3.494,1.045-.06,2.084-.043,3.124-.184" transform="translate(-2.317 -46.465)" fill="#ca9f69"/>
            <path id="Path_891194" data-name="Path 891194" d="M60.082,98.9c1.427.914,1.266,2.523,1.286,4.043h5.788c.478,0,2.865-3.843,4.5-3.411,1.408.371,1.495,1.69.734,2.768a29.821,29.821,0,0,1-3.215,3.584c-.652.484-3.674,1.712-3.861,2.019a8.207,8.207,0,0,0-.09,2.024h-7.9c-.014-3.211,0-6.427.009-9.639.17-.737.732-.99,1.277-1.387h1.47" transform="translate(-29.398 -50.721)" fill="#f8c7b2"/>
            <path id="Path_891195" data-name="Path 891195" d="M6.3,78.147h8.637V82.19H25.04a13.4,13.4,0,0,1,0,2.022H2.254A2.737,2.737,0,0,1,2.5,83.45c1.149-1.818,2.557-3.542,3.8-5.3" transform="translate(-1.156 -40.08)" fill="#adddf7"/>
            <path id="Path_891196" data-name="Path 891196" d="M52.115,4.069c.518-.5-4.617-1.794-5.056-1.833A24.629,24.629,0,0,0,30.631,6.752c-.793.6-3.2,3.158-3.687,3.31A1.045,1.045,0,0,1,25.682,8.8c.214-1.167,4.935-4.591,6.126-5.282C37.889-.013,46.1-.97,52.667,1.68,52.158.746,52.709-.255,53.82.059c.7.2,2.215,3.461,1.94,4.257-.155.448-3.33,1.828-3.922,1.793-1.449-.087-1.064-2.046.277-2.04" transform="translate(-13.162 0)" fill="#7d3a1b"/>
            <path id="Path_891197" data-name="Path 891197" d="M60.486,90.78c-18.362,1.059-36.673,2.389-55.035,3.494a14.484,14.484,0,0,0-2.483.365c-.489-.011-.983.009-1.471,0,0-.672,0-1.35,0-2.022,7.713-.081,15.442.109,23.154,0,.672-.009,1.35.007,2.022,0,.006-.672-.01-1.35,0-2.022Z" transform="translate(-0.768 -46.465)" fill="#fecab2"/>
            <path id="Path_891198" data-name="Path 891198" d="M57.328,38.892c.007-2.631,0-5.272,0-7.9h7.9c.008.122-.007.245,0,.367l-3.308,7.718c-1.6-1.069-2.25,2.058-1.286,2.757L57.33,49.549c0-3.549-.012-7.108,0-10.657m3.624-4.929c-1.123.327-.969,3.28.469,3.061,1.342-.2,1.266-3.567-.469-3.061" transform="translate(-29.401 -15.894)" fill="#ededee"/>
            <path id="Path_891199" data-name="Path 891199" d="M104.487,42.064c2.3-2.254,5.567-.184,4.919,2.99-.139.681-.785,1.025-.876,1.6,2.513.824,3.463,3.718,2.765,6.167-.315,1.1-1.205,1.689-1.663,2.656-.551-.211-1.61.643-2.205.735a9.653,9.653,0,0,1-1.838,0c-.5-.076-.745-.476-.919-.551,3.936-1.883,3.615-7.316-.184-9.188v-.184a2.688,2.688,0,0,0,0-4.227" transform="translate(-53.59 -21.087)" fill="#96d104"/>
            <path id="Path_891200" data-name="Path 891200" d="M12.023,74h9.188V78.04H31.318c-.014,1.344.019,2.7,0,4.043-.01.672.007,1.35,0,2.022-.672.006-1.35-.01-2.022,0V82.083a13.4,13.4,0,0,0,0-2.022H19.19V76.019H10.553c.481-.682.985-1.346,1.47-2.022" transform="translate(-5.412 -37.952)" fill="#489f36"/>
            <path id="Path_891201" data-name="Path 891201" d="M95.711,26.6c1.251.222,2.029-1.281,3.118-1.566,2.661-.7,3.195.45,4.881,1.746,2.22,1.706,2.918-.795,4.784-1.086,1.089-.17,3.3-.2,2.559,1.454-.357.794-1.509.466-2.264.68-1.023.289-1.488,1.365-2.875,1.535a4.092,4.092,0,0,1-3.492-.928c-.411-.318-.8-.943-1.213-1.175-2.229-1.256-3.184,1.961-5.5,1.365.8,1.019.307,2.569-1.1,1.924-.4-.184-2.6-2.366-2.578-2.921.025-.572,2.354-2.914,2.895-3.021,1.091-.216,1.551,1.268.783,1.993" transform="translate(-47.202 -12.611)" fill="#06a9e7"/>
            <path id="Path_891202" data-name="Path 891202" d="M95.8,12.311c1.793-.159,2.452-1.853,4.483-1.815,2.4.043,3.13,2.335,4.628,2.544,1.38.192,1.579-.731,2.591-1.244.775-.393,3.21-.805,3.6.009.853,1.792-1.37,1.468-2.259,1.7-.61.157-1.007.745-1.52,1.052a4.193,4.193,0,0,1-4.706-.327c-.477-.358-1.064-1.215-1.533-1.407-2.126-.868-3.043,2.063-5.282,1.516.981,1.133.067,2.67-1.3,1.754-.173-.116-2.123-2.067-2.2-2.206-.532-.9,1.39-2.708,2.124-3.224,1.4-.985,2.3.494,1.379,1.651" transform="translate(-47.29 -5.301)" fill="#06a9e7"/>
            <path id="Path_891203" data-name="Path 891203" d="M1.818,90.588H24.6V92.61c-7.712.109-15.441-.081-23.154,0a11.947,11.947,0,0,1,0-1.9c.053-.2.358-.1.37-.121" transform="translate(-0.72 -46.457)" fill="#06a9e7"/>
            <path id="Path_891204" data-name="Path 891204" d="M101.574,61.305c-2.064-.9-3.089-1.966-3.124-4.41-.033-2.286,1.079-3.634,2.94-4.778,3.8,1.872,4.119,7.306.184,9.188" transform="translate(-50.493 -26.73)" fill="#dbf117"/>
            <path id="Path_891205" data-name="Path 891205" d="M65.232,121.53c-.036,1.343.027,2.7,0,4.043h-7.9c0-1.345.006-2.7,0-4.043Z" transform="translate(-29.403 -62.331)" fill="#055b80"/>
            <path id="Path_891206" data-name="Path 891206" d="M14.376,32.9c4.084-.734,5.115,5.518,1.042,6.006-4.053.486-4.6-5.367-1.042-6.006" transform="translate(-6.16 -16.845)" fill="#ffb937"/>
            <path id="Path_891207" data-name="Path 891207" d="M103.439,47.29a2.742,2.742,0,0,1,0-4.227,2.688,2.688,0,0,1,0,4.227" transform="translate(-52.542 -22.086)" fill="#dbf117"/>
            <path id="Path_891208" data-name="Path 891208" d="M16.678,20.442c1.648-.446,1.918,2.994.313,3.094-1.651.1-1.456-2.784-.313-3.094" transform="translate(-8.096 -10.464)" fill="#ffb937"/>
            <path id="Path_891209" data-name="Path 891209" d="M5.53,29.382c-.934.693-3.284-.952-2.255-2.163,1.011-1.191,3.591,1.171,2.255,2.163" transform="translate(-1.549 -13.792)" fill="#ffb937"/>
            <path id="Path_891210" data-name="Path 891210" d="M.228,41.084c.457-.481,2.193-.865,2.687-.117.851,1.287-1.664,2.4-2.546,1.625a1.129,1.129,0,0,1-.141-1.508" transform="translate(0 -20.796)" fill="#ffb937"/>
            <path id="Path_891211" data-name="Path 891211" d="M23.391,49.869c1.529-.471,2.717,2.407,1.161,2.832-1.294.354-2.528-2.411-1.161-2.832" transform="translate(-11.691 -25.55)" fill="#ffb937"/>
            <path id="Path_891212" data-name="Path 891212" d="M30.327,39.849c.641-.637,3.488-.144,2.76,1.382-.708,1.482-4.06-.089-2.76-1.382" transform="translate(-15.402 -20.299)" fill="#ffb937"/>
            <path id="Path_891213" data-name="Path 891213" d="M11.578,50.37c.605.6-.113,2.6-.976,2.717-2.477.34-.551-4.242.976-2.717" transform="translate(-4.828 -25.674)" fill="#ffb937"/>
            <path id="Path_891214" data-name="Path 891214" d="M28.237,26.106c1.677-.355,1.676,1.5.224,2.439-1.843,1.2-2.329-1.993-.224-2.439" transform="translate(-13.774 -13.366)" fill="#ffb937"/>
            <path id="Path_891215" data-name="Path 891215" d="M79.825,77.756c0,1.831-2.193,1.958-2.024,0-.425-.013-.521.375-1,.381-.974.015-1.309-.779-.842-1.587.081-.141,2.157-2.215,2.3-2.3.892-.528,2.624,1.31,3.14,2.024,1.015,1.4-.3,2.459-1.567,1.478" transform="translate(-38.849 -38.035)" fill="#7a4f00"/>
            <path id="Path_891216" data-name="Path 891216" d="M63.257,77.7c.067,1.749-2.105,1.72-2.025,0-.7.641-2.077.4-2.023-.626.034-.651,2.5-3.126,3.178-3.02a9.816,9.816,0,0,1,2.863,2.864c.222,1.122-1.227,1.481-1.993.783" transform="translate(-30.367 -37.979)" fill="#7a4f00"/>
            <path id="Path_891217" data-name="Path 891217" d="M97.89,77.8c-.53.53-1.38.132-1.792-.323.309,1.925-1.942,1.963-2.025.184a1.127,1.127,0,0,1-1.991-.786c.088-.561,2.513-2.965,3.18-2.894a19.067,19.067,0,0,1,2.762,2.582A1.314,1.314,0,0,1,97.89,77.8" transform="translate(-47.221 -37.945)" fill="#7a4f00"/>
            <path id="Path_891218" data-name="Path 891218" d="M108.548,72.111c-.151.923.527,2.879-.828,2.958-1.574.091-.867-1.918-1.01-2.958a9.608,9.608,0,0,0,1.837,0" transform="translate(-54.71 -36.984)" fill="#7a4f00"/>
            <path id="Path_891219" data-name="Path 891219" d="M64.935,47.358c.917.615.354,3.946-1.286,2.757-.963-.7-.309-3.826,1.286-2.757" transform="translate(-32.413 -24.176)" fill="#06a9e7"/>
            <path id="Path_891220" data-name="Path 891220" d="M65.132,60.361c-.309.308-1.374.317-1.625-.078-.281-.442-.3-2.252.2-2.543,1.739-1.021,2.079,1.972,1.429,2.622" transform="translate(-32.471 -29.506)" fill="#06a9e7"/>
            <path id="Path_891221" data-name="Path 891221" d="M63.993,37.04c1.735-.506,1.81,2.856.469,3.061-1.438.219-1.591-2.733-.469-3.061" transform="translate(-32.441 -18.971)" fill="#06a9e7"/>
          </g>
        </g>
      </g>
    </g>
  </g>
</svg>
