<svg xmlns="http://www.w3.org/2000/svg" xmlns:xlink="http://www.w3.org/1999/xlink" width="121" height="121" viewBox="0 0 121 121">
  <defs>
    <clipPath id="clip-path">
      <rect id="Rectangle_400938" data-name="Rectangle 400938" width="121" height="121" transform="translate(0 0)" fill="none"/>
    </clipPath>
    <clipPath id="clip-path-2">
      <rect id="Rectangle_401073" data-name="Rectangle 401073" width="92.219" height="41.532" fill="#efb499"/>
    </clipPath>
    <clipPath id="clip-path-3">
      <rect id="Rectangle_404732" data-name="Rectangle 404732" width="68.752" height="62.31" fill="none"/>
    </clipPath>
  </defs>
  <g id="Group_1102165" data-name="Group 1102165" transform="translate(-1090.996 -5846)">
    <g id="Group_1100440" data-name="Group 1100440" transform="translate(703.328 -167)">
      <rect id="Rectangle_401103" data-name="Rectangle 401103" width="121" height="121" transform="translate(387.668 6013)" fill="none"/>
      <g id="Group_1099348" data-name="Group 1099348" transform="translate(387.668 6013)">
        <g id="Group_1099282" data-name="Group 1099282">
          <g id="Group_1099281" data-name="Group 1099281" clip-path="url(#clip-path-2)">
            <path id="Path_873375" data-name="Path 873375" d="M74.8,9.1c-4.139,0-6.28-2.03-8.17-3.821-1.855-1.756-3.452-3.274-6.792-3.274s-4.937,1.517-6.792,3.274C51.161,7.072,49.023,9.1,44.881,9.1s-6.28-2.03-8.169-3.821C34.857,3.525,33.26,2.007,29.92,2.007s-4.937,1.517-6.789,3.274C21.241,7.072,19.1,9.1,14.962,9.1S8.679,7.072,6.789,5.281C4.937,3.525,3.34,2.007,0,2.007V0C4.139,0,6.28,2.033,8.17,3.821c1.855,1.759,3.452,3.274,6.792,3.274S19.9,5.58,21.75,3.824C23.637,2.033,25.781,0,29.92,0s6.283,2.033,8.17,3.821c1.855,1.759,3.452,3.274,6.792,3.274s4.937-1.514,6.792-3.274C53.56,2.033,55.7,0,59.843,0s6.283,2.033,8.17,3.821C69.867,5.58,71.464,7.094,74.8,7.094S79.742,5.58,81.6,3.821C83.483,2.033,85.624,0,89.766,0V2.007c-3.34,0-4.937,1.517-6.792,3.274C81.084,7.072,78.943,9.1,74.8,9.1" transform="translate(2.453 32.43)" fill="#efb499"/>
            <path id="Path_873376" data-name="Path 873376" d="M74.8,9.1c-4.139,0-6.283-2.03-8.17-3.824-1.855-1.756-3.452-3.27-6.792-3.27s-4.937,1.514-6.792,3.27C51.164,7.072,49.023,9.1,44.881,9.1s-6.283-2.03-8.17-3.824c-1.855-1.756-3.452-3.27-6.792-3.27s-4.937,1.517-6.789,3.27C21.241,7.072,19.1,9.1,14.962,9.1S8.679,7.072,6.789,5.278C4.937,3.522,3.34,2.007,0,2.007V0C4.139,0,6.283,2.03,8.17,3.821c1.855,1.759,3.452,3.274,6.792,3.274S19.9,5.58,21.75,3.821C23.637,2.03,25.781,0,29.92,0S36.2,2.03,38.093,3.821c1.852,1.759,3.449,3.274,6.789,3.274s4.937-1.514,6.792-3.274C53.56,2.03,55.7,0,59.843,0s6.283,2.03,8.17,3.821C69.867,5.58,71.464,7.094,74.8,7.094S79.742,5.58,81.6,3.821C83.486,2.03,85.627,0,89.769,0V2.007c-3.34,0-4.94,1.517-6.8,3.27C81.084,7.072,78.943,9.1,74.8,9.1" transform="translate(1.635 21.62)" fill="#efb499"/>
            <path id="Path_873377" data-name="Path 873377" d="M74.8,9.1c-4.139,0-6.283-2.03-8.169-3.824-1.855-1.756-3.452-3.27-6.792-3.27s-4.937,1.514-6.792,3.27C51.164,7.072,49.02,9.1,44.881,9.1s-6.283-2.03-8.17-3.824c-1.855-1.756-3.452-3.27-6.792-3.27s-4.937,1.517-6.789,3.27C21.241,7.072,19.1,9.1,14.962,9.1S8.678,7.072,6.789,5.278C4.937,3.522,3.34,2.007,0,2.007V0C4.139,0,6.283,2.03,8.169,3.821c1.851,1.759,3.452,3.274,6.792,3.274S19.9,5.58,21.75,3.821C23.637,2.03,25.781,0,29.92,0S36.2,2.03,38.093,3.821c1.852,1.759,3.449,3.274,6.789,3.274s4.937-1.514,6.792-3.274C53.56,2.03,55.7,0,59.843,0s6.283,2.03,8.17,3.821C69.867,5.58,71.464,7.094,74.8,7.094S79.742,5.58,81.6,3.821C83.486,2.03,85.624,0,89.769,0V2.007c-3.34,0-4.941,1.517-6.8,3.27C81.084,7.072,78.943,9.1,74.8,9.1" transform="translate(0.818 10.81)" fill="#efb499"/>
            <path id="Path_873378" data-name="Path 873378" d="M74.8,9.1c-4.139,0-6.28-2.03-8.17-3.821-1.855-1.756-3.452-3.27-6.792-3.27s-4.937,1.514-6.789,3.27C51.164,7.069,49.023,9.1,44.881,9.1s-6.28-2.03-8.169-3.821c-1.855-1.756-3.452-3.27-6.792-3.27s-4.937,1.514-6.789,3.267C21.245,7.069,19.1,9.1,14.962,9.1S8.678,7.069,6.789,5.278C4.937,3.522,3.34,2.007,0,2.007V0C4.139,0,6.283,2.03,8.17,3.821c1.855,1.756,3.452,3.27,6.792,3.27S19.9,5.577,21.75,3.821C23.64,2.03,25.781,0,29.92,0s6.28,2.03,8.173,3.821c1.852,1.756,3.449,3.27,6.789,3.27s4.937-1.514,6.792-3.27C53.563,2.03,55.7,0,59.843,0s6.28,2.03,8.17,3.821c1.855,1.756,3.452,3.27,6.792,3.27s4.937-1.514,6.792-3.27C83.486,2.03,85.627,0,89.769,0V2.007c-3.344,0-4.941,1.514-6.8,3.27C81.084,7.069,78.943,9.1,74.8,9.1" transform="translate(0 0.003)" fill="#efb499"/>
          </g>
        </g>
      </g>
      <circle id="Ellipse_11504" data-name="Ellipse 11504" cx="50.5" cy="50.5" r="50.5" transform="translate(402.668 6031)" fill="#ffce73"/>
      <circle id="Ellipse_11503" data-name="Ellipse 11503" cx="52.5" cy="52.5" r="52.5" transform="translate(395.668 6021)" fill="#f3f9ff"/>
    </g>
    <g id="Group_1102168" data-name="Group 1102168" transform="translate(1120.12 5875.345)">
      <g id="Group_1102167" data-name="Group 1102167" clip-path="url(#clip-path-3)">
        <path id="Path_890643" data-name="Path 890643" d="M320.776,0a.4.4,0,0,1,.411.383V4.54a.412.412,0,0,1-.822,0V.384A.4.4,0,0,1,320.776,0" transform="translate(-286.478)" fill="#df4626"/>
        <path id="Path_890644" data-name="Path 890644" d="M239.157,17.063a.421.421,0,0,1,.327.152l2.277,2.776a.368.368,0,0,1-.076.539.428.428,0,0,1-.577-.071l-2.277-2.778a.368.368,0,0,1,.076-.539.429.429,0,0,1,.249-.079" transform="translate(-213.493 -15.375)" fill="#df4626"/>
        <path id="Path_890645" data-name="Path 890645" d="M381.35,17.057a.435.435,0,0,1,.25.079.368.368,0,0,1,.076.539L379.4,20.454a.429.429,0,0,1-.576.071.367.367,0,0,1-.076-.538l2.277-2.778a.421.421,0,0,1,.328-.153" transform="translate(-338.609 -15.37)" fill="#df4626"/>
        <path id="Path_890646" data-name="Path 890646" d="M124.576,121.842a5.369,5.369,0,0,0-.941.086,5.038,5.038,0,0,0-3.745-1.487,4.7,4.7,0,0,0-4.138,2.035c-.07-.007-.142-.01-.215-.01a1.784,1.784,0,0,0-1.736.986,2.4,2.4,0,0,0-2.273,2.067c0,1.168,1.288,2.115,2.879,2.115.04,0,.08,0,.121,0h10v-.007h.049c2.173,0,3.935-1.294,3.935-2.891s-1.762-2.891-3.935-2.891" transform="translate(-99.731 -108.53)" fill="#ffe7ba"/>
        <path id="Path_890647" data-name="Path 890647" d="M319.976,222.484a12.311,12.311,0,0,1,1.912.153,11.094,11.094,0,0,1,7.608-2.62c3.794,0,7.043,1.481,8.407,3.584.144-.011.289-.017.438-.017,1.7,0,3.119.739,3.527,1.738,2.639.36,4.618,1.853,4.618,3.64,0,2.058-2.618,3.725-5.846,3.725-.084,0-.165-.006-.248-.007H320.075v-.012l-.1,0c-4.416,0-8-2.28-8-5.093s3.58-5.094,8-5.094" transform="translate(-278.981 -198.258)" fill="#ffe7ba"/>
        <path id="Path_890648" data-name="Path 890648" d="M218.466,109.955l-1.062-.569.032-.731V98.891l1.421.011a14.884,14.884,0,0,1,6.514,1.6l2.293-4.5a21.084,21.084,0,0,0-8.839-1.991l-1.388-.023V90.058a.806.806,0,0,0-1.61,0v4.079l-1.121.217c-6.088,1.183-10.18,5.211-10.18,10.021,0,5.118,5.136,8.269,10.159,10.679l1.027.525.115.831V127.53l-1.472.095c-.183.011-.363.022-.555.022a20.079,20.079,0,0,1-8.131-1.92l-2.081,4.5c2.2,1.378,6.252,2.249,10.1,2.249.144,0,.282-.012.418-.012l1.718-.056v3.856a.807.807,0,0,0,1.61,0v-4.024l1.118-.218c6.591-1.3,10.37-5.2,10.37-10.707,0-5.68-5.59-9.055-10.458-11.365m-5.113-3.314a4.193,4.193,0,0,1-1.161-3.108,4.019,4.019,0,0,1,1.186-2.789l1.238-.927,1.222-.535-.012,9.35-1.286-.786Zm6.551,18.921-1.125,1.171-1.343.82V115.986l1.532,1.323,1.008,1.445a5.42,5.42,0,0,1,1.174,3.571,4.645,4.645,0,0,1-1.246,3.237" transform="translate(-182.054 -80.468)" fill="#df4626"/>
        <path id="Path_890649" data-name="Path 890649" d="M211.463,104.072,210.4,103.5l.032-.731V93.008l1.42.01a14.914,14.914,0,0,1,6.513,1.6l2.293-4.5a21.093,21.093,0,0,0-8.84-1.991l-1.387-.023V84.176a.806.806,0,0,0-1.61,0v4.078l-1.121.217c-6.088,1.183-10.18,5.211-10.18,10.021,0,5.117,5.136,8.27,10.159,10.68l1.027.525.115.831v11.12l-1.472.1c-.184.011-.362.022-.555.022a20.092,20.092,0,0,1-8.131-1.919l-2.081,4.5c2.2,1.377,6.252,2.248,10.1,2.248.144,0,.281-.012.418-.012l1.718-.057v3.856a.807.807,0,0,0,1.61,0v-4.023l1.117-.218c6.592-1.3,10.37-5.2,10.37-10.706,0-5.679-5.59-9.055-10.458-11.366m-5.113-3.314a4.19,4.19,0,0,1-1.161-3.107,4.021,4.021,0,0,1,1.186-2.79l1.238-.925,1.222-.536-.012,9.351-1.286-.787Zm6.551,18.921-1.125,1.172-1.342.82V110.1l1.532,1.323,1.007,1.445a5.421,5.421,0,0,1,1.174,3.572,4.646,4.646,0,0,1-1.245,3.237" transform="translate(-175.791 -75.167)" fill="#f9bc1c"/>
        <path id="Path_890650" data-name="Path 890650" d="M25.385,247.564a7.806,7.806,0,0,0-1.756.206,8.5,8.5,0,0,0-6.983-3.53,8.372,8.372,0,0,0-7.719,4.829,3.513,3.513,0,0,0-.4-.025,3.314,3.314,0,0,0-3.237,2.343,5.111,5.111,0,0,0-4.24,4.905,5.2,5.2,0,0,0,5.367,5.018c.077,0,.152-.008.227-.01h18.65v-.015c.03,0,.061,0,.092,0a6.878,6.878,0,1,0,0-13.725" transform="translate(-0.938 -220.086)" fill="#ffe7ba"/>
        <path id="Path_890651" data-name="Path 890651" d="M399.7,512.693a.266.266,0,0,0-.1-.147.3.3,0,0,0-.253-.052l-2.115.491a11.8,11.8,0,0,0-2.564-3.2l1.1-1.285a.26.26,0,0,0-.046-.383.3.3,0,0,0-.41.042l-1.073,1.257a14.6,14.6,0,0,0-4.02-2.3l.03-1.419a.266.266,0,0,0-.11-.22.3.3,0,0,0-.175-.059.283.283,0,0,0-.3.267l-.026,1.222a16.75,16.75,0,0,0-5.356-.867c-7.831,0-14.179,5.24-14.179,11.7h28.358a9.9,9.9,0,0,0-.974-4.263l2-.463a.273.273,0,0,0,.213-.33" transform="translate(-330.952 -455.439)" fill="#95c83d"/>
        <path id="Path_890652" data-name="Path 890652" d="M15.194,502.554l.759-1.722a.52.52,0,0,0-.307-.694.6.6,0,0,0-.366-.023.554.554,0,0,0-.379.312l-.928,2.1a20.973,20.973,0,0,0-3.515.327l-.595-2.069a.583.583,0,0,0-.7-.375.531.531,0,0,0-.4.653l.582,2.023a17.342,17.342,0,0,0-3.569,1.273l-1.7-1.216a.606.606,0,0,0-.494-.091.566.566,0,0,0-.3.189.512.512,0,0,0,.106.747l1.323.948C1.82,506.667,0,509.173,0,511.963a6.408,6.408,0,0,0,.077.987h28.2a6.408,6.408,0,0,0,.078-.987c0-4.984-5.808-9.062-13.164-9.409" transform="translate(0 -450.64)" fill="#1a924b"/>
        <path id="Path_890653" data-name="Path 890653" d="M170.222,480.944l.589-.507a1.075,1.075,0,0,0,.073-1.587,1.24,1.24,0,0,0-.678-.349,1.274,1.274,0,0,0-1.024.282l-1.439,1.238a33.717,33.717,0,0,0-4.139-1.03l.358-1.914a1.062,1.062,0,0,0-.2-.842,1.234,1.234,0,0,0-2.168.457l-.361,1.936a41.648,41.648,0,0,0-4.372-.292l-.964-1.727a1.209,1.209,0,0,0-.859-.586,1.289,1.289,0,0,0-.766.112,1.092,1.092,0,0,0-.507,1.517l.407.729c-11.282.553-20.116,5.556-20.116,11.651a6.323,6.323,0,0,0,.085.987h44.217a6.312,6.312,0,0,0,.084-.987c0-3.669-3.2-6.943-8.214-9.089" transform="translate(-119.872 -428.71)" fill="#4cb64a"/>
      </g>
    </g>
  </g>
</svg>
