<svg xmlns="http://www.w3.org/2000/svg" xmlns:xlink="http://www.w3.org/1999/xlink" width="120" height="120" viewBox="0 0 120 120">
  <defs>
    <clipPath id="clip-path">
      <rect id="Rectangle_400938" data-name="Rectangle 400938" width="120" height="120" transform="translate(0 0)" fill="none"/>
    </clipPath>
    <clipPath id="clip-path-2">
      <rect id="Rectangle_401073" data-name="Rectangle 401073" width="92.219" height="41.532" fill="#7d3a1b"/>
    </clipPath>
    <clipPath id="clip-path-3">
      <rect id="Rectangle_404797" data-name="Rectangle 404797" width="68" height="52.382" fill="none"/>
    </clipPath>
  </defs>
  <g id="Group_1103512" data-name="Group 1103512" transform="translate(-810 -4975.7)">
    <g id="Group_1102221" data-name="Group 1102221" transform="translate(0 -161.721)">
      <g id="Group_1099399" data-name="Group 1099399" transform="translate(422.332 -875.579)">
        <rect id="Rectangle_401103" data-name="Rectangle 401103" width="120" height="120" transform="translate(387.668 6013)" fill="none"/>
        <g id="Group_1099348" data-name="Group 1099348" transform="translate(387.668 6013)">
          <g id="Group_1099282" data-name="Group 1099282">
            <g id="Group_1099281" data-name="Group 1099281" clip-path="url(#clip-path-2)">
              <path id="Path_873375" data-name="Path 873375" d="M74.8,9.1c-4.139,0-6.28-2.03-8.17-3.821-1.855-1.756-3.452-3.274-6.792-3.274s-4.937,1.517-6.792,3.274C51.161,7.072,49.023,9.1,44.881,9.1s-6.28-2.03-8.169-3.821C34.857,3.525,33.26,2.007,29.92,2.007s-4.937,1.517-6.789,3.274C21.241,7.072,19.1,9.1,14.962,9.1S8.679,7.072,6.789,5.281C4.937,3.525,3.34,2.007,0,2.007V0C4.139,0,6.28,2.033,8.17,3.821c1.855,1.759,3.452,3.274,6.792,3.274S19.9,5.58,21.75,3.824C23.637,2.033,25.781,0,29.92,0s6.283,2.033,8.17,3.821c1.855,1.759,3.452,3.274,6.792,3.274s4.937-1.514,6.792-3.274C53.56,2.033,55.7,0,59.843,0s6.283,2.033,8.17,3.821C69.867,5.58,71.464,7.094,74.8,7.094S79.742,5.58,81.6,3.821C83.483,2.033,85.624,0,89.766,0V2.007c-3.34,0-4.937,1.517-6.792,3.274C81.084,7.072,78.943,9.1,74.8,9.1" transform="translate(2.453 32.43)" fill="#7d3a1b"/>
              <path id="Path_873376" data-name="Path 873376" d="M74.8,9.1c-4.139,0-6.283-2.03-8.17-3.824-1.855-1.756-3.452-3.27-6.792-3.27s-4.937,1.514-6.792,3.27C51.164,7.072,49.023,9.1,44.881,9.1s-6.283-2.03-8.17-3.824c-1.855-1.756-3.452-3.27-6.792-3.27s-4.937,1.517-6.789,3.27C21.241,7.072,19.1,9.1,14.962,9.1S8.679,7.072,6.789,5.278C4.937,3.522,3.34,2.007,0,2.007V0C4.139,0,6.283,2.03,8.17,3.821c1.855,1.759,3.452,3.274,6.792,3.274S19.9,5.58,21.75,3.821C23.637,2.03,25.781,0,29.92,0S36.2,2.03,38.093,3.821c1.852,1.759,3.449,3.274,6.789,3.274s4.937-1.514,6.792-3.274C53.56,2.03,55.7,0,59.843,0s6.283,2.03,8.17,3.821C69.867,5.58,71.464,7.094,74.8,7.094S79.742,5.58,81.6,3.821C83.486,2.03,85.627,0,89.769,0V2.007c-3.34,0-4.94,1.517-6.8,3.27C81.084,7.072,78.943,9.1,74.8,9.1" transform="translate(1.635 21.62)" fill="#7d3a1b"/>
              <path id="Path_873377" data-name="Path 873377" d="M74.8,9.1c-4.139,0-6.283-2.03-8.169-3.824-1.855-1.756-3.452-3.27-6.792-3.27s-4.937,1.514-6.792,3.27C51.164,7.072,49.02,9.1,44.881,9.1s-6.283-2.03-8.17-3.824c-1.855-1.756-3.452-3.27-6.792-3.27s-4.937,1.517-6.789,3.27C21.241,7.072,19.1,9.1,14.962,9.1S8.678,7.072,6.789,5.278C4.937,3.522,3.34,2.007,0,2.007V0C4.139,0,6.283,2.03,8.169,3.821c1.851,1.759,3.452,3.274,6.792,3.274S19.9,5.58,21.75,3.821C23.637,2.03,25.781,0,29.92,0S36.2,2.03,38.093,3.821c1.852,1.759,3.449,3.274,6.789,3.274s4.937-1.514,6.792-3.274C53.56,2.03,55.7,0,59.843,0s6.283,2.03,8.17,3.821C69.867,5.58,71.464,7.094,74.8,7.094S79.742,5.58,81.6,3.821C83.486,2.03,85.624,0,89.769,0V2.007c-3.34,0-4.941,1.517-6.8,3.27C81.084,7.072,78.943,9.1,74.8,9.1" transform="translate(0.818 10.81)" fill="#7d3a1b"/>
              <path id="Path_873378" data-name="Path 873378" d="M74.8,9.1c-4.139,0-6.28-2.03-8.17-3.821-1.855-1.756-3.452-3.27-6.792-3.27s-4.937,1.514-6.789,3.27C51.164,7.069,49.023,9.1,44.881,9.1s-6.28-2.03-8.169-3.821c-1.855-1.756-3.452-3.27-6.792-3.27s-4.937,1.514-6.789,3.267C21.245,7.069,19.1,9.1,14.962,9.1S8.678,7.069,6.789,5.278C4.937,3.522,3.34,2.007,0,2.007V0C4.139,0,6.283,2.03,8.17,3.821c1.855,1.756,3.452,3.27,6.792,3.27S19.9,5.577,21.75,3.821C23.64,2.03,25.781,0,29.92,0s6.28,2.03,8.173,3.821c1.852,1.756,3.449,3.27,6.789,3.27s4.937-1.514,6.792-3.27C53.563,2.03,55.7,0,59.843,0s6.28,2.03,8.17,3.821c1.855,1.756,3.452,3.27,6.792,3.27s4.937-1.514,6.792-3.27C83.486,2.03,85.627,0,89.769,0V2.007c-3.344,0-4.941,1.514-6.8,3.27C81.084,7.069,78.943,9.1,74.8,9.1" transform="translate(0 0.003)" fill="#7d3a1b"/>
            </g>
          </g>
        </g>
        <circle id="Ellipse_11504" data-name="Ellipse 11504" cx="50" cy="50" r="50" transform="translate(402.668 6031)" fill="#efb499"/>
        <circle id="Ellipse_11503" data-name="Ellipse 11503" cx="52" cy="52" r="52" transform="translate(395.668 6021)" fill="#f3f9ff"/>
      </g>
      <g id="Group_1099398" data-name="Group 1099398" transform="translate(835.941 5163.225)">
        <rect id="Rectangle_401104" data-name="Rectangle 401104" width="68" height="69" transform="translate(0.059 -1.224)" fill="none"/>
        <g id="Group_1102226" data-name="Group 1102226" transform="translate(0.059 7.775)">
          <path id="Path_891222" data-name="Path 891222" d="M51.6,44.273,64.3,55.749,87.522,30.065,74.82,18.581Z" transform="translate(-19.523 -7.03)" fill="#82a816"/>
          <g id="Group_1102225" data-name="Group 1102225" transform="translate(0 0)">
            <g id="Group_1102224" data-name="Group 1102224" clip-path="url(#clip-path-3)">
              <path id="Path_891223" data-name="Path 891223" d="M70.736,53.05l14.4-15.927c-1.814-1.637-1.768-4.647.06-6.815l-4.226-3.826c-1.89,1.952-4.71,2.352-6.537.943L60.022,43.369c1.716,1.705,1.588,4.726-.329,6.847l4.217,3.813c1.934-2.14,4.96-2.562,6.826-.979" transform="translate(-22.585 -10.02)" fill="#738e11"/>
              <path id="Path_891224" data-name="Path 891224" d="M81.795,48.253a5.8,5.8,0,1,1-.413-8.2,5.8,5.8,0,0,1,.413,8.2" transform="translate(-27.122 -14.588)" fill="#82a816"/>
              <rect id="Rectangle_404793" data-name="Rectangle 404793" width="36.2" height="17.895" transform="translate(29.493 34.266) rotate(-71.189)" fill="#82a816"/>
              <path id="Path_891225" data-name="Path 891225" d="M67.421,35.272l7.242-21.246c-2.418-.821-3.619-3.731-2.758-6.57L66.263,5.534c-1,2.653-3.548,4.2-5.885,3.6L53.132,30.407c2.354.928,3.48,3.88,2.515,6.714l5.627,1.914c.97-2.853,3.7-4.511,6.148-3.763" transform="translate(-20.102 -2.094)" fill="#738e11"/>
              <path id="Path_891226" data-name="Path 891226" d="M72.773,29.683a6.069,6.069,0,1,1-3.788-7.7,6.072,6.072,0,0,1,3.788,7.7" transform="translate(-23.064 -8.194)" fill="#82a816"/>
              <rect id="Rectangle_404794" data-name="Rectangle 404794" width="17.118" height="34.629" transform="translate(23.465 7.829) rotate(-0.61)" fill="#82a816"/>
              <path id="Path_891227" data-name="Path 891227" d="M54.725,41.455,54.5,19.985c-2.439.025-4.449-2.219-4.577-5.052L44.22,15c-.065,2.714-1.866,4.92-4.163,5.124l.228,21.491c2.42.09,4.375,2.4,4.405,5.257l5.684-.06c-.03-2.885,1.909-5.249,4.351-5.352" transform="translate(-15.155 -5.65)" fill="#738e11"/>
              <path id="Path_891228" data-name="Path 891228" d="M54.071,35.916A5.8,5.8,0,1,1,48.2,30.173a5.8,5.8,0,0,1,5.866,5.743" transform="translate(-16.065 -11.416)" fill="#60a028"/>
              <path id="Path_891229" data-name="Path 891229" d="M32.532,43.853l-4.424,2.994L7.83,16.855,22.656,6.832,42.934,36.821Z" transform="translate(-2.962 -2.585)" fill="#82a816"/>
              <path id="Path_891230" data-name="Path 891230" d="M41.093,34.88,28.521,16.288c-2.115,1.428-5.161.631-6.9-1.77l-4.938,3.339c1.512,2.407,1.207,5.365-.677,6.872L28.59,43.34c2.159-1.319,5.194-.433,6.869,2.045l4.922-3.331c-1.689-2.5-1.363-5.678.712-7.173" transform="translate(-6.054 -5.493)" fill="#738e11"/>
              <path id="Path_891231" data-name="Path 891231" d="M36.935,31.238a6.067,6.067,0,1,1-8.425-1.629,6.07,6.07,0,0,1,8.425,1.629" transform="translate(-9.777 -10.809)" fill="#60a028"/>
              <path id="Path_891232" data-name="Path 891232" d="M49.573,19.678A8.914,8.914,0,1,1,40.6,10.83a8.913,8.913,0,0,1,8.977,8.849" transform="translate(-12.011 -4.097)" fill="#ffb21b"/>
              <path id="Path_891233" data-name="Path 891233" d="M49.4,19.957a8.462,8.462,0,1,1-8.522-8.4,8.459,8.459,0,0,1,8.522,8.4" transform="translate(-12.287 -4.374)" fill="#ffc91d"/>
              <path id="Path_891234" data-name="Path 891234" d="M48.7,21.062a6.669,6.669,0,1,1-6.719-6.619A6.671,6.671,0,0,1,48.7,21.062" transform="translate(-13.378 -5.464)" fill="#ffb21b"/>
              <path id="Path_891235" data-name="Path 891235" d="M48.59,21.683a6.387,6.387,0,1,1-6.434-6.339,6.387,6.387,0,0,1,6.434,6.339" transform="translate(-13.551 -5.805)" fill="#f4a517"/>
              <path id="Path_891236" data-name="Path 891236" d="M44.219,26.787l-.008-.963a4.148,4.148,0,0,1-1.727-.421l.3-1.188a3.584,3.584,0,0,0,1.683.432c.579-.006.968-.228.965-.636,0-.384-.326-.623-1.077-.873-1.088-.357-1.833-.857-1.841-1.838a1.875,1.875,0,0,1,1.7-1.814l-.008-.963.992-.008.006.889a3.742,3.742,0,0,1,1.474.324l-.288,1.148a3.38,3.38,0,0,0-1.463-.332c-.658,0-.868.288-.862.574,0,.332.356.541,1.218.86,1.21.418,1.7.974,1.7,1.882A1.934,1.934,0,0,1,45.2,25.743l.009,1.036Z" transform="translate(-16.074 -7.005)" fill="#ffc91d"/>
              <path id="Path_891237" data-name="Path 891237" d="M51.085,55.309V33.788a5.968,5.968,0,0,0-5.966-5.968H13.088V61.279H45.119a5.968,5.968,0,0,0,5.966-5.969" transform="translate(-4.952 -10.526)" fill="#061d2b"/>
              <rect id="Rectangle_404795" data-name="Rectangle 404795" width="19" height="9.401" transform="translate(27.133 29.325)" fill="#020f16"/>
              <path id="Path_891238" data-name="Path 891238" d="M53.057,52.764a3.184,3.184,0,1,1-3.187-3.182,3.186,3.186,0,0,1,3.187,3.182" transform="translate(-17.664 -18.759)" fill="#061d2b"/>
              <rect id="Rectangle_404796" data-name="Rectangle 404796" width="1.939" height="33.459" transform="translate(8.136 17.294)" fill="#020f16"/>
              <path id="Path_891239" data-name="Path 891239" d="M4.379,76.909v2.809h.038c.449.748,4.623,1.338,9.708,1.338s9.259-.59,9.708-1.338h.041V76.909Z" transform="translate(-1.657 -29.099)" fill="#ffb21b"/>
              <path id="Path_891240" data-name="Path 891240" d="M10.083,77.053v3.72c.987.122,2.135.218,3.388.272V77.053Z" transform="translate(-3.815 -29.153)" fill="#ffc91d"/>
              <path id="Path_891241" data-name="Path 891241" d="M16.562,78.129v3.35c.274.011.557.019.837.022V78.129Z" transform="translate(-6.266 -29.56)" fill="#ffc91d"/>
              <path id="Path_891242" data-name="Path 891242" d="M23.874,76.138c0,.7-4.362,1.268-9.749,1.268s-9.746-.569-9.746-1.268,4.362-1.267,9.746-1.267,9.749.568,9.749,1.267" transform="translate(-1.657 -28.327)" fill="#ffc91d"/>
              <path id="Path_891243" data-name="Path 891243" d="M22.952,76.448c0,.53-3.31.96-7.388.96s-7.383-.43-7.383-.96,3.3-.957,7.383-.957,7.388.427,7.388.957" transform="translate(-3.095 -28.562)" fill="#ffb21b"/>
              <path id="Path_891244" data-name="Path 891244" d="M22.661,76.663c0,.476-2.978.862-6.649.862s-6.646-.386-6.646-.862,2.975-.865,6.646-.865,6.649.386,6.649.865" transform="translate(-3.544 -28.678)" fill="#ffb21b"/>
              <path id="Path_891245" data-name="Path 891245" d="M7.489,71.485v2.809H7.53c.448.75,4.623,1.338,9.705,1.338s9.262-.587,9.708-1.338h.041V71.485Z" transform="translate(-2.833 -27.046)" fill="#ffb21b"/>
              <path id="Path_891246" data-name="Path 891246" d="M13.2,71.629v3.72c.984.122,2.132.218,3.387.277v-4Z" transform="translate(-4.993 -27.101)" fill="#ffc91d"/>
              <path id="Path_891247" data-name="Path 891247" d="M19.676,72.705v3.353c.272.008.552.016.835.022V72.705Z" transform="translate(-7.444 -27.508)" fill="#ffc91d"/>
              <path id="Path_891248" data-name="Path 891248" d="M26.984,70.715c0,.7-4.362,1.268-9.749,1.268s-9.746-.566-9.746-1.268,4.365-1.264,9.746-1.264,9.749.566,9.749,1.264" transform="translate(-2.833 -26.277)" fill="#ffc91d"/>
              <path id="Path_891249" data-name="Path 891249" d="M26.062,71.023c0,.53-3.309.963-7.388.963s-7.383-.433-7.383-.963,3.3-.96,7.383-.96,7.388.432,7.388.96" transform="translate(-4.272 -26.508)" fill="#ffb21b"/>
              <path id="Path_891250" data-name="Path 891250" d="M25.768,71.239c0,.479-2.972.865-6.646.865s-6.646-.386-6.646-.865,2.978-.865,6.646-.865,6.646.386,6.646.865" transform="translate(-4.72 -26.626)" fill="#ffc91d"/>
              <path id="Path_891251" data-name="Path 891251" d="M1.413,65.767v2.806h.041c.446.751,4.62,1.338,9.708,1.338s9.256-.587,9.708-1.338h.038V65.767Z" transform="translate(-0.535 -24.883)" fill="#ffb21b"/>
              <path id="Path_891252" data-name="Path 891252" d="M7.117,65.907v3.72c.987.122,2.135.218,3.391.275V65.907Z" transform="translate(-2.693 -24.936)" fill="#ffc91d"/>
              <path id="Path_891253" data-name="Path 891253" d="M13.6,66.984v3.35c.275.011.555.019.837.025V66.984Z" transform="translate(-5.144 -25.343)" fill="#ffc91d"/>
              <path id="Path_891254" data-name="Path 891254" d="M20.908,65c0,.7-4.365,1.264-9.746,1.264S1.413,65.692,1.413,65s4.362-1.267,9.749-1.267,9.746.565,9.746,1.267" transform="translate(-0.535 -24.112)" fill="#ffc91d"/>
              <path id="Path_891255" data-name="Path 891255" d="M19.984,65.3c0,.53-3.307.96-7.383.96s-7.385-.43-7.385-.96,3.307-.96,7.385-.96,7.383.432,7.383.96" transform="translate(-1.973 -24.343)" fill="#ffb21b"/>
              <path id="Path_891256" data-name="Path 891256" d="M19.695,65.517c0,.476-2.978.862-6.646.862S6.4,65.993,6.4,65.517s2.978-.865,6.649-.865,6.646.386,6.646.865" transform="translate(-2.421 -24.461)" fill="#ffb21b"/>
              <path id="Path_891257" data-name="Path 891257" d="M4.519,60.348v2.806h.044c.446.748,4.623,1.335,9.705,1.335s9.26-.587,9.711-1.335h.038V60.348Z" transform="translate(-1.71 -22.833)" fill="#ffb21b"/>
              <path id="Path_891258" data-name="Path 891258" d="M10.232,60.483v3.723c.984.122,2.132.218,3.388.274v-4Z" transform="translate(-3.871 -22.884)" fill="#ffc91d"/>
              <path id="Path_891259" data-name="Path 891259" d="M16.706,61.564v3.35l.84.025V61.564Z" transform="translate(-6.321 -23.293)" fill="#ffc91d"/>
              <path id="Path_891260" data-name="Path 891260" d="M24.016,59.575c0,.7-4.365,1.264-9.749,1.264s-9.749-.568-9.749-1.264,4.365-1.27,9.749-1.27,9.749.566,9.749,1.27" transform="translate(-1.71 -22.06)" fill="#ffc91d"/>
              <path id="Path_891261" data-name="Path 891261" d="M23.1,59.882c0,.53-3.307.96-7.388.96s-7.383-.43-7.383-.96,3.3-.96,7.383-.96,7.388.432,7.388.96" transform="translate(-3.149 -22.293)" fill="#ffb21b"/>
              <path id="Path_891262" data-name="Path 891262" d="M22.8,60.094c0,.476-2.975.865-6.649.865S9.51,60.57,9.51,60.094s2.975-.862,6.646-.862,6.649.386,6.649.862" transform="translate(-3.598 -22.41)" fill="#ffc91d"/>
              <path id="Path_891263" data-name="Path 891263" d="M0,54.407v2.807H.041c.448.75,4.623,1.34,9.708,1.34s9.256-.59,9.708-1.34h.04V54.407Z" transform="translate(0 -20.585)" fill="#ffb21b"/>
              <path id="Path_891264" data-name="Path 891264" d="M5.709,54.547v3.72c.984.122,2.132.221,3.388.275V54.547Z" transform="translate(-2.16 -20.638)" fill="#ffc91d"/>
              <path id="Path_891265" data-name="Path 891265" d="M12.187,55.623v3.353c.272.008.555.019.835.022V55.623Z" transform="translate(-4.611 -21.045)" fill="#ffc91d"/>
              <path id="Path_891266" data-name="Path 891266" d="M19.5,53.636c0,.7-4.367,1.264-9.749,1.264S0,54.335,0,53.636s4.365-1.267,9.749-1.267,9.749.565,9.749,1.267" transform="translate(0 -19.814)" fill="#ffc91d"/>
              <path id="Path_891267" data-name="Path 891267" d="M18.571,53.946c0,.53-3.307.96-7.383.96s-7.385-.43-7.385-.96,3.307-.96,7.385-.96,7.383.43,7.383.96" transform="translate(-1.438 -20.047)" fill="#ffb21b"/>
              <path id="Path_891268" data-name="Path 891268" d="M18.282,54.157c0,.476-2.978.865-6.646.865s-6.649-.389-6.649-.865,2.978-.865,6.649-.865,6.646.389,6.646.865" transform="translate(-1.887 -20.163)" fill="#ffb21b"/>
              <path id="Path_891269" data-name="Path 891269" d="M3.11,48.983v2.809h.041c.448.748,4.623,1.338,9.708,1.338s9.26-.59,9.705-1.338h.044V48.983Z" transform="translate(-1.177 -18.533)" fill="#ffb21b"/>
              <path id="Path_891270" data-name="Path 891270" d="M8.819,49.127v3.717c.985.125,2.132.22,3.388.277V49.127Z" transform="translate(-3.337 -18.587)" fill="#ffc91d"/>
              <path id="Path_891271" data-name="Path 891271" d="M15.3,50.2v3.35c.275.011.555.019.837.025V50.2Z" transform="translate(-5.788 -18.995)" fill="#ffc91d"/>
              <path id="Path_891272" data-name="Path 891272" d="M22.607,48.212c0,.7-4.365,1.267-9.749,1.267S3.11,48.913,3.11,48.212s4.365-1.268,9.749-1.268,9.749.569,9.749,1.268" transform="translate(-1.177 -17.761)" fill="#ffc91d"/>
              <path id="Path_891273" data-name="Path 891273" d="M21.681,48.523c0,.53-3.307.963-7.386.963s-7.388-.433-7.388-.963,3.307-.957,7.388-.957,7.386.427,7.386.957" transform="translate(-2.613 -17.997)" fill="#ffb21b"/>
              <path id="Path_891274" data-name="Path 891274" d="M21.392,48.737c0,.476-2.975.865-6.646.865S8.1,49.213,8.1,48.737s2.978-.865,6.649-.865,6.646.386,6.646.865" transform="translate(-3.063 -18.112)" fill="#ffc91d"/>
              <path id="Path_891275" data-name="Path 891275" d="M54.776,77.591V80.4h.038c.451.748,4.623,1.335,9.711,1.335s9.256-.587,9.708-1.335h.04V77.591Z" transform="translate(-20.724 -29.357)" fill="#ffb21b"/>
              <path id="Path_891276" data-name="Path 891276" d="M60.48,77.736v3.72c.987.125,2.135.218,3.391.275V77.736Z" transform="translate(-22.883 -29.411)" fill="#ffc91d"/>
              <path id="Path_891277" data-name="Path 891277" d="M66.963,78.812v3.35c.272.011.552.019.835.025V78.812Z" transform="translate(-25.335 -29.819)" fill="#ffc91d"/>
              <path id="Path_891278" data-name="Path 891278" d="M74.273,76.821c0,.7-4.367,1.268-9.749,1.268s-9.749-.566-9.749-1.268,4.365-1.264,9.749-1.264,9.749.566,9.749,1.264" transform="translate(-20.724 -28.587)" fill="#ffc91d"/>
              <path id="Path_891279" data-name="Path 891279" d="M73.347,77.134c0,.528-3.307.957-7.384.957s-7.385-.43-7.385-.957,3.307-.96,7.385-.96,7.384.43,7.384.96" transform="translate(-22.163 -28.82)" fill="#ffb21b"/>
              <path id="Path_891280" data-name="Path 891280" d="M73.058,77.345c0,.476-2.978.862-6.646.862s-6.649-.386-6.649-.862,2.975-.865,6.649-.865,6.646.386,6.646.865" transform="translate(-22.611 -28.936)" fill="#ffb21b"/>
              <path id="Path_891281" data-name="Path 891281" d="M57.886,72.172v2.809h.041c.448.75,4.623,1.335,9.705,1.335s9.262-.584,9.708-1.335h.041V72.172Z" transform="translate(-21.901 -27.306)" fill="#ffb21b"/>
              <path id="Path_891282" data-name="Path 891282" d="M63.6,72.316v3.72c.984.122,2.132.218,3.388.275V72.316Z" transform="translate(-24.061 -27.361)" fill="#ffc91d"/>
              <path id="Path_891283" data-name="Path 891283" d="M70.073,73.392v3.35l.835.025V73.392Z" transform="translate(-26.512 -27.768)" fill="#ffc91d"/>
              <path id="Path_891284" data-name="Path 891284" d="M77.381,71.4c0,.7-4.361,1.267-9.749,1.267S57.886,72.1,57.886,71.4s4.365-1.268,9.746-1.268,9.749.569,9.749,1.268" transform="translate(-21.901 -26.535)" fill="#ffc91d"/>
              <path id="Path_891285" data-name="Path 891285" d="M76.455,71.71c0,.53-3.3.96-7.386.96s-7.385-.43-7.385-.96,3.307-.96,7.385-.96,7.386.432,7.386.96" transform="translate(-23.338 -26.768)" fill="#ffb21b"/>
              <path id="Path_891286" data-name="Path 891286" d="M76.165,71.922c0,.479-2.972.865-6.646.865s-6.646-.386-6.646-.865,2.978-.862,6.646-.862,6.646.386,6.646.862" transform="translate(-23.788 -26.886)" fill="#ffc91d"/>
              <path id="Path_891287" data-name="Path 891287" d="M52.21,17.708a3.138,3.138,0,0,0,.288-.623,3.106,3.106,0,0,0,.375.579,3.2,3.2,0,0,0,.625.288,3.184,3.184,0,0,0-.579.37,3.142,3.142,0,0,0-.294.628,3.151,3.151,0,0,0-.37-.579,3.119,3.119,0,0,0-.625-.291,3.112,3.112,0,0,0,.58-.372" transform="translate(-19.534 -6.464)" fill="#f7f7fc"/>
              <path id="Path_891288" data-name="Path 891288" d="M21.751,71.178a2.911,2.911,0,0,0,.288-.625,3.2,3.2,0,0,0,.372.582,3.216,3.216,0,0,0,.628.285,3.253,3.253,0,0,0-.582.375,3.2,3.2,0,0,0-.291.625,3.061,3.061,0,0,0-.372-.582,3.234,3.234,0,0,0-.623-.288,3.2,3.2,0,0,0,.579-.372" transform="translate(-8.01 -26.694)" fill="#f7f7fc"/>
              <path id="Path_891289" data-name="Path 891289" d="M85.214,71.869a3.119,3.119,0,0,0,.288-.625,3.241,3.241,0,0,0,.375.582,3.268,3.268,0,0,0,.625.288,3.049,3.049,0,0,0-.579.37,3.22,3.22,0,0,0-.294.625,3.15,3.15,0,0,0-.37-.579,3.292,3.292,0,0,0-.625-.288,3.092,3.092,0,0,0,.579-.372" transform="translate(-32.022 -26.955)" fill="#f7f7fc"/>
            </g>
          </g>
        </g>
      </g>
    </g>
  </g>
</svg>
