<svg xmlns="http://www.w3.org/2000/svg" width="400" height="418.7" viewBox="0 0 400 418.7">
  <g id="Group_1103523" data-name="Group 1103523" transform="translate(1385 6992.437)">
    <path id="Path_608309" data-name="Path 608309" d="M0,0H400V418.7H0Z" transform="translate(-1385 -6992.437)" fill="#fef7eb"/>
    <g id="Path_892593" data-name="Path 892593" transform="translate(-1366.113 -6968.404)" fill="#e2d0af">
      <path d="M 185.5564117431641 370.8628234863281 C 172.9834594726562 370.8628234863281 160.41845703125 369.59619140625 148.2104644775391 367.0980529785156 C 136.3128204345703 364.6634521484375 124.6099548339844 361.0306701660156 113.4268646240234 356.3006286621094 C 102.44677734375 351.6564025878906 91.85641479492188 345.9081726074219 81.95000457763672 339.2155456542969 C 72.13768768310547 332.5864562988281 62.91054916381836 324.9733581542969 54.52500152587891 316.5878295898438 C 46.13945770263672 308.2022705078125 38.5263671875 298.9751281738281 31.89727592468262 289.1628112792969 C 25.20463943481445 279.2564086914062 19.45641136169434 268.6660461425781 14.81218433380127 257.6859436035156 C 10.08213901519775 246.5028686523438 6.449366092681885 234.8000030517578 4.014775276184082 222.9023590087891 C 1.516638994216919 210.6943664550781 0.2500026524066925 198.1293640136719 0.2500026524066925 185.5564117431641 C 0.2500026524066925 172.9834594726562 1.516638994216919 160.41845703125 4.014775276184082 148.2104644775391 C 6.449366092681885 136.3128204345703 10.08213901519775 124.6099548339844 14.81218433380127 113.4268646240234 C 19.45641136169434 102.44677734375 25.20463943481445 91.85641479492188 31.89727592468262 81.95000457763672 C 38.5263671875 72.13768768310547 46.13945770263672 62.91054916381836 54.52500152587891 54.52500152587891 C 62.91054916381836 46.13945770263672 72.13768768310547 38.5263671875 81.95000457763672 31.89727592468262 C 91.85641479492188 25.20463943481445 102.44677734375 19.45641136169434 113.4268646240234 14.81218433380127 C 124.6099548339844 10.08213901519775 136.3128204345703 6.449366092681885 148.2104644775391 4.014775276184082 C 160.41845703125 1.516638994216919 172.9834594726562 0.2500026524066925 185.5564117431641 0.2500026524066925 C 198.1293640136719 0.2500026524066925 210.6943664550781 1.516638994216919 222.9023590087891 4.014775276184082 C 234.8000030517578 6.449366092681885 246.5028686523438 10.08213901519775 257.6859436035156 14.81218433380127 C 268.6660461425781 19.45641136169434 279.2564086914062 25.20463943481445 289.1628112792969 31.89727592468262 C 298.9751281738281 38.5263671875 308.2022705078125 46.13945770263672 316.5878295898438 54.52500152587891 C 324.9733581542969 62.91054916381836 332.5864562988281 72.13768768310547 339.2155456542969 81.95000457763672 C 345.9081726074219 91.85641479492188 351.6564025878906 102.44677734375 356.3006286621094 113.4268646240234 C 361.0306701660156 124.6099548339844 364.6634521484375 136.3128204345703 367.0980529785156 148.2104644775391 C 369.59619140625 160.41845703125 370.8628234863281 172.9834594726562 370.8628234863281 185.5564117431641 C 370.8628234863281 198.1293640136719 369.59619140625 210.6943664550781 367.0980529785156 222.9023590087891 C 364.6634521484375 234.8000030517578 361.0306701660156 246.5028686523438 356.3006286621094 257.6859436035156 C 351.6564025878906 268.6660461425781 345.9081726074219 279.2564086914062 339.2155456542969 289.1628112792969 C 332.5864562988281 298.9751281738281 324.9733581542969 308.2022705078125 316.5878295898438 316.5878295898438 C 308.2022705078125 324.9733581542969 298.9751281738281 332.5864562988281 289.1628112792969 339.2155456542969 C 279.2564086914062 345.9081726074219 268.6660461425781 351.6564025878906 257.6859436035156 356.3006286621094 C 246.5028686523438 361.0306701660156 234.8000030517578 364.6634521484375 222.9023590087891 367.0980529785156 C 210.6943664550781 369.59619140625 198.1293640136719 370.8628234863281 185.5564117431641 370.8628234863281 Z" stroke="none"/>
      <path d="M 185.5564117431641 0.5 C 173.0002288818359 0.5 160.4520874023438 1.76495361328125 148.2605438232422 4.259674072265625 C 136.3791351318359 6.691009521484375 124.692138671875 10.31881713867188 113.5242614746094 15.04244995117188 C 102.5590515136719 19.68035888671875 91.98300170898438 25.42080688476562 82.0899658203125 32.10446166992188 C 72.29083251953125 38.72463989257812 63.07608032226562 46.32745361328125 54.7017822265625 54.7017822265625 C 46.32745361328125 63.07608032226562 38.72463989257812 72.29083251953125 32.10446166992188 82.0899658203125 C 25.42080688476562 91.98300170898438 19.68035888671875 102.5590515136719 15.04244995117188 113.5242614746094 C 10.31881713867188 124.692138671875 6.691009521484375 136.3791351318359 4.259674072265625 148.2605438232422 C 1.76495361328125 160.4520874023438 0.5 173.0002288818359 0.5 185.5564117431641 C 0.5 198.1125946044922 1.76495361328125 210.6607360839844 4.259674072265625 222.8522796630859 C 6.691009521484375 234.7336883544922 10.31881713867188 246.4206848144531 15.04244995117188 257.5885620117188 C 19.68035888671875 268.5537719726562 25.42080688476562 279.1298217773438 32.10446166992188 289.0228576660156 C 38.72463989257812 298.822021484375 46.32745361328125 308.0367431640625 54.7017822265625 316.4110412597656 C 63.07608032226562 324.7853698730469 72.29083251953125 332.38818359375 82.0899658203125 339.0083618164062 C 91.98300170898438 345.6920166015625 102.5590515136719 351.4324645996094 113.5242614746094 356.0703735351562 C 124.692138671875 360.7940063476562 136.3791351318359 364.4218139648438 148.2605438232422 366.8531494140625 C 160.4520874023438 369.3478698730469 173.0002288818359 370.6128234863281 185.5564117431641 370.6128234863281 C 198.1125946044922 370.6128234863281 210.6607360839844 369.3478698730469 222.8522796630859 366.8531494140625 C 234.7336883544922 364.4218139648438 246.4206848144531 360.7940063476562 257.5885620117188 356.0703735351562 C 268.5537719726562 351.4324645996094 279.1298217773438 345.6920166015625 289.0228576660156 339.0083618164062 C 298.822021484375 332.38818359375 308.0367431640625 324.7853698730469 316.4110412597656 316.4110412597656 C 324.7853698730469 308.0367431640625 332.38818359375 298.822021484375 339.0083618164062 289.0228576660156 C 345.6920166015625 279.1298217773438 351.4324645996094 268.5537719726562 356.0703735351562 257.5885620117188 C 360.7940063476562 246.4206848144531 364.4218139648438 234.7336883544922 366.8531494140625 222.8522796630859 C 369.3478698730469 210.6607360839844 370.6128234863281 198.1125946044922 370.6128234863281 185.5564117431641 C 370.6128234863281 173.0002288818359 369.3478698730469 160.4520874023438 366.8531494140625 148.2605438232422 C 364.4218139648438 136.3791351318359 360.7940063476562 124.692138671875 356.0703735351562 113.5242614746094 C 351.4324645996094 102.5590515136719 345.6920166015625 91.98300170898438 339.0083618164062 82.0899658203125 C 332.38818359375 72.29083251953125 324.7853698730469 63.07608032226562 316.4110412597656 54.7017822265625 C 308.0367431640625 46.32745361328125 298.822021484375 38.72463989257812 289.0228576660156 32.10446166992188 C 279.1298217773438 25.42080688476562 268.5537719726562 19.68035888671875 257.5885620117188 15.04244995117188 C 246.4206848144531 10.31881713867188 234.7336883544922 6.691009521484375 222.8522796630859 4.259674072265625 C 210.6607360839844 1.76495361328125 198.1125946044922 0.5 185.5564117431641 0.5 M 185.5564117431641 0 C 288.036376953125 0 371.1128234863281 83.07644653320312 371.1128234863281 185.5564117431641 C 371.1128234863281 288.036376953125 288.036376953125 371.1128234863281 185.5564117431641 371.1128234863281 C 83.07644653320312 371.1128234863281 0 288.036376953125 0 185.5564117431641 C 0 83.07644653320312 83.07644653320312 0 185.5564117431641 0 Z" stroke="none" fill="#707070"/>
    </g>
    <g id="Path_894646" data-name="Path 894646" transform="translate(-1326.262 -6928.553)" fill="#ffe7ba">
      <path d="M 145.7053680419922 291.1607360839844 C 135.8362579345703 291.1607360839844 125.9734039306641 290.1664733886719 116.3907623291016 288.2055969238281 C 107.0518341064453 286.2945556640625 97.86572265625 283.4430541992188 89.08765411376953 279.730224609375 C 80.46886444091797 276.0848083496094 72.15604400634766 271.5727233886719 64.38004302978516 266.3193664550781 C 56.67790222167969 261.1159057617188 49.43511962890625 255.1400451660156 42.8529052734375 248.5578308105469 C 36.27069091796875 241.9756164550781 30.29483222961426 234.7328338623047 25.09136772155762 227.0306854248047 C 19.83801078796387 219.2546844482422 15.3259391784668 210.9418640136719 11.68051052093506 202.3230895996094 C 7.967689514160156 193.5450134277344 5.116189479827881 184.3589019775391 3.205153703689575 175.0199737548828 C 1.244260907173157 165.4373321533203 0.2500109076499939 155.5744781494141 0.2500109076499939 145.7053680419922 C 0.2500109076499939 135.8362579345703 1.244260907173157 125.9734039306641 3.205153703689575 116.3907623291016 C 5.116189479827881 107.0518341064453 7.967689514160156 97.86572265625 11.68051052093506 89.08765411376953 C 15.3259391784668 80.46886444091797 19.83801078796387 72.15604400634766 25.09136772155762 64.38004302978516 C 30.29483222961426 56.67790222167969 36.27069091796875 49.43511962890625 42.8529052734375 42.8529052734375 C 49.43511962890625 36.27069091796875 56.67790222167969 30.29483222961426 64.38004302978516 25.09136772155762 C 72.15604400634766 19.83801078796387 80.46886444091797 15.3259391784668 89.08765411376953 11.68051052093506 C 97.86572265625 7.967689514160156 107.0518341064453 5.116189479827881 116.3907623291016 3.205153703689575 C 125.9734039306641 1.244260907173157 135.8362579345703 0.2500109076499939 145.7053680419922 0.2500109076499939 C 155.5744781494141 0.2500109076499939 165.4373321533203 1.244260907173157 175.0199737548828 3.205153703689575 C 184.3589019775391 5.116189479827881 193.5450134277344 7.967689514160156 202.3230895996094 11.68051052093506 C 210.9418640136719 15.3259391784668 219.2546844482422 19.83801078796387 227.0306854248047 25.09136772155762 C 234.7328338623047 30.29483222961426 241.9756164550781 36.27069091796875 248.5578308105469 42.8529052734375 C 255.1400451660156 49.43511962890625 261.1159057617188 56.67790222167969 266.3193664550781 64.38004302978516 C 271.5727233886719 72.15604400634766 276.0848083496094 80.46886444091797 279.730224609375 89.08765411376953 C 283.4430541992188 97.86572265625 286.2945556640625 107.0518341064453 288.2055969238281 116.3907623291016 C 290.1664733886719 125.9734039306641 291.1607360839844 135.8362579345703 291.1607360839844 145.7053680419922 C 291.1607360839844 155.5744781494141 290.1664733886719 165.4373321533203 288.2055969238281 175.0199737548828 C 286.2945556640625 184.3589019775391 283.4430541992188 193.5450134277344 279.730224609375 202.3230895996094 C 276.0848083496094 210.9418640136719 271.5727233886719 219.2546844482422 266.3193664550781 227.0306854248047 C 261.1159057617188 234.7328338623047 255.1400451660156 241.9756164550781 248.5578308105469 248.5578308105469 C 241.9756164550781 255.1400451660156 234.7328338623047 261.1159057617188 227.0306854248047 266.3193664550781 C 219.2546844482422 271.5727233886719 210.9418640136719 276.0848083496094 202.3230895996094 279.730224609375 C 193.5450134277344 283.4430541992188 184.3589019775391 286.2945556640625 175.0199737548828 288.2055969238281 C 165.4373321533203 290.1664733886719 155.5744781494141 291.1607360839844 145.7053680419922 291.1607360839844 Z" stroke="none"/>
      <path d="M 145.7053680419922 0.5 C 135.8530426025391 0.5 126.0070495605469 1.4925537109375 116.4409027099609 3.4500732421875 C 107.1181182861328 5.3577880859375 97.94790649414062 8.204376220703125 89.18504333496094 11.9107666015625 C 80.58111572265625 15.54989624023438 72.28262329101562 20.05419921875 64.52000427246094 25.29852294921875 C 56.83103942871094 30.49307250976562 49.60061645507812 36.45869445800781 43.02964782714844 43.02964782714844 C 36.45869445800781 49.60061645507812 30.49307250976562 56.83103942871094 25.29852294921875 64.52000427246094 C 20.05419921875 72.28262329101562 15.54989624023438 80.58111572265625 11.9107666015625 89.18504333496094 C 8.204376220703125 97.94790649414062 5.3577880859375 107.1181182861328 3.4500732421875 116.4409027099609 C 1.4925537109375 126.0070495605469 0.5 135.8530426025391 0.5 145.7053680419922 C 0.5 155.5576934814453 1.4925537109375 165.4036865234375 3.4500732421875 174.9698333740234 C 5.3577880859375 184.2926177978516 8.204376220703125 193.4627990722656 11.9107666015625 202.2256927490234 C 15.54989624023438 210.82958984375 20.05419921875 219.1280822753906 25.29852294921875 226.8906860351562 C 30.49307250976562 234.5796813964844 36.45869445800781 241.8100891113281 43.02964782714844 248.3810424804688 C 49.60064697265625 254.9520111083984 56.83103942871094 260.9176635742188 64.52000427246094 266.1122131347656 C 72.28262329101562 271.3565368652344 80.58111572265625 275.86083984375 89.18504333496094 279.4999694824219 C 97.94790649414062 283.2063598632812 107.1181182861328 286.0529479980469 116.4409027099609 287.9606628417969 C 126.0070495605469 289.9181823730469 135.8530426025391 290.9107360839844 145.7053680419922 290.9107360839844 C 155.5576934814453 290.9107360839844 165.4036865234375 289.9181823730469 174.9698333740234 287.9606628417969 C 184.2926177978516 286.0529479980469 193.4627990722656 283.2063598632812 202.2256927490234 279.4999694824219 C 210.82958984375 275.86083984375 219.1280822753906 271.3565368652344 226.8906860351562 266.1122131347656 C 234.5796813964844 260.9176635742188 241.8100891113281 254.9520111083984 248.3810424804688 248.3810424804688 C 254.9520111083984 241.8100891113281 260.9176635742188 234.5796813964844 266.1122131347656 226.8906860351562 C 271.3565368652344 219.1280822753906 275.86083984375 210.82958984375 279.4999694824219 202.2256927490234 C 283.2063598632812 193.4627990722656 286.0529479980469 184.2926177978516 287.9606628417969 174.9698333740234 C 289.9181823730469 165.4036865234375 290.9107360839844 155.5576934814453 290.9107360839844 145.7053680419922 C 290.9107360839844 135.8530426025391 289.9181823730469 126.0070495605469 287.9606628417969 116.4409027099609 C 286.0529479980469 107.1181182861328 283.2063598632812 97.94790649414062 279.4999694824219 89.18504333496094 C 275.86083984375 80.58111572265625 271.3565368652344 72.28262329101562 266.1122131347656 64.52000427246094 C 260.9176635742188 56.83103942871094 254.9520111083984 49.60064697265625 248.3810424804688 43.02964782714844 C 241.8100891113281 36.45869445800781 234.5796813964844 30.49307250976562 226.8906860351562 25.29852294921875 C 219.1280822753906 20.05419921875 210.82958984375 15.54989624023438 202.2256927490234 11.9107666015625 C 193.4627990722656 8.204376220703125 184.2926177978516 5.3577880859375 174.9698333740234 3.4500732421875 C 165.4036865234375 1.4925537109375 155.5576934814453 0.5 145.7053680419922 0.5 M 145.7053680419922 0 C 226.1761932373047 0 291.4107360839844 65.23451232910156 291.4107360839844 145.7053680419922 C 291.4107360839844 226.1761932373047 226.1761932373047 291.4107360839844 145.7053680419922 291.4107360839844 C 65.23451232910156 291.4107360839844 0 226.1761932373047 0 145.7053680419922 C 0 65.23451232910156 65.23451232910156 0 145.7053680419922 0 Z" stroke="none" fill="#707070"/>
    </g>
    <g id="Path_894647" data-name="Path 894647" transform="translate(-1281.429 -6883.72)" fill="#ffce73">
      <path d="M 100.8729476928711 201.4958953857422 C 94.04564666748047 201.4958953857422 87.22269439697266 200.8080902099609 80.59365081787109 199.4515991210938 C 74.13319396972656 198.1295928955078 67.77849578857422 196.1569671630859 61.70604705810547 193.5885467529297 C 55.7437744140625 191.0667266845703 49.99314880371094 187.9453735351562 44.61387252807617 184.3112182617188 C 39.28567123413086 180.7115478515625 34.27524948120117 176.5775756835938 29.72177314758301 172.0241241455078 C 25.1683235168457 167.4706420898438 21.03434753417969 162.4602203369141 17.43467330932617 157.1320190429688 C 13.80052280426025 151.7527465820312 10.67917251586914 146.0021209716797 8.157347679138184 140.0398406982422 C 5.588922500610352 133.9673919677734 3.616297721862793 127.6127014160156 2.294297695159912 121.1522445678711 C 0.9377976655960083 114.5232009887695 0.249997690320015 107.7002487182617 0.249997690320015 100.8729476928711 C 0.249997690320015 94.04564666748047 0.9377976655960083 87.22269439697266 2.294297695159912 80.59365081787109 C 3.616297721862793 74.13319396972656 5.588922500610352 67.77849578857422 8.157347679138184 61.70604705810547 C 10.67917251586914 55.7437744140625 13.80052280426025 49.99314880371094 17.43467330932617 44.61387252807617 C 21.03434753417969 39.28567123413086 25.1683235168457 34.27524948120117 29.72177314758301 29.72177314758301 C 34.27524948120117 25.1683235168457 39.28567123413086 21.03434753417969 44.61387252807617 17.43467330932617 C 49.99314880371094 13.80052280426025 55.7437744140625 10.67917251586914 61.70604705810547 8.157347679138184 C 67.77849578857422 5.588922500610352 74.13319396972656 3.616297721862793 80.59365081787109 2.294297695159912 C 87.22269439697266 0.9377976655960083 94.04564666748047 0.249997690320015 100.8729476928711 0.249997690320015 C 107.7002487182617 0.249997690320015 114.5232009887695 0.9377976655960083 121.1522445678711 2.294297695159912 C 127.6127014160156 3.616297721862793 133.9673919677734 5.588922500610352 140.0398406982422 8.157347679138184 C 146.0021209716797 10.67917251586914 151.7527465820312 13.80052280426025 157.1320190429688 17.43467330932617 C 162.4602203369141 21.03434753417969 167.4706420898438 25.1683235168457 172.0241241455078 29.72177314758301 C 176.5775756835938 34.27524948120117 180.7115478515625 39.28567123413086 184.3112182617188 44.61387252807617 C 187.9453735351562 49.99314880371094 191.0667266845703 55.7437744140625 193.5885467529297 61.70604705810547 C 196.1569671630859 67.77849578857422 198.1295928955078 74.13319396972656 199.4515991210938 80.59365081787109 C 200.8080902099609 87.22269439697266 201.4958953857422 94.04564666748047 201.4958953857422 100.8729476928711 C 201.4958953857422 107.7002487182617 200.8080902099609 114.5232009887695 199.4515991210938 121.1522445678711 C 198.1295928955078 127.6127014160156 196.1569671630859 133.9673919677734 193.5885467529297 140.0398406982422 C 191.0667266845703 146.0021209716797 187.9453735351562 151.7527465820312 184.3112182617188 157.1320190429688 C 180.7115478515625 162.4602203369141 176.5775756835938 167.4706420898438 172.0241241455078 172.0241241455078 C 167.4706420898438 176.5775756835938 162.4602203369141 180.7115478515625 157.1320190429688 184.3112182617188 C 151.7527465820312 187.9453735351562 146.0021209716797 191.0667266845703 140.0398406982422 193.5885467529297 C 133.9673919677734 196.1569671630859 127.6127014160156 198.1295928955078 121.1522445678711 199.4515991210938 C 114.5232009887695 200.8080902099609 107.7002487182617 201.4958953857422 100.8729476928711 201.4958953857422 Z" stroke="none"/>
      <path d="M 100.8729476928711 0.5 C 94.06244659423828 0.5 87.25637054443359 1.18609619140625 80.64377593994141 2.539215087890625 C 74.19950103759766 3.857925415039062 67.86067199707031 5.825592041015625 61.80342102050781 8.387603759765625 C 55.85601806640625 10.90315246582031 50.11972045898438 14.0167236328125 44.75382995605469 17.64181518554688 C 39.43879699707031 21.23260498046875 34.44076538085938 25.35635375976562 29.89857482910156 29.89857482910156 C 25.35635375976562 34.44076538085938 21.23260498046875 39.43879699707031 17.64181518554688 44.75382995605469 C 14.0167236328125 50.11972045898438 10.90315246582031 55.85601806640625 8.387603759765625 61.80342102050781 C 5.825592041015625 67.86067199707031 3.857925415039062 74.19950103759766 2.539215087890625 80.64377593994141 C 1.18609619140625 87.25637054443359 0.5 94.06244659423828 0.5 100.8729476928711 C 0.5 107.6834487915039 1.18609619140625 114.4895248413086 2.539215087890625 121.1021194458008 C 3.857925415039062 127.5463943481445 5.825592041015625 133.8852233886719 8.387603759765625 139.9424743652344 C 10.90315246582031 145.8898773193359 14.0167236328125 151.6261749267578 17.64181518554688 156.9920654296875 C 21.23260498046875 162.3070983886719 25.35635375976562 167.3051147460938 29.89857482910156 171.8473205566406 C 34.44076538085938 176.3895416259766 39.43879699707031 180.5133056640625 44.75382995605469 184.1040649414062 C 50.11972045898438 187.7291717529297 55.85601806640625 190.8427429199219 61.80342102050781 193.3582916259766 C 67.86067199707031 195.9203033447266 74.19950103759766 197.8879699707031 80.64377593994141 199.2066650390625 C 87.25637054443359 200.5597991943359 94.06244659423828 201.2458953857422 100.8729476928711 201.2458953857422 C 107.6834487915039 201.2458953857422 114.4895248413086 200.5597991943359 121.1021194458008 199.2066650390625 C 127.5463943481445 197.8879699707031 133.8852233886719 195.9203033447266 139.9424743652344 193.3582916259766 C 145.8898773193359 190.8427429199219 151.6261749267578 187.7291717529297 156.9920654296875 184.1040649414062 C 162.3070983886719 180.5133056640625 167.3051147460938 176.3895416259766 171.8473205566406 171.8473205566406 C 176.3895416259766 167.3051147460938 180.5133056640625 162.3070983886719 184.1040649414062 156.9920654296875 C 187.7291717529297 151.6261749267578 190.8427429199219 145.8898773193359 193.3582916259766 139.9424743652344 C 195.9203033447266 133.8852233886719 197.8879699707031 127.5463943481445 199.2066650390625 121.1021194458008 C 200.5597991943359 114.4895248413086 201.2458953857422 107.6834487915039 201.2458953857422 100.8729476928711 C 201.2458953857422 94.06244659423828 200.5597991943359 87.25637054443359 199.2066650390625 80.64377593994141 C 197.8879699707031 74.19950103759766 195.9203033447266 67.86067199707031 193.3582916259766 61.80342102050781 C 190.8427429199219 55.85601806640625 187.7291717529297 50.11972045898438 184.1040649414062 44.75382995605469 C 180.5133056640625 39.43879699707031 176.3895416259766 34.44076538085938 171.8473205566406 29.89857482910156 C 167.3051147460938 25.35635375976562 162.3070983886719 21.23260498046875 156.9920654296875 17.64181518554688 C 151.6261749267578 14.0167236328125 145.8898773193359 10.90315246582031 139.9424743652344 8.387603759765625 C 133.8852233886719 5.825592041015625 127.5463943481445 3.857925415039062 121.1021194458008 2.539215087890625 C 114.4895248413086 1.18609619140625 107.6834487915039 0.5 100.8729476928711 0.5 M 100.8729476928711 0 C 156.5835266113281 0 201.7458953857422 45.16236877441406 201.7458953857422 100.8729476928711 C 201.7458953857422 156.5835266113281 156.5835266113281 201.7458953857422 100.8729476928711 201.7458953857422 C 45.16236877441406 201.7458953857422 0 156.5835266113281 0 100.8729476928711 C 0 45.16236877441406 45.16236877441406 0 100.8729476928711 0 Z" stroke="none" fill="#707070"/>
    </g>
    <g id="Group_1102559" data-name="Group 1102559" transform="translate(-1221.653 -6823.944)">
      <circle id="Ellipse_11589" data-name="Ellipse 11589" cx="41.512" cy="41.512" r="41.512" transform="translate(0 0)" fill="#f8ab1c"/>
      <text id="Tema_y_objetivo" data-name="Tema y objetivo" transform="translate(6.529 23.662)" fill="#12263f" font-size="16" font-family="Roboto-Medium, Roboto" font-weight="500"><tspan x="-25.977" y="15">Tema y </tspan><tspan x="-28.512" y="39">objetivo</tspan></text>
    </g>
    <path id="Path_894648" data-name="Path 894648" d="M21.063,12.352H16.656L15.734,15H13.68l4.3-11.375H19.75L24.055,15H21.992Zm-3.852-1.594h3.3L18.859,6.039Zm11.422,2.883a1.716,1.716,0,0,0,1.18-.414,1.415,1.415,0,0,0,.5-1.023H32.1a2.789,2.789,0,0,1-.492,1.473,3.228,3.228,0,0,1-1.25,1.082,3.725,3.725,0,0,1-1.7.4,3.6,3.6,0,0,1-2.812-1.148A4.555,4.555,0,0,1,24.8,10.836v-.2a4.479,4.479,0,0,1,1.031-3.09,3.571,3.571,0,0,1,2.813-1.16,3.473,3.473,0,0,1,2.457.879,3.148,3.148,0,0,1,1,2.309H30.313a1.738,1.738,0,0,0-.5-1.2,1.6,1.6,0,0,0-1.184-.469,1.671,1.671,0,0,0-1.422.668,3.408,3.408,0,0,0-.508,2.027v.3a3.465,3.465,0,0,0,.5,2.051A1.669,1.669,0,0,0,28.633,13.641Zm7.281-9.148V6.547h1.492V7.953H35.914v4.719a1.039,1.039,0,0,0,.191.7.888.888,0,0,0,.684.215,2.924,2.924,0,0,0,.664-.078v1.469a4.676,4.676,0,0,1-1.25.18q-2.187,0-2.187-2.414V7.953H32.625V6.547h1.391V4.492Zm2.352,6.2a4.984,4.984,0,0,1,.492-2.238,3.6,3.6,0,0,1,1.383-1.531,3.9,3.9,0,0,1,2.047-.535,3.692,3.692,0,0,1,2.777,1.1,4.333,4.333,0,0,1,1.152,2.922l.008.445a5.029,5.029,0,0,1-.48,2.234,3.551,3.551,0,0,1-1.375,1.523,3.925,3.925,0,0,1-2.066.539,3.667,3.667,0,0,1-2.863-1.191,4.563,4.563,0,0,1-1.074-3.176Zm1.9.164A3.406,3.406,0,0,0,40.7,12.9a1.752,1.752,0,0,0,1.5.738,1.733,1.733,0,0,0,1.5-.75,3.762,3.762,0,0,0,.535-2.2,3.362,3.362,0,0,0-.551-2.031,1.856,1.856,0,0,0-2.973-.012A3.691,3.691,0,0,0,40.164,10.859ZM52.156,8.281a4.7,4.7,0,0,0-.773-.062,1.741,1.741,0,0,0-1.758,1V15h-1.9V6.547h1.813l.047.945a2.139,2.139,0,0,1,1.906-1.1,1.777,1.777,0,0,1,.672.109Zm4.773,6.875A3.928,3.928,0,0,1,54,14.02a4.124,4.124,0,0,1-1.121-3.027v-.234A5.072,5.072,0,0,1,53.371,8.5a3.716,3.716,0,0,1,1.371-1.551,3.625,3.625,0,0,1,1.969-.555,3.318,3.318,0,0,1,2.668,1.1,4.658,4.658,0,0,1,.941,3.117v.766H54.8a2.539,2.539,0,0,0,.7,1.656,2.1,2.1,0,0,0,1.543.609,2.571,2.571,0,0,0,2.125-1.055l1.023.977a3.418,3.418,0,0,1-1.355,1.176A4.244,4.244,0,0,1,56.93,15.156ZM56.7,7.914a1.6,1.6,0,0,0-1.262.547,2.835,2.835,0,0,0-.613,1.523h3.617V9.844A2.307,2.307,0,0,0,57.938,8.4,1.586,1.586,0,0,0,56.7,7.914ZM66.531,12.7a.861.861,0,0,0-.418-.773,4.445,4.445,0,0,0-1.387-.469,7.129,7.129,0,0,1-1.617-.516,2.158,2.158,0,0,1-1.422-1.992,2.25,2.25,0,0,1,.922-1.828,3.644,3.644,0,0,1,2.344-.734,3.792,3.792,0,0,1,2.449.75,2.38,2.38,0,0,1,.934,1.945h-1.9a1.17,1.17,0,0,0-.406-.91,1.557,1.557,0,0,0-1.078-.363,1.682,1.682,0,0,0-1.02.289.911.911,0,0,0-.395.773.769.769,0,0,0,.367.68,5.049,5.049,0,0,0,1.484.488,7.027,7.027,0,0,1,1.754.586,2.484,2.484,0,0,1,.945.816A2.082,2.082,0,0,1,68.4,12.6a2.2,2.2,0,0,1-.945,1.848,4.031,4.031,0,0,1-2.477.707,4.371,4.371,0,0,1-1.852-.375,3.047,3.047,0,0,1-1.266-1.031,2.441,2.441,0,0,1-.453-1.414H63.25a1.338,1.338,0,0,0,.508,1.035A1.973,1.973,0,0,0,65,13.734a1.92,1.92,0,0,0,1.141-.285A.883.883,0,0,0,66.531,12.7Zm10.977.938a1.716,1.716,0,0,0,1.18-.414,1.415,1.415,0,0,0,.5-1.023h1.789a2.789,2.789,0,0,1-.492,1.473,3.228,3.228,0,0,1-1.25,1.082,3.725,3.725,0,0,1-1.7.4,3.6,3.6,0,0,1-2.812-1.148,4.555,4.555,0,0,1-1.039-3.172v-.2a4.479,4.479,0,0,1,1.031-3.09,3.571,3.571,0,0,1,2.813-1.16,3.473,3.473,0,0,1,2.457.879,3.148,3.148,0,0,1,1,2.309H79.188a1.738,1.738,0,0,0-.5-1.2,1.6,1.6,0,0,0-1.184-.469,1.671,1.671,0,0,0-1.422.668,3.408,3.408,0,0,0-.508,2.027v.3a3.465,3.465,0,0,0,.5,2.051A1.669,1.669,0,0,0,77.508,13.641ZM84.43,15h-1.9V3h1.9Zm7.117,0a2.93,2.93,0,0,1-.219-.789,3.193,3.193,0,0,1-4.3.219,2.325,2.325,0,0,1-.8-1.8,2.4,2.4,0,0,1,1-2.074A4.865,4.865,0,0,1,90.1,9.836h1.164V9.281A1.481,1.481,0,0,0,90.9,8.23a1.456,1.456,0,0,0-1.117-.395,1.672,1.672,0,0,0-1.062.324,1,1,0,0,0-.414.824h-1.9a2.107,2.107,0,0,1,.461-1.3,3.071,3.071,0,0,1,1.254-.949,4.4,4.4,0,0,1,1.77-.344,3.547,3.547,0,0,1,2.367.746,2.661,2.661,0,0,1,.906,2.1v3.813a4.321,4.321,0,0,0,.32,1.82V15Zm-2.086-1.367a2.159,2.159,0,0,0,1.059-.273,1.827,1.827,0,0,0,.746-.734V11.031H90.242a2.8,2.8,0,0,0-1.586.367,1.189,1.189,0,0,0-.531,1.039,1.109,1.109,0,0,0,.363.871A1.407,1.407,0,0,0,89.461,13.633Zm8.555-1.039L99.8,6.547h1.961L98.836,15H97.188L94.234,6.547H96.2Zm8.555,2.563a3.928,3.928,0,0,1-2.926-1.137,4.124,4.124,0,0,1-1.121-3.027v-.234a5.072,5.072,0,0,1,.488-2.262,3.716,3.716,0,0,1,1.371-1.551,3.625,3.625,0,0,1,1.969-.555,3.318,3.318,0,0,1,2.668,1.1,4.658,4.658,0,0,1,.941,3.117v.766h-5.523a2.539,2.539,0,0,0,.7,1.656,2.1,2.1,0,0,0,1.543.609,2.571,2.571,0,0,0,2.125-1.055l1.023.977a3.418,3.418,0,0,1-1.355,1.176A4.244,4.244,0,0,1,106.57,15.156Zm-.227-7.242a1.6,1.6,0,0,0-1.262.547,2.835,2.835,0,0,0-.613,1.523h3.617V9.844a2.307,2.307,0,0,0-.508-1.441A1.586,1.586,0,0,0,106.344,7.914Z" transform="translate(-1237.012 -6738.75)" fill="#12263f"/>
    <path id="Path_894649" data-name="Path 894649" d="M16.243,12.352H11.837L10.915,15H8.861l4.3-11.375h1.773L19.236,15H17.173Zm-3.852-1.594h3.3L14.04,6.039Zm11.422,2.883a1.716,1.716,0,0,0,1.18-.414,1.415,1.415,0,0,0,.5-1.023h1.789a2.789,2.789,0,0,1-.492,1.473,3.228,3.228,0,0,1-1.25,1.082,3.725,3.725,0,0,1-1.7.4,3.6,3.6,0,0,1-2.812-1.148,4.555,4.555,0,0,1-1.039-3.172v-.2a4.479,4.479,0,0,1,1.031-3.09,3.571,3.571,0,0,1,2.813-1.16,3.473,3.473,0,0,1,2.457.879,3.148,3.148,0,0,1,1,2.309H25.493a1.738,1.738,0,0,0-.5-1.2,1.6,1.6,0,0,0-1.184-.469,1.671,1.671,0,0,0-1.422.668,3.408,3.408,0,0,0-.508,2.027v.3a3.465,3.465,0,0,0,.5,2.051A1.669,1.669,0,0,0,23.814,13.641ZM31.1,4.492V6.547h1.492V7.953H31.1v4.719a1.039,1.039,0,0,0,.191.7.888.888,0,0,0,.684.215,2.924,2.924,0,0,0,.664-.078v1.469a4.676,4.676,0,0,1-1.25.18q-2.188,0-2.187-2.414V7.953H27.806V6.547H29.2V4.492Zm2.352,6.2a4.984,4.984,0,0,1,.492-2.238,3.6,3.6,0,0,1,1.383-1.531,3.9,3.9,0,0,1,2.047-.535,3.692,3.692,0,0,1,2.777,1.1A4.333,4.333,0,0,1,41.3,10.414l.008.445a5.029,5.029,0,0,1-.48,2.234,3.551,3.551,0,0,1-1.375,1.523,3.925,3.925,0,0,1-2.066.539,3.667,3.667,0,0,1-2.863-1.191,4.563,4.563,0,0,1-1.074-3.176Zm1.9.164a3.406,3.406,0,0,0,.539,2.043,1.752,1.752,0,0,0,1.5.738,1.733,1.733,0,0,0,1.5-.75,3.762,3.762,0,0,0,.535-2.2,3.362,3.362,0,0,0-.551-2.031,1.856,1.856,0,0,0-2.973-.012A3.691,3.691,0,0,0,35.345,10.859ZM47.337,8.281a4.7,4.7,0,0,0-.773-.062,1.741,1.741,0,0,0-1.758,1V15h-1.9V6.547H44.72l.047.945a2.139,2.139,0,0,1,1.906-1.1,1.777,1.777,0,0,1,.672.109Zm4.773,6.875a3.928,3.928,0,0,1-2.926-1.137,4.124,4.124,0,0,1-1.121-3.027v-.234A5.072,5.072,0,0,1,48.552,8.5a3.716,3.716,0,0,1,1.371-1.551,3.625,3.625,0,0,1,1.969-.555,3.318,3.318,0,0,1,2.668,1.1,4.658,4.658,0,0,1,.941,3.117v.766H49.978a2.539,2.539,0,0,0,.7,1.656,2.1,2.1,0,0,0,1.543.609,2.571,2.571,0,0,0,2.125-1.055l1.023.977a3.418,3.418,0,0,1-1.355,1.176A4.244,4.244,0,0,1,52.111,15.156Zm-.227-7.242a1.6,1.6,0,0,0-1.262.547,2.835,2.835,0,0,0-.613,1.523h3.617V9.844A2.307,2.307,0,0,0,53.118,8.4,1.586,1.586,0,0,0,51.884,7.914ZM61.712,12.7a.861.861,0,0,0-.418-.773,4.445,4.445,0,0,0-1.387-.469,7.129,7.129,0,0,1-1.617-.516,2.158,2.158,0,0,1-1.422-1.992,2.25,2.25,0,0,1,.922-1.828,3.644,3.644,0,0,1,2.344-.734,3.792,3.792,0,0,1,2.449.75,2.38,2.38,0,0,1,.934,1.945h-1.9a1.17,1.17,0,0,0-.406-.91,1.557,1.557,0,0,0-1.078-.363,1.682,1.682,0,0,0-1.02.289.911.911,0,0,0-.395.773.769.769,0,0,0,.367.68,5.049,5.049,0,0,0,1.484.488,7.027,7.027,0,0,1,1.754.586,2.484,2.484,0,0,1,.945.816,2.082,2.082,0,0,1,.309,1.156,2.2,2.2,0,0,1-.945,1.848,4.031,4.031,0,0,1-2.477.707,4.371,4.371,0,0,1-1.852-.375A3.047,3.047,0,0,1,57.04,13.75a2.441,2.441,0,0,1-.453-1.414h1.844a1.338,1.338,0,0,0,.508,1.035,1.973,1.973,0,0,0,1.242.363,1.92,1.92,0,0,0,1.141-.285A.883.883,0,0,0,61.712,12.7Zm14.906-1.844a5.033,5.033,0,0,1-.891,3.129,3.094,3.094,0,0,1-4.617.254V18.25h-1.9V6.547h1.75l.078.859a2.788,2.788,0,0,1,2.273-1.016A2.881,2.881,0,0,1,75.74,7.543a5.167,5.167,0,0,1,.879,3.2ZM74.728,10.7a3.526,3.526,0,0,0-.5-2.008,1.638,1.638,0,0,0-1.441-.742,1.747,1.747,0,0,0-1.672.961v3.75a1.763,1.763,0,0,0,1.688.984,1.636,1.636,0,0,0,1.418-.73A3.881,3.881,0,0,0,74.728,10.7ZM82.65,8.281a4.7,4.7,0,0,0-.773-.062,1.741,1.741,0,0,0-1.758,1V15h-1.9V6.547h1.813l.047.945a2.139,2.139,0,0,1,1.906-1.1,1.777,1.777,0,0,1,.672.109ZM85.868,15h-1.9V6.547h1.9ZM83.853,4.352a1.008,1.008,0,0,1,.277-.727,1.048,1.048,0,0,1,.793-.289,1.061,1.061,0,0,1,.8.289A1,1,0,0,1,86,4.352a.977.977,0,0,1-.281.715,1.069,1.069,0,0,1-.8.285,1.056,1.056,0,0,1-.793-.285A.984.984,0,0,1,83.853,4.352Zm5.867,2.2.055.883a3.042,3.042,0,0,1,2.438-1.039,2.337,2.337,0,0,1,2.32,1.3,3,3,0,0,1,2.594-1.3,2.636,2.636,0,0,1,2.082.773,3.405,3.405,0,0,1,.7,2.281V15h-1.9V9.5a1.681,1.681,0,0,0-.352-1.18,1.539,1.539,0,0,0-1.164-.375,1.581,1.581,0,0,0-1.059.348,1.833,1.833,0,0,0-.574.91l.008,5.8h-1.9V9.438a1.354,1.354,0,0,0-1.523-1.492,1.671,1.671,0,0,0-1.617.93V15h-1.9V6.547ZM106.908,15a2.93,2.93,0,0,1-.219-.789,3.193,3.193,0,0,1-4.3.219,2.325,2.325,0,0,1-.8-1.8,2.4,2.4,0,0,1,1-2.074,4.865,4.865,0,0,1,2.871-.723h1.164V9.281a1.481,1.481,0,0,0-.367-1.051,1.456,1.456,0,0,0-1.117-.395,1.672,1.672,0,0,0-1.062.324,1,1,0,0,0-.414.824h-1.9a2.107,2.107,0,0,1,.461-1.3,3.071,3.071,0,0,1,1.254-.949,4.4,4.4,0,0,1,1.77-.344,3.547,3.547,0,0,1,2.367.746,2.661,2.661,0,0,1,.906,2.1v3.813a4.321,4.321,0,0,0,.32,1.82V15Zm-2.086-1.367a2.159,2.159,0,0,0,1.059-.273,1.827,1.827,0,0,0,.746-.734V11.031H105.6a2.8,2.8,0,0,0-1.586.367,1.189,1.189,0,0,0-.531,1.039,1.109,1.109,0,0,0,.363.871A1.407,1.407,0,0,0,104.822,13.633Zm10.117-5.352a4.7,4.7,0,0,0-.773-.062,1.741,1.741,0,0,0-1.758,1V15h-1.9V6.547h1.813l.047.945a2.139,2.139,0,0,1,1.906-1.1,1.777,1.777,0,0,1,.672.109ZM118.158,15h-1.9V6.547h1.9ZM116.142,4.352a1.008,1.008,0,0,1,.277-.727,1.048,1.048,0,0,1,.793-.289,1.061,1.061,0,0,1,.8.289,1,1,0,0,1,.281.727.977.977,0,0,1-.281.715,1.069,1.069,0,0,1-.8.285,1.056,1.056,0,0,1-.793-.285A.984.984,0,0,1,116.142,4.352Zm3.727,6.344a4.984,4.984,0,0,1,.492-2.238,3.6,3.6,0,0,1,1.383-1.531,3.9,3.9,0,0,1,2.047-.535,3.692,3.692,0,0,1,2.777,1.1,4.333,4.333,0,0,1,1.152,2.922l.008.445a5.029,5.029,0,0,1-.48,2.234,3.551,3.551,0,0,1-1.375,1.523,3.925,3.925,0,0,1-2.066.539,3.667,3.667,0,0,1-2.863-1.191,4.563,4.563,0,0,1-1.074-3.176Zm1.9.164a3.406,3.406,0,0,0,.539,2.043,1.752,1.752,0,0,0,1.5.738,1.733,1.733,0,0,0,1.5-.75,3.762,3.762,0,0,0,.535-2.2,3.362,3.362,0,0,0-.551-2.031,1.856,1.856,0,0,0-2.973-.012A3.691,3.691,0,0,0,121.767,10.859Zm12.3,1.844a.861.861,0,0,0-.418-.773,4.445,4.445,0,0,0-1.387-.469,7.129,7.129,0,0,1-1.617-.516,2.158,2.158,0,0,1-1.422-1.992,2.25,2.25,0,0,1,.922-1.828,3.644,3.644,0,0,1,2.344-.734,3.792,3.792,0,0,1,2.449.75,2.38,2.38,0,0,1,.934,1.945h-1.9a1.17,1.17,0,0,0-.406-.91,1.557,1.557,0,0,0-1.078-.363,1.682,1.682,0,0,0-1.02.289.911.911,0,0,0-.395.773.769.769,0,0,0,.367.68,5.049,5.049,0,0,0,1.484.488,7.027,7.027,0,0,1,1.754.586,2.484,2.484,0,0,1,.945.816,2.082,2.082,0,0,1,.309,1.156,2.2,2.2,0,0,1-.945,1.848,4.031,4.031,0,0,1-2.477.707,4.371,4.371,0,0,1-1.852-.375A3.047,3.047,0,0,1,129.4,13.75a2.441,2.441,0,0,1-.453-1.414h1.844a1.338,1.338,0,0,0,.508,1.035,1.973,1.973,0,0,0,1.242.363,1.92,1.92,0,0,0,1.141-.285A.883.883,0,0,0,134.072,12.7Z" transform="translate(-1241.512 -6674.811)" fill="#12263f"/>
    <path id="Path_894650" data-name="Path 894650" d="M18.375,12.352H13.969L13.047,15H10.992l4.3-11.375h1.773L21.367,15H19.3Zm-3.852-1.594h3.3L16.172,6.039Zm11.422,2.883a1.716,1.716,0,0,0,1.18-.414,1.415,1.415,0,0,0,.5-1.023h1.789a2.789,2.789,0,0,1-.492,1.473,3.228,3.228,0,0,1-1.25,1.082,3.725,3.725,0,0,1-1.7.4,3.6,3.6,0,0,1-2.812-1.148,4.555,4.555,0,0,1-1.039-3.172v-.2a4.479,4.479,0,0,1,1.031-3.09,3.571,3.571,0,0,1,2.813-1.16,3.473,3.473,0,0,1,2.457.879,3.148,3.148,0,0,1,1,2.309H27.625a1.738,1.738,0,0,0-.5-1.2,1.6,1.6,0,0,0-1.184-.469,1.671,1.671,0,0,0-1.422.668,3.408,3.408,0,0,0-.508,2.027v.3a3.465,3.465,0,0,0,.5,2.051A1.669,1.669,0,0,0,25.945,13.641Zm7.281-9.148V6.547h1.492V7.953H33.227v4.719a1.039,1.039,0,0,0,.191.7.888.888,0,0,0,.684.215,2.924,2.924,0,0,0,.664-.078v1.469a4.676,4.676,0,0,1-1.25.18q-2.187,0-2.187-2.414V7.953H29.938V6.547h1.391V4.492Zm2.352,6.2a4.984,4.984,0,0,1,.492-2.238,3.6,3.6,0,0,1,1.383-1.531A3.9,3.9,0,0,1,39.5,6.391a3.692,3.692,0,0,1,2.777,1.1,4.333,4.333,0,0,1,1.152,2.922l.008.445a5.029,5.029,0,0,1-.48,2.234,3.551,3.551,0,0,1-1.375,1.523,3.925,3.925,0,0,1-2.066.539,3.667,3.667,0,0,1-2.863-1.191,4.563,4.563,0,0,1-1.074-3.176Zm1.9.164a3.406,3.406,0,0,0,.539,2.043,1.752,1.752,0,0,0,1.5.738,1.733,1.733,0,0,0,1.5-.75,3.762,3.762,0,0,0,.535-2.2A3.362,3.362,0,0,0,41,8.664a1.856,1.856,0,0,0-2.973-.012A3.691,3.691,0,0,0,37.477,10.859ZM49.469,8.281a4.7,4.7,0,0,0-.773-.062,1.741,1.741,0,0,0-1.758,1V15h-1.9V6.547h1.813l.047.945a2.139,2.139,0,0,1,1.906-1.1,1.777,1.777,0,0,1,.672.109Zm4.773,6.875a3.928,3.928,0,0,1-2.926-1.137A4.124,4.124,0,0,1,50.2,10.992v-.234A5.072,5.072,0,0,1,50.684,8.5a3.716,3.716,0,0,1,1.371-1.551,3.625,3.625,0,0,1,1.969-.555,3.318,3.318,0,0,1,2.668,1.1,4.658,4.658,0,0,1,.941,3.117v.766H52.109a2.539,2.539,0,0,0,.7,1.656,2.1,2.1,0,0,0,1.543.609,2.571,2.571,0,0,0,2.125-1.055l1.023.977a3.418,3.418,0,0,1-1.355,1.176A4.244,4.244,0,0,1,54.242,15.156Zm-.227-7.242a1.6,1.6,0,0,0-1.262.547,2.835,2.835,0,0,0-.613,1.523h3.617V9.844A2.307,2.307,0,0,0,55.25,8.4,1.586,1.586,0,0,0,54.016,7.914ZM63.844,12.7a.861.861,0,0,0-.418-.773,4.445,4.445,0,0,0-1.387-.469,7.129,7.129,0,0,1-1.617-.516A2.158,2.158,0,0,1,59,8.953a2.25,2.25,0,0,1,.922-1.828,3.644,3.644,0,0,1,2.344-.734,3.792,3.792,0,0,1,2.449.75,2.38,2.38,0,0,1,.934,1.945h-1.9a1.17,1.17,0,0,0-.406-.91,1.557,1.557,0,0,0-1.078-.363,1.682,1.682,0,0,0-1.02.289.911.911,0,0,0-.395.773.769.769,0,0,0,.367.68,5.049,5.049,0,0,0,1.484.488,7.027,7.027,0,0,1,1.754.586,2.484,2.484,0,0,1,.945.816,2.082,2.082,0,0,1,.309,1.156,2.2,2.2,0,0,1-.945,1.848,4.031,4.031,0,0,1-2.477.707,4.371,4.371,0,0,1-1.852-.375,3.047,3.047,0,0,1-1.266-1.031,2.441,2.441,0,0,1-.453-1.414h1.844a1.338,1.338,0,0,0,.508,1.035,1.973,1.973,0,0,0,1.242.363,1.92,1.92,0,0,0,1.141-.285A.883.883,0,0,0,63.844,12.7Zm12.242,0a.861.861,0,0,0-.418-.773,4.445,4.445,0,0,0-1.387-.469,7.129,7.129,0,0,1-1.617-.516,2.158,2.158,0,0,1-1.422-1.992,2.25,2.25,0,0,1,.922-1.828,3.644,3.644,0,0,1,2.344-.734,3.792,3.792,0,0,1,2.449.75,2.38,2.38,0,0,1,.934,1.945h-1.9a1.17,1.17,0,0,0-.406-.91,1.557,1.557,0,0,0-1.078-.363,1.682,1.682,0,0,0-1.02.289.911.911,0,0,0-.395.773.769.769,0,0,0,.367.68,5.049,5.049,0,0,0,1.484.488,7.027,7.027,0,0,1,1.754.586,2.484,2.484,0,0,1,.945.816,2.082,2.082,0,0,1,.309,1.156,2.2,2.2,0,0,1-.945,1.848,4.031,4.031,0,0,1-2.477.707,4.371,4.371,0,0,1-1.852-.375,3.047,3.047,0,0,1-1.266-1.031,2.441,2.441,0,0,1-.453-1.414H72.8a1.338,1.338,0,0,0,.508,1.035,1.973,1.973,0,0,0,1.242.363,1.92,1.92,0,0,0,1.141-.285A.883.883,0,0,0,76.086,12.7Zm7.242,2.453A3.928,3.928,0,0,1,80.4,14.02a4.124,4.124,0,0,1-1.121-3.027v-.234A5.072,5.072,0,0,1,79.77,8.5a3.716,3.716,0,0,1,1.371-1.551,3.625,3.625,0,0,1,1.969-.555,3.318,3.318,0,0,1,2.668,1.1,4.658,4.658,0,0,1,.941,3.117v.766H81.2a2.539,2.539,0,0,0,.7,1.656,2.1,2.1,0,0,0,1.543.609,2.571,2.571,0,0,0,2.125-1.055l1.023.977a3.418,3.418,0,0,1-1.355,1.176A4.244,4.244,0,0,1,83.328,15.156ZM83.1,7.914a1.6,1.6,0,0,0-1.262.547,2.835,2.835,0,0,0-.613,1.523h3.617V9.844A2.307,2.307,0,0,0,84.336,8.4,1.586,1.586,0,0,0,83.1,7.914Zm8.563,5.727a1.716,1.716,0,0,0,1.18-.414,1.415,1.415,0,0,0,.5-1.023h1.789a2.789,2.789,0,0,1-.492,1.473,3.228,3.228,0,0,1-1.25,1.082,3.725,3.725,0,0,1-1.7.4,3.6,3.6,0,0,1-2.812-1.148,4.555,4.555,0,0,1-1.039-3.172v-.2a4.479,4.479,0,0,1,1.031-3.09,3.571,3.571,0,0,1,2.813-1.16,3.473,3.473,0,0,1,2.457.879,3.148,3.148,0,0,1,1,2.309H93.344a1.738,1.738,0,0,0-.5-1.2,1.6,1.6,0,0,0-1.184-.469,1.671,1.671,0,0,0-1.422.668,3.408,3.408,0,0,0-.508,2.027v.3a3.465,3.465,0,0,0,.5,2.051A1.669,1.669,0,0,0,91.664,13.641Zm10.023.531a2.944,2.944,0,0,1-2.375.984,2.624,2.624,0,0,1-2.082-.8,3.423,3.423,0,0,1-.707-2.328V6.547h1.9V12q0,1.609,1.336,1.609a1.876,1.876,0,0,0,1.867-.992V6.547h1.9V15h-1.789Zm5.531-7.625.055.977a3.039,3.039,0,0,1,2.461-1.133q2.641,0,2.688,3.023V15h-1.9V9.523a1.741,1.741,0,0,0-.348-1.191,1.462,1.462,0,0,0-1.137-.387,1.829,1.829,0,0,0-1.711,1.039V15h-1.9V6.547ZM114,10.711a5.026,5.026,0,0,1,.906-3.137,2.9,2.9,0,0,1,2.43-1.184,2.759,2.759,0,0,1,2.172.938V3h1.9V15h-1.719l-.094-.875a2.8,2.8,0,0,1-2.273,1.031,2.887,2.887,0,0,1-2.4-1.2A5.21,5.21,0,0,1,114,10.711Zm1.9.164a3.519,3.519,0,0,0,.5,2.012,1.61,1.61,0,0,0,1.41.723,1.793,1.793,0,0,0,1.7-1.039V8.961a1.766,1.766,0,0,0-1.687-1.016,1.622,1.622,0,0,0-1.422.73A3.918,3.918,0,0,0,115.9,10.875ZM128.438,15a2.93,2.93,0,0,1-.219-.789,3.193,3.193,0,0,1-4.3.219,2.325,2.325,0,0,1-.8-1.8,2.4,2.4,0,0,1,1-2.074,4.865,4.865,0,0,1,2.871-.723h1.164V9.281a1.481,1.481,0,0,0-.367-1.051,1.456,1.456,0,0,0-1.117-.395,1.672,1.672,0,0,0-1.062.324,1,1,0,0,0-.414.824h-1.9a2.107,2.107,0,0,1,.461-1.3,3.071,3.071,0,0,1,1.254-.949,4.4,4.4,0,0,1,1.77-.344,3.547,3.547,0,0,1,2.367.746,2.661,2.661,0,0,1,.906,2.1v3.813a4.321,4.321,0,0,0,.32,1.82V15Zm-2.086-1.367a2.159,2.159,0,0,0,1.059-.273,1.827,1.827,0,0,0,.746-.734V11.031h-1.023a2.8,2.8,0,0,0-1.586.367,1.189,1.189,0,0,0-.531,1.039,1.109,1.109,0,0,0,.363.871A1.407,1.407,0,0,0,126.352,13.633Zm10.117-5.352a4.7,4.7,0,0,0-.773-.062,1.741,1.741,0,0,0-1.758,1V15h-1.9V6.547h1.813l.047.945a2.139,2.139,0,0,1,1.906-1.1,1.777,1.777,0,0,1,.672.109ZM139.688,15h-1.9V6.547h1.9ZM137.672,4.352a1.008,1.008,0,0,1,.277-.727,1.048,1.048,0,0,1,.793-.289,1.061,1.061,0,0,1,.8.289,1,1,0,0,1,.281.727.977.977,0,0,1-.281.715,1.069,1.069,0,0,1-.8.285,1.056,1.056,0,0,1-.793-.285A.984.984,0,0,1,137.672,4.352ZM141.4,10.7a4.984,4.984,0,0,1,.492-2.238,3.6,3.6,0,0,1,1.383-1.531,3.9,3.9,0,0,1,2.047-.535,3.692,3.692,0,0,1,2.777,1.1,4.333,4.333,0,0,1,1.152,2.922l.008.445a5.029,5.029,0,0,1-.48,2.234,3.551,3.551,0,0,1-1.375,1.523,3.925,3.925,0,0,1-2.066.539,3.667,3.667,0,0,1-2.863-1.191,4.563,4.563,0,0,1-1.074-3.176Zm1.9.164a3.406,3.406,0,0,0,.539,2.043,1.752,1.752,0,0,0,1.5.738,1.733,1.733,0,0,0,1.5-.75,3.762,3.762,0,0,0,.535-2.2,3.362,3.362,0,0,0-.551-2.031,1.856,1.856,0,0,0-2.973-.012A3.691,3.691,0,0,0,143.3,10.859ZM155.6,12.7a.861.861,0,0,0-.418-.773,4.445,4.445,0,0,0-1.387-.469,7.129,7.129,0,0,1-1.617-.516,2.158,2.158,0,0,1-1.422-1.992,2.25,2.25,0,0,1,.922-1.828,3.644,3.644,0,0,1,2.344-.734,3.792,3.792,0,0,1,2.449.75,2.38,2.38,0,0,1,.934,1.945h-1.9a1.17,1.17,0,0,0-.406-.91,1.557,1.557,0,0,0-1.078-.363A1.682,1.682,0,0,0,153,8.1a.911.911,0,0,0-.395.773.769.769,0,0,0,.367.68,5.049,5.049,0,0,0,1.484.488,7.027,7.027,0,0,1,1.754.586,2.484,2.484,0,0,1,.945.816,2.082,2.082,0,0,1,.309,1.156,2.2,2.2,0,0,1-.945,1.848,4.031,4.031,0,0,1-2.477.707,4.371,4.371,0,0,1-1.852-.375,3.047,3.047,0,0,1-1.266-1.031,2.441,2.441,0,0,1-.453-1.414h1.844a1.338,1.338,0,0,0,.508,1.035,1.973,1.973,0,0,0,1.242.363,1.92,1.92,0,0,0,1.141-.285A.883.883,0,0,0,155.6,12.7Z" transform="translate(-1260.674 -6633.62)" fill="#12263f"/>
    <path id="Path_894651" data-name="Path 894651" d="M9.051,12.016A1.2,1.2,0,0,0,8.582,11a6.148,6.148,0,0,0-1.687-.75,11.963,11.963,0,0,1-1.93-.777,3.153,3.153,0,0,1-1.937-2.82A2.747,2.747,0,0,1,3.547,5,3.389,3.389,0,0,1,5.039,3.875a5.616,5.616,0,0,1,2.184-.406,5.112,5.112,0,0,1,2.172.441,3.458,3.458,0,0,1,1.48,1.246A3.261,3.261,0,0,1,11.4,6.984H9.059A1.534,1.534,0,0,0,8.566,5.77a2.023,2.023,0,0,0-1.383-.434A2.162,2.162,0,0,0,5.848,5.7a1.146,1.146,0,0,0-.477.957,1.1,1.1,0,0,0,.559.93,6.311,6.311,0,0,0,1.645.7,7.106,7.106,0,0,1,2.914,1.492A2.972,2.972,0,0,1,11.4,12a2.737,2.737,0,0,1-1.117,2.316,4.891,4.891,0,0,1-3.008.84,5.808,5.808,0,0,1-2.391-.48,3.783,3.783,0,0,1-1.645-1.316,3.371,3.371,0,0,1-.566-1.937H5.027q0,1.883,2.25,1.883a2.189,2.189,0,0,0,1.3-.34A1.106,1.106,0,0,0,9.051,12.016Zm3.438-1.32a5.013,5.013,0,0,1,.484-2.242A3.546,3.546,0,0,1,14.367,6.93a4.069,4.069,0,0,1,2.113-.539,3.849,3.849,0,0,1,2.793,1.047,4.2,4.2,0,0,1,1.207,2.844l.016.578A4.418,4.418,0,0,1,19.41,13.98,3.775,3.775,0,0,1,16.5,15.156a3.793,3.793,0,0,1-2.918-1.172,4.5,4.5,0,0,1-1.09-3.187Zm2.258.16A3.16,3.16,0,0,0,15.2,12.7a1.628,1.628,0,0,0,2.578.008,3.457,3.457,0,0,0,.461-2.015,3.128,3.128,0,0,0-.461-1.831,1.5,1.5,0,0,0-1.3-.649,1.474,1.474,0,0,0-1.281.646A3.516,3.516,0,0,0,14.746,10.856ZM25.4,13.336a1.481,1.481,0,0,0,1.016-.344,1.2,1.2,0,0,0,.406-.914h2.117a2.9,2.9,0,0,1-.469,1.574,3.093,3.093,0,0,1-1.262,1.109,3.949,3.949,0,0,1-1.77.395A3.67,3.67,0,0,1,22.582,14a4.56,4.56,0,0,1-1.047-3.184v-.148a4.508,4.508,0,0,1,1.039-3.117,3.627,3.627,0,0,1,2.852-1.164,3.555,3.555,0,0,1,2.543.9,3.2,3.2,0,0,1,.973,2.4H26.824a1.551,1.551,0,0,0-.406-1.072,1.51,1.51,0,0,0-2.223.163,3.333,3.333,0,0,0-.4,1.866v.235a3.375,3.375,0,0,0,.4,1.878A1.377,1.377,0,0,0,25.4,13.336ZM32.613,15H30.348V6.547h2.266Zm-2.4-10.641a1.112,1.112,0,0,1,.34-.836,1.465,1.465,0,0,1,1.848,0,1.105,1.105,0,0,1,.344.836A1.108,1.108,0,0,1,32.4,5.2a1.448,1.448,0,0,1-1.836,0A1.108,1.108,0,0,1,30.215,4.359Zm8.148,10.8a4.15,4.15,0,0,1-3.027-1.141,4.054,4.054,0,0,1-1.168-3.039v-.219A5.106,5.106,0,0,1,34.66,8.48a3.612,3.612,0,0,1,1.395-1.547,3.914,3.914,0,0,1,2.059-.543,3.508,3.508,0,0,1,2.73,1.094,4.444,4.444,0,0,1,1,3.1v.922H36.457a2.1,2.1,0,0,0,.66,1.328,2,2,0,0,0,1.395.5,2.437,2.437,0,0,0,2.039-.945l1.109,1.242a3.389,3.389,0,0,1-1.375,1.121A4.511,4.511,0,0,1,38.363,15.156Zm-.258-6.945a1.411,1.411,0,0,0-1.09.455,2.357,2.357,0,0,0-.535,1.3h3.141V9.788a1.681,1.681,0,0,0-.406-1.165A1.456,1.456,0,0,0,38.105,8.211Zm4.664,2.5a5.094,5.094,0,0,1,.887-3.148,2.877,2.877,0,0,1,2.426-1.172,2.589,2.589,0,0,1,2.039.922V3h2.266V15H48.348l-.109-.9a2.657,2.657,0,0,1-2.172,1.055,2.869,2.869,0,0,1-2.395-1.176A5.258,5.258,0,0,1,42.77,10.711Zm2.258.168a3.337,3.337,0,0,0,.414,1.823,1.349,1.349,0,0,0,1.2.634,1.511,1.511,0,0,0,1.477-.884V9.111a1.489,1.489,0,0,0-1.461-.884Q45.027,8.227,45.027,10.879ZM57.035,15a2.507,2.507,0,0,1-.227-.758,2.732,2.732,0,0,1-2.133.914,3,3,0,0,1-2.059-.719,2.312,2.312,0,0,1-.816-1.812,2.389,2.389,0,0,1,1-2.062,4.915,4.915,0,0,1,2.879-.727h1.039V9.352a1.393,1.393,0,0,0-.3-.937,1.183,1.183,0,0,0-.949-.352,1.345,1.345,0,0,0-.895.273.929.929,0,0,0-.324.75H51.988a2.268,2.268,0,0,1,.453-1.359,3,3,0,0,1,1.281-.98,4.669,4.669,0,0,1,1.859-.355,3.689,3.689,0,0,1,2.48.785,2.747,2.747,0,0,1,.918,2.207v3.664a4.041,4.041,0,0,0,.336,1.82V15Zm-1.867-1.57a1.945,1.945,0,0,0,.922-.223,1.462,1.462,0,0,0,.625-.6V11.156h-.844q-1.7,0-1.8,1.172l-.008.133a.9.9,0,0,0,.3.7A1.153,1.153,0,0,0,55.168,13.43Zm5.2-2.719a5.094,5.094,0,0,1,.887-3.148,2.877,2.877,0,0,1,2.426-1.172,2.589,2.589,0,0,1,2.039.922V3H67.98V15H65.941l-.109-.9a2.657,2.657,0,0,1-2.172,1.055,2.869,2.869,0,0,1-2.395-1.176A5.258,5.258,0,0,1,60.363,10.711Zm2.258.168a3.337,3.337,0,0,0,.414,1.823,1.349,1.349,0,0,0,1.2.634,1.511,1.511,0,0,0,1.477-.884V9.111a1.489,1.489,0,0,0-1.461-.884Q62.621,8.227,62.621,10.879ZM27.3,33.336a1.481,1.481,0,0,0,1.016-.344,1.2,1.2,0,0,0,.406-.914h2.117a2.9,2.9,0,0,1-.469,1.574,3.093,3.093,0,0,1-1.262,1.109,3.949,3.949,0,0,1-1.77.395A3.67,3.67,0,0,1,24.477,34,4.56,4.56,0,0,1,23.43,30.82v-.148a4.508,4.508,0,0,1,1.039-3.117,3.627,3.627,0,0,1,2.852-1.164,3.555,3.555,0,0,1,2.543.9,3.2,3.2,0,0,1,.973,2.4H28.719a1.551,1.551,0,0,0-.406-1.072,1.51,1.51,0,0,0-2.223.163,3.333,3.333,0,0,0-.4,1.866v.235a3.375,3.375,0,0,0,.4,1.878A1.377,1.377,0,0,0,27.3,33.336ZM34.508,35H32.242V26.547h2.266Zm-2.4-10.641a1.112,1.112,0,0,1,.34-.836,1.465,1.465,0,0,1,1.848,0,1.193,1.193,0,0,1,0,1.68,1.448,1.448,0,0,1-1.836,0A1.108,1.108,0,0,1,32.109,24.359Zm7.422,7.883,1.57-5.7h2.359L40.609,35H38.453L35.6,26.547h2.359ZM46.836,35H44.57V26.547h2.266Zm-2.4-10.641a1.112,1.112,0,0,1,.34-.836,1.465,1.465,0,0,1,1.848,0,1.193,1.193,0,0,1,0,1.68,1.448,1.448,0,0,1-1.836,0A1.108,1.108,0,0,1,44.438,24.359ZM51.078,35H48.813V23h2.266Z" transform="translate(-1129.082 -6926.892)" fill="#12263f"/>
    <path id="Path_894652" data-name="Path 894652" d="M18.973,12.016A1.2,1.2,0,0,0,18.5,11a6.148,6.148,0,0,0-1.687-.75,11.963,11.963,0,0,1-1.93-.777,3.153,3.153,0,0,1-1.937-2.82A2.747,2.747,0,0,1,13.469,5a3.389,3.389,0,0,1,1.492-1.129,5.616,5.616,0,0,1,2.184-.406,5.112,5.112,0,0,1,2.172.441A3.458,3.458,0,0,1,20.8,5.156a3.261,3.261,0,0,1,.527,1.828H18.98a1.534,1.534,0,0,0-.492-1.215,2.023,2.023,0,0,0-1.383-.434A2.162,2.162,0,0,0,15.77,5.7a1.146,1.146,0,0,0-.477.957,1.1,1.1,0,0,0,.559.93,6.311,6.311,0,0,0,1.645.7A7.106,7.106,0,0,1,20.41,9.781,2.972,2.972,0,0,1,21.324,12a2.737,2.737,0,0,1-1.117,2.316,4.891,4.891,0,0,1-3.008.84,5.808,5.808,0,0,1-2.391-.48,3.783,3.783,0,0,1-1.645-1.316,3.371,3.371,0,0,1-.566-1.937h2.352q0,1.883,2.25,1.883a2.189,2.189,0,0,0,1.3-.34A1.106,1.106,0,0,0,18.973,12.016Zm7.68,3.141a4.15,4.15,0,0,1-3.027-1.141,4.054,4.054,0,0,1-1.168-3.039v-.219a5.106,5.106,0,0,1,.492-2.277,3.612,3.612,0,0,1,1.395-1.547A3.914,3.914,0,0,1,26.4,6.391a3.508,3.508,0,0,1,2.73,1.094,4.444,4.444,0,0,1,1,3.1v.922H24.746a2.1,2.1,0,0,0,.66,1.328,2,2,0,0,0,1.395.5,2.437,2.437,0,0,0,2.039-.945l1.109,1.242a3.389,3.389,0,0,1-1.375,1.121A4.511,4.511,0,0,1,26.652,15.156Zm-.258-6.945a1.411,1.411,0,0,0-1.09.455,2.357,2.357,0,0,0-.535,1.3H27.91V9.788A1.681,1.681,0,0,0,27.5,8.623,1.456,1.456,0,0,0,26.395,8.211Zm8.531,5.125a1.481,1.481,0,0,0,1.016-.344,1.2,1.2,0,0,0,.406-.914h2.117A2.9,2.9,0,0,1,38,13.652a3.093,3.093,0,0,1-1.262,1.109,3.949,3.949,0,0,1-1.77.395A3.67,3.67,0,0,1,32.105,14a4.56,4.56,0,0,1-1.047-3.184v-.148A4.508,4.508,0,0,1,32.1,7.555a3.627,3.627,0,0,1,2.852-1.164,3.555,3.555,0,0,1,2.543.9,3.2,3.2,0,0,1,.973,2.4H36.348a1.551,1.551,0,0,0-.406-1.072,1.51,1.51,0,0,0-2.223.163,3.333,3.333,0,0,0-.4,1.866v.235a3.375,3.375,0,0,0,.4,1.878A1.377,1.377,0,0,0,34.926,13.336Zm7.531-8.867V6.547H43.9V8.2H42.457v4.219a1.007,1.007,0,0,0,.18.672.9.9,0,0,0,.688.2,3.6,3.6,0,0,0,.664-.055v1.711a4.648,4.648,0,0,1-1.367.2,2.156,2.156,0,0,1-2.422-2.4V8.2H38.965V6.547H40.2V4.469ZM44.574,10.7a5.013,5.013,0,0,1,.484-2.242A3.546,3.546,0,0,1,46.453,6.93a4.069,4.069,0,0,1,2.113-.539,3.849,3.849,0,0,1,2.793,1.047,4.2,4.2,0,0,1,1.207,2.844l.016.578A4.418,4.418,0,0,1,51.5,13.98a4.209,4.209,0,0,1-5.832,0,4.5,4.5,0,0,1-1.09-3.187Zm2.258.16a3.16,3.16,0,0,0,.453,1.843,1.628,1.628,0,0,0,2.578.008,3.457,3.457,0,0,0,.461-2.015,3.128,3.128,0,0,0-.461-1.831,1.5,1.5,0,0,0-1.3-.649,1.474,1.474,0,0,0-1.281.646A3.516,3.516,0,0,0,46.832,10.856ZM58.723,8.664A6.134,6.134,0,0,0,57.91,8.6a1.654,1.654,0,0,0-1.68.867V15H53.973V6.547h2.133l.063,1.008a2.092,2.092,0,0,1,1.883-1.164,2.366,2.366,0,0,1,.7.1ZM17.129,30.852a5.07,5.07,0,0,1-.887,3.129,2.843,2.843,0,0,1-2.395,1.176,2.633,2.633,0,0,1-2.07-.891V38.25H9.52v-11.7h2.094l.078.828a2.654,2.654,0,0,1,2.141-.984,2.862,2.862,0,0,1,2.43,1.156,5.207,5.207,0,0,1,.867,3.188Zm-2.258-.164a3.327,3.327,0,0,0-.418-1.82,1.361,1.361,0,0,0-1.215-.641,1.478,1.478,0,0,0-1.461.813V32.5a1.5,1.5,0,0,0,1.477.836Q14.871,33.336,14.871,30.688Zm8.406-2.023a6.134,6.134,0,0,0-.812-.062,1.654,1.654,0,0,0-1.68.867V35H18.527V26.547H20.66l.063,1.008a2.092,2.092,0,0,1,1.883-1.164,2.366,2.366,0,0,1,.7.1ZM26.746,35H24.48V26.547h2.266Zm-2.4-10.641a1.112,1.112,0,0,1,.34-.836,1.465,1.465,0,0,1,1.848,0,1.193,1.193,0,0,1,0,1.68,1.448,1.448,0,0,1-1.836,0A1.108,1.108,0,0,1,24.348,24.359Zm7.422,7.883,1.57-5.7H35.7L32.848,35H30.691L27.84,26.547H30.2ZM41.473,35a2.507,2.507,0,0,1-.227-.758,2.732,2.732,0,0,1-2.133.914,3,3,0,0,1-2.059-.719,2.312,2.312,0,0,1-.816-1.812,2.389,2.389,0,0,1,1-2.062,4.915,4.915,0,0,1,2.879-.727h1.039v-.484a1.393,1.393,0,0,0-.3-.937,1.183,1.183,0,0,0-.949-.352,1.345,1.345,0,0,0-.895.273.929.929,0,0,0-.324.75H36.426a2.268,2.268,0,0,1,.453-1.359,3,3,0,0,1,1.281-.98,4.669,4.669,0,0,1,1.859-.355,3.689,3.689,0,0,1,2.48.785,2.747,2.747,0,0,1,.918,2.207v3.664a4.041,4.041,0,0,0,.336,1.82V35Zm-1.867-1.57a1.945,1.945,0,0,0,.922-.223,1.462,1.462,0,0,0,.625-.6V31.156h-.844q-1.7,0-1.8,1.172l-.008.133a.9.9,0,0,0,.3.7A1.153,1.153,0,0,0,39.605,33.43Zm5.2-2.719a5.094,5.094,0,0,1,.887-3.148,2.877,2.877,0,0,1,2.426-1.172,2.589,2.589,0,0,1,2.039.922V23h2.266V35H50.379l-.109-.9A2.657,2.657,0,0,1,48.1,35.156,2.869,2.869,0,0,1,45.7,33.98,5.258,5.258,0,0,1,44.8,30.711Zm2.258.168a3.337,3.337,0,0,0,.414,1.823,1.349,1.349,0,0,0,1.2.634,1.511,1.511,0,0,0,1.477-.884V29.111a1.489,1.489,0,0,0-1.461-.884Q47.059,28.227,47.059,30.879Zm6.758-.184a5.013,5.013,0,0,1,.484-2.242A3.546,3.546,0,0,1,55.7,26.93a4.069,4.069,0,0,1,2.113-.539A3.849,3.849,0,0,1,60.6,27.438a4.2,4.2,0,0,1,1.207,2.844l.016.578a4.418,4.418,0,0,1-1.086,3.121,4.209,4.209,0,0,1-5.832,0,4.5,4.5,0,0,1-1.09-3.187Zm2.258.16a3.16,3.16,0,0,0,.453,1.843,1.628,1.628,0,0,0,2.578.008,3.457,3.457,0,0,0,.461-2.015,3.128,3.128,0,0,0-.461-1.831,1.5,1.5,0,0,0-1.3-.649,1.474,1.474,0,0,0-1.281.646A3.516,3.516,0,0,0,56.074,30.856Z" transform="translate(-1374 -6798.622)" fill="#12263f"/>
    <path id="Path_894653" data-name="Path 894653" d="M18.723,10.07h-4.5v3.047H19.5V15H11.879V3.625h7.609v1.9H14.223V8.234h4.5Zm6.586,2.594a.727.727,0,0,0-.41-.652,4.659,4.659,0,0,0-1.316-.426q-3.016-.633-3.016-2.562A2.323,2.323,0,0,1,21.5,7.145a3.766,3.766,0,0,1,2.441-.754,4.053,4.053,0,0,1,2.574.758,2.388,2.388,0,0,1,.965,1.969H25.223a1.092,1.092,0,0,0-.312-.8A1.322,1.322,0,0,0,23.934,8a1.351,1.351,0,0,0-.883.258.814.814,0,0,0-.312.656.7.7,0,0,0,.355.605,3.657,3.657,0,0,0,1.2.4,9.8,9.8,0,0,1,1.422.379A2.336,2.336,0,0,1,27.5,12.57a2.2,2.2,0,0,1-.992,1.871,4.28,4.28,0,0,1-2.562.715,4.47,4.47,0,0,1-1.887-.379,3.166,3.166,0,0,1-1.293-1.039,2.414,2.414,0,0,1-.469-1.426h2.141a1.179,1.179,0,0,0,.445.922,1.766,1.766,0,0,0,1.109.32,1.635,1.635,0,0,0,.98-.246A.766.766,0,0,0,25.309,12.664Zm6.352-8.2V6.547h1.445V8.2H31.66v4.219a1.007,1.007,0,0,0,.18.672.9.9,0,0,0,.688.2,3.6,3.6,0,0,0,.664-.055v1.711a4.648,4.648,0,0,1-1.367.2,2.156,2.156,0,0,1-2.422-2.4V8.2H28.168V6.547H29.4V4.469ZM39.262,15a2.507,2.507,0,0,1-.227-.758,2.732,2.732,0,0,1-2.133.914,3,3,0,0,1-2.059-.719,2.312,2.312,0,0,1-.816-1.812,2.389,2.389,0,0,1,1-2.062A4.915,4.915,0,0,1,37.9,9.836h1.039V9.352a1.393,1.393,0,0,0-.3-.937,1.183,1.183,0,0,0-.949-.352,1.345,1.345,0,0,0-.895.273.929.929,0,0,0-.324.75H34.215a2.268,2.268,0,0,1,.453-1.359,3,3,0,0,1,1.281-.98,4.669,4.669,0,0,1,1.859-.355,3.689,3.689,0,0,1,2.48.785,2.747,2.747,0,0,1,.918,2.207v3.664a4.041,4.041,0,0,0,.336,1.82V15Zm-1.867-1.57a1.945,1.945,0,0,0,.922-.223,1.462,1.462,0,0,0,.625-.6V11.156H38.1q-1.7,0-1.8,1.172l-.008.133a.9.9,0,0,0,.3.7A1.153,1.153,0,0,0,37.395,13.43Zm5.2-2.719a5.094,5.094,0,0,1,.887-3.148A2.877,2.877,0,0,1,45.9,6.391a2.589,2.589,0,0,1,2.039.922V3h2.266V15H48.168l-.109-.9a2.657,2.657,0,0,1-2.172,1.055,2.869,2.869,0,0,1-2.395-1.176A5.258,5.258,0,0,1,42.59,10.711Zm2.258.168a3.337,3.337,0,0,0,.414,1.823,1.349,1.349,0,0,0,1.2.634,1.511,1.511,0,0,0,1.477-.884V9.111a1.489,1.489,0,0,0-1.461-.884Q44.848,8.227,44.848,10.879Zm6.758-.184a5.013,5.013,0,0,1,.484-2.242A3.546,3.546,0,0,1,53.484,6.93,4.069,4.069,0,0,1,55.6,6.391a3.849,3.849,0,0,1,2.793,1.047A4.2,4.2,0,0,1,59.6,10.281l.016.578a4.418,4.418,0,0,1-1.086,3.121,4.209,4.209,0,0,1-5.832,0,4.5,4.5,0,0,1-1.09-3.187Zm2.258.16a3.16,3.16,0,0,0,.453,1.843,1.628,1.628,0,0,0,2.578.008,3.457,3.457,0,0,0,.461-2.015,3.128,3.128,0,0,0-.461-1.831,1.5,1.5,0,0,0-1.3-.649,1.474,1.474,0,0,0-1.281.646A3.516,3.516,0,0,0,53.863,10.856Z" transform="translate(-1079.683 -6719.75)" fill="#12263f"/>
    <g id="Path_894654" data-name="Path 894654" transform="translate(-1173.915 -6720.979)" fill="#fecab2">
      <path d="M 7.916480541229248 14.83296012878418 C 4.102720737457275 14.83296012878418 1.000000596046448 11.73024082183838 1.000000596046448 7.916480541229248 C 1.000000596046448 4.102720737457275 4.102720737457275 1.000000596046448 7.916480541229248 1.000000596046448 C 11.73024082183838 1.000000596046448 14.83296012878418 4.102720737457275 14.83296012878418 7.916480541229248 C 14.83296012878418 11.73024082183838 11.73024082183838 14.83296012878418 7.916480541229248 14.83296012878418 Z" stroke="none"/>
      <path d="M 7.916480541229248 2.000000953674316 C 4.654120445251465 2.000000953674316 2.000000953674316 4.654120445251465 2.000000953674316 7.916480541229248 C 2.000000953674316 11.17884063720703 4.654120445251465 13.83296012878418 7.916480541229248 13.83296012878418 C 11.17884063720703 13.83296012878418 13.83296012878418 11.17884063720703 13.83296012878418 7.916480541229248 C 13.83296012878418 4.654120445251465 11.17884063720703 2.000000953674316 7.916480541229248 2.000000953674316 M 7.916480541229248 9.5367431640625e-07 C 12.28863048553467 9.5367431640625e-07 15.83296012878418 3.544330596923828 15.83296012878418 7.916480541229248 C 15.83296012878418 12.28863048553467 12.28863048553467 15.83296012878418 7.916480541229248 15.83296012878418 C 3.544330596923828 15.83296012878418 9.5367431640625e-07 12.28863048553467 9.5367431640625e-07 7.916480541229248 C 9.5367431640625e-07 3.544330596923828 3.544330596923828 9.5367431640625e-07 7.916480541229248 9.5367431640625e-07 Z" stroke="none" fill="#707070"/>
    </g>
    <g id="Path_894655" data-name="Path 894655" transform="translate(-1216.256 -6822.822)" fill="#fecab2">
      <path d="M 7.916480541229248 14.83296012878418 C 4.102720737457275 14.83296012878418 1.000000596046448 11.73024082183838 1.000000596046448 7.916480541229248 C 1.000000596046448 4.102720737457275 4.102720737457275 1.000000596046448 7.916480541229248 1.000000596046448 C 11.73024082183838 1.000000596046448 14.83296012878418 4.102720737457275 14.83296012878418 7.916480541229248 C 14.83296012878418 11.73024082183838 11.73024082183838 14.83296012878418 7.916480541229248 14.83296012878418 Z" stroke="none"/>
      <path d="M 7.916480541229248 2.000000953674316 C 4.654120445251465 2.000000953674316 2.000000953674316 4.654120445251465 2.000000953674316 7.916480541229248 C 2.000000953674316 11.17884063720703 4.654120445251465 13.83296012878418 7.916480541229248 13.83296012878418 C 11.17884063720703 13.83296012878418 13.83296012878418 11.17884063720703 13.83296012878418 7.916480541229248 C 13.83296012878418 4.654120445251465 11.17884063720703 2.000000953674316 7.916480541229248 2.000000953674316 M 7.916480541229248 9.5367431640625e-07 C 12.28863048553467 9.5367431640625e-07 15.83296012878418 3.544330596923828 15.83296012878418 7.916480541229248 C 15.83296012878418 12.28863048553467 12.28863048553467 15.83296012878418 7.916480541229248 15.83296012878418 C 3.544330596923828 15.83296012878418 9.5367431640625e-07 12.28863048553467 9.5367431640625e-07 7.916480541229248 C 9.5367431640625e-07 3.544330596923828 3.544330596923828 9.5367431640625e-07 7.916480541229248 9.5367431640625e-07 Z" stroke="none" fill="#707070"/>
    </g>
    <path id="Path_892594" data-name="Path 892594" d="M263.246-6947.333,240-6905.822" transform="translate(-1288.55 159.935)" fill="none" stroke="#707070" stroke-width="2" stroke-dasharray="3 3"/>
    <path id="Path_892595" data-name="Path 892595" d="M191.6-6943.8l58.449-9.533" transform="translate(-1280.333 160.954)" fill="none" stroke="#707070" stroke-width="2" stroke-dasharray="3 3"/>
    <path id="Path_892596" data-name="Path 892596" d="M228.953-6996.324l-93.539-73.446-69.739-57.563L38-7095.231l87.174,19.372" transform="translate(-1254.256 190.494)" fill="none" stroke="#707070" stroke-width="2" stroke-dasharray="3 3"/>
    <g id="Path_894656" data-name="Path 894656" transform="translate(-1032.284 -6805.831)" fill="#fecab2">
      <path d="M 30.28407669067383 21.98333549499512 L 6.999996662139893 21.98333549499512 C 3.691586494445801 21.98333549499512 0.9999964237213135 19.29174423217773 0.9999964237213135 15.9833345413208 L 0.9999964237213135 7.000004768371582 C 0.9999964237213135 3.691594839096069 3.691586494445801 1.000004887580872 6.999996662139893 1.000004887580872 L 30.28407669067383 1.000004887580872 C 33.59248733520508 1.000004887580872 36.28407669067383 3.691594839096069 36.28407669067383 7.000004768371582 L 36.28407669067383 15.9833345413208 C 36.28407669067383 19.29174423217773 33.59248733520508 21.98333549499512 30.28407669067383 21.98333549499512 Z" stroke="none"/>
      <path d="M 6.999996185302734 1.999994277954102 C 4.242984771728516 1.999994277954102 1.999996185302734 4.242984771728516 1.999996185302734 6.999995231628418 L 1.999996185302734 15.98332500457764 C 1.999996185302734 18.74033546447754 4.242984771728516 20.98332595825195 6.999996185302734 20.98332595825195 L 30.28407669067383 20.98332595825195 C 33.04108810424805 20.98332595825195 35.28407669067383 18.74033546447754 35.28407669067383 15.98332500457764 L 35.28407669067383 6.999995231628418 C 35.28407669067383 4.242984771728516 33.04108810424805 1.999994277954102 30.28407669067383 1.999994277954102 L 6.999996185302734 1.999994277954102 M 6.999996185302734 -5.7220458984375e-06 L 30.28407669067383 -5.7220458984375e-06 C 34.15006637573242 -5.7220458984375e-06 37.28407669067383 3.134004592895508 37.28407669067383 6.999995231628418 L 37.28407669067383 15.98332500457764 C 37.28407669067383 19.84932518005371 34.15006637573242 22.98332405090332 30.28407669067383 22.98332405090332 L 6.999996185302734 22.98332405090332 C 3.134006500244141 22.98332405090332 -3.814697265625e-06 19.84932518005371 -3.814697265625e-06 15.98332500457764 L -3.814697265625e-06 6.999995231628418 C -3.814697265625e-06 3.134004592895508 3.134006500244141 -5.7220458984375e-06 6.999996185302734 -5.7220458984375e-06 Z" stroke="none" fill="#707070"/>
    </g>
    <g id="Path_894657" data-name="Path 894657" transform="translate(-1206.293 -6958.409)" fill="#fecab2">
      <path d="M 30.28407669067383 21.98333549499512 L 6.999996662139893 21.98333549499512 C 3.691586494445801 21.98333549499512 0.9999964237213135 19.29174423217773 0.9999964237213135 15.9833345413208 L 0.9999964237213135 7.000004768371582 C 0.9999964237213135 3.691594839096069 3.691586494445801 1.000004887580872 6.999996662139893 1.000004887580872 L 30.28407669067383 1.000004887580872 C 33.59248733520508 1.000004887580872 36.28407669067383 3.691594839096069 36.28407669067383 7.000004768371582 L 36.28407669067383 15.9833345413208 C 36.28407669067383 19.29174423217773 33.59248733520508 21.98333549499512 30.28407669067383 21.98333549499512 Z" stroke="none"/>
      <path d="M 6.999996185302734 1.999994277954102 C 4.242984771728516 1.999994277954102 1.999996185302734 4.242984771728516 1.999996185302734 6.999995231628418 L 1.999996185302734 15.98332500457764 C 1.999996185302734 18.74033546447754 4.242984771728516 20.98332595825195 6.999996185302734 20.98332595825195 L 30.28407669067383 20.98332595825195 C 33.04108810424805 20.98332595825195 35.28407669067383 18.74033546447754 35.28407669067383 15.98332500457764 L 35.28407669067383 6.999995231628418 C 35.28407669067383 4.242984771728516 33.04108810424805 1.999994277954102 30.28407669067383 1.999994277954102 L 6.999996185302734 1.999994277954102 M 6.999996185302734 -5.7220458984375e-06 L 30.28407669067383 -5.7220458984375e-06 C 34.15006637573242 -5.7220458984375e-06 37.28407669067383 3.134004592895508 37.28407669067383 6.999995231628418 L 37.28407669067383 15.98332500457764 C 37.28407669067383 19.84932518005371 34.15006637573242 22.98332405090332 30.28407669067383 22.98332405090332 L 6.999996185302734 22.98332405090332 C 3.134006500244141 22.98332405090332 -3.814697265625e-06 19.84932518005371 -3.814697265625e-06 15.98332500457764 L -3.814697265625e-06 6.999995231628418 C -3.814697265625e-06 3.134004592895508 3.134006500244141 -5.7220458984375e-06 6.999996185302734 -5.7220458984375e-06 Z" stroke="none" fill="#707070"/>
    </g>
    <path id="Path_892597" data-name="Path 892597" d="M-19.4-6858.451H-67V-6973l21.309-119" transform="translate(-1236.43 184.495)" fill="none" stroke="#707070" stroke-width="2" stroke-dasharray="2 3"/>
    <path id="Path_892598" data-name="Path 892598" d="M30.667-7067.333l12.177,67.525" transform="translate(-1253.011 180.307)" fill="none" stroke="#707070" stroke-width="2" stroke-dasharray="2 3"/>
    <path id="Path_892599" data-name="Path 892599" d="M-56.667-6947.333l45.386,64.758" transform="translate(-1238.185 159.935)" fill="none" stroke="#707070" stroke-width="2" stroke-dasharray="2 3"/>
    <g id="Path_894658" data-name="Path 894658" transform="translate(-1255.833 -6728.292)" fill="#fecab2">
      <path d="M 7.916480541229248 14.83296012878418 C 4.102720737457275 14.83296012878418 1.000000596046448 11.73024082183838 1.000000596046448 7.916480541229248 C 1.000000596046448 4.102720737457275 4.102720737457275 1.000000596046448 7.916480541229248 1.000000596046448 C 11.73024082183838 1.000000596046448 14.83296012878418 4.102720737457275 14.83296012878418 7.916480541229248 C 14.83296012878418 11.73024082183838 11.73024082183838 14.83296012878418 7.916480541229248 14.83296012878418 Z" stroke="none"/>
      <path d="M 7.916480541229248 2.000000953674316 C 4.654120445251465 2.000000953674316 2.000000953674316 4.654120445251465 2.000000953674316 7.916480541229248 C 2.000000953674316 11.17884063720703 4.654120445251465 13.83296012878418 7.916480541229248 13.83296012878418 C 11.17884063720703 13.83296012878418 13.83296012878418 11.17884063720703 13.83296012878418 7.916480541229248 C 13.83296012878418 4.654120445251465 11.17884063720703 2.000000953674316 7.916480541229248 2.000000953674316 M 7.916480541229248 9.5367431640625e-07 C 12.28863048553467 9.5367431640625e-07 15.83296012878418 3.544330596923828 15.83296012878418 7.916480541229248 C 15.83296012878418 12.28863048553467 12.28863048553467 15.83296012878418 7.916480541229248 15.83296012878418 C 3.544330596923828 15.83296012878418 9.5367431640625e-07 12.28863048553467 9.5367431640625e-07 7.916480541229248 C 9.5367431640625e-07 3.544330596923828 3.544330596923828 9.5367431640625e-07 7.916480541229248 9.5367431640625e-07 Z" stroke="none" fill="#707070"/>
    </g>
    <g id="Path_894659" data-name="Path 894659" transform="translate(-1324.11 -6685.447)" fill="#fecab2">
      <path d="M 30.28407669067383 21.98333549499512 L 6.999996662139893 21.98333549499512 C 3.691586494445801 21.98333549499512 0.9999964237213135 19.29174423217773 0.9999964237213135 15.9833345413208 L 0.9999964237213135 7.000004768371582 C 0.9999964237213135 3.691594839096069 3.691586494445801 1.000004887580872 6.999996662139893 1.000004887580872 L 30.28407669067383 1.000004887580872 C 33.59248733520508 1.000004887580872 36.28407669067383 3.691594839096069 36.28407669067383 7.000004768371582 L 36.28407669067383 15.9833345413208 C 36.28407669067383 19.29174423217773 33.59248733520508 21.98333549499512 30.28407669067383 21.98333549499512 Z" stroke="none"/>
      <path d="M 6.999996185302734 1.999994277954102 C 4.242984771728516 1.999994277954102 1.999996185302734 4.242984771728516 1.999996185302734 6.999995231628418 L 1.999996185302734 15.98332500457764 C 1.999996185302734 18.74033546447754 4.242984771728516 20.98332595825195 6.999996185302734 20.98332595825195 L 30.28407669067383 20.98332595825195 C 33.04108810424805 20.98332595825195 35.28407669067383 18.74033546447754 35.28407669067383 15.98332500457764 L 35.28407669067383 6.999995231628418 C 35.28407669067383 4.242984771728516 33.04108810424805 1.999994277954102 30.28407669067383 1.999994277954102 L 6.999996185302734 1.999994277954102 M 6.999996185302734 -5.7220458984375e-06 L 30.28407669067383 -5.7220458984375e-06 C 34.15006637573242 -5.7220458984375e-06 37.28407669067383 3.134004592895508 37.28407669067383 6.999995231628418 L 37.28407669067383 15.98332500457764 C 37.28407669067383 19.84932518005371 34.15006637573242 22.98332405090332 30.28407669067383 22.98332405090332 L 6.999996185302734 22.98332405090332 C 3.134006500244141 22.98332405090332 -3.814697265625e-06 19.84932518005371 -3.814697265625e-06 15.98332500457764 L -3.814697265625e-06 6.999995231628418 C -3.814697265625e-06 3.134004592895508 3.134006500244141 -5.7220458984375e-06 6.999996185302734 -5.7220458984375e-06 Z" stroke="none" fill="#707070"/>
    </g>
    <g id="Path_894660" data-name="Path 894660" transform="translate(-1303.43 -6921.878)" fill="#fecab2">
      <path d="M 30.28407669067383 21.98333549499512 L 6.999996662139893 21.98333549499512 C 3.691586494445801 21.98333549499512 0.9999964237213135 19.29174423217773 0.9999964237213135 15.9833345413208 L 0.9999964237213135 7.000004768371582 C 0.9999964237213135 3.691594839096069 3.691586494445801 1.000004887580872 6.999996662139893 1.000004887580872 L 30.28407669067383 1.000004887580872 C 33.59248733520508 1.000004887580872 36.28407669067383 3.691594839096069 36.28407669067383 7.000004768371582 L 36.28407669067383 15.9833345413208 C 36.28407669067383 19.29174423217773 33.59248733520508 21.98333549499512 30.28407669067383 21.98333549499512 Z" stroke="none"/>
      <path d="M 6.999996185302734 1.999994277954102 C 4.242984771728516 1.999994277954102 1.999996185302734 4.242984771728516 1.999996185302734 6.999995231628418 L 1.999996185302734 15.98332500457764 C 1.999996185302734 18.74033546447754 4.242984771728516 20.98332595825195 6.999996185302734 20.98332595825195 L 30.28407669067383 20.98332595825195 C 33.04108810424805 20.98332595825195 35.28407669067383 18.74033546447754 35.28407669067383 15.98332500457764 L 35.28407669067383 6.999995231628418 C 35.28407669067383 4.242984771728516 33.04108810424805 1.999994277954102 30.28407669067383 1.999994277954102 L 6.999996185302734 1.999994277954102 M 6.999996185302734 -5.7220458984375e-06 L 30.28407669067383 -5.7220458984375e-06 C 34.15006637573242 -5.7220458984375e-06 37.28407669067383 3.134004592895508 37.28407669067383 6.999995231628418 L 37.28407669067383 15.98332500457764 C 37.28407669067383 19.84932518005371 34.15006637573242 22.98332405090332 30.28407669067383 22.98332405090332 L 6.999996185302734 22.98332405090332 C 3.134006500244141 22.98332405090332 -3.814697265625e-06 19.84932518005371 -3.814697265625e-06 15.98332500457764 L -3.814697265625e-06 6.999995231628418 C -3.814697265625e-06 3.134004592895508 3.134006500244141 -5.7220458984375e-06 6.999996185302734 -5.7220458984375e-06 Z" stroke="none" fill="#707070"/>
    </g>
    <path id="Path_892600" data-name="Path 892600" d="M-29.012-7092l37.637,12.177L-47-6978.535" transform="translate(-1239.826 184.495)" fill="none" stroke="#707070" stroke-width="2"/>
    <path id="Path_892601" data-name="Path 892601" d="M16-6858.791l174.9-53.473v-13.5l-48.153-37.379-21.309-95.525" transform="translate(-1250.521 178.835)" fill="none" stroke="#707070" stroke-width="2"/>
    <g id="Path_894661" data-name="Path 894661" transform="translate(-1072.042 -6750.509)" fill="#fecab2">
      <path d="M 15.06684970855713 29.13369941711426 C 11.3094596862793 29.13369941711426 7.776959896087646 27.67049026489258 5.120089530944824 25.01360893249512 C 2.463209629058838 22.35673904418945 0.9999997019767761 18.82423973083496 0.9999997019767761 15.06684970855713 C 0.9999997019767761 11.3094596862793 2.463209629058838 7.776959896087646 5.120089530944824 5.120089530944824 C 7.776959896087646 2.463209629058838 11.3094596862793 0.9999997019767761 15.06684970855713 0.9999997019767761 C 18.82423973083496 0.9999997019767761 22.35673904418945 2.463209629058838 25.01360893249512 5.120089530944824 C 27.67049026489258 7.776959896087646 29.13369941711426 11.3094596862793 29.13369941711426 15.06684970855713 C 29.13369941711426 18.82423973083496 27.67049026489258 22.35673904418945 25.01360893249512 25.01360893249512 C 22.35673904418945 27.67049026489258 18.82423973083496 29.13369941711426 15.06684970855713 29.13369941711426 Z" stroke="none"/>
      <path d="M 15.06684970855713 2 C 11.57657051086426 2 8.295188903808594 3.359189987182617 5.827190399169922 5.827190399169922 C 3.359189987182617 8.295188903808594 2 11.57657051086426 2 15.06684970855713 C 2 18.55712890625 3.359189987182617 21.83850860595703 5.827190399169922 24.30650901794434 C 8.295188903808594 26.77450942993164 11.57657051086426 28.13369941711426 15.06684970855713 28.13369941711426 C 18.55712890625 28.13369941711426 21.83850860595703 26.77450942993164 24.30650901794434 24.30650901794434 C 26.77450942993164 21.83850860595703 28.13369941711426 18.55712890625 28.13369941711426 15.06684970855713 C 28.13369941711426 11.57657051086426 26.77450942993164 8.295188903808594 24.30650901794434 5.827190399169922 C 21.83850860595703 3.359189987182617 18.55712890625 2 15.06684970855713 2 M 15.06684970855713 0 C 23.38803863525391 0 30.13369941711426 6.745658874511719 30.13369941711426 15.06684970855713 C 30.13369941711426 23.38803863525391 23.38803863525391 30.13369941711426 15.06684970855713 30.13369941711426 C 6.745658874511719 30.13369941711426 0 23.38803863525391 0 15.06684970855713 C 0 6.745658874511719 6.745658874511719 0 15.06684970855713 0 Z" stroke="none" fill="#707070"/>
    </g>
    <g id="Path_894662" data-name="Path 894662" transform="translate(-1142.611 -6904.628)" fill="#fecab2">
      <path d="M 15.06684970855713 29.13369941711426 C 11.3094596862793 29.13369941711426 7.776959896087646 27.67049026489258 5.120089530944824 25.01360893249512 C 2.463209629058838 22.35673904418945 0.9999997019767761 18.82423973083496 0.9999997019767761 15.06684970855713 C 0.9999997019767761 11.3094596862793 2.463209629058838 7.776959896087646 5.120089530944824 5.120089530944824 C 7.776959896087646 2.463209629058838 11.3094596862793 0.9999997019767761 15.06684970855713 0.9999997019767761 C 18.82423973083496 0.9999997019767761 22.35673904418945 2.463209629058838 25.01360893249512 5.120089530944824 C 27.67049026489258 7.776959896087646 29.13369941711426 11.3094596862793 29.13369941711426 15.06684970855713 C 29.13369941711426 18.82423973083496 27.67049026489258 22.35673904418945 25.01360893249512 25.01360893249512 C 22.35673904418945 27.67049026489258 18.82423973083496 29.13369941711426 15.06684970855713 29.13369941711426 Z" stroke="none"/>
      <path d="M 15.06684970855713 2 C 11.57657051086426 2 8.295188903808594 3.359189987182617 5.827190399169922 5.827190399169922 C 3.359189987182617 8.295188903808594 2 11.57657051086426 2 15.06684970855713 C 2 18.55712890625 3.359189987182617 21.83850860595703 5.827190399169922 24.30650901794434 C 8.295188903808594 26.77450942993164 11.57657051086426 28.13369941711426 15.06684970855713 28.13369941711426 C 18.55712890625 28.13369941711426 21.83850860595703 26.77450942993164 24.30650901794434 24.30650901794434 C 26.77450942993164 21.83850860595703 28.13369941711426 18.55712890625 28.13369941711426 15.06684970855713 C 28.13369941711426 11.57657051086426 26.77450942993164 8.295188903808594 24.30650901794434 5.827190399169922 C 21.83850860595703 3.359189987182617 18.55712890625 2 15.06684970855713 2 M 15.06684970855713 0 C 23.38803863525391 0 30.13369941711426 6.745658874511719 30.13369941711426 15.06684970855713 C 30.13369941711426 23.38803863525391 23.38803863525391 30.13369941711426 15.06684970855713 30.13369941711426 C 6.745658874511719 30.13369941711426 0 23.38803863525391 0 15.06684970855713 C 0 6.745658874511719 6.745658874511719 0 15.06684970855713 0 Z" stroke="none" fill="#707070"/>
    </g>
    <g id="Path_894663" data-name="Path 894663" transform="translate(-1129.082 -6799.834)" fill="#fecab2">
      <path d="M 20.17425727844238 39.34851837158203 C 17.58530807495117 39.34851837158203 15.07433700561523 38.8416862487793 12.71107769012451 37.84211730957031 C 10.42793750762939 36.87642669677734 8.377266883850098 35.49375915527344 6.616007328033447 33.73250579833984 C 4.854757308959961 31.97124671936035 3.472087383270264 29.92057800292969 2.506397247314453 27.63743782043457 C 1.506827235221863 25.27417755126953 0.9999972581863403 22.76320648193359 0.9999972581863403 20.17425727844238 C 0.9999972581863403 17.58530807495117 1.506827235221863 15.07433700561523 2.506397247314453 12.71107769012451 C 3.472087383270264 10.42793750762939 4.854757308959961 8.377266883850098 6.616007328033447 6.616007328033447 C 8.377266883850098 4.854757308959961 10.42793750762939 3.472087383270264 12.71107769012451 2.506397247314453 C 15.07433700561523 1.506827235221863 17.58530807495117 0.9999972581863403 20.17425727844238 0.9999972581863403 C 22.76320648193359 0.9999972581863403 25.27417755126953 1.506827235221863 27.63743782043457 2.506397247314453 C 29.92057800292969 3.472087383270264 31.97124671936035 4.854757308959961 33.73250579833984 6.616007328033447 C 35.49375915527344 8.377266883850098 36.87642669677734 10.42793750762939 37.84211730957031 12.71107769012451 C 38.8416862487793 15.07433700561523 39.34851837158203 17.58530807495117 39.34851837158203 20.17425727844238 C 39.34851837158203 22.76320648193359 38.8416862487793 25.27417755126953 37.84211730957031 27.63743782043457 C 36.87642669677734 29.92057800292969 35.49375915527344 31.97124671936035 33.73250579833984 33.73250579833984 C 31.97124671936035 35.49375915527344 29.92057800292969 36.87642669677734 27.63743782043457 37.84211730957031 C 25.27417755126953 38.8416862487793 22.76320648193359 39.34851837158203 20.17425727844238 39.34851837158203 Z" stroke="none"/>
      <path d="M 20.17425727844238 1.999996185302734 C 15.31973648071289 1.999996185302734 10.75578689575195 3.890445709228516 7.323116302490234 7.323116302490234 C 3.890445709228516 10.75578689575195 1.999996185302734 15.31973648071289 1.999996185302734 20.17425727844238 C 1.999996185302734 25.02877807617188 3.890445709228516 29.59272766113281 7.323116302490234 33.02539825439453 C 10.75578689575195 36.45806884765625 15.31973648071289 38.34851837158203 20.17425727844238 38.34851837158203 C 25.02877807617188 38.34851837158203 29.59272766113281 36.45806884765625 33.02539825439453 33.02539825439453 C 36.45806884765625 29.59272766113281 38.34851837158203 25.02877807617188 38.34851837158203 20.17425727844238 C 38.34851837158203 15.31973648071289 36.45806884765625 10.75578689575195 33.02539825439453 7.323116302490234 C 29.59272766113281 3.890445709228516 25.02877807617188 1.999996185302734 20.17425727844238 1.999996185302734 M 20.17425727844238 -3.814697265625e-06 C 31.31618690490723 -3.814697265625e-06 40.34851837158203 9.032327651977539 40.34851837158203 20.17425727844238 C 40.34851837158203 31.31618690490723 31.31618690490723 40.34851837158203 20.17425727844238 40.34851837158203 C 9.032327651977539 40.34851837158203 -3.814697265625e-06 31.31618690490723 -3.814697265625e-06 20.17425727844238 C -3.814697265625e-06 9.032327651977539 9.032327651977539 -3.814697265625e-06 20.17425727844238 -3.814697265625e-06 Z" stroke="none" fill="#707070"/>
    </g>
    <path id="Path_894664" data-name="Path 894664" d="M8.987,13.827l2.9-9.624h2.936L10.367,17H7.616L3.177,4.2H6.1Z" transform="translate(-1117.846 -6787.514)" fill="#12263f"/>
    <g id="Path_894665" data-name="Path 894665" transform="translate(-1240 -6921.878)" fill="#fecab2">
      <path d="M 20.17425727844238 39.34851837158203 C 17.58530807495117 39.34851837158203 15.07433700561523 38.8416862487793 12.71107769012451 37.84211730957031 C 10.42793750762939 36.87642669677734 8.377266883850098 35.49375915527344 6.616007328033447 33.73250579833984 C 4.854757308959961 31.97124671936035 3.472087383270264 29.92057800292969 2.506397247314453 27.63743782043457 C 1.506827235221863 25.27417755126953 0.9999972581863403 22.76320648193359 0.9999972581863403 20.17425727844238 C 0.9999972581863403 17.58530807495117 1.506827235221863 15.07433700561523 2.506397247314453 12.71107769012451 C 3.472087383270264 10.42793750762939 4.854757308959961 8.377266883850098 6.616007328033447 6.616007328033447 C 8.377266883850098 4.854757308959961 10.42793750762939 3.472087383270264 12.71107769012451 2.506397247314453 C 15.07433700561523 1.506827235221863 17.58530807495117 0.9999972581863403 20.17425727844238 0.9999972581863403 C 22.76320648193359 0.9999972581863403 25.27417755126953 1.506827235221863 27.63743782043457 2.506397247314453 C 29.92057800292969 3.472087383270264 31.97124671936035 4.854757308959961 33.73250579833984 6.616007328033447 C 35.49375915527344 8.377266883850098 36.87642669677734 10.42793750762939 37.84211730957031 12.71107769012451 C 38.8416862487793 15.07433700561523 39.34851837158203 17.58530807495117 39.34851837158203 20.17425727844238 C 39.34851837158203 22.76320648193359 38.8416862487793 25.27417755126953 37.84211730957031 27.63743782043457 C 36.87642669677734 29.92057800292969 35.49375915527344 31.97124671936035 33.73250579833984 33.73250579833984 C 31.97124671936035 35.49375915527344 29.92057800292969 36.87642669677734 27.63743782043457 37.84211730957031 C 25.27417755126953 38.8416862487793 22.76320648193359 39.34851837158203 20.17425727844238 39.34851837158203 Z" stroke="none"/>
      <path d="M 20.17425727844238 1.999996185302734 C 15.31973648071289 1.999996185302734 10.75578689575195 3.890445709228516 7.323116302490234 7.323116302490234 C 3.890445709228516 10.75578689575195 1.999996185302734 15.31973648071289 1.999996185302734 20.17425727844238 C 1.999996185302734 25.02877807617188 3.890445709228516 29.59272766113281 7.323116302490234 33.02539825439453 C 10.75578689575195 36.45806884765625 15.31973648071289 38.34851837158203 20.17425727844238 38.34851837158203 C 25.02877807617188 38.34851837158203 29.59272766113281 36.45806884765625 33.02539825439453 33.02539825439453 C 36.45806884765625 29.59272766113281 38.34851837158203 25.02877807617188 38.34851837158203 20.17425727844238 C 38.34851837158203 15.31973648071289 36.45806884765625 10.75578689575195 33.02539825439453 7.323116302490234 C 29.59272766113281 3.890445709228516 25.02877807617188 1.999996185302734 20.17425727844238 1.999996185302734 M 20.17425727844238 -3.814697265625e-06 C 31.31618690490723 -3.814697265625e-06 40.34851837158203 9.032327651977539 40.34851837158203 20.17425727844238 C 40.34851837158203 31.31618690490723 31.31618690490723 40.34851837158203 20.17425727844238 40.34851837158203 C 9.032327651977539 40.34851837158203 -3.814697265625e-06 31.31618690490723 -3.814697265625e-06 20.17425727844238 C -3.814697265625e-06 9.032327651977539 9.032327651977539 -3.814697265625e-06 20.17425727844238 -3.814697265625e-06 Z" stroke="none" fill="#707070"/>
    </g>
    <path id="Path_894666" data-name="Path 894666" d="M8.987,13.827l2.9-9.624h2.936L10.367,17H7.616L3.177,4.2H6.1Z" transform="translate(-1228.764 -6909.558)" fill="#12263f"/>
    <g id="Path_894667" data-name="Path 894667" transform="translate(-1259.674 -6695.022)" fill="#fecab2">
      <path d="M 15.06684970855713 29.13369941711426 C 11.3094596862793 29.13369941711426 7.776959896087646 27.67049026489258 5.120089530944824 25.01360893249512 C 2.463209629058838 22.35673904418945 0.9999997019767761 18.82423973083496 0.9999997019767761 15.06684970855713 C 0.9999997019767761 11.3094596862793 2.463209629058838 7.776959896087646 5.120089530944824 5.120089530944824 C 7.776959896087646 2.463209629058838 11.3094596862793 0.9999997019767761 15.06684970855713 0.9999997019767761 C 18.82423973083496 0.9999997019767761 22.35673904418945 2.463209629058838 25.01360893249512 5.120089530944824 C 27.67049026489258 7.776959896087646 29.13369941711426 11.3094596862793 29.13369941711426 15.06684970855713 C 29.13369941711426 18.82423973083496 27.67049026489258 22.35673904418945 25.01360893249512 25.01360893249512 C 22.35673904418945 27.67049026489258 18.82423973083496 29.13369941711426 15.06684970855713 29.13369941711426 Z" stroke="none"/>
      <path d="M 15.06684970855713 2 C 11.57657051086426 2 8.295188903808594 3.359189987182617 5.827190399169922 5.827190399169922 C 3.359189987182617 8.295188903808594 2 11.57657051086426 2 15.06684970855713 C 2 18.55712890625 3.359189987182617 21.83850860595703 5.827190399169922 24.30650901794434 C 8.295188903808594 26.77450942993164 11.57657051086426 28.13369941711426 15.06684970855713 28.13369941711426 C 18.55712890625 28.13369941711426 21.83850860595703 26.77450942993164 24.30650901794434 24.30650901794434 C 26.77450942993164 21.83850860595703 28.13369941711426 18.55712890625 28.13369941711426 15.06684970855713 C 28.13369941711426 11.57657051086426 26.77450942993164 8.295188903808594 24.30650901794434 5.827190399169922 C 21.83850860595703 3.359189987182617 18.55712890625 2 15.06684970855713 2 M 15.06684970855713 0 C 23.38803863525391 0 30.13369941711426 6.745658874511719 30.13369941711426 15.06684970855713 C 30.13369941711426 23.38803863525391 23.38803863525391 30.13369941711426 15.06684970855713 30.13369941711426 C 6.745658874511719 30.13369941711426 0 23.38803863525391 0 15.06684970855713 C 0 6.745658874511719 6.745658874511719 0 15.06684970855713 0 Z" stroke="none" fill="#707070"/>
    </g>
    <g id="Path_894668" data-name="Path 894668" transform="translate(-1312.487 -6805.831)" fill="#fecab2">
      <path d="M 15.06684970855713 29.13369941711426 C 11.3094596862793 29.13369941711426 7.776959896087646 27.67049026489258 5.120089530944824 25.01360893249512 C 2.463209629058838 22.35673904418945 0.9999997019767761 18.82423973083496 0.9999997019767761 15.06684970855713 C 0.9999997019767761 11.3094596862793 2.463209629058838 7.776959896087646 5.120089530944824 5.120089530944824 C 7.776959896087646 2.463209629058838 11.3094596862793 0.9999997019767761 15.06684970855713 0.9999997019767761 C 18.82423973083496 0.9999997019767761 22.35673904418945 2.463209629058838 25.01360893249512 5.120089530944824 C 27.67049026489258 7.776959896087646 29.13369941711426 11.3094596862793 29.13369941711426 15.06684970855713 C 29.13369941711426 18.82423973083496 27.67049026489258 22.35673904418945 25.01360893249512 25.01360893249512 C 22.35673904418945 27.67049026489258 18.82423973083496 29.13369941711426 15.06684970855713 29.13369941711426 Z" stroke="none"/>
      <path d="M 15.06684970855713 2 C 11.57657051086426 2 8.295188903808594 3.359189987182617 5.827190399169922 5.827190399169922 C 3.359189987182617 8.295188903808594 2 11.57657051086426 2 15.06684970855713 C 2 18.55712890625 3.359189987182617 21.83850860595703 5.827190399169922 24.30650901794434 C 8.295188903808594 26.77450942993164 11.57657051086426 28.13369941711426 15.06684970855713 28.13369941711426 C 18.55712890625 28.13369941711426 21.83850860595703 26.77450942993164 24.30650901794434 24.30650901794434 C 26.77450942993164 21.83850860595703 28.13369941711426 18.55712890625 28.13369941711426 15.06684970855713 C 28.13369941711426 11.57657051086426 26.77450942993164 8.295188903808594 24.30650901794434 5.827190399169922 C 21.83850860595703 3.359189987182617 18.55712890625 2 15.06684970855713 2 M 15.06684970855713 0 C 23.38803863525391 0 30.13369941711426 6.745658874511719 30.13369941711426 15.06684970855713 C 30.13369941711426 23.38803863525391 23.38803863525391 30.13369941711426 15.06684970855713 30.13369941711426 C 6.745658874511719 30.13369941711426 0 23.38803863525391 0 15.06684970855713 C 0 6.745658874511719 6.745658874511719 0 15.06684970855713 0 Z" stroke="none" fill="#707070"/>
    </g>
    <path id="Path_892602" data-name="Path 892602" d="M-29.333-7005.333l11.623,6.088" transform="translate(-1242.825 169.782)" fill="none" stroke="#707070" stroke-width="2"/>
    <path id="Path_892603" data-name="Path 892603" d="M-29.333-7005.333l11.623,6.088" transform="translate(-1237.013 163.693)" fill="none" stroke="#707070" stroke-width="2"/>
    <path id="Path_894669" data-name="Path 894669" d="M-1.111-3.049A4.113,4.113,0,0,1-.878-4.575,3.13,3.13,0,0,1-.027-5.693,4.351,4.351,0,0,0,.8-6.59,1.408,1.408,0,0,0,1-7.319Q1-8.477-.065-8.477a1.08,1.08,0,0,0-.81.312,1.225,1.225,0,0,0-.318.86H-3.175a2.637,2.637,0,0,1,.844-2.046A3.287,3.287,0,0,1-.065-10.09a3.3,3.3,0,0,1,2.249.7,2.5,2.5,0,0,1,.8,1.981,2.412,2.412,0,0,1-.26,1.1,4.524,4.524,0,0,1-.909,1.146l-.554.527a1.877,1.877,0,0,0-.595,1.17l-.027.417Zm-.2,2.1A1,1,0,0,1-1-1.707,1.107,1.107,0,0,1-.2-2a1.107,1.107,0,0,1,.8.3,1,1,0,0,1,.311.753.987.987,0,0,1-.3.743A1.109,1.109,0,0,1-.2.082,1.109,1.109,0,0,1-1-.211.987.987,0,0,1-1.309-.954Z" transform="translate(-1268.882 -6849.673)" fill="#7d3a1b"/>
    <path id="Path_892605" data-name="Path 892605" d="M0,28.463H13.209l-3.387-7h3.387L8.282,12.132h4.927L2.74,0,4.588,12.132H0l4.587,9.332H0Z" transform="matrix(-0.94, 0.342, -0.342, -0.94, -1106.935, -6827.482)" fill="#7d3a1b"/>
    <path id="Path_892606" data-name="Path 892606" d="M0,28.463H13.209l-3.387-7h3.387L8.282,12.132h4.927L2.74,0,4.588,12.132H0l4.587,9.332H0Z" transform="matrix(-0.94, 0.342, -0.342, -0.94, -1169.01, -6678.333)" fill="#7d3a1b"/>
    <path id="Path_894670" data-name="Path 894670" d="M4.631,0,9.261,8.684H0Z" transform="translate(-1098.677 -6764.187) rotate(-51)" fill="#636363"/>
    <path id="Path_894671" data-name="Path 894671" d="M0,0H3.837V4.816H0Z" transform="translate(-1088.568 -6758.86) rotate(-141)" fill="#636363"/>
  </g>
</svg>
