<svg xmlns="http://www.w3.org/2000/svg" xmlns:xlink="http://www.w3.org/1999/xlink" width="190" height="134" viewBox="0 0 190 134">
  <defs>
    <clipPath id="clip-path">
      <rect id="Rectangle_402355" data-name="Rectangle 402355" width="87" height="87" transform="translate(342 951)" fill="#fff" stroke="#707070" stroke-width="1"/>
    </clipPath>
    <clipPath id="clip-path-2">
      <rect id="Rectangle_402360" data-name="Rectangle 402360" width="87" height="86.781" transform="translate(-1)" fill="#7d3a1b"/>
    </clipPath>
    <clipPath id="clip-path-3">
      <rect id="Rectangle_405098" data-name="Rectangle 405098" width="80.52" height="80.333" fill="#7d3a1b"/>
    </clipPath>
  </defs>
  <g id="Group_1102707" data-name="Group 1102707" transform="translate(-330 -7019)">
    <rect id="Rectangle_402215" data-name="Rectangle 402215" width="190" height="134" transform="translate(330 7019)" fill="none"/>
    <g id="Group_1100287" data-name="Group 1100287" transform="translate(16 -507)">
      <g id="Grupo_156312" data-name="Grupo 156312" transform="translate(344 7528)">
        <path id="Elipse_5845" data-name="Elipse 5845" d="M65.5,0A65.5,65.5,0,1,1,0,65.5,65.5,65.5,0,0,1,65.5,0Z" transform="translate(0 0)" fill="#ffce73"/>
      </g>
      <g id="Mask_Group_1098715" data-name="Mask Group 1098715" transform="translate(24 6599)" clip-path="url(#clip-path)">
        <g id="Group_1100697" data-name="Group 1100697" transform="translate(343 951.001)" clip-path="url(#clip-path-2)">
          <g id="Group_1102706" data-name="Group 1102706" transform="translate(2.947 3.5)">
            <g id="Group_1102705" data-name="Group 1102705" transform="translate(0 0)" clip-path="url(#clip-path-3)">
              <path id="Path_892658" data-name="Path 892658" d="M63.676,28.613a1,1,0,0,1,.134-.256c2.365-2.358,4.716-4.735,7.109-7.065a5.455,5.455,0,0,1,5.032-1.417,5.686,5.686,0,0,1,4.518,4.85,5.579,5.579,0,0,1-1.733,4.825c-1.578,1.6-3.177,3.18-4.767,4.765q-5,4.987-10,9.961a1.425,1.425,0,0,0-.464,1.144q.031,11.262.025,22.527c0,2.416.023,4.834-.025,7.25a5.278,5.278,0,0,1-4.818,5.079c-.4.035-.805.055-1.209.055q-25.913,0-51.826,0A5.436,5.436,0,0,1,.006,74.751Q-.007,63.157,0,51.562,0,28.574,0,5.588A5.386,5.386,0,0,1,2.378.943,5.651,5.651,0,0,1,5.563,0c.076,0,.152,0,.231,0Q31.82,0,57.85,0a5.549,5.549,0,0,1,3.468,1.045,5.172,5.172,0,0,1,2.174,3.886c.032.468.039.939.039,1.41q0,10.484,0,20.972c0,.307-.012.614-.012.921a2.6,2.6,0,0,0,.03.3c.042.025.083.053.125.081M18.392,6.246c.007-.143.016-.228.014-.311,0-.814-.016-1.631,0-2.446,0-.275-.081-.335-.341-.335q-5.87.014-11.74,0c-.4,0-.808-.009-1.211,0A2.1,2.1,0,0,0,3.172,5c-.035.487-.009.976-.009,1.465V74.394c0,.3-.009.6.009.891A2.092,2.092,0,0,0,5.1,77.169c.586.016,1.172,0,1.758,0H50.406c2.626,0,5.249-.014,7.875,0a2.134,2.134,0,0,0,2.111-1.864,9.635,9.635,0,0,0,.039-1.317l.007-25.316v-.755a1.194,1.194,0,0,0-.164.051c-.916.418-1.827.844-2.75,1.248a.454.454,0,0,0-.3.5q.01,11.207,0,22.411c0,.1,0,.194,0,.288a1.58,1.58,0,0,1-1.23,1.6,2.587,2.587,0,0,1-.628.06q-7.843,0-15.688,0c-.547,0-1.1.012-1.643-.028a1.658,1.658,0,0,1-1.534-1.5,1.629,1.629,0,0,1,1.318-1.592A3.1,3.1,0,0,1,38.5,70.9q7.614-.007,15.229,0H54.1V50.826a2.293,2.293,0,0,0-.272.076c-.521.219-1.043.438-1.56.669-.964.427-1.922.87-2.891,1.288a1.538,1.538,0,0,1-1.86-.411,1.665,1.665,0,0,1-.187-1.754c.268-.551.528-1.105.778-1.666,1.253-2.806,2.492-5.618,3.759-8.417a4.289,4.289,0,0,1,.727-1.057c.427-.48.911-.907,1.357-1.371a.621.621,0,0,0,.164-.369c.018-.411.007-.824.007-1.237V9.453c-.111-.007-.178-.014-.242-.014q-4.226,0-8.452,0c-.219,0-.272.074-.282.279a4.744,4.744,0,0,1-1.59,3.4,5.377,5.377,0,0,1-3.865,1.35q-7.988-.024-15.978,0a5.518,5.518,0,0,1-2.058-.346A4.687,4.687,0,0,1,18.5,10.327c-.046-.281-.065-.57-.1-.87H9.485V70.893h.4q7.6,0,15.2,0a3.2,3.2,0,0,1,.63.06A1.551,1.551,0,0,1,25.8,74a3.422,3.422,0,0,1-.856.081q-6.908.007-13.814,0c-1.078,0-2.155.023-3.228-.023A1.67,1.67,0,0,1,6.276,72.52a6.661,6.661,0,0,1-.042-.8q0-23.189,0-46.378,0-8.459,0-16.918a3.653,3.653,0,0,1,.095-.911,1.727,1.727,0,0,1,1.91-1.274l9.4.009h.748M21.5,3.17c-.007.078-.014.125-.014.171q-.007,3.021-.009,6.041a2.912,2.912,0,0,0,.03.371,1.735,1.735,0,0,0,1.389,1.5,3.7,3.7,0,0,0,.66.028q8.362,0,16.724,0a1.641,1.641,0,0,0,1.721-1.717q0-3.049-.009-6.1c0-.092-.009-.185-.014-.293Zm23.655-.012c0,.951.012,1.86-.007,2.769,0,.265.085.346.328.316.048,0,.1,0,.145,0,3.228,0,6.458-.007,9.686,0a2.557,2.557,0,0,1,.978.18,1.612,1.612,0,0,1,.937,1.666q0,13.214,0,26.433v.321l.081.025c.789-.8,1.548-1.629,2.381-2.379a2.218,2.218,0,0,0,.766-1.841c-.028-8.387-.009-16.777-.009-25.164a2.309,2.309,0,0,0-1.015-1.994,2.222,2.222,0,0,0-1.343-.337q-6.026.007-12.051,0Zm14.1,41.362,14.232-14.2C72.3,29.139,71.087,27.94,69.832,26.7L55.609,40.886c1.241,1.234,2.464,2.45,3.653,3.634M75.75,28.246c.321-.344.6-.658.893-.962a2.579,2.579,0,0,0,.736-2.042,2.412,2.412,0,0,0-1.585-2.206,2.439,2.439,0,0,0-2.6.36,12.8,12.8,0,0,0-1.031,1,.26.26,0,0,0,.012.249c1.165,1.181,2.337,2.356,3.579,3.6M51.814,48.3l.042.069c1.578-.7,3.154-1.4,4.792-2.123-.934-.921-1.809-1.779-2.727-2.683q-1.059,2.381-2.107,4.737" transform="translate(0 0.001)" fill="#7d3a1b"/>
              <path id="Path_892659" data-name="Path 892659" d="M19.161,22.193c0,1.611-.025,3.223.009,4.834a1.612,1.612,0,0,1-1.791,1.767q-4.773,0-9.543,0A1.657,1.657,0,0,1,6,26.951q0-4.745,0-9.492a1.618,1.618,0,0,1,1.761-1.8c2.778.016,5.556,0,8.334,0,.556,0,1.114-.009,1.671.014A1.392,1.392,0,0,1,19.157,17.1c.012,1.7,0,3.394,0,5.09h0M12.645,18.75v.009c-1.075,0-2.153,0-3.228,0-.2,0-.261.039-.261.254q.014,3.163,0,6.329c0,.2.012.318.268.316q3.184-.017,6.371-.012c.212,0,.284-.048.281-.268-.007-2.148,0-4.3-.009-6.442a.25.25,0,0,0-.164-.178c-1.087-.009-2.171-.007-3.258-.007" transform="translate(7.844 20.466)" fill="#7d3a1b"/>
              <path id="Path_892660" data-name="Path 892660" d="M19.161,14.683c0,1.622-.025,3.242.009,4.862a1.611,1.611,0,0,1-1.8,1.758c-3.173,0-6.345,0-9.516,0A1.656,1.656,0,0,1,6,19.455c0-3.173-.007-6.348.009-9.522a2.46,2.46,0,0,1,.233-.99,1.38,1.38,0,0,1,1.38-.761h7.151c.962,0,1.924,0,2.884,0a1.4,1.4,0,0,1,1.5,1.467c.012.844.007,1.689.007,2.531s0,1.671,0,2.5Zm-3.09.053h0q0-1.627,0-3.251c0-.125.012-.219-.171-.219q-3.26.014-6.518.007c-.175,0-.226.051-.226.231q.01,3.208,0,6.414c0,.21.074.261.268.261q3.2-.014,6.4-.014c.212,0,.254-.069.254-.265-.009-1.054,0-2.109,0-3.163" transform="translate(7.844 10.694)" fill="#7d3a1b"/>
              <path id="Path_892661" data-name="Path 892661" d="M19.164,29.661c0,1.62,0,3.24,0,4.862a1.589,1.589,0,0,1-1.793,1.756q-4.759,0-9.516,0A1.665,1.665,0,0,1,6,34.449q0-4.79.007-9.578a2.393,2.393,0,0,1,.1-.648,1.348,1.348,0,0,1,1.313-1.059c.981-.035,1.959-.028,2.94-.03q3.544,0,7.093,0a1.671,1.671,0,0,1,1.207.378,1.418,1.418,0,0,1,.494,1.087v5.062Zm-9.97-3.426a.457.457,0,0,0-.037.1c0,2.185,0,4.368,0,6.553,0,.226.106.242.286.242,2.1-.007,4.206-.009,6.308-.012.1,0,.2-.009.286-.014a.282.282,0,0,0,.035-.088q.007-3.319,0-6.638c0-.051-.108-.148-.168-.148q-3.215-.007-6.426,0H9.194" transform="translate(7.843 30.244)" fill="#7d3a1b"/>
              <path id="Path_892662" data-name="Path 892662" d="M20.082,31.067c-.12.108-.222.2-.314.288-.7.7-1.4,1.4-2.1,2.093a1.537,1.537,0,1,1-2.227-2.12c.706-.734,1.44-1.44,2.16-2.157.275-.275.279-.321,0-.6-.646-.644-1.306-1.271-1.936-1.931a3.028,3.028,0,0,1-.591-.868A1.507,1.507,0,0,1,15.719,24a1.56,1.56,0,0,1,1.846.164q.955.938,1.887,1.9c.194.2.353.431.545.671.268-.249.443-.406.609-.572.641-.635,1.276-1.276,1.92-1.908a1.507,1.507,0,0,1,2.1-.113,1.489,1.489,0,0,1,.122,2.222c-.81.831-1.664,1.615-2.522,2.439.238.249.411.441.591.621.637.641,1.29,1.262,1.908,1.92a1.452,1.452,0,0,1,0,2.134,1.56,1.56,0,0,1-2.266-.048c-.734-.72-1.451-1.454-2.178-2.18-.053-.053-.111-.1-.194-.18" transform="translate(19.58 31.072)" fill="#7d3a1b"/>
              <path id="Path_892663" data-name="Path 892663" d="M19.257,22.747c1.262-1.262,2.494-2.5,3.731-3.733.713-.713,1.431-1.419,2.141-2.134a1.66,1.66,0,0,1,1.525-.561,1.515,1.515,0,0,1,1.08,2.167,2.494,2.494,0,0,1-.445.6q-3.409,3.413-6.832,6.814a1.567,1.567,0,0,1-2.43-.032c-1.041-1.036-2.074-2.079-3.126-3.1a1.765,1.765,0,0,1-.639-1.714,1.5,1.5,0,0,1,2.21-.976,3.66,3.66,0,0,1,.665.547c.7.695,1.394,1.4,2.12,2.132" transform="translate(18.593 21.304)" fill="#7d3a1b"/>
              <path id="Path_892664" data-name="Path 892664" d="M19.258,15.281c.641-.651,1.251-1.274,1.867-1.89,1.322-1.324,2.653-2.642,3.976-3.969a1.694,1.694,0,0,1,1.488-.591,1.513,1.513,0,0,1,1.105,2.245,2.514,2.514,0,0,1-.4.521q-3.423,3.423-6.853,6.834a1.522,1.522,0,0,1-1.867.365,2.047,2.047,0,0,1-.5-.376c-1.059-1.045-2.1-2.107-3.166-3.147a1.76,1.76,0,0,1-.648-1.682,1.517,1.517,0,0,1,2.176-1.029,3.551,3.551,0,0,1,.711.579c.7.695,1.389,1.4,2.116,2.139" transform="translate(18.594 11.527)" fill="#7d3a1b"/>
              <path id="Path_892665" data-name="Path 892665" d="M13.1,32.274a1.51,1.51,0,0,1,1.571-1.532A1.591,1.591,0,0,1,16.2,32.306a1.634,1.634,0,0,1-1.578,1.562A1.58,1.58,0,0,1,13.1,32.274" transform="translate(17.126 40.19)" fill="#7d3a1b"/>
            </g>
          </g>
        </g>
      </g>
    </g>
  </g>
</svg>
