<svg xmlns="http://www.w3.org/2000/svg" xmlns:xlink="http://www.w3.org/1999/xlink" width="139" height="139" viewBox="0 0 139 139">
  <defs>
    <clipPath id="clip-path">
      <rect id="Rectangle_400938" data-name="Rectangle 400938" width="139" height="139" transform="translate(-0.043 -0.043)" fill="none"/>
    </clipPath>
    <clipPath id="clip-path-2">
      <rect id="Rectangle_401073" data-name="Rectangle 401073" width="105.872" height="47.68" fill="#7d3a1b"/>
    </clipPath>
    <clipPath id="clip-path-3">
      <rect id="Rectangle_405170" data-name="Rectangle 405170" width="74.333" height="70.902" fill="#6a4d23" stroke="#6a4d23" stroke-width="0.5"/>
    </clipPath>
  </defs>
  <g id="Group_1103518" data-name="Group 1103518" transform="translate(-318 -11078.881)">
    <g id="Group_1101961" data-name="Group 1101961" transform="translate(0 2929)">
      <g id="Group_1100480" data-name="Group 1100480" transform="translate(0 720)">
        <g id="Group_1099526" data-name="Group 1099526" transform="translate(53.043 2145.924)">
          <g id="Group_1099379" data-name="Group 1099379" transform="translate(265 5284)">
            <rect id="Rectangle_401103" data-name="Rectangle 401103" width="139" height="139" transform="translate(-0.043 -0.043)" fill="none"/>
            <g id="Group_1099348" data-name="Group 1099348" transform="translate(0)">
              <g id="Group_1099282" data-name="Group 1099282">
                <g id="Group_1099281" data-name="Group 1099281" clip-path="url(#clip-path-2)">
                  <path id="Path_873375" data-name="Path 873375" d="M85.879,10.449c-4.752,0-7.21-2.33-9.379-4.386C74.371,4.047,72.538,2.3,68.7,2.3s-5.668,1.742-7.8,3.758c-2.17,2.056-4.624,4.386-9.379,4.386s-7.21-2.33-9.379-4.386C40.018,4.047,38.184,2.3,34.349,2.3s-5.668,1.742-7.794,3.758c-2.17,2.056-4.627,4.386-9.379,4.386S9.963,8.119,7.794,6.063C5.668,4.047,3.835,2.3,0,2.3V0C4.752,0,7.21,2.334,9.379,4.386c2.129,2.02,3.963,3.758,7.8,3.758s5.668-1.738,7.794-3.755C27.136,2.334,29.6,0,34.349,0s7.213,2.334,9.379,4.386c2.129,2.02,3.963,3.758,7.8,3.758s5.668-1.738,7.8-3.758C61.489,2.334,63.951,0,68.7,0s7.213,2.334,9.379,4.386c2.129,2.02,3.963,3.758,7.8,3.758s5.668-1.738,7.8-3.758C95.843,2.334,98.3,0,103.056,0V2.3c-3.835,0-5.668,1.742-7.8,3.758-2.169,2.056-4.627,4.386-9.379,4.386" transform="translate(2.816 37.231)" fill="#7d3a1b"/>
                  <path id="Path_873376" data-name="Path 873376" d="M85.879,10.449c-4.752,0-7.213-2.33-9.379-4.39C74.371,4.043,72.538,2.3,68.7,2.3s-5.668,1.738-7.8,3.755c-2.166,2.06-4.624,4.39-9.379,4.39s-7.213-2.33-9.379-4.39C40.018,4.043,38.184,2.3,34.349,2.3s-5.668,1.742-7.794,3.755c-2.17,2.06-4.627,4.39-9.379,4.39s-7.213-2.33-9.383-4.39C5.668,4.043,3.835,2.3,0,2.3V0C4.752,0,7.213,2.33,9.379,4.386c2.129,2.02,3.963,3.758,7.8,3.758s5.668-1.738,7.794-3.758C27.136,2.33,29.6,0,34.349,0s7.213,2.33,9.383,4.386c2.126,2.02,3.959,3.758,7.794,3.758s5.668-1.738,7.8-3.758C61.489,2.33,63.951,0,68.7,0s7.213,2.33,9.379,4.386c2.129,2.02,3.963,3.758,7.8,3.758s5.668-1.738,7.8-3.758C95.846,2.33,98.3,0,103.059,0V2.3c-3.835,0-5.672,1.742-7.8,3.755-2.169,2.06-4.628,4.39-9.379,4.39" transform="translate(1.877 24.821)" fill="#7d3a1b"/>
                  <path id="Path_873377" data-name="Path 873377" d="M85.879,10.449c-4.752,0-7.213-2.33-9.379-4.39C74.371,4.043,72.538,2.3,68.7,2.3s-5.668,1.738-7.8,3.755c-2.166,2.06-4.627,4.39-9.379,4.39s-7.213-2.33-9.379-4.39C40.018,4.043,38.184,2.3,34.349,2.3s-5.668,1.742-7.794,3.755c-2.169,2.06-4.627,4.39-9.379,4.39s-7.213-2.33-9.383-4.39C5.668,4.043,3.835,2.3,0,2.3V0C4.752,0,7.213,2.33,9.379,4.386c2.126,2.02,3.963,3.758,7.8,3.758s5.668-1.738,7.794-3.758C27.136,2.33,29.6,0,34.349,0s7.213,2.33,9.383,4.386c2.126,2.02,3.959,3.758,7.794,3.758s5.668-1.738,7.8-3.758C61.489,2.33,63.951,0,68.7,0s7.213,2.33,9.379,4.386c2.129,2.02,3.963,3.758,7.8,3.758s5.668-1.738,7.8-3.758C95.846,2.33,98.3,0,103.059,0V2.3c-3.835,0-5.672,1.742-7.8,3.755-2.169,2.06-4.627,4.39-9.379,4.39" transform="translate(0.939 12.41)" fill="#7d3a1b"/>
                  <path id="Path_873378" data-name="Path 873378" d="M85.879,10.445c-4.752,0-7.21-2.33-9.379-4.386C74.371,4.043,72.538,2.3,68.7,2.3s-5.668,1.738-7.794,3.755c-2.169,2.056-4.627,4.386-9.383,4.386s-7.21-2.33-9.379-4.386C40.018,4.043,38.184,2.3,34.349,2.3s-5.668,1.738-7.794,3.751c-2.166,2.06-4.627,4.39-9.379,4.39S9.963,8.115,7.794,6.059C5.668,4.043,3.835,2.3,0,2.3V0C4.752,0,7.213,2.33,9.379,4.386c2.129,2.016,3.963,3.755,7.8,3.755S22.845,6.4,24.971,4.386C27.14,2.33,29.6,0,34.349,0s7.21,2.33,9.383,4.386c2.126,2.016,3.959,3.755,7.794,3.755s5.668-1.738,7.8-3.755C61.493,2.33,63.951,0,68.7,0s7.21,2.33,9.379,4.386c2.129,2.016,3.963,3.755,7.8,3.755s5.668-1.738,7.8-3.755C95.846,2.33,98.3,0,103.059,0V2.3c-3.839,0-5.672,1.738-7.8,3.755-2.169,2.056-4.627,4.386-9.379,4.386" transform="translate(0 0.004)" fill="#7d3a1b"/>
                </g>
              </g>
            </g>
            <path id="Path_873425" data-name="Path 873425" d="M57.977,0A57.977,57.977,0,1,1,0,57.977,57.977,57.977,0,0,1,57.977,0Z" transform="translate(17.221 20.665)" fill="#ffe2b7"/>
            <circle id="Ellipse_11503" data-name="Ellipse 11503" cx="60.5" cy="60.5" r="60.5" transform="translate(8.957 8.957)" fill="#fff"/>
          </g>
        </g>
        <g id="Group_1099527" data-name="Group 1099527" transform="translate(0 1035.881)">
          <g id="Group_1099389" data-name="Group 1099389" transform="translate(347.893 6422.863)">
            <rect id="Rectangle_401104" data-name="Rectangle 401104" width="78" height="79" transform="translate(0.107 0.256)" fill="none"/>
          </g>
          <g id="Group_1102878" data-name="Group 1102878" transform="translate(349.667 6427.772)">
            <g id="Group_1102877" data-name="Group 1102877" transform="translate(0 0)" clip-path="url(#clip-path-3)">
              <path id="Path_892926" data-name="Path 892926" d="M11.4,12.329a6.411,6.411,0,0,1,1.863-1.652,5.751,5.751,0,0,1,5.068-.446,5.987,5.987,0,0,1,3.592,3.543,6.2,6.2,0,0,1,.388,3.174c-.149,1.088-.258,2.179-.4,3.27q-.379,3.007-.777,6.012a.765.765,0,0,0,.209.654,3.572,3.572,0,0,1,.963,1.956,3,3,0,0,1-1.5,2.979c.044.1.081.2.135.3,1.16,2.207,2.3,4.42,3.488,6.613a15.415,15.415,0,0,1,.991,2.938c.36,1.186.657,2.388.989,3.583.473,1.722.954,3.444,1.425,5.165.114.406.213.817.323,1.228a.549.549,0,0,0,.367.388,5.308,5.308,0,0,1,2.85,2.8,5.027,5.027,0,0,1,.471,2.123.659.659,0,0,1-.685.736c-.07,0-.135,0-.2,0H22.035c-.705,0-.914-.216-.914-.928,0-1.381,0-2.759,0-4.137a2.5,2.5,0,0,0-.077-.657c-.39-1.415-.8-2.829-1.188-4.246-.394-1.434-.766-2.877-1.176-4.307a3.994,3.994,0,0,0-.531-1.23q-3.6-4.946-7.24-9.853a9.213,9.213,0,0,1-1.622-2.757c-.186-.62-.276-1.272-.408-1.91a2.845,2.845,0,0,1-.019-.313,3.181,3.181,0,0,1-.638.088c-.422-.026-.842-.093-1.265-.144-.262-.03-.524-.081-.787-.086a2.951,2.951,0,0,1-2.778-3.694c.132-.629.186-1.276.278-1.914a1.329,1.329,0,0,1,.056-.253.654.654,0,0,1,.731-.455.79.79,0,0,1,.485.766c-.109.773-.195,1.548-.33,2.316a1.548,1.548,0,0,0,1.485,1.945c.6.07,1.193.169,1.794.258.527.077.747-.044.866-.573.1-.478.146-.97.218-1.455.142-.961.295-1.921.427-2.884.248-1.791.483-3.585.726-5.379.1-.7.207-1.39.3-2.086a.875.875,0,0,0-.977-1.109,3.7,3.7,0,0,0-3.8,3.453c-.137,1.021-.283,2.04-.422,3.058-.037.258-.051.52-.093.775a.612.612,0,0,1-.691.492.6.6,0,0,1-.541-.659c.244-1.6.432-3.209.773-4.785A4.547,4.547,0,0,1,7.3,11.876,4.731,4.731,0,0,1,9.83,11.4a2.731,2.731,0,0,1,1.376.75c.06.044.109.1.2.179M26.85,51.582a.916.916,0,0,0-.012-.19c-.162-.6-.334-1.2-.5-1.8-.4-1.422-.805-2.845-1.2-4.27-.415-1.5-.81-3-1.232-4.5a6.751,6.751,0,0,0-.506-1.374c-1.276-2.351-2.578-4.683-3.877-7.019a.384.384,0,0,0-.251-.186,3.287,3.287,0,0,1-2.462-1.46c-1.334-1.808-2.689-3.6-4.042-5.4a.361.361,0,0,0-.227-.139c-.759-.058-1.52-.1-2.286-.153a6.671,6.671,0,0,0,.186,4.11,8.862,8.862,0,0,0,1.381,2.3q3.606,4.9,7.184,9.822a3.441,3.441,0,0,1,.61.963c.566,1.935,1.079,3.884,1.615,5.829.29,1.053.6,2.1.877,3.163.06.239.142.306.371.3,1.188-.012,2.381,0,3.569,0h.8m-6.829-26.43c.037-.181.065-.29.077-.4.1-.861.181-1.724.285-2.583.23-1.824.473-3.645.7-5.469A4.877,4.877,0,0,0,19.7,12.531a4.731,4.731,0,0,0-3.889-1.362A4.786,4.786,0,0,0,11.5,15.144c-.137.756-.2,1.527-.3,2.29q-.39,3.035-.782,6.073c-.021.142.007.218.158.237.522.065,1.042.135,1.552.2a.486.486,0,0,0,.037-.077c.107-1.218.193-2.436.323-3.65.125-1.158.292-2.311.443-3.464.058-.429.1-.861.186-1.283a.6.6,0,0,1,.65-.52.654.654,0,0,1,.564.705c-.021.374-.06.75-.1,1.121-.067.569-.144,1.137-.227,1.764a4.179,4.179,0,0,1,3.207.313c.081-.64.146-1.232.234-1.817a3.5,3.5,0,0,1,.19-.808.512.512,0,0,1,.652-.316.561.561,0,0,1,.455.582,3.593,3.593,0,0,1-.028.548c-.213,1.74-.436,3.476-.65,5.216a.647.647,0,0,0,.09.429c.594.808,1.207,1.6,1.868,2.462m-6.65-1.722a2.186,2.186,0,0,0,.469,1.4c.086.125.174.251.267.374.9,1.176,1.8,2.353,2.7,3.525.464.6.907,1.214,1.415,1.766a1.737,1.737,0,0,0,2.485-2.418q-1.82-2.412-3.683-4.8a1.091,1.091,0,0,1-.253-.852c.072-.564.142-1.128.2-1.692.065-.548,0-.64-.506-.847a1.653,1.653,0,0,0-.244-.079,4.83,4.83,0,0,0-2.186.044.409.409,0,0,0-.232.258,4.335,4.335,0,0,0-.09.627q-.174,1.347-.35,2.689M30.54,56.383c-.035-.169-.051-.281-.079-.394a3.878,3.878,0,0,0-3.341-3.042c-1.5-.088-3.017-.037-4.527-.051-.181,0-.209.086-.209.251,0,.984.007,1.965-.014,2.947-.007.255.06.33.311.327,2.511-.009,5.019-.007,7.53-.009.1,0,.2-.016.33-.028" transform="translate(4.371 12.993)" fill="#6a4d23" stroke="#6a4d23" stroke-width="0.5"/>
              <path id="Path_892927" data-name="Path 892927" d="M18.484,18.035c-.246-.288-.471-.534-.675-.8a5.09,5.09,0,0,1,.216-6.479,1.245,1.245,0,0,0,.327-.917,11.123,11.123,0,0,1,.2-1.914.594.594,0,1,1,1.156.267,5.908,5.908,0,0,0-.1,2.265.7.7,0,0,1-.265.687A3.937,3.937,0,0,0,21.25,18a2.043,2.043,0,0,0,.394.032h6.574c.065,0,.13-.007.225-.014.007-.1.019-.19.016-.283-.035-.963-.067-1.926-.114-2.889a.377.377,0,0,0-.137-.251q-1.5-1.062-3.012-2.107a.73.73,0,0,1-.371-.931q.313-1.288.682-2.559a.612.612,0,0,1,.968-.371.522.522,0,0,1,.248.617c-.193.685-.362,1.376-.575,2.054a.328.328,0,0,0,.16.443c.805.555,1.6,1.123,2.409,1.678.993.685,1,.682,1,1.893v2.72a4.885,4.885,0,0,0,.617-.007.347.347,0,0,0,.223-.174q.7-1.511,1.383-3.035a.546.546,0,0,0-.021-.325c-.227-.812-.476-1.62-.687-2.439a.752.752,0,0,1,.09-.543c.483-.712.986-1.411,1.5-2.1a.6.6,0,0,1,1.037.6c-.33.517-.673,1.026-1.051,1.506a.988.988,0,0,0-.193,1.009c.193.585.339,1.181.527,1.768a1.4,1.4,0,0,1-.09,1.084c-.378.8-.738,1.6-1.1,2.406-.03.067-.056.139-.1.246h6.961c-.142-.218-.269-.427-.411-.624a3.951,3.951,0,0,1,.223-4.337A1.5,1.5,0,0,0,38.978,12a4.571,4.571,0,0,1,3.478-4.4,4.094,4.094,0,0,1,1.882-.037c.2.046.3-.007.42-.2a4.465,4.465,0,0,1,3.859-2.2,4.524,4.524,0,0,1,4.337,3.481.8.8,0,0,0,.531.666A3.517,3.517,0,0,1,54.894,10.4a3.11,3.11,0,0,1,.661,1.692,1.187,1.187,0,0,0,.318.715,3.811,3.811,0,0,1,.086,5.084c-.023.03-.044.06-.111.149.139,0,.234,0,.33,0,.432.016.868.009,1.3.063a.6.6,0,0,1,.5.664.636.636,0,0,1-.55.606,3.811,3.811,0,0,1-.564.03q-16.777,0-33.554,0c-3.344,0-6.69,0-10.034,0a1.9,1.9,0,0,1-.705-.146.517.517,0,0,1-.309-.566.636.636,0,0,1,.448-.578,1.745,1.745,0,0,1,.5-.065c1.7,0,3.4,0,5.1.007.044,0,.088-.007.169-.014M45.767,8.026c.346.3.7.557,1,.87a.515.515,0,0,1-.03.812.5.5,0,0,1-.791.051,4.2,4.2,0,0,0-1.527-.91,3.273,3.273,0,0,0-4.172,3.539,1.1,1.1,0,0,1-.4,1.121.159.159,0,0,0-.039.039,2.681,2.681,0,0,0-.513,2.942,2.624,2.624,0,0,0,2.367,1.545h4.588c0-.62-.007-1.2,0-1.791a.574.574,0,0,0-.3-.538c-.608-.39-1.211-.784-1.8-1.207a.874.874,0,0,1-.383-.522c-.039-.866-.035-1.733,0-2.6a.664.664,0,0,1,.336-.443.539.539,0,0,1,.789.494c.035.6.026,1.2.019,1.794a.5.5,0,0,0,.248.473c.643.425,1.269.87,1.914,1.29a.812.812,0,0,1,.394.712q.024,1.041.084,2.081a.7.7,0,0,0,.13.285c.193-.077.49.118.585-.193q.282-.908.522-1.829a.964.964,0,0,0-.009-.452c-.139-.538-.311-1.07-.439-1.61a.787.787,0,0,1,.063-.538c.346-.541.722-1.06,1.1-1.576A.593.593,0,0,1,50.4,11.7a.624.624,0,0,1,.088.879,7.674,7.674,0,0,1-.647.91.661.661,0,0,0-.142.8c.081.172.1.371.176.548a2.513,2.513,0,0,1,0,2.014,11.3,11.3,0,0,0-.353,1.17c.116.007.193.016.267.016,1.132,0,2.267,0,3.4,0A1.264,1.264,0,0,0,53.5,18a2.421,2.421,0,0,0,1.947-1.694,2.624,2.624,0,0,0-.691-2.884.969.969,0,0,1-.336-.733,3.194,3.194,0,0,0-.084-.685,2.238,2.238,0,0,0-2.949-1.557c-.151.056-.3.123-.45.169a.621.621,0,0,1-.756-.348.532.532,0,0,1,.234-.719A4.632,4.632,0,0,1,51.2,9.18a3.284,3.284,0,0,1,.543-.121,3.04,3.04,0,0,0-2.344-2.5,3.233,3.233,0,0,0-3.636,1.471" transform="translate(16.186 6.819)" fill="#6a4d23" stroke="#6a4d23" stroke-width="0.5"/>
              <path id="Path_892928" data-name="Path 892928" d="M2.961,23.524c-.343-.367-.687-.708-1-1.072a6.231,6.231,0,0,1,.594-8.813,1.072,1.072,0,0,0,.42-.968,3.932,3.932,0,0,1,.7-2.367,7.955,7.955,0,0,1,1.6-1.745,4.573,4.573,0,0,1,1.538-.7.4.4,0,0,0,.244-.244A7.452,7.452,0,0,1,9.352,3.09a7.047,7.047,0,0,1,5.613-2.058,7.311,7.311,0,0,1,6.054,3.954.382.382,0,0,0,.5.234,7.432,7.432,0,0,1,9.029,5.374,6,6,0,0,1,.188,2.6.75.75,0,0,0,.213.675,8.737,8.737,0,0,1,.78.954.643.643,0,0,1-.237,1A.47.47,0,0,1,30.9,15.7c-.443-.485-.891-.968-1.309-1.476a.808.808,0,0,1-.123-.51,9.1,9.1,0,0,0,0-2.191,5.969,5.969,0,0,0-2.84-4.349,6.1,6.1,0,0,0-5.291-.559c-.687.234-.9.084-1.181-.6a5.942,5.942,0,0,0-2.527-2.875A6.174,6.174,0,0,0,8.69,6.216a11.5,11.5,0,0,0-.427,1.933c-.035.158-.035.325-.072.483a.537.537,0,0,1-.564.473c-1.334-.1-2.093.768-2.8,1.708a2.854,2.854,0,0,0-.571,2.443.786.786,0,0,1-.378.9,4.9,4.9,0,0,0-2.119,3.2A5.154,5.154,0,0,0,6.6,23.515c.64.039,1.283.007,1.926.012a2.335,2.335,0,0,1,.476.053.572.572,0,0,1,.513.622.62.62,0,0,1-.5.643,1.719,1.719,0,0,1-.422.044q-3.742,0-7.481,0a3.185,3.185,0,0,1-.536-.035A.752.752,0,0,1,0,24.218a.674.674,0,0,1,.543-.647,6.159,6.159,0,0,1,.9-.044c.5-.007,1,0,1.515,0" transform="translate(0 1.332)" fill="#6a4d23" stroke="#6a4d23" stroke-width="0.5"/>
              <path id="Path_892929" data-name="Path 892929" d="M10.213,37.89c.538-.738,1.07-1.471,1.6-2.2.722-.991,1.413-2,2.174-2.963a7.65,7.65,0,0,0,1.522-3.216c.158-.74.374-1.471.566-2.2a.621.621,0,0,1,.427-.527.6.6,0,0,1,.75.768c-.086.394-.169.789-.274,1.179-.239.879-.452,1.771-.752,2.629a5.588,5.588,0,0,1-.75,1.383c-1.369,1.914-2.764,3.813-4.163,5.7a.535.535,0,0,0-.032.694,4.706,4.706,0,0,1,.705,3,4.266,4.266,0,0,1-1.251,2.773c-.422.4-.473.4-.937.065q-3.543-2.544-7.087-5.093c-.13-.093-.271-.176-.4-.276a.7.7,0,0,1-.151-1.081c.631-.9,1.251-1.812,1.9-2.7,1.782-2.418,3.56-4.838,5.388-7.221a3.557,3.557,0,0,0,.657-1.863q.285-2.45.555-4.905c.058-.517.088-1.037.132-1.555a1.88,1.88,0,0,1,.026-.23.64.64,0,1,1,1.272.137c-.035.5-.111,1-.167,1.492-.132,1.2-.255,2.395-.392,3.59-.109.956-.22,1.914-.355,2.868a1.12,1.12,0,0,1-.234.48q-2.217,2.966-4.444,5.922c-.318.422-.316.425.116.738q1.434,1.034,2.868,2.068c.239.172.469.353.722.543m-4.75-1.9c-.07.093-.125.167-.181.244-.555.791-1.1,1.59-1.673,2.367-.155.213-.132.3.067.448q2.576,1.841,5.14,3.7c.45.325.9.652,1.355.977a3.692,3.692,0,0,0-.986-5.082c-1.049-.754-2.1-1.513-3.147-2.265-.183-.132-.376-.253-.575-.385" transform="translate(2.615 25.682)" fill="#6a4d23" stroke="#6a4d23" stroke-width="0.5"/>
              <path id="Path_892930" data-name="Path 892930" d="M38.717,38.1A8.379,8.379,0,0,1,37.538,41.9a12.566,12.566,0,0,1-2.03,2.552.652.652,0,0,1-.933.116.7.7,0,0,1,.084-1.007,11.442,11.442,0,0,0,1.8-2.26,6.155,6.155,0,0,0,.5-5.743,10.168,10.168,0,0,0-2.418-3.386,25.472,25.472,0,0,0-3.84-2.9,14.582,14.582,0,0,1-3.975-3.618,6.655,6.655,0,0,1-1.03-2.137,4.287,4.287,0,0,1,.367-3.077,7.756,7.756,0,0,1,2.2-2.611,20.405,20.405,0,0,1,4.7-2.747,38.267,38.267,0,0,1,6.729-2.269.667.667,0,0,1,.689.111.581.581,0,0,1-.2,1.012c-.52.169-1.053.3-1.58.45a38.54,38.54,0,0,0-5.091,1.822,18.828,18.828,0,0,0-4.286,2.448,9.593,9.593,0,0,0-1.46,1.4,3.507,3.507,0,0,0-.311,4.495,8.863,8.863,0,0,0,2.346,2.525c1,.754,2.051,1.443,3.079,2.163a16.9,16.9,0,0,1,4.149,3.94A8.713,8.713,0,0,1,38.717,38.1" transform="translate(33.742 16.86)" fill="#6a4d23" stroke="#6a4d23" stroke-width="0.5"/>
              <path id="Path_892931" data-name="Path 892931" d="M13.63,34.614a.515.515,0,0,1-.578-.466.59.59,0,0,1,.388-.736c.508-.139,1.03-.237,1.543-.357.817-.195,1.641-.371,2.448-.594,2.211-.61,4.407-1.276,6.551-2.1a20.787,20.787,0,0,0,3.843-1.819,9.053,9.053,0,0,0,1.473-1.2,1.568,1.568,0,0,0,.244-1.947,18.774,18.774,0,0,0-1.081-1.657c-.42-.627-.889-1.225-1.26-1.884a3.867,3.867,0,0,1,.357-4.546,10.59,10.59,0,0,1,2.81-2.4.5.5,0,0,1,.682.128.638.638,0,0,1,.051.8,1.787,1.787,0,0,1-.411.346,7.843,7.843,0,0,0-2.088,1.8,6.33,6.33,0,0,0-.687,1.248,1.688,1.688,0,0,0-.009,1.188,8.372,8.372,0,0,0,1.374,2.376,21,21,0,0,1,1.36,2.086,2.725,2.725,0,0,1-.545,3.432,8.064,8.064,0,0,1-2.585,1.847,33.9,33.9,0,0,1-3.46,1.487c-1.958.692-3.938,1.323-5.929,1.914-1.32.39-2.671.671-4.01,1-.165.039-.336.049-.48.07" transform="translate(17.216 19.558)" fill="#6a4d23" stroke="#6a4d23" stroke-width="0.5"/>
              <path id="Path_892932" data-name="Path 892932" d="M7.626,10.272a5.141,5.141,0,1,1,10.28.09,5.14,5.14,0,1,1-10.28-.09M12.752,14.2c1.789.253,3.9-1.58,3.875-4.028a3.758,3.758,0,0,0-3.778-3.794,3.834,3.834,0,0,0-3.975,4A3.758,3.758,0,0,0,12.752,14.2" transform="translate(10.07 6.726)" fill="#6a4d23" stroke="#6a4d23" stroke-width="0.5"/>
              <path id="Path_892933" data-name="Path 892933" d="M20.319,6.13a11.121,11.121,0,0,1,1.276.227c.278.084.381,0,.506-.227a5.928,5.928,0,0,1,10.305-.195,6.433,6.433,0,0,1,.84,2.251.34.34,0,0,0,.339.33,2.9,2.9,0,0,1,1.726.91,1.692,1.692,0,0,1,.239.32.59.59,0,0,1-.107.717.521.521,0,0,1-.65.107.942.942,0,0,1-.316-.237,1.713,1.713,0,0,0-1.337-.573c-.151-.016-.3-.007-.452-.032a.658.658,0,0,1-.6-.627c-.039-.255-.023-.52-.067-.775A4.767,4.767,0,0,0,25.763,4.58a4.464,4.464,0,0,0-2.55,2.088c-.1.167-.042.237.107.334.388.258.756.543,1.13.817a1.008,1.008,0,0,1,.125.118.684.684,0,0,1,.1.956.677.677,0,0,1-.963-.072,4.835,4.835,0,0,0-7.233.573c-.26.353-.515.462-.789.343a.628.628,0,0,1-.26-.965A5.544,5.544,0,0,1,17.07,7.16a6.966,6.966,0,0,1,3.249-1.03" transform="translate(20.208 3.991)" fill="#6a4d23" stroke="#6a4d23" stroke-width="0.5"/>
              <path id="Path_892934" data-name="Path 892934" d="M28.265,8.236c-.566,0-1.132.021-1.7,0a2.816,2.816,0,0,1-2.678-2.541,2.759,2.759,0,0,1,2.174-3.007,2.6,2.6,0,0,1,.756-.072.679.679,0,0,0,.589-.239,3.247,3.247,0,0,1,3.457-.917,3.509,3.509,0,0,1,2.325,4.072,3.552,3.552,0,0,1-3.2,2.708c-.575.026-1.151,0-1.729,0v0m-1.759-4.36-.09-.079a7.349,7.349,0,0,0-.743.429,1.471,1.471,0,0,0-.534,1.59A1.382,1.382,0,0,0,26.448,6.9q1.838.031,3.68-.009a1.861,1.861,0,0,0,.828-.244,2.268,2.268,0,0,0,.71-3.121,2.221,2.221,0,0,0-3.179-.49,2.524,2.524,0,0,0-.826,1.592.571.571,0,0,1-.7.536c-.336-.051-.5-.278-.483-.694.007-.2.019-.4.028-.6" transform="translate(31.528 1.701)" fill="#6a4d23" stroke="#6a4d23" stroke-width="0.5"/>
              <path id="Path_892935" data-name="Path 892935" d="M24.448,18.989a7.382,7.382,0,0,1,.754-2.952,1.96,1.96,0,0,1,.239-.357.525.525,0,0,1,.694-.1.654.654,0,0,1,.271.745,8.848,8.848,0,0,0-.589,1.522,6.37,6.37,0,0,0,.722,4.351,13.371,13.371,0,0,0,2.919,3.583,19.717,19.717,0,0,1,3.114,3.346A8.8,8.8,0,0,1,34.115,32.6a.615.615,0,0,1-.155.664.648.648,0,0,1-.664.123.593.593,0,0,1-.346-.492,8.927,8.927,0,0,0-1.5-3.237A17.447,17.447,0,0,0,28.966,27,16.953,16.953,0,0,1,26.079,23.8a9.335,9.335,0,0,1-1.631-4.808" transform="translate(32.283 20.458)" fill="#6a4d23" stroke="#6a4d23" stroke-width="0.5"/>
              <path id="Path_892936" data-name="Path 892936" d="M26,15.733c.021.336-.218.483-.485.613a9.986,9.986,0,0,0-2.506,1.664,7.9,7.9,0,0,0-.794.9,1.4,1.4,0,0,0-.2,1.543,10.35,10.35,0,0,0,.731,1.265c.559.821,1.163,1.615,1.719,2.439a4.576,4.576,0,0,1,.763,2.091,3.473,3.473,0,0,1-.508,2.123,7.22,7.22,0,0,1-2.211,2.246c-.225.16-.45.316-.685.459a.566.566,0,0,1-.8-.144.585.585,0,0,1,.1-.849c.137-.118.3-.2.439-.316a19.983,19.983,0,0,0,1.719-1.494,2.369,2.369,0,0,0,.415-2.945c-.364-.659-.805-1.274-1.218-1.907-.51-.784-1.072-1.538-1.529-2.353a2.453,2.453,0,0,1,.107-2.627,7.9,7.9,0,0,1,2.613-2.476,15.82,15.82,0,0,1,1.5-.817.583.583,0,0,1,.838.587" transform="translate(27.218 19.913)" fill="#6a4d23" stroke="#6a4d23" stroke-width="0.5"/>
              <path id="Path_892937" data-name="Path 892937" d="M23.3,15.611a.509.509,0,0,1,.362-.541A2.372,2.372,0,0,1,24,14.945c.877-.227,1.752-.457,2.629-.673,1.2-.295,2.395-.62,3.606-.856,1.775-.348,3.564-.629,5.346-.937a.638.638,0,0,1,.7.26.614.614,0,0,1-.26.97,1.129,1.129,0,0,1-.244.072c-1.986.411-3.973.812-5.957,1.234-1.889.4-3.775.833-5.664,1.246-.582.125-.861-.079-.866-.65" transform="translate(30.755 16.454)" fill="#6a4d23" stroke="#6a4d23" stroke-width="0.5"/>
              <path id="Path_892938" data-name="Path 892938" d="M32.524,27.739a.643.643,0,0,1,.687.425.566.566,0,0,1-.251.675c-.538.3-1.074.61-1.634.861-1.538.685-3.082,1.355-4.639,2-.889.367-1.8.671-2.71,1-.483.172-.745.049-.9-.394-.123-.357.065-.664.5-.828,1.845-.7,3.7-1.383,5.527-2.123.935-.378,1.829-.87,2.74-1.309.255-.121.515-.227.68-.3" transform="translate(30.423 36.627)" fill="#6a4d23" stroke="#6a4d23" stroke-width="0.5"/>
              <path id="Path_892939" data-name="Path 892939" d="M26.195,0a3.175,3.175,0,0,1,3.031,2.578c.058.425-.1.729-.448.805s-.587-.1-.708-.522a1.942,1.942,0,0,0-1.652-1.569,1.793,1.793,0,0,0-1.815.819A1.79,1.79,0,0,0,24.5,4.121c.053.09.114.179.16.271a.65.65,0,0,1-.48.977c-.274.049-.429-.139-.555-.325a3.181,3.181,0,0,1-.6-1.979A3.229,3.229,0,0,1,25.494.086a5.836,5.836,0,0,1,.7-.084" transform="translate(30.399 -0.001)" fill="#6a4d23" stroke="#6a4d23" stroke-width="0.5"/>
              <path id="Path_892940" data-name="Path 892940" d="M8.234,25.015c-.886-.132-1.768-.278-2.657-.392a30.021,30.021,0,0,1-4.669-1A.687.687,0,0,1,.363,23a.606.606,0,0,1,.738-.6c.436.084.863.2,1.295.3a40.187,40.187,0,0,0,5.3.872c.311.026.62.065.928.114a.644.644,0,0,1,.575.7.625.625,0,0,1-.675.587H8.241l-.007.039" transform="translate(0.479 29.57)" fill="#6a4d23" stroke="#6a4d23" stroke-width="0.5"/>
              <path id="Path_892941" data-name="Path 892941" d="M27.546,15.037a1.965,1.965,0,0,1-.3.411,1.409,1.409,0,0,1-.485.225c-.956.29-1.914.571-2.875.849a.573.573,0,0,1-.7-.369.594.594,0,0,1,.311-.773c1.037-.346,2.074-.694,3.126-.991a.655.655,0,0,1,.931.647" transform="translate(30.556 18.938)" fill="#6a4d23" stroke="#6a4d23" stroke-width="0.5"/>
              <path id="Path_892942" data-name="Path 892942" d="M31.239,27.284a1.462,1.462,0,0,1-.272.406c-.768.555-1.541,1.109-2.334,1.627a.578.578,0,0,1-.963-.406.951.951,0,0,1,.086-.427.339.339,0,0,1,.137-.144c.805-.552,1.6-1.116,2.423-1.645.369-.239.877.1.924.589" transform="translate(36.53 35.145)" fill="#6a4d23" stroke="#6a4d23" stroke-width="0.5"/>
              <path id="Path_892943" data-name="Path 892943" d="M21.238,15.449c.118-.153.209-.378.364-.448.8-.364,1.61-.7,2.427-1.019a.592.592,0,0,1,.861.29A.524.524,0,0,1,24.7,15a3.9,3.9,0,0,1-.606.306c-.636.265-1.276.515-1.912.782a.684.684,0,0,1-.942-.636" transform="translate(28.044 18.363)" fill="#6a4d23" stroke="#6a4d23" stroke-width="0.5"/>
              <path id="Path_892944" data-name="Path 892944" d="M24,2.408a.579.579,0,0,1,.622.343.616.616,0,0,1-.079.7c-.394.413-.8.819-1.216,1.209a.5.5,0,0,1-.754-.058c-.278-.29-.311-.545-.067-.808.4-.425.808-.838,1.223-1.244A.906.906,0,0,1,24,2.408" transform="translate(29.503 3.178)" fill="#6a4d23" stroke="#6a4d23" stroke-width="0.5"/>
              <path id="Path_892945" data-name="Path 892945" d="M22.993,2.472c-.195-.014-.42-.021-.645-.049a.739.739,0,0,1-.633-.664.74.74,0,0,1,.654-.615q.592-.028,1.183,0a.636.636,0,0,1,.592.652.6.6,0,0,1-.557.643c-.186.023-.376.021-.594.032" transform="translate(28.672 1.492)" fill="#6a4d23" stroke="#6a4d23" stroke-width="0.5"/>
            </g>
          </g>
        </g>
      </g>
    </g>
  </g>
</svg>
