<svg xmlns="http://www.w3.org/2000/svg" xmlns:xlink="http://www.w3.org/1999/xlink" width="139" height="139" viewBox="0 0 139 139">
  <defs>
    <clipPath id="clip-path">
      <rect id="Rectangle_400938" data-name="Rectangle 400938" width="139" height="139" transform="translate(-0.043 -0.043)" fill="none"/>
    </clipPath>
    <clipPath id="clip-path-2">
      <rect id="Rectangle_401073" data-name="Rectangle 401073" width="105.872" height="47.68" fill="#7d3a1b"/>
    </clipPath>
    <clipPath id="clip-path-3">
      <rect id="Rectangle_405171" data-name="Rectangle 405171" width="75.667" height="67.422" fill="#6a4d23"/>
    </clipPath>
  </defs>
  <g id="Group_1101962" data-name="Group 1101962" transform="translate(-731 -8149.881)">
    <g id="Group_1100481" data-name="Group 1100481" transform="translate(0 720)">
      <g id="Group_1099528" data-name="Group 1099528" transform="translate(466.043 2145.924)">
        <g id="Group_1099379" data-name="Group 1099379" transform="translate(265 5284)">
          <rect id="Rectangle_401103" data-name="Rectangle 401103" width="139" height="139" transform="translate(-0.043 -0.043)" fill="none"/>
          <g id="Group_1099348" data-name="Group 1099348" transform="translate(0)">
            <g id="Group_1099282" data-name="Group 1099282">
              <g id="Group_1099281" data-name="Group 1099281" clip-path="url(#clip-path-2)">
                <path id="Path_873375" data-name="Path 873375" d="M85.879,10.449c-4.752,0-7.21-2.33-9.379-4.386C74.371,4.047,72.538,2.3,68.7,2.3s-5.668,1.742-7.8,3.758c-2.17,2.056-4.624,4.386-9.379,4.386s-7.21-2.33-9.379-4.386C40.018,4.047,38.184,2.3,34.349,2.3s-5.668,1.742-7.794,3.758c-2.17,2.056-4.627,4.386-9.379,4.386S9.963,8.119,7.794,6.063C5.668,4.047,3.835,2.3,0,2.3V0C4.752,0,7.21,2.334,9.379,4.386c2.129,2.02,3.963,3.758,7.8,3.758s5.668-1.738,7.794-3.755C27.136,2.334,29.6,0,34.349,0s7.213,2.334,9.379,4.386c2.129,2.02,3.963,3.758,7.8,3.758s5.668-1.738,7.8-3.758C61.489,2.334,63.951,0,68.7,0s7.213,2.334,9.379,4.386c2.129,2.02,3.963,3.758,7.8,3.758s5.668-1.738,7.8-3.758C95.843,2.334,98.3,0,103.056,0V2.3c-3.835,0-5.668,1.742-7.8,3.758-2.169,2.056-4.627,4.386-9.379,4.386" transform="translate(2.816 37.231)" fill="#7d3a1b"/>
                <path id="Path_873376" data-name="Path 873376" d="M85.879,10.449c-4.752,0-7.213-2.33-9.379-4.39C74.371,4.043,72.538,2.3,68.7,2.3s-5.668,1.738-7.8,3.755c-2.166,2.06-4.624,4.39-9.379,4.39s-7.213-2.33-9.379-4.39C40.018,4.043,38.184,2.3,34.349,2.3s-5.668,1.742-7.794,3.755c-2.17,2.06-4.627,4.39-9.379,4.39s-7.213-2.33-9.383-4.39C5.668,4.043,3.835,2.3,0,2.3V0C4.752,0,7.213,2.33,9.379,4.386c2.129,2.02,3.963,3.758,7.8,3.758s5.668-1.738,7.794-3.758C27.136,2.33,29.6,0,34.349,0s7.213,2.33,9.383,4.386c2.126,2.02,3.959,3.758,7.794,3.758s5.668-1.738,7.8-3.758C61.489,2.33,63.951,0,68.7,0s7.213,2.33,9.379,4.386c2.129,2.02,3.963,3.758,7.8,3.758s5.668-1.738,7.8-3.758C95.846,2.33,98.3,0,103.059,0V2.3c-3.835,0-5.672,1.742-7.8,3.755-2.169,2.06-4.628,4.39-9.379,4.39" transform="translate(1.877 24.821)" fill="#7d3a1b"/>
                <path id="Path_873377" data-name="Path 873377" d="M85.879,10.449c-4.752,0-7.213-2.33-9.379-4.39C74.371,4.043,72.538,2.3,68.7,2.3s-5.668,1.738-7.8,3.755c-2.166,2.06-4.627,4.39-9.379,4.39s-7.213-2.33-9.379-4.39C40.018,4.043,38.184,2.3,34.349,2.3s-5.668,1.742-7.794,3.755c-2.169,2.06-4.627,4.39-9.379,4.39s-7.213-2.33-9.383-4.39C5.668,4.043,3.835,2.3,0,2.3V0C4.752,0,7.213,2.33,9.379,4.386c2.126,2.02,3.963,3.758,7.8,3.758s5.668-1.738,7.794-3.758C27.136,2.33,29.6,0,34.349,0s7.213,2.33,9.383,4.386c2.126,2.02,3.959,3.758,7.794,3.758s5.668-1.738,7.8-3.758C61.489,2.33,63.951,0,68.7,0s7.213,2.33,9.379,4.386c2.129,2.02,3.963,3.758,7.8,3.758s5.668-1.738,7.8-3.758C95.846,2.33,98.3,0,103.059,0V2.3c-3.835,0-5.672,1.742-7.8,3.755-2.169,2.06-4.627,4.39-9.379,4.39" transform="translate(0.939 12.41)" fill="#7d3a1b"/>
                <path id="Path_873378" data-name="Path 873378" d="M85.879,10.445c-4.752,0-7.21-2.33-9.379-4.386C74.371,4.043,72.538,2.3,68.7,2.3s-5.668,1.738-7.794,3.755c-2.169,2.056-4.627,4.386-9.383,4.386s-7.21-2.33-9.379-4.386C40.018,4.043,38.184,2.3,34.349,2.3s-5.668,1.738-7.794,3.751c-2.166,2.06-4.627,4.39-9.379,4.39S9.963,8.115,7.794,6.059C5.668,4.043,3.835,2.3,0,2.3V0C4.752,0,7.213,2.33,9.379,4.386c2.129,2.016,3.963,3.755,7.8,3.755S22.845,6.4,24.971,4.386C27.14,2.33,29.6,0,34.349,0s7.21,2.33,9.383,4.386c2.126,2.016,3.959,3.755,7.794,3.755s5.668-1.738,7.8-3.755C61.493,2.33,63.951,0,68.7,0s7.21,2.33,9.379,4.386c2.129,2.016,3.963,3.755,7.8,3.755s5.668-1.738,7.8-3.755C95.846,2.33,98.3,0,103.059,0V2.3c-3.839,0-5.672,1.738-7.8,3.755-2.169,2.056-4.627,4.386-9.379,4.386" transform="translate(0 0.004)" fill="#7d3a1b"/>
              </g>
            </g>
          </g>
          <path id="Path_873425" data-name="Path 873425" d="M57.977,0A57.977,57.977,0,1,1,0,57.977,57.977,57.977,0,0,1,57.977,0Z" transform="translate(17.221 20.665)" fill="#efb499"/>
          <circle id="Ellipse_11503" data-name="Ellipse 11503" cx="60.5" cy="60.5" r="60.5" transform="translate(8.957 8.957)" fill="#fff"/>
        </g>
      </g>
      <g id="Group_1099529" data-name="Group 1099529" transform="translate(413 1035.881)">
        <g id="Group_1099389" data-name="Group 1099389" transform="translate(347.893 6422.744)">
          <rect id="Rectangle_401104" data-name="Rectangle 401104" width="78" height="79" transform="translate(0.107 0.256)" fill="none"/>
        </g>
        <g id="Group_1102880" data-name="Group 1102880" transform="translate(349.167 6428.789)">
          <g id="Group_1102879" data-name="Group 1102879" transform="translate(0 0)" clip-path="url(#clip-path-3)">
            <path id="Path_892946" data-name="Path 892946" d="M56.361,18.032c-.357-.683-.707-1.34-1.046-2a22.2,22.2,0,0,1-1.566-3.855c-1.216-4.159,1.16-8.547,4.181-10.49a9.7,9.7,0,0,1,5.9-1.669A9.949,9.949,0,0,1,71.92,4.71a10.6,10.6,0,0,1,1.616,5.162,7.105,7.105,0,0,1-.4,2.341,19.186,19.186,0,0,1-1.455,3.609,70.063,70.063,0,0,1-3.522,6.126.381.381,0,0,0-.024.078.925.925,0,0,0,.172.091c2.019.646,4.038,1.294,6.061,1.925a1.522,1.522,0,0,1,1.3,1.749q0,19.918,0,39.839a4.359,4.359,0,0,1-.046.755,1.222,1.222,0,0,1-1.534.99c-.84-.244-1.669-.526-2.5-.807-1.205-.407-2.4-.829-3.607-1.24Q66,64.647,64.01,63.976q-4.164-1.41-8.325-2.824c-.829-.281-1.662-.55-2.482-.857a2.04,2.04,0,0,0-1.449,0q-3.782,1.318-7.571,2.619-4.082,1.4-8.169,2.789c-1.349.457-2.7.9-4.057,1.338-.387.124-.781.224-1.177.313a.884.884,0,0,1-.426-.009c-.814-.241-1.625-.485-2.43-.753q-2.721-.9-5.436-1.83c-1.144-.387-2.286-.783-3.431-1.17-2.008-.679-4.018-1.349-6.026-2.028-1.17-.4-2.336-.8-3.507-1.2-.368-.126-.744-.222-1.1-.368a1.478,1.478,0,0,1-1.059-1.584q0-10.941-.007-21.887A1.04,1.04,0,0,0,7.213,36c-.666-1.055-1.36-2.091-2.025-3.144A53.547,53.547,0,0,1,.935,25.159a10.474,10.474,0,0,1-.925-3.35,7.277,7.277,0,0,1,.144-1.8,8.318,8.318,0,0,1,3.631-5.6,8.437,8.437,0,0,1,7.207-1.231,8.488,8.488,0,0,1,5.787,5.088,4.453,4.453,0,0,1,.274.877.644.644,0,0,0,.476.524c.542.176,1.077.363,1.616.544,2.08.694,4.159,1.381,6.237,2.08q2.359.8,4.71,1.612a1.718,1.718,0,0,0,1.162-.013c2.291-.774,4.586-1.534,6.879-2.3,1.146-.383,2.291-.77,3.437-1.149,1.706-.563,3.413-1.118,5.117-1.684,1.608-.533,3.217-1.068,4.821-1.623a2.97,2.97,0,0,1,2.06.03c.866.311,1.747.576,2.621.857a.783.783,0,0,0,.172.011M29.268,26.369l-11.88-3.985c-.044.2-.065.328-.1.457a25.752,25.752,0,0,1-2.426,5.63c-1.431,2.617-3.085,5.1-4.69,7.608a.971.971,0,0,0-.152.5c0,3.877.015,7.753.02,11.632q.007,4.487-.007,8.974c0,.566-.017.568.509.746l11.382,3.844q3.048,1.031,6.1,2.069c.407.137.818.265,1.247.4Zm43.82,37.905V63.125q.01-18.261.017-36.521a.291.291,0,0,0-.154-.226c-1.1-.368-2.212-.72-3.32-1.079q-1.325-.434-2.645-.877a.36.36,0,0,0-.5.187c-.631,1.053-1.273,2.1-1.943,3.13a1.282,1.282,0,0,1-2.182.039c-.176-.239-.324-.5-.483-.753-1.059-1.692-2.121-3.381-3.17-5.08a1.007,1.007,0,0,0-.563-.5c-1.166-.379-2.328-.772-3.492-1.155-.27-.087-.548-.152-.846-.233V35.595a1.924,1.924,0,0,1-.013.4.687.687,0,0,0,.2.64,7.629,7.629,0,0,1,1.527,2.813,6.058,6.058,0,0,1,.292,3.015,12.9,12.9,0,0,1-.583,2.023c-.381.955-.857,1.869-1.277,2.809a1.5,1.5,0,0,0-.131.592c0,3.083,0,6.165,0,9.248,0,.6-.007.6.548.8.026.009.05.022.074.03,2.16.74,4.316,1.486,6.478,2.219,2.041.694,4.085,1.373,6.128,2.065,1.964.666,3.925,1.34,5.889,2.008a.6.6,0,0,0,.154.015M51.19,52.065l-.059-.013c-.054.083-.111.161-.163.244-.664,1.055-1.351,2.1-1.984,3.17a1.38,1.38,0,0,1-2.4-.011c-1.388-2.317-2.845-4.592-4.24-6.9A23.329,23.329,0,0,1,40,43.594a6.669,6.669,0,0,1-.218-3.213,7.786,7.786,0,0,1,2.661-4.721,7.7,7.7,0,0,1,8.13-1.536c.2.074.4.131.611.2V20.032c-.609.2-1.188.4-1.769.592q-2.7.888-5.4,1.771c-2.117.694-4.238,1.379-6.352,2.075q-2.816.927-5.624,1.873a.278.278,0,0,0-.144.2c-.015.307,0,.613,0,.922V64.313c.559-.183,1.1-.357,1.634-.54q1.857-.627,3.713-1.26l8.508-2.887c1.725-.585,3.45-1.175,5.18-1.751a.328.328,0,0,0,.276-.372C51.2,55.768,51.2,54.032,51.2,52.3c0-.076-.007-.154-.011-.231M63.425,24.528c.107-.144.185-.239.252-.344.315-.483.627-.97.938-1.458,1.525-2.391,3.035-4.788,4.355-7.3a20.245,20.245,0,0,0,1.706-4.088,5.9,5.9,0,0,0-.15-3.437,7.168,7.168,0,0,0-4.843-4.895,7.1,7.1,0,0,0-6.254.824A7.214,7.214,0,0,0,56.2,8.589a5.641,5.641,0,0,0,.024,2.68A21.534,21.534,0,0,0,58.086,15.7c1.518,2.889,3.289,5.626,5.032,8.38.085.135.181.265.307.45M8.708,33.489c.1-.131.174-.218.235-.313.772-1.223,1.553-2.439,2.308-3.67A43.5,43.5,0,0,0,14,24.439a7.358,7.358,0,0,0,.757-2.689A5.745,5.745,0,0,0,12.772,17a6.127,6.127,0,0,0-4.355-1.462A5.939,5.939,0,0,0,3,19.477a4.6,4.6,0,0,0-.281,2.865,20.733,20.733,0,0,0,.92,2.51A52.353,52.353,0,0,0,6.8,30.5c.613.99,1.251,1.964,1.906,2.991M47.773,52.441c.135-.215.257-.413.381-.611.6-.964,1.223-1.919,1.81-2.893S51.14,47,51.651,45.993c.5-.988.916-2.019,1.351-3.039a4.023,4.023,0,0,0,.174-2.162,5.567,5.567,0,0,0-2.036-3.374,4.854,4.854,0,0,0-3.326-1.179,5.388,5.388,0,0,0-3.487,1.212,4.994,4.994,0,0,0-1.947,4.96,8.492,8.492,0,0,0,.783,2.18,78.514,78.514,0,0,0,4.61,7.851" transform="translate(0 -0.001)" fill="#6a4d23"/>
            <path id="Path_892947" data-name="Path 892947" d="M13.157,23.8h5.776c.163,0,.326,0,.487.013a1.181,1.181,0,0,1,1.164.977,1.285,1.285,0,0,1-.694,1.5,2.129,2.129,0,0,1-.783.178q-5.965.016-11.932,0a2.254,2.254,0,0,1-.611-.1A1.253,1.253,0,0,1,5.593,25,1.212,1.212,0,0,1,6.84,23.821c1.183-.028,2.367-.015,3.553-.017.92,0,1.843,0,2.765,0" transform="translate(6.563 27.978)" fill="#6a4d23"/>
            <path id="Path_892948" data-name="Path 892948" d="M12.133,24.468c-1.61,0-3.22,0-4.827,0a4.294,4.294,0,0,1-.648-.05,1.224,1.224,0,0,1-1.07-1.26,1.209,1.209,0,0,1,1.042-1.284,3.581,3.581,0,0,1,.592-.05q4.911,0,9.82,0a1.6,1.6,0,0,1,1.32.429A1.282,1.282,0,0,1,18.62,23.6a1.142,1.142,0,0,1-.985.82,4.9,4.9,0,0,1-.592.05c-1.636,0-3.274,0-4.91,0" transform="translate(6.567 25.648)" fill="#6a4d23"/>
            <path id="Path_892949" data-name="Path 892949" d="M33.229,23.435c2.006,0,4.014,0,6.019.007a1.873,1.873,0,0,1,.709.131,1.254,1.254,0,0,1,.751,1.438,1.237,1.237,0,0,1-1.186,1.1c-.25.024-.5.026-.757.026q-5.746,0-11.5,0a1.6,1.6,0,0,1-.985-.226,1.377,1.377,0,0,1-.5-1.542,1.336,1.336,0,0,1,1.292-.929q2.875-.007,5.748,0h.407" transform="translate(30.231 27.546)" fill="#6a4d23"/>
            <path id="Path_892950" data-name="Path 892950" d="M33.2,14.625H39c.2,0,.4,0,.6.026a1.21,1.21,0,0,1,1.1,1.033,1.231,1.231,0,0,1-.637,1.392,2.478,2.478,0,0,1-.881.22q-5.965.02-11.93.009a1.372,1.372,0,0,1-1.468-.957,1.262,1.262,0,0,1,1.186-1.712c1.21-.009,2.421-.009,3.633-.011.866,0,1.734,0,2.6,0" transform="translate(30.235 17.189)" fill="#6a4d23"/>
            <path id="Path_892951" data-name="Path 892951" d="M33.191,17.543q2.751,0,5.5,0a3.226,3.226,0,0,1,.724.076,1.158,1.158,0,0,1,.909,1.218,1.205,1.205,0,0,1-1.012,1.279,2.662,2.662,0,0,1-.455.046q-5.668,0-11.332,0a1.288,1.288,0,0,1-1.371-.794,1.268,1.268,0,0,1,1.125-1.806c.677-.033,1.355-.022,2.032-.024,1.292,0,2.584,0,3.877,0Z" transform="translate(30.619 20.618)" fill="#6a4d23"/>
            <path id="Path_892952" data-name="Path 892952" d="M33.19,23.148q-2.819,0-5.641,0a1.28,1.28,0,0,1-1.327-1.59,1.3,1.3,0,0,1,1.362-1.012q3.146,0,6.291,0h4.8a2.27,2.27,0,0,1,.244,0,1.208,1.208,0,0,1,1.16.785,1.374,1.374,0,0,1-.344,1.518,1.317,1.317,0,0,1-.959.3H33.19" transform="translate(30.781 24.145)" fill="#6a4d23"/>
            <path id="Path_892953" data-name="Path 892953" d="M31.815,2.457a4.86,4.86,0,0,1,.007,9.72,4.928,4.928,0,0,1-4.893-4.884,4.953,4.953,0,0,1,4.886-4.836M29.524,7.3A2.3,2.3,0,0,0,31.68,9.52a2.25,2.25,0,0,0,2.354-2.182,2.285,2.285,0,0,0-2.171-2.23A2.321,2.321,0,0,0,29.524,7.3" transform="translate(31.654 2.886)" fill="#6a4d23"/>
            <path id="Path_892954" data-name="Path 892954" d="M6.346,7.977a4.261,4.261,0,0,1,4.266,4.307,4.39,4.39,0,0,1-4.257,4.355,4.457,4.457,0,0,1-4.318-4.388,4.308,4.308,0,0,1,4.31-4.275m-.017,2.589A1.478,1.478,0,0,0,4.751,12.03c-.013,1.2.613,2.036,1.56,2.006a1.686,1.686,0,0,0,1.649-1.8,1.575,1.575,0,0,0-1.632-1.673" transform="translate(2.393 9.374)" fill="#6a4d23"/>
            <path id="Path_892955" data-name="Path 892955" d="M24.169,25.449a4.053,4.053,0,1,1,.115-8.1,4.052,4.052,0,0,1-.115,8.1m-.007-2.654a1.228,1.228,0,0,0,1.349-1.347,1.322,1.322,0,0,0-1.327-1.512A1.446,1.446,0,0,0,22.7,21.357a1.386,1.386,0,0,0,1.458,1.438" transform="translate(23.569 20.389)" fill="#6a4d23"/>
          </g>
        </g>
      </g>
    </g>
  </g>
</svg>
