<svg xmlns="http://www.w3.org/2000/svg" xmlns:xlink="http://www.w3.org/1999/xlink" width="190" height="134" viewBox="0 0 190 134">
  <defs>
    <clipPath id="clip-path">
      <rect id="Rectangle_402355" data-name="Rectangle 402355" width="87" height="87" transform="translate(341.947 951.5)" fill="#7d3a1b" stroke="#707070" stroke-width="1"/>
    </clipPath>
    <clipPath id="clip-path-2">
      <rect id="Rectangle_405097" data-name="Rectangle 405097" width="83.613" height="83.589" fill="#7d3a1b"/>
    </clipPath>
  </defs>
  <g id="Group_1102531" data-name="Group 1102531" transform="translate(-330 -7019)">
    <rect id="Rectangle_402215" data-name="Rectangle 402215" width="190" height="134" transform="translate(330 7019)" fill="none"/>
    <g id="Group_1100287" data-name="Group 1100287" transform="translate(16 -507)">
      <g id="Grupo_156312" data-name="Grupo 156312" transform="translate(344 7528)">
        <path id="Elipse_5845" data-name="Elipse 5845" d="M65.5,0A65.5,65.5,0,1,1,0,65.5,65.5,65.5,0,0,1,65.5,0Z" transform="translate(0 0)" fill="#ffce73"/>
      </g>
      <g id="Mask_Group_1098715" data-name="Mask Group 1098715" transform="translate(24 6599)" clip-path="url(#clip-path)">
        <g id="Group_1102704" data-name="Group 1102704" transform="translate(343.947 952.5)">
          <g id="Group_1102703" data-name="Group 1102703" transform="translate(0 0)" clip-path="url(#clip-path-2)">
            <path id="Path_892656" data-name="Path 892656" d="M8.784,34.486a9.386,9.386,0,0,1-3.119-7.6,9.08,9.08,0,0,1,3.124-6.455,9.338,9.338,0,0,1,12.795.166A9.5,9.5,0,0,1,21.4,34.5a8.258,8.258,0,0,1,4.591.893,7.878,7.878,0,0,1,3.259,3.259c.5-.139,1.009-.283,1.513-.42,1.777-.48,3.556-.958,5.331-1.448a.343.343,0,0,0,.2-.259c.014-1.016,0-2.034.014-3.052a.424.424,0,0,0-.238-.4,10.711,10.711,0,0,1-4.515-5.879,8.55,8.55,0,0,1-.519-2.778c0-.168-.079-.2-.221-.2-.4,0-.8.01-1.2-.007a3.875,3.875,0,0,1-3.251-1.827,3.817,3.817,0,0,1,1.186-5.252,6,6,0,0,1,.653-.363.33.33,0,0,0,.216-.365c.01-1.566-.048-3.139.086-4.695a12.157,12.157,0,0,1,2.18-5.847A13.047,13.047,0,0,1,38.963.286,13.222,13.222,0,0,1,52.78,6.116,13.416,13.416,0,0,1,54.9,13.481c0,.968-.01,1.936-.026,2.9,0,.173.05.231.214.283A3.709,3.709,0,0,1,57.72,19.4a3.655,3.655,0,0,1-1.2,3.842,3.852,3.852,0,0,1-2.483.97c-.408.014-.819.022-1.227.017-.168,0-.219.053-.231.221A10.856,10.856,0,0,1,47.5,33.115a.454.454,0,0,0-.178.329q-.022,1.542,0,3.083a.361.361,0,0,0,.2.262c1.619.456,3.242.9,4.865,1.342.584.161,1.172.315,1.753.485a.244.244,0,0,0,.336-.137,7.643,7.643,0,0,1,4.546-3.655,12.291,12.291,0,0,1,2.149-.334,10.048,10.048,0,0,1,1.052,0,9.368,9.368,0,0,1-3.141-7.24,9.086,9.086,0,0,1,3.393-7.024,9.224,9.224,0,0,1,11.69-.327,9.131,9.131,0,0,1,3.792,7.094,9.362,9.362,0,0,1-3.081,7.468c.636.029,1.205.017,1.763.089a7.7,7.7,0,0,1,6.03,4.106,7.821,7.821,0,0,1,.939,4c-.012.819,0,1.638,0,2.457a1.28,1.28,0,0,1-.766,1.275,1.162,1.162,0,0,1-1.626-1.071c-.022-.917,0-1.835-.014-2.752a5.433,5.433,0,0,0-3.112-5.156,5.737,5.737,0,0,0-2.651-.5q-6.347-.007-12.694,0A19.275,19.275,0,0,0,60.419,37a5.02,5.02,0,0,0-3.453,2.051c-.122.158-.238.319-.355.48l-.007.031c.5.336,1.023.653,1.508,1.013a12.718,12.718,0,0,1,4.623,6.5,14.3,14.3,0,0,1,.6,4.486c-.019,1.856-.014,3.713-.026,5.569,0,.2.038.276.262.276q8.58-.018,17.158-.019H81.2v-.961q0-2.557,0-5.117c0-.06,0-.12,0-.18a1.081,1.081,0,0,1,1.141-1.3,1.207,1.207,0,0,1,1.261,1.3c.014.487,0,.977,0,1.465V58.4a1.331,1.331,0,0,1-.334.994,1.423,1.423,0,0,1-.627.355,3.553,3.553,0,0,1-.862.06q-13.205,0-26.408,0h-.562c.094.183.149.315.223.437a15,15,0,0,1,1.58,3.6,14.459,14.459,0,0,1,.632,4.217,15.31,15.31,0,0,1-4.1,10.5,15.153,15.153,0,0,1-7.36,4.474,14.545,14.545,0,0,1-6.342.353A15.492,15.492,0,0,1,30.416,78.5,15.172,15.172,0,0,1,27,72.437c-.12-.411-.207-.831-.3-1.251a1.214,1.214,0,0,1,1.028-1.4,1.192,1.192,0,0,1,1.323.934,12.888,12.888,0,0,0,6.594,8.878,12.084,12.084,0,0,0,6.14,1.554,12.776,12.776,0,0,0,10.5-5.281,11.82,11.82,0,0,0,2.3-5.237,12.815,12.815,0,0,0-3.727-11.851,12.672,12.672,0,0,0-7.865-3.595,12.347,12.347,0,0,0-5.079.54,13.084,13.084,0,0,0-8.861,9.786,1.191,1.191,0,0,1-1.518.934,1.232,1.232,0,0,1-.819-1.436,14.881,14.881,0,0,1,1.82-4.683c.086-.144.161-.293.271-.492-.154-.012-.255-.026-.355-.026q-13.281,0-26.557,0c-.151,0-.3,0-.449,0C.406,59.835.019,59.223.015,58.363c-.01-1.875,0-3.753,0-5.629,0-.528-.007-1.059,0-1.587A1.23,1.23,0,0,1,.9,49.872,1.129,1.129,0,0,1,2.409,51c.012,1.866.007,3.732.01,5.6v.776h.317q8.67,0,17.336.012c.252,0,.219-.127.219-.279q0-3.026,0-6.047a12.958,12.958,0,0,1,3.36-8.82,12.759,12.759,0,0,1,3.117-2.5c.084-.048.166-.1.269-.168a5.314,5.314,0,0,0-3.434-2.5,8.676,8.676,0,0,0-1.633-.163q-6.916-.018-13.832,0a5.666,5.666,0,0,0-3.069.747,5.208,5.208,0,0,0-2.584,4.058C2.37,42.8,2.438,43.9,2.416,45a2.816,2.816,0,0,1-.058.622,1.059,1.059,0,0,1-1,.84,1.094,1.094,0,0,1-1.181-.675,2.187,2.187,0,0,1-.154-.752c-.019-.92-.031-1.837,0-2.754a7.773,7.773,0,0,1,3.1-6.172,7.535,7.535,0,0,1,5.016-1.626c.187.007.375,0,.656,0m22.827,6.051A11.137,11.137,0,0,0,28.2,41.7a10.01,10.01,0,0,0-5.422,8.952c-.046,2.135-.01,4.272-.01,6.407v.327H23.3c2.363,0,4.728,0,7.094.014a.8.8,0,0,0,.658-.276,5.924,5.924,0,0,1,.564-.533,15.158,15.158,0,0,1,6.071-3.3,20.368,20.368,0,0,1,3.107-.586,12.955,12.955,0,0,1,4.421.377A15.257,15.257,0,0,1,52.434,57a1.325,1.325,0,0,0,1.028.408c2.334-.019,4.671-.019,7-.026h.365c.01-.108.019-.185.019-.262q0-3.429,0-6.856a8.526,8.526,0,0,0-.73-3.367,10.241,10.241,0,0,0-6.6-5.987c-.487-.154-1-.238-1.513-.358-.149.48-.291.934-.427,1.39-.144.487-.269.98-.43,1.46a4.459,4.459,0,0,1-6.935,2.094c-.723-.562-1.426-1.155-2.125-1.748a.354.354,0,0,0-.54-.01c-.718.6-1.431,1.21-2.176,1.779a4.452,4.452,0,0,1-6.107-.7,6.942,6.942,0,0,1-1.22-2.8c-.139-.495-.291-.987-.439-1.486M52.47,16.521v-.358c0-1.018-.007-2.036,0-3.052a9.45,9.45,0,0,0-.735-3.789A10.541,10.541,0,0,0,42.49,2.476a10.334,10.334,0,0,0-7.824,2.5,10.459,10.459,0,0,0-3.578,5.869,15.372,15.372,0,0,0-.245,2.706c-.038.915-.012,1.835-.01,2.752a1.209,1.209,0,0,0,.031.2.831.831,0,0,0,.132.019c3.621,0,7.245.024,10.866-.014a2,2,0,0,0,2-1.729c.038-.226.046-.459.1-.68a1.193,1.193,0,0,1,1.825-.694,1.312,1.312,0,0,1,.567,1.157A1.989,1.989,0,0,0,48.3,16.5c1.371.067,2.752.017,4.174.017m-2.349,2.4c-.533,0-1.033.01-1.53,0a4.511,4.511,0,0,1-2.658-.764c-.288-.211-.564-.437-.848-.656a4.578,4.578,0,0,1-3.616,1.422q-3.847,0-7.692,0c-.2,0-.31.024-.307.269.012,1.477,0,2.954.017,4.431a8.973,8.973,0,0,0,.54,3.432,8.208,8.208,0,0,0,5.362,4.92,8.425,8.425,0,0,0,4.553.079,7.933,7.933,0,0,0,4.5-2.98,7.361,7.361,0,0,0,1.645-4.435q.032-2.738.055-5.475a2.065,2.065,0,0,0-.019-.238m25.452,8.345a7.037,7.037,0,1,0-6.681,7.2,6.967,6.967,0,0,0,6.681-7.2m-53.467.173a6.917,6.917,0,0,0-7-7.034,7.034,7.034,0,1,0-.046,14.067,6.935,6.935,0,0,0,7.041-7.034m16.639,6.89a.789.789,0,0,0-.029.161c0,1.145-.029,2.3.031,3.439A3.033,3.033,0,0,0,42.7,40.617a2.993,2.993,0,0,0,2.2-3c.012-1.025,0-2.053,0-3.081a1,1,0,0,0-.031-.183,11.855,11.855,0,0,1-6.126-.024m.492,8.225a.452.452,0,0,0-.058-.079.725.725,0,0,0-.1-.07,5.341,5.341,0,0,1-2.476-3.031c-.067-.2-.163-.2-.334-.151-.66.192-1.318.389-1.986.545-.274.062-.307.17-.24.408.2.689.408,1.376.557,2.075a2.147,2.147,0,0,0,3.518,1.234c.353-.319.732-.61,1.117-.932m5.12,0c.454.365.881.737,1.338,1.069a2.134,2.134,0,0,0,3.28-1.181c.13-.49.274-.975.4-1.465.082-.3.158-.615.214-.927a.272.272,0,0,0-.122-.228c-.716-.207-1.436-.394-2.156-.591-.178-.05-.262,0-.324.187A5.167,5.167,0,0,1,44.5,42.415a.817.817,0,0,0-.144.13M31.031,18.918c-.487,0-.944,0-1.4,0a1.431,1.431,0,1,0-.01,2.862c.408,0,.816,0,1.222-.022a.266.266,0,0,0,.178-.192c.012-.864.01-1.731.01-2.651m21.548,1.424h.014c0,.4,0,.8,0,1.2,0,.173.048.255.238.247.411-.01.819.007,1.227,0a1.418,1.418,0,0,0,1.393-1.429,1.444,1.444,0,0,0-1.4-1.431c-.408-.01-.816.007-1.225,0-.2-.007-.257.072-.25.259.01.389,0,.778,0,1.167" transform="translate(0 0)" fill="#7d3a1b"/>
            <path id="Path_892657" data-name="Path 892657" d="M31.168,29.311a4.172,4.172,0,0,1-1.21,3.038c-2.075,2.089-4.166,4.159-6.241,6.248a4.08,4.08,0,0,1-2.766,1.251,3.658,3.658,0,0,1-2.781-.968,44.911,44.911,0,0,1-3.432-3.465,4.033,4.033,0,0,1,2.226-6.505,3.862,3.862,0,0,1,3.595.905c.19.163.283.13.437-.026,1.04-1.049,2.092-2.084,3.131-3.134a4.284,4.284,0,0,1,2.754-1.3,3.837,3.837,0,0,1,2.5.766,4.009,4.009,0,0,1,1.789,3.189M17.881,31.29a1.526,1.526,0,0,0-1.645,1.671,1.623,1.623,0,0,0,.456,1.1c.937.939,1.859,1.895,2.814,2.812a1.663,1.663,0,0,0,2.565-.024c.61-.588,1.2-1.2,1.8-1.8,1.472-1.474,2.934-2.961,4.421-4.426a1.823,1.823,0,0,0-.019-2.317,1.718,1.718,0,0,0-2.344-.07c-.771.807-1.583,1.575-2.375,2.363-.622.62-1.23,1.256-1.863,1.861a1.177,1.177,0,0,1-1.859-.022,8.855,8.855,0,0,1-.656-.653,1.452,1.452,0,0,0-1.3-.5" transform="translate(19.326 35.519)" fill="#7d3a1b"/>
          </g>
        </g>
      </g>
    </g>
  </g>
</svg>
