<svg xmlns="http://www.w3.org/2000/svg" xmlns:xlink="http://www.w3.org/1999/xlink" width="139" height="139" viewBox="0 0 139 139">
  <defs>
    <clipPath id="clip-path">
      <rect id="Rectangle_400938" data-name="Rectangle 400938" width="139" height="139" transform="translate(-0.043 -0.043)" fill="none"/>
    </clipPath>
    <clipPath id="clip-path-2">
      <rect id="Rectangle_401073" data-name="Rectangle 401073" width="105.872" height="47.68" fill="#7d3a1b"/>
    </clipPath>
    <clipPath id="clip-path-3">
      <rect id="Rectangle_402307" data-name="Rectangle 402307" width="75" height="75" transform="translate(1174.5 7463.5)" fill="#6a4d23" stroke="#707070" stroke-width="1"/>
    </clipPath>
    <clipPath id="clip-path-4">
      <rect id="Rectangle_405172" data-name="Rectangle 405172" width="68.865" height="69.5" fill="#6a4d23" stroke="#6a4d23" stroke-width="0.5"/>
    </clipPath>
  </defs>
  <g id="Group_1101963" data-name="Group 1101963" transform="translate(-1150 -8149.881)">
    <g id="Group_1100482" data-name="Group 1100482" transform="translate(0 720)">
      <g id="Group_1099530" data-name="Group 1099530" transform="translate(885.043 2145.924)">
        <g id="Group_1099379" data-name="Group 1099379" transform="translate(265 5284)">
          <rect id="Rectangle_401103" data-name="Rectangle 401103" width="139" height="139" transform="translate(-0.043 -0.043)" fill="none"/>
          <g id="Group_1099348" data-name="Group 1099348" transform="translate(0)">
            <g id="Group_1099282" data-name="Group 1099282">
              <g id="Group_1099281" data-name="Group 1099281" clip-path="url(#clip-path-2)">
                <path id="Path_873375" data-name="Path 873375" d="M85.879,10.449c-4.752,0-7.21-2.33-9.379-4.386C74.371,4.047,72.538,2.3,68.7,2.3s-5.668,1.742-7.8,3.758c-2.17,2.056-4.624,4.386-9.379,4.386s-7.21-2.33-9.379-4.386C40.018,4.047,38.184,2.3,34.349,2.3s-5.668,1.742-7.794,3.758c-2.17,2.056-4.627,4.386-9.379,4.386S9.963,8.119,7.794,6.063C5.668,4.047,3.835,2.3,0,2.3V0C4.752,0,7.21,2.334,9.379,4.386c2.129,2.02,3.963,3.758,7.8,3.758s5.668-1.738,7.794-3.755C27.136,2.334,29.6,0,34.349,0s7.213,2.334,9.379,4.386c2.129,2.02,3.963,3.758,7.8,3.758s5.668-1.738,7.8-3.758C61.489,2.334,63.951,0,68.7,0s7.213,2.334,9.379,4.386c2.129,2.02,3.963,3.758,7.8,3.758s5.668-1.738,7.8-3.758C95.843,2.334,98.3,0,103.056,0V2.3c-3.835,0-5.668,1.742-7.8,3.758-2.169,2.056-4.627,4.386-9.379,4.386" transform="translate(2.816 37.231)" fill="#7d3a1b"/>
                <path id="Path_873376" data-name="Path 873376" d="M85.879,10.449c-4.752,0-7.213-2.33-9.379-4.39C74.371,4.043,72.538,2.3,68.7,2.3s-5.668,1.738-7.8,3.755c-2.166,2.06-4.624,4.39-9.379,4.39s-7.213-2.33-9.379-4.39C40.018,4.043,38.184,2.3,34.349,2.3s-5.668,1.742-7.794,3.755c-2.17,2.06-4.627,4.39-9.379,4.39s-7.213-2.33-9.383-4.39C5.668,4.043,3.835,2.3,0,2.3V0C4.752,0,7.213,2.33,9.379,4.386c2.129,2.02,3.963,3.758,7.8,3.758s5.668-1.738,7.794-3.758C27.136,2.33,29.6,0,34.349,0s7.213,2.33,9.383,4.386c2.126,2.02,3.959,3.758,7.794,3.758s5.668-1.738,7.8-3.758C61.489,2.33,63.951,0,68.7,0s7.213,2.33,9.379,4.386c2.129,2.02,3.963,3.758,7.8,3.758s5.668-1.738,7.8-3.758C95.846,2.33,98.3,0,103.059,0V2.3c-3.835,0-5.672,1.742-7.8,3.755-2.169,2.06-4.628,4.39-9.379,4.39" transform="translate(1.877 24.821)" fill="#7d3a1b"/>
                <path id="Path_873377" data-name="Path 873377" d="M85.879,10.449c-4.752,0-7.213-2.33-9.379-4.39C74.371,4.043,72.538,2.3,68.7,2.3s-5.668,1.738-7.8,3.755c-2.166,2.06-4.627,4.39-9.379,4.39s-7.213-2.33-9.379-4.39C40.018,4.043,38.184,2.3,34.349,2.3s-5.668,1.742-7.794,3.755c-2.169,2.06-4.627,4.39-9.379,4.39s-7.213-2.33-9.383-4.39C5.668,4.043,3.835,2.3,0,2.3V0C4.752,0,7.213,2.33,9.379,4.386c2.126,2.02,3.963,3.758,7.8,3.758s5.668-1.738,7.794-3.758C27.136,2.33,29.6,0,34.349,0s7.213,2.33,9.383,4.386c2.126,2.02,3.959,3.758,7.794,3.758s5.668-1.738,7.8-3.758C61.489,2.33,63.951,0,68.7,0s7.213,2.33,9.379,4.386c2.129,2.02,3.963,3.758,7.8,3.758s5.668-1.738,7.8-3.758C95.846,2.33,98.3,0,103.059,0V2.3c-3.835,0-5.672,1.742-7.8,3.755-2.169,2.06-4.627,4.39-9.379,4.39" transform="translate(0.939 12.41)" fill="#7d3a1b"/>
                <path id="Path_873378" data-name="Path 873378" d="M85.879,10.445c-4.752,0-7.21-2.33-9.379-4.386C74.371,4.043,72.538,2.3,68.7,2.3s-5.668,1.738-7.794,3.755c-2.169,2.056-4.627,4.386-9.383,4.386s-7.21-2.33-9.379-4.386C40.018,4.043,38.184,2.3,34.349,2.3s-5.668,1.738-7.794,3.751c-2.166,2.06-4.627,4.39-9.379,4.39S9.963,8.115,7.794,6.059C5.668,4.043,3.835,2.3,0,2.3V0C4.752,0,7.213,2.33,9.379,4.386c2.129,2.016,3.963,3.755,7.8,3.755S22.845,6.4,24.971,4.386C27.14,2.33,29.6,0,34.349,0s7.21,2.33,9.383,4.386c2.126,2.016,3.959,3.755,7.794,3.755s5.668-1.738,7.8-3.755C61.493,2.33,63.951,0,68.7,0s7.21,2.33,9.379,4.386c2.129,2.016,3.963,3.755,7.8,3.755s5.668-1.738,7.8-3.755C95.846,2.33,98.3,0,103.059,0V2.3c-3.839,0-5.672,1.738-7.8,3.755-2.169,2.056-4.627,4.386-9.379,4.386" transform="translate(0 0.004)" fill="#7d3a1b"/>
              </g>
            </g>
          </g>
          <path id="Path_873425" data-name="Path 873425" d="M57.977,0A57.977,57.977,0,1,1,0,57.977,57.977,57.977,0,0,1,57.977,0Z" transform="translate(17.221 20.665)" fill="#ffb937"/>
          <circle id="Ellipse_11503" data-name="Ellipse 11503" cx="60.5" cy="60.5" r="60.5" transform="translate(8.957 8.957)" fill="#fff"/>
        </g>
      </g>
      <g id="Mask_Group_1098714" data-name="Mask Group 1098714" transform="translate(9.5 -0.5)" clip-path="url(#clip-path-3)">
        <g id="Group_1102882" data-name="Group 1102882" transform="translate(1178.234 7466.5)">
          <g id="Group_1102881" data-name="Group 1102881" transform="translate(0 0)" clip-path="url(#clip-path-4)">
            <path id="Path_892956" data-name="Path 892956" d="M56.307,53.265v.243c0,3.576-.018,7.153.006,10.731a5.238,5.238,0,0,1-5.281,5.255q-22.814.012-45.627,0A5.325,5.325,0,0,1,0,64.038Q0,35.19,0,6.343A7.821,7.821,0,0,1,.336,3.525,5.18,5.18,0,0,1,4.726.048,5.7,5.7,0,0,1,5.575,0Q28.25,0,50.928,0a5.244,5.244,0,0,1,4.521,2.345,4.968,4.968,0,0,1,.861,2.93q0,12.6-.008,25.2a1.183,1.183,0,0,0,.33.873,10.675,10.675,0,0,1,2,3.133,11.361,11.361,0,0,1,.837,6.415,12,12,0,0,1-1.408,4.016,1.025,1.025,0,0,0-.052.117c.873.875,1.742,1.742,2.608,2.61.036.036.072.07.109.1.269.269.269.269.575.034a.761.761,0,0,1,1.044.064c.432.406.847.833,1.265,1.253q2.03,2.03,4.056,4.062a3.984,3.984,0,0,1,1.2,2.811,3.883,3.883,0,0,1-1.2,2.932,3.98,3.98,0,0,1-3.795,1.116,3.885,3.885,0,0,1-1.949-1.078q-2.513-2.5-5.016-5.016c-.205-.205-.388-.428-.6-.664m-1.617-34.99c.006-.121.01-.163.01-.2q0-6.507,0-13.014a3.02,3.02,0,0,0-.42-1.581,3.47,3.47,0,0,0-3.131-1.818q-12.208,0-24.416,0-10.869,0-21.735,0a3.082,3.082,0,0,0-1.88.662A3.656,3.656,0,0,0,1.641,5.478c.026,4.656.014,9.311.008,13.967,0,.229.066.276.28.274q3.333-.009,6.669,0c5.482,0,10.964-.006,16.444.01A1.075,1.075,0,0,0,26,19.288c1.092-1.351,2.22-2.675,3.332-4.008q2.106-2.522,4.211-5.042a1.1,1.1,0,0,1,.382-.306.709.709,0,0,1,.889.257Q36.334,12,37.838,13.808c.062.074.127.143.2.225.086-.109.155-.193.223-.276q2.751-3.3,5.5-6.608c.609-.734,1.046-.744,1.655-.014l8.34,10.017c.3.356.6.714.937,1.122M13.172,35.515c-.267-.084-.521-.167-.776-.243A5.177,5.177,0,0,1,8.78,30.343a4.892,4.892,0,0,1,.738-2.618,5.07,5.07,0,0,1,6.025-2.285,5.043,5.043,0,0,1,3.6,4.456,4.832,4.832,0,0,1-.957,3.443,5.169,5.169,0,0,1-3.192,2.094c-.171.042-.205.113-.2.269.006.786,0,1.571,0,2.357,0,.064.012.127.02.207,2.1,0,4.175,0,6.256-.006a.262.262,0,0,0,.2-.109c.483-.837.957-1.677,1.454-2.55-.159-.01-.3-.022-.45-.028-.241-.01-.485,0-.724-.024a.789.789,0,0,1-.64-1.114,4.237,4.237,0,0,1,.231-.444q1.647-2.881,3.3-5.758c.3-.521.587-1.05.909-1.557a.738.738,0,0,1,1.275-.056,3.794,3.794,0,0,1,.308.485q1.059,1.849,2.112,3.7c.686,1.2,1.376,2.405,2.045,3.616a.789.789,0,0,1-.615,1.138,6.749,6.749,0,0,1-.7.014c-.147,0-.294,0-.448,0a.5.5,0,0,0,.014.1q.676,1.2,1.353,2.4a.343.343,0,0,0,.34.2c1.637-.008,3.274,0,4.913-.006.064,0,.131-.008.2-.012.545-4.438,2.693-7.807,6.755-9.729,4.082-1.933,8.04-1.416,11.787,1.044v-8.2h-.338l-33.868,0q-9.2,0-18.4,0c-.416,0-.418,0-.418.292q0,8.1,0,16.2v.4H13.172ZM32.245,56.9H54.7v-.316c0-1.782-.038-3.562.018-5.341a1.932,1.932,0,0,0-.74-1.8.355.355,0,0,0-.432-.07c-.734.332-1.468.672-2.226.947a9.575,9.575,0,0,1-3.34.571,11.929,11.929,0,0,1-4.9-1.056,11.657,11.657,0,0,1-4.34-3.354,11.924,11.924,0,0,1-2.546-6.192c-.024-.217-.032-.356-.348-.356q-10.166.021-20.332.01-6.781,0-13.563,0c-.229,0-.294.06-.292.3.008,3.194,0,6.385,0,9.579V50.3H4.923c.778,0,1.078.294,1.086,1.066,0,.372,0,.744,0,1.122H8.772c0-.368,0-.718,0-1.068A.991.991,0,0,1,9.9,50.3q1.879,0,3.759,0a1,1,0,0,1,1.13,1.122c0,.356,0,.712,0,1.064H17.54c0-.452,0-.887,0-1.321a.7.7,0,0,1,.4-.694,1.638,1.638,0,0,1,.642-.165c1.028-.016,2.055-.01,3.085,0,.175,0,.231-.05.225-.227A9.6,9.6,0,0,1,21.906,49a.975.975,0,0,1,.185-.5q2.121-2.685,4.265-5.349a.843.843,0,0,1,1.48.012c1.378,1.713,2.745,3.433,4.123,5.144a1.282,1.282,0,0,1,.29.851c-.008,2.166,0,4.33,0,6.494V56.9M54.7,58.522H1.979c-.042,0-.084,0-.127,0-.171-.024-.209.058-.207.217.008,1.9,0,3.811.022,5.715a3.14,3.14,0,0,0,.157.957,3.629,3.629,0,0,0,3.509,2.441q22.965-.027,45.93-.016a3.2,3.2,0,0,0,.72-.072A3.518,3.518,0,0,0,54.7,64.35c0-1.12,0-2.24,0-3.36V58.522m-16.955-19.2A10.13,10.13,0,0,0,58,39.067a10.13,10.13,0,1,0-20.257.257M53.8,19.69c-3.087-3.7-6.128-7.352-9.191-11.027-.1.113-.181.189-.249.269q-.437.516-.871,1.036-2.142,2.57-4.288,5.136c-.123.145-.113.219,0,.352,1.1,1.309,2.21,2.616,3.29,3.946a.789.789,0,0,0,.692.322q5.05-.012,10.1-.01c.145,0,.292-.014.515-.024M19.2,51.972v1.064c0,.76-.348,1.1-1.1,1.1-1.1-.006-2.206-.008-3.308-.012-.31,0-.619.01-.927-.008a.621.621,0,0,1-.64-.557,2.21,2.21,0,0,1-.042-.446c-.006-.372,0-.746,0-1.138H10.377v.668c0,.217.006.434,0,.652-.016.553-.245.8-.79.831-.332.018-.668,0-1,0-1.11,0-2.222.008-3.332,0a.779.779,0,0,1-.839-.67,2.406,2.406,0,0,1-.05-.5c-.008-.33,0-.66,0-.983-.833,0-1.625.008-2.417,0-.211,0-.288.042-.288.273.008,1.5,0,3.009,0,4.513,0,.046.012.095.016.141H21.886a.737.737,0,0,0,.016-.1c0-1.544-.012-3.091-.012-4.635,0-.167-.074-.191-.215-.189-.81,0-1.619,0-2.472,0M40.676,19.7c-2.176-2.61-4.314-5.178-6.472-7.771l-6.425,7.708.034.062ZM30.62,56.915V49.784h-.336q-3.246.006-6.492,0c-.189,0-.251.036-.251.247q.009,3.3-.016,6.592c0,.231.05.3.286.294,2.188-.008,4.376-.006,6.564-.006h.245m27.688-3.849q1.563,1.572,3.127,3.141c.633.631,1.247,1.285,1.919,1.87a2.472,2.472,0,0,0,3.328-3.64c-1.557-1.573-3.131-3.129-4.694-4.7-.155-.157-.259-.141-.408.01-.774.784-1.563,1.557-2.339,2.339-.318.318-.619.648-.933.977M14.823,33.836a3.557,3.557,0,0,0,2.665-4.095,3.584,3.584,0,0,0-7.1.871c.066,1.512,1.613,3.258,2.781,3.22.064-.656.282-.931.756-.969.454-.036.722.251.9.973M26,28.7l-2.974,5.211c.159.01.292.022.422.024.217,0,.434-.016.65,0a.821.821,0,0,1,.674,1.3c-.354.623-.716,1.243-1.072,1.866-.215.372-.426.748-.652,1.142h5.89c-.121-.223-.223-.42-.334-.613-.465-.81-.937-1.617-1.394-2.433a.745.745,0,0,1,.237-1.11,1.511,1.511,0,0,1,.642-.159c.269-.024.541-.006.891-.006C27.97,32.153,27,30.447,26,28.7M55.262,48.418c.837.831,1.762,1.752,2.679,2.663l1.921-1.919c-.925-.915-1.85-1.828-2.685-2.653l-1.915,1.908m-25.5-.308c-.9-1.128-1.77-2.212-2.667-3.33-.907,1.13-1.774,2.212-2.669,3.33Zm26.552,3.735v1.022c.523-.6.521-.748,0-1.022" transform="translate(0 0)" fill="#6a4d23" stroke="#6a4d23" stroke-width="0.5"/>
            <path id="Path_892957" data-name="Path 892957" d="M16.624,3.827H12.516c-.109,0-.217,0-.326-.01a.722.722,0,0,1-.726-.666.7.7,0,0,1,.39-.814,1.57,1.57,0,0,1,.644-.163c2.747-.01,5.494-.006,8.241-.006a1.124,1.124,0,0,1,.784.276.77.77,0,0,1,.247.835.806.806,0,0,1-.738.547c-.442.008-.885,0-1.327,0C18.677,3.829,17.652,3.827,16.624,3.827Z" transform="translate(11.571 2.19)" fill="#6a4d23" stroke="#6a4d23" stroke-width="0.5"/>
            <path id="Path_892958" data-name="Path 892958" d="M18.939,2.067a1.117,1.117,0,0,1,1.07,1.052,1.225,1.225,0,0,1-1.086,1.1,1.116,1.116,0,0,1-1.09-1.12.988.988,0,0,1,1.106-1.028" transform="translate(18.029 2.09)" fill="#6a4d23" stroke="#6a4d23" stroke-width="0.5"/>
            <path id="Path_892959" data-name="Path 892959" d="M16.586,35.923c-.776,0-1.555.016-2.331,0a2.935,2.935,0,0,1-2.779-2.574,2.991,2.991,0,0,1,2.9-3.391c1.526-.06,3.061-.086,4.583.006A2.98,2.98,0,0,1,21.8,33a2.942,2.942,0,0,1-2.807,2.92c-.8.016-1.6,0-2.405,0m.01-4.332V31.6c-.744,0-1.486.01-2.23,0a1.248,1.248,0,0,0-.917.384,1.355,1.355,0,0,0-.314,1.454,1.233,1.233,0,0,0,1.211.877c1.512,0,3.023.01,4.535-.008a1.432,1.432,0,0,0,.706-.205,1.408,1.408,0,0,0,.531-1.575,1.384,1.384,0,0,0-1.267-.927c-.752-.01-1.5,0-2.254,0" transform="translate(11.575 30.23)" fill="#6a4d23" stroke="#6a4d23" stroke-width="0.5"/>
            <path id="Path_892960" data-name="Path 892960" d="M10.064,32.661H7.884a.719.719,0,0,1-.605-.3.735.735,0,0,1,.177-1.144,1.352,1.352,0,0,1,.676-.213c1.319-.018,2.639-.014,3.958-.006a.865.865,0,0,1,.919,1.134.716.716,0,0,1-.74.523c-.734.01-1.47,0-2.2,0v0" transform="translate(7.161 31.335)" fill="#6a4d23" stroke="#6a4d23" stroke-width="0.5"/>
            <path id="Path_892961" data-name="Path 892961" d="M20.963,32.657c-.718,0-1.436.008-2.154,0a.842.842,0,0,1-.841-.71.832.832,0,0,1,.607-.869,1.38,1.38,0,0,1,.44-.076q1.967-.009,3.932,0a.9.9,0,0,1,.987.921.749.749,0,0,1-.77.734c-.734.016-1.468,0-2.2,0" transform="translate(18.158 31.337)" fill="#6a4d23" stroke="#6a4d23" stroke-width="0.5"/>
          </g>
        </g>
      </g>
    </g>
  </g>
</svg>
