<svg xmlns="http://www.w3.org/2000/svg" xmlns:xlink="http://www.w3.org/1999/xlink" width="190" height="134" viewBox="0 0 190 134">
  <defs>
    <clipPath id="clip-path">
      <rect id="Rectangle_402355" data-name="Rectangle 402355" width="87" height="87" transform="translate(342 951)" fill="#fff" stroke="#707070" stroke-width="1"/>
    </clipPath>
    <clipPath id="clip-path-2">
      <rect id="Rectangle_402360" data-name="Rectangle 402360" width="87" height="86.781" transform="translate(-1)" fill="#7d3a1b"/>
    </clipPath>
    <clipPath id="clip-path-3">
      <rect id="Rectangle_405099" data-name="Rectangle 405099" width="82.147" height="81.427" fill="#7d3a1b"/>
    </clipPath>
  </defs>
  <g id="Group_1102533" data-name="Group 1102533" transform="translate(-330 -7019)">
    <rect id="Rectangle_402215" data-name="Rectangle 402215" width="190" height="134" transform="translate(330 7019)" fill="none"/>
    <g id="Group_1100287" data-name="Group 1100287" transform="translate(16 -507)">
      <g id="Grupo_156312" data-name="Grupo 156312" transform="translate(344 7528)">
        <path id="Elipse_5845" data-name="Elipse 5845" d="M65.5,0A65.5,65.5,0,1,1,0,65.5,65.5,65.5,0,0,1,65.5,0Z" transform="translate(0 0)" fill="#ffce73"/>
      </g>
      <g id="Mask_Group_1098715" data-name="Mask Group 1098715" transform="translate(24 6599)" clip-path="url(#clip-path)">
        <g id="Group_1100697" data-name="Group 1100697" transform="translate(343 951.001)" clip-path="url(#clip-path-2)">
          <g id="Group_1102709" data-name="Group 1102709" transform="translate(0.947 3.5)">
            <g id="Group_1102708" data-name="Group 1102708" transform="translate(0 0)" clip-path="url(#clip-path-3)">
              <path id="Path_892666" data-name="Path 892666" d="M38.089,52.112A20.744,20.744,0,1,1,4.948,27.27a20.506,20.506,0,0,1,11.031-6.787A20.188,20.188,0,0,1,28.9,21.546a20.773,20.773,0,0,1,9.808,8.512L39.812,29q3.249-3.114,6.495-6.228c.51-.491,1-1,1.512-1.488a.6.6,0,0,0,.182-.61c-.112-.634-.168-1.281-.231-1.923a16.227,16.227,0,0,1,.275-4.966,16.993,16.993,0,0,1,2.81-6.475,17.178,17.178,0,0,1,8.175-6.24A16.069,16.069,0,0,1,67.907.311,16.873,16.873,0,0,1,80.529,10.27a15.9,15.9,0,0,1,1.317,9.339A17.024,17.024,0,0,1,73.39,32.073a15.907,15.907,0,0,1-6.062,2.042c-.28.036-.559.1-.839.114-.185.012-.219.1-.219.253,0,.182,0,.365,0,.544q0,5.867,0,11.728c0,.248.068.314.316.343a17.133,17.133,0,0,1,12.817,7.861,17.121,17.121,0,0,1,2.438,12.377,17.347,17.347,0,0,1-5.72,9.913,16.119,16.119,0,0,1-4.917,2.873,17.474,17.474,0,0,1-2.584.831,16.3,16.3,0,0,1-4.866.43,18.971,18.971,0,0,1-4.392-.812,16.588,16.588,0,0,1-4.818-2.55,17.439,17.439,0,0,1-5.493-6.845,16.2,16.2,0,0,1-1.378-5.27,19.013,19.013,0,0,1,0-3.719.6.6,0,0,0-.168-.418c-1.383-1.417-2.778-2.822-4.164-4.234q-2.5-2.538-4.983-5.088c-.09-.092-.163-.2-.267-.335m-23.731-9.9a8.43,8.43,0,0,1-1.026-5.35,7.541,7.541,0,0,1,11.745-4.932,7.353,7.353,0,0,1,2.871,3.906,7.561,7.561,0,0,1-.788,6.366A15.641,15.641,0,0,1,35.5,51.568a.766.766,0,0,0,.07-.056,17.309,17.309,0,0,0,3.194-7.567,19.317,19.317,0,0,0-.394-8.017A18.129,18.129,0,0,0,21.83,22.5a18.871,18.871,0,0,0-3.357.073A17.7,17.7,0,0,0,12.52,24.4,18.13,18.13,0,0,0,3.533,34.7a18.5,18.5,0,0,0-.9,7.73,18.066,18.066,0,0,0,2.3,7.4c.331.6.7,1.172,1.082,1.8a15.941,15.941,0,0,1,8.34-9.417M48.825,23.709c-.406.386-.761.727-1.116,1.067q-3.7,3.544-7.394,7.086c-.481.459-.464.44-.248,1.057.35,1.006.681,2.022.984,3.043a16.109,16.109,0,0,1,.566,4.4,19.822,19.822,0,0,1-.559,5.071,19.611,19.611,0,0,1-1.434,4.033.541.541,0,0,0,.112.749q2.009,2.016,3.989,4.067c1.507,1.556,3,3.121,4.545,4.723.151-.343.306-.656.435-.98a17.053,17.053,0,0,1,7.066-8.437A17.519,17.519,0,0,1,63.164,47.1c.263-.029.277-.136.277-.34q-.007-6.045,0-12.093c0-.211-.049-.289-.275-.316a17.96,17.96,0,0,1-6.412-1.942,17.109,17.109,0,0,1-7.506-7.854c-.126-.26-.26-.518-.423-.843m28.583.895a14.788,14.788,0,0,0-2.382-18.07A14.906,14.906,0,0,0,55.554,5.68,14.879,14.879,0,0,0,52.138,24.66a2.8,2.8,0,0,0,.219-.241,16.162,16.162,0,0,1,7.876-5.936,1.031,1.031,0,0,1,1.174.226,8.468,8.468,0,0,1,.7.831c.846,1.157,1.682,2.321,2.521,3.483a1.037,1.037,0,0,0,.1.085c.219-.277.43-.532.632-.795.841-1.1,1.672-2.2,2.518-3.3a1.278,1.278,0,0,1,1.527-.5,24.923,24.923,0,0,1,2.436,1.062,15.778,15.778,0,0,1,5.335,4.757c.068.092.151.175.233.27M76.288,73.17A14.539,14.539,0,0,0,74.81,53.413a14.865,14.865,0,0,0-21.816,1.8,14.316,14.316,0,0,0-2.7,11.928,14.484,14.484,0,0,0,2.88,6.121c.015-.168.027-.243.027-.321q.007-2.377.015-4.755a3.881,3.881,0,0,1,.535-2.146,4.025,4.025,0,0,1,3.58-1.947q5.1-.007,10.209,0c1.7,0,3.4-.08,5.088.049a3.9,3.9,0,0,1,3.646,3.911c.041,1.585.01,3.172.01,4.757ZM21.4,58.85a14.622,14.622,0,0,0,4.366-.639,17.2,17.2,0,0,0,7.093-3.965,1.03,1.03,0,0,0,.369-1.155,12.773,12.773,0,0,0-3.969-6.614,12.122,12.122,0,0,0-3.644-2.236.72.72,0,0,0-.758.112,6.266,6.266,0,0,1-2.141,1.021,7,7,0,0,1-5.771-.882,1.347,1.347,0,0,0-1.456-.09,14.022,14.022,0,0,0-3.041,1.964,12.631,12.631,0,0,0-4.205,7.039.593.593,0,0,0,.2.615,17.335,17.335,0,0,0,5.508,3.556A18.337,18.337,0,0,0,21.4,58.85M71.157,77.416c.809-.5,1.565-.977,2.329-1.437a.453.453,0,0,0,.25-.462c-.024-.717-.034-1.434-.036-2.151,0-1.806.007-3.615-.01-5.423a1.25,1.25,0,0,0-1.313-1.283c-.566-.01-1.13,0-1.7,0q-6.771,0-13.544,0a1.314,1.314,0,0,0-1.388,1.133,3.327,3.327,0,0,0-.053.661q0,3.544.015,7.09a.523.523,0,0,0,.182.372c.664.423,1.342.822,2.018,1.223a3.725,3.725,0,0,0,.4.187c.007-.109.015-.177.015-.243q-.007-2.348-.017-4.7a3.769,3.769,0,0,1,.036-.574,1.2,1.2,0,0,1,1.174-1.021,1.178,1.178,0,0,1,1.266.9,3.622,3.622,0,0,1,.078.812q0,2.694-.017,5.394c0,.233.039.36.306.416a17.28,17.28,0,0,0,4.757.321,19.586,19.586,0,0,0,2.129-.263c.52-.092.513-.129.493-.637,0-.1,0-.2,0-.3,0-1.646,0-3.294,0-4.939a3.94,3.94,0,0,1,.056-.632,1.168,1.168,0,0,1,.868-1.018,1.254,1.254,0,0,1,1.417.421,1.44,1.44,0,0,1,.248.977c0,1.626-.012,3.252-.017,4.878a2.249,2.249,0,0,0,.053.3m-6.427-45.6a12.976,12.976,0,0,0,4.417-.639,14.425,14.425,0,0,0,6.582-4.14.314.314,0,0,0,.051-.45,13.068,13.068,0,0,0-6.023-5.323.335.335,0,0,0-.479.129c-.36.5-.732.992-1.1,1.488-.744,1.006-1.475,2.02-2.231,3.019a1.259,1.259,0,0,1-2.163.017c-.088-.109-.175-.221-.258-.335-1.021-1.378-2.044-2.754-3.053-4.142a.363.363,0,0,0-.552-.134c-.406.219-.834.4-1.237.63A12.947,12.947,0,0,0,54,26.444a.475.475,0,0,0,.07.681A14.494,14.494,0,0,0,64.73,31.818M20.765,43.107a5.011,5.011,0,0,0,.01-10.022,4.871,4.871,0,0,0-5.029,5.007,5,5,0,0,0,5.019,5.015" transform="translate(0.001 0.001)" fill="#7d3a1b"/>
              <path id="Path_892667" data-name="Path 892667" d="M30.272,14.373a6.175,6.175,0,0,1-6.113-6.225,6.213,6.213,0,0,1,6.108-6.281,6.114,6.114,0,0,1,6.157,6.262,6.244,6.244,0,0,1-6.152,6.245m-3.58-6.262a3.615,3.615,0,1,0,7.227.073,3.729,3.729,0,0,0-3.663-3.811,3.612,3.612,0,0,0-3.563,3.738" transform="translate(34.565 2.672)" fill="#7d3a1b"/>
              <path id="Path_892668" data-name="Path 892668" d="M30.023,32.668a5.751,5.751,0,1,1,5.792-5.661,5.784,5.784,0,0,1-5.792,5.661m-.1-2.545a3.2,3.2,0,1,0,.061-6.4,3.2,3.2,0,1,0-.061,6.4" transform="translate(34.793 30.282)" fill="#7d3a1b"/>
            </g>
          </g>
        </g>
      </g>
    </g>
  </g>
</svg>
